<svg xmlns="http://www.w3.org/2000/svg" viewBox="0 0 535 572"><defs><style>.cls-1{fill:tan;}.cls-11,.cls-2{fill:#466e35;}.cls-2,.cls-3{stroke:#466e35;stroke-miterlimit:10;}.cls-2{opacity:0.28;}.cls-3{fill:none;}.cls-4,.cls-5{fill:#987554;}.cls-5{opacity:0.59;}.cls-6{fill:#7a5d46;}.cls-7{fill:#544132;}.cls-8{fill:#e5c6a1;}.cls-9{opacity:0.34;}.cls-10{fill:#4f3b2e;}.cls-12{fill:#1d1b17;}.cls-13{fill:#dddddb;}</style></defs><title>abandono</title><g id="abandono"><path class="cls-1" d="M205,341.1l3.07,0c2.72,1.88,4,4.83,5.56,7.57,6.95,12.3,14,24.52,21,36.8,1.69,3,3.68,4.07,7.11,4.05,35.12-.23,70.23.17,105.34-.25,7.66-.1,15.31.27,23,.18,1.85,0,3.7-.06,5,1.56L375,532.9c1.73,3,.46,4.65-2.54,5.43a23.5,23.5,0,0,1-5.92.42q-23.83,0-47.66,0c-2.62,0-5.32.24-7.73-1.22-2-1.94-1.82-4.53-1.86-7-.1-6.47-.09-12.94,0-19.41,0-3.61-1-5.55-5.1-5.47-8.62.16-17.25.13-25.88,0-4.14-.05-5.56,1.78-5.51,5.7q.12,9.45,0,18.91c0,2.46.2,5-1.65,7.09-2,1.42-4.4,1.35-6.71,1.36q-25.37.06-50.73,0c-2.15,0-4.33,0-6.29-1.1-2.72-2.5-2-5.84-2-8.91q-.09-48.17,0-96.32,0-38.17,0-76.36a18,18,0,0,0-.41-5.89,14.05,14.05,0,0,0-2.68,4.24c-5.72,10.71-11.49,21.39-17.41,32-2.47,4.43-5.85,6.57-10.9,6.29-6.28-.36-12.63.74-18.87-.73-1.23-2.91-.67-3.91,2.95-4.27a68.71,68.71,0,0,1,13.9-.07c4.83.49,7-1.68,9.17-5.64,6.24-11.5,13-22.67,18.57-34.55C200.77,344.94,202.22,342.36,205,341.1Z"/><path class="cls-2" d="M265,217.74c-2.45-5.49-4.7-9.91-6.4-14.54-1.24-3.37-3.1-4.76-6.74-5.42-34.69-6.22-57.72-26.31-68.88-59.61-14.08-42,10.19-90.1,51.82-105.55,36.3-13.47,76.63-1.1,98.7,28.5,15.83,21.23,21.29,45.17,15,71.15-8.13,33.5-29.26,55.35-62.43,63.63-10.72,2.68-15.82,7.48-18.64,16.91A37,37,0,0,1,265,217.74Z"/><path class="cls-3" d="M265.13,217.9c-2.45-5.49-4.69-9.91-6.4-14.54-1.24-3.37-3.1-4.76-6.74-5.42-34.69-6.22-57.72-26.31-68.88-59.6C169,96.32,193.3,48.23,234.94,32.78c36.3-13.46,76.62-1.1,98.69,28.5,15.83,21.23,21.3,45.17,15,71.15-8.12,33.51-29.26,55.35-62.43,63.63-10.72,2.68-15.82,7.48-18.64,16.92A37.64,37.64,0,0,1,265.13,217.9Z"/><path class="cls-1" d="M324,291.86c-4.13.26-3.75,3.61-3.92,6.19-.56,8.46-1.87,16.81-3.2,25.16a54,54,0,0,1-6,16.79,2.63,2.63,0,0,1-1.54,1.88c-2.23.6-4.42.89-6.41-.7A207.34,207.34,0,0,1,309.58,307c-3.46,11-4.8,22.47-7.15,33.72-1.88,2.07-3.85,1.51-5.86.23-1-1.44-.95-3.13-1.1-4.78a65.6,65.6,0,0,0-9.56-28.61c-3.67-6-9-9.78-16.43-9.45a27.8,27.8,0,0,1-4-.29c-11.13-1.08-19.51,4.62-22.38,15.44-1.87,7.08-2.31,14.44-3.74,21.61-.48,2.41-.5,5-2.64,6.81a4.71,4.71,0,0,1-4.94-.31c-2.07-3.57-2.41-7.51-2.28-11.51a107.87,107.87,0,0,0-1.2-16.86,75.87,75.87,0,0,0-3-14.61,116.06,116.06,0,0,1,4.08,33.15c-.1,3.33,2.41,6.86-.5,10.05-2.48,1.06-4.88,1.43-7-.71-6.27-14.09-7.65-29.17-9-44.26-.11-1.28.25-2.68-.92-3.69a3.08,3.08,0,0,1-1-1.3c-1.18-10.52-.4-20.76,4-30.59,3.69-8.3,6.88-16.85,12.69-24a20.24,20.24,0,0,1,6.44-5c6.33-2.12,12.77-2.41,19.47-2.39a59.41,59.41,0,0,1,16.85,2.5,21.88,21.88,0,0,0,8.6.18c8.15-1.47,14.65,3.85,22.2,3.94A12.88,12.88,0,0,1,309,242a104.81,104.81,0,0,1,14.32,31.57C324.88,279.65,324.38,285.75,324,291.86Z"/><path class="cls-4" d="M221.87,340.83l7.35,0a1.91,1.91,0,0,1,2.67.06h5.22c1.86-1.81,4.24-1.73,6.55-1.74q23.39-.07,46.78,0c2.32,0,4.68,0,6.54,1.78,1.71-1,3.44.34,5.15-.07.25-.4.5-.41.75,0l7.1.07c2.11,1.71,4.64,1.38,7.11,1.55,6.05.4,12.23-1.17,18.16,1.15,4.66,4.13,4.66,4.13,9.61-.08a11.09,11.09,0,0,1,5.8-1.1c8.06.14,16.11-.14,24.16-.5L390,368c.75,1.8.29,4.32,2.94,5l8.37,14.91c-5.29,2.7-10,1.18-11.25-3.84-.28-1.14.16-1.29-.69-.27-1.43,1.72-3.54,1.62-5.5,1.86-4.13.49-8.25,1-12.06,2.84a11,11,0,0,1-6.34,1c-14.1-1.93-28.19.78-42.28,0-2.65-.14-5.32.28-7.94-.45-7.6-4-15.19-3.71-22.76.11a88.69,88.69,0,0,1-17,0,39.41,39.41,0,0,0-30.2-.26c-7.51,1.31-8.85.54-11.33-6.48-.28-1.87-.49-3.8-2.69-4.56-3.55-2.93-4.93-7.09-6.39-11.21-.12-2.1-.74-3.92-2.82-4.91-2.87-3-6.1-5.83-5.86-10.57,1.16-4.42,3.31-7.49,8.94-5.54-.81-1.7-2.06-1.44-2.75-2.1a1.87,1.87,0,0,1-.45-2.66Z"/><path class="cls-4" d="M205,341.1c-8.24,15.12-16.51,30.22-24.69,45.37-1.18,2.19-2.48,2.85-5.11,2.66-5.63-.41-11.31-.13-17-.17-1.75,0-3.35.19-4.15,2.05,1.92,2,1.78,4.58,1.78,7.06q.06,63.85,0,127.72c0,2.46.23,5.05-1.8,7l-1,.11q0-68.61.15-137.23c0-3.72-1-5-4.79-4.8-6,.28-12,0-18,.1-2.79.05-3.69-.65-2.2-3.38q12.21-22.28,24.25-44.64c1-1.81,2.36-2,4.11-2Q180.79,341.06,205,341.1Z"/><path class="cls-5" d="M311,536.9c19.9,0,39.79,0,59.69.14,3.1,0,4.81-.73,4.28-4.14,9.36.62,18.77.94,29.25,4-6.9,3.4-13,3.41-19,3.91-29.22,2.46-58.52,2.87-87.82,3.51-33.49.74-67,.13-100.41-.74-21.94-.57-43.94-.91-65.69-4.58-1.46-.24-3-.22-4.74-2.18,8.82-3.18,17.75-2.85,26.42-3.92l-.1.27c2.6,1.83,5.57,2,8.6,2,12.64,0,25.28,0,37.92,0,2.63,0,5.37-.27,7.59,1.69l64,.06c1.7-1.66,3.87-1.77,6-1.79q13.94-.12,27.87,0C307.12,535.15,309.28,535.28,311,536.9Z"/><path class="cls-6" d="M212,292a4.39,4.39,0,0,0,0,.89c-1,5.65-1.65,11.41-5.1,16.28-1,1.45-1.91,3.55-4,3.22-2.48-.38-1.9-2.69-2-4.45-.26-4.93-3.08-8.73-5.89-12.39-9.3-12.11-9-25.23-4-38.67,2.36-6.34,8-10,13.5-13.49,7.2-4.5,15.25-7.28,22.86-11a10,10,0,0,1,6.84-.44l-5,5.12C219.06,243.35,212.35,252,211,264A87.41,87.41,0,0,0,212,292Z"/><path class="cls-6" d="M317.93,244.14c2.54,1.54,5.07,3.08,7.62,4.6a16.23,16.23,0,0,1,7.44,8.42c4.23,11.72,10.29,22.66,14.42,34.44,1.84,5.22,2.87,9.65-.82,14.43-2,2.59-3,5.9-4.84,8.69-2.91,4.55-5.62,4.65-8.78.19-3.71-5.26-6.33-11-5.1-17.7.28-1.52.35-3-.89-4.15-.32-2.33.34-4.6.49-6.9.58-8.89-.37-17.44-4.71-25.43-2.28-4.21-3.1-9.06-5.49-13.25C316.61,246.32,316.21,245,317.93,244.14Z"/><path class="cls-4" d="M235,381c.73,6,4.34,8,10,7a63.36,63.36,0,0,1,30,0h18a35.61,35.61,0,0,1,22,0c10.77-.39,21.55.62,32.33-.85a44.66,44.66,0,0,1,14.36.61c3.75.71,7.72.78,11.51-1.63,2.34-1.49,5.66-1.6,8.58-2s6.65,1,8.12-3.56c.32-1,3.1-1,4,.25,1.25,1.86-.87,1.85-1.93,2.37-2.4,1.17-1.19,2.41.18,3.21a14.78,14.78,0,0,0,9.18,1.54c2.65,2.57,1.23,3.09-1.51,3.09-8.23,0-16.46,0-24.69.06q-66.82,0-133.65,0c-3.18,0-5.67-.33-7.46-3.5-8.22-14.59-16.63-29.06-24.94-43.6a15.31,15.31,0,0,1-1-2.79l13.84-.27A2.59,2.59,0,0,0,223,343c.26.75-.1,1.57-.7,1.55-4.61-.12-5.11,3-5.3,6.45,0,4.54,3.46,7,6,10,1.91,1.12,2.05,3.3,3,5,1.41,4,2.69,8,6,11C233.77,377.73,234.32,379.41,235,381Z"/><path class="cls-7" d="M317.93,244.14c2.06,5.39,3.49,11.14,6.32,16.09,5.16,9,5,18.69,4.69,28.47a5.18,5.18,0,0,1-2,4.36l-3-1.2c-.88-.8-2.18-1-1.77-3,1.8-8.44,0-16.55-3.25-24.32-4.31-10.42-8.65-20.9-17.74-28.36C308.22,235.82,312.92,240.3,317.93,244.14Z"/><path class="cls-4" d="M336,345c-6.61-1.89-13.37-.63-20.06-1-2.42-.13-5.1.25-5.94-3,.29-.32.58-.64.86-1,1.66,1.68,3.77.93,5.67.94,17.75.06,35.5,0,53.25.09,1.69,0,3.68-.89,5.06,1-7.2,2.34-14.63,2.11-22.05,2a26.33,26.33,0,0,0-8.79,1A6,6,0,0,1,336,345Z"/><path class="cls-4" d="M392.9,373c-4.85.62-3.69-2.3-2.94-5A13.79,13.79,0,0,1,392.9,373Z"/><path class="cls-4" d="M207,536.87c-16.6,0-33.2,0-49.8.1-2.85,0-4.51-.65-4.3-3.78,1.78-1.8,1.08-4.08,1.08-6.16q.06-68,0-136c7,0,14-.21,21,0,3.82.13,6.07-1.14,7.87-4.6,6.45-12.35,13.17-24.56,19.83-36.79a52.24,52.24,0,0,1,3-4.36l1.36.31Z"/><path class="cls-8" d="M311,536.9l-40,0c0-9.29.12-18.59-.08-27.88-.08-3.94,1.41-5.25,5.26-5.19,10.12.18,20.25.2,30.37,0,3.6-.07,4.52,1.29,4.46,4.66C310.88,518,311,527.44,311,536.9Z"/><path class="cls-6" d="M297,341l-59.87,0c1.3-10,2.31-20.09,5-29.8,3-10.67,13-16.69,23.89-14.78,2.53.45,4.89-.35,7.39.21a20.37,20.37,0,0,1,13.44,9.54C293.31,316.77,297.35,328.25,297,341Z"/><path class="cls-6" d="M230,289c-2-.47-2.4,2.16-4.14,2.24a16.47,16.47,0,0,1,8.91-20.35c2.72-1.16,5.23-2.83,7.84-4.26,1.59-.88,3.14-1.85,4.78-2.64,2.47-1.17,5.34-2,7.54-.24,2.51,2.07,1.24,5.29-.08,7.32-3.58,5.54-7.71,10.71-11.62,16a1.82,1.82,0,0,1-1.55-1.22c-.16-.56.36-1.05.15-1.61a2.55,2.55,0,0,1-1.83,1.48c-2.47-.12-4.63-2.49-7.31-1a18.22,18.22,0,0,0-1.72.7C229.54,286.36,230.66,287.93,230,289Z"/><path class="cls-6" d="M290.89,292.08c-1.42-6.67-5.93-12.15-7.26-18.86a12.08,12.08,0,0,1-.57-2.91c.13-2-1.09-4.65,1.32-5.91,2.15-1.12,3.67,1,5.26,2a79.64,79.64,0,0,0,10.84,6.05c5.1,2.24,10.67,7.26,9.52,14.76a42.82,42.82,0,0,0-.05,6.42c-1.8-.06-2.88-1.29-4-2.51a13.94,13.94,0,0,1-2.78-4.22,4.39,4.39,0,0,0-2.3-1.9,8.27,8.27,0,0,0-4.31-.51c-1.44.4-1.44,1.91-2.19,2.84C293,288.74,292.66,291,290.89,292.08Z"/><path class="cls-7" d="M212,292c-2.57-2.64-2-6.22-2.45-9.34-2.12-16.8-.17-32.45,14.3-43.9,1.49-1.17,2.73-3.64,5.28-1.65-6.77,9.76-11.42,20.51-15.29,31.71C211.19,276.44,212.6,284.27,212,292Z"/><path class="cls-9" d="M231.89,340.91l-2.67-.06c-2-13.42-1.19-27.15-4.21-40.47a18.09,18.09,0,0,1-.5-4.35C231.84,310.18,230,325.86,231.89,340.91Z"/><path class="cls-9" d="M302.88,340.9l-.38,0-.37,0c.9-11.92,3.05-23.57,7.52-34.75A291.84,291.84,0,0,1,302.88,340.9Z"/><path class="cls-4" d="M275,388H245a9.45,9.45,0,0,1,8-3.05q7,.3,14,0A9.48,9.48,0,0,1,275,388Z"/><path class="cls-4" d="M315,388H293C298.58,383.61,309.4,383.61,315,388Z"/><path class="cls-4" d="M217,351c-1.86-5.6-1.51-6.13,4.35-7.1A6,6,0,0,0,223,343c1.62.53,4.73-1.24,4.58,1.82-.14,2.91-3.13,2.54-5.05,1.79C217.88,344.74,219.31,350.13,217,351Z"/><path class="cls-4" d="M308.94,345.28c0,2.43-1,3.63-3.28,3.67-2.74,0-3.91-2.05-4.31-4.06-.44-2.28,1.8-1.89,3.17-1.87C306.37,343.05,308.81,342.28,308.94,345.28Z"/><path class="cls-4" d="M336,345h8a4,4,0,0,1-8,0Z"/><path class="cls-4" d="M226,366c-1.58-1.31-2-3.33-3-5C225.81,361.57,225.87,363.79,226,366Z"/><path class="cls-4" d="M235,381l-3-4C234.56,377.14,235.09,378.82,235,381Z"/><path class="cls-10" d="M268.18,328.14c-8.59-.05-14.9-4.85-17.06-13-1.93-7.21,5.87-14.63,13.81-13,1.79.35,3.55,1.29,5.32.5,4.34-1.93,6.9.63,9.36,3.49,3,3.48,4.86,7.73,2.95,11.93C280,323.65,276,328.94,268.18,328.14Z"/><path class="cls-11" d="M222.63,107.78v-1a2.67,2.67,0,0,1,1-1.8q20-20,40-40a2.65,2.65,0,0,1,1.8-1h.87a2.65,2.65,0,0,1,1.8,1q20,20,40,40a2.67,2.67,0,0,1,.95,1.8v1a2.69,2.69,0,0,1-1,1.83c-1,1-2,2-3,3a3,3,0,0,1-4.31,0l-.34-.34q-15-15-30.06-30.06c-.83-.84-1.63-1.72-2.47-2.55a4.35,4.35,0,0,0-.74-.62,2.34,2.34,0,0,0-2.61,0,4.69,4.69,0,0,0-.89.77c-10.72,10.9-21.59,21.64-32.38,32.46a6.22,6.22,0,0,1-.71.65,2.85,2.85,0,0,1-3.74-.18c-1.21-1.15-2.37-2.35-3.54-3.53A2.3,2.3,0,0,1,222.63,107.78Z"/><path class="cls-11" d="M300,117.35q-16.08-16.06-32.15-32.14a2.71,2.71,0,0,0-4,0q-16.08,16.1-32.17,32.17a.89.89,0,0,0-.29.7q0,15.44,0,30.89a3,3,0,0,0,.07.73,2.85,2.85,0,0,0,2.2,2.15h18.47a2.4,2.4,0,0,0,1.87-1.15,3,3,0,0,0,.48-1.75V138.89c0-2.31,0-4.62,0-6.93a2.59,2.59,0,0,1,2.78-2.78h17.2a2.5,2.5,0,0,1,2.62,2.17,5.15,5.15,0,0,1,.07,1v16.46a2.68,2.68,0,0,0,2.35,3H298c1.71-.62,2.25-1.39,2.25-3.25q0-15.27,0-30.54A.91.91,0,0,0,300,117.35ZM268.77,99a2.32,2.32,0,0,1,3.45.94,4.39,4.39,0,0,1,.41,2,4.54,4.54,0,0,1-1.69,3.5,2.34,2.34,0,0,1-3.76-.88A4.65,4.65,0,0,1,268.77,99Zm-8.92.69A2.28,2.28,0,0,1,263,99a4.6,4.6,0,0,1,1.59,5.82,2.26,2.26,0,0,1-3.33.87,4.48,4.48,0,0,1-2-3.87A3.78,3.78,0,0,1,259.85,99.72Zm-6.15,7.83a3.59,3.59,0,0,1,.67-2.22,2.18,2.18,0,0,1,2.76-.74,4.08,4.08,0,0,1,2.26,3.08,4,4,0,0,1-.34,2.85,2.28,2.28,0,0,1-3.39.88A4.57,4.57,0,0,1,253.7,107.55Zm22.43,12.64a4,4,0,0,1-4,3,9.73,9.73,0,0,1-2.76-.41,12,12,0,0,0-6.91,0,7.91,7.91,0,0,1-3.68.34,4.18,4.18,0,0,1-3.1-4.9,3,3,0,0,1,1.37-1.75,10.29,10.29,0,0,1,1.4-.8,5.85,5.85,0,0,0,2.87-3c.43-.89.76-1.81,1.27-2.65a3.8,3.8,0,0,1,6.63,0,24.26,24.26,0,0,1,1.21,2.52,6,6,0,0,0,3,3.13,10.33,10.33,0,0,1,1.44.83A3.08,3.08,0,0,1,276.13,120.19Zm.7-9.24a2.4,2.4,0,0,1-4.23-1.08,4.47,4.47,0,0,1,1.34-4.75,2.36,2.36,0,0,1,4,1,3.83,3.83,0,0,1,.26,1.5A4.72,4.72,0,0,1,276.83,111Z"/><path class="cls-12" d="M239.62,285.94a8.41,8.41,0,0,1-1.63,5.41c-1.3,2-3,2.19-4.65.41a9.21,9.21,0,0,1-.24-11.31,3.11,3.11,0,0,1,4.81.17A6.92,6.92,0,0,1,239.62,285.94Z"/><circle class="cls-13" cx="237" cy="284" r="1"/><path class="cls-12" d="M303.49,286.77a8.34,8.34,0,0,1-1.63,5.41c-1.3,2.05-3,2.2-4.65.42a9.23,9.23,0,0,1-.24-11.31,3.1,3.1,0,0,1,4.81.17A6.89,6.89,0,0,1,303.49,286.77Z"/><circle class="cls-13" cx="298" cy="285" r="1"/></g></svg>