<svg xmlns="http://www.w3.org/2000/svg" viewBox="0 0 650 650"><defs><style>.cls-1{fill:#aacb9a;}.cls-2{fill:#466e35;}.cls-3{fill:#fbd5c0;}.cls-4{fill:#b7b7b7;}.cls-5{fill:#dbdbdb;}.cls-6{opacity:0.14;}.cls-7{opacity:0.06;}</style></defs><title>iconos</title><g id="denunciar"><path class="cls-1" d="M381.49,100.54c-.94-4.65-2.31-9.23-1-14.09,2-7.76,7.62-11.91,14.52-14.84h7c3.67,1.39,5.75,4.06,7,7.76,15.9,45,32,90,48,135,17.35,48.76,34.86,97.47,52.17,146.25,4.43,12.48-.41,24.27-12.16,29.47a16.78,16.78,0,0,1-12.62.51,4.83,4.83,0,0,1-2.49-2.94c-2.78-7.2-5.79-14.31-7.54-21.87-11.33-28.42-20.79-57.52-31.19-86.28-14.54-40.2-28.79-80.5-43.2-120.75-5.73-16-11.27-32-17.12-47.94C381.67,107.45,381.61,104,381.49,100.54Z"/><path class="cls-2" d="M105.11,583.41a9.66,9.66,0,0,1-3.75-5.1L65.54,477.49c-2.62-7.36-1.73-9.19,5.67-11.82,18-6.4,36-12.55,53.86-19.34,7.44-2.83,9.55-1.16,12.14,5.22,2.42.85,3.55,2.76,4.35,5.07,8.93,25.92,18.41,51.65,27.51,77.51,1.77,5,3.86,9.91,5.35,15,.61,2.11,1.22,4.18-.3,6.18-.34,4.12-3.07,5.86-6.64,7.11-17.66,6.23-35.29,12.57-52.92,18.9-1.53.55-3,1.36-4.45,2.06Z"/><path class="cls-1" d="M485.11,389.5c13.07-.09,20.82-5.73,23.27-16.72.85-3.8-.08-7.34-1.28-10.75Q479.64,284.62,452,207.25,429.14,143,406.24,78.84A17.63,17.63,0,0,0,402,71.61h3c8.25,3.64,12.42,10.2,15.33,18.64,11,31.94,22.58,63.67,33.94,95.48.33.93.56,1.88.84,2.83,2.54,1.3,3.82,3.51,4.75,6.11,6.21,17.19,12.25,34.43,18.42,51.63,2.47,6.88,5,13.73,7.34,20.66a11.76,11.76,0,0,1,.41,6.78q9.64,27.54,19.32,55.09c5.53,15.71,11.16,31.38,16.67,47.1,4.2,12,.81,21.91-9,26.71s-19.38,1.67-26.48-8.64a5.75,5.75,0,0,0-.68-.72C485.32,392.08,483.35,391.17,485.11,389.5Z"/><path class="cls-3" d="M174.12,555.34q-18.45-51.9-36.91-103.79c9.38-11.56,19.22-22.79,28-34.78,7.41-10.1,17.85-16.06,27.61-23.07,2.22.07,3,1.65,3.83,3.38,2.13,4.54,3.38,9.39,5.1,14.07,1.27,3.45,3.39,4.6,7,3.35,8.79-3.08,17.55-6.22,26.34-9.29,2.42-.85,4.72-1.74,7.12-.11q13.36-4.74,26.73-9.48c9.16-3.22,16-1.6,20.48,4.8,4.28,6.09,3.47,13.14-2.73,21,4.95-1,9.48-2.33,14.08-.3,4.76,2.1,7.92,5.53,9.14,10.5,2,8.41-1.77,14.29-12.7,19.64,8.83,1.51,15.1,5.83,15.48,15,.52,12.55-9.47,15.37-19.72,18.64,4.12.94,7.34,1.38,10,3.38a15,15,0,0,1,6.23,14.82,14.2,14.2,0,0,1-9.81,12.13c-34.81,12.54-69.6,25.11-104.58,37.14C188.33,554.57,181,554.4,174.12,555.34Z"/><path class="cls-4" d="M485.11,389.5c.26,1.26.51,2.52.77,3.78a416.67,416.67,0,0,0-91.4-26.41,432.18,432.18,0,0,0-96.2-5.85q-23.1,1.29-46,4.47a3.46,3.46,0,0,1-2.7-1.94c-3.09-8.05-7.28-15.77-7.65-24.67a3.22,3.22,0,0,1,1-1.38c3.16-1.78,6.72-1.81,10.15-2.26,22.14-2.9,44.4-3.43,66.7-3.2A430.77,430.77,0,0,1,464.19,359.4c4.21,1.58,8.36,3.19,12,5.91Z"/><path class="cls-1" d="M242.91,339.58c3.7,8.43,6.56,17.16,9.4,25.91-5.44,3-11.6,4.16-17.25,6.65-1.46.64-3.25.66-4.08,2.36-.63,1.56-2,2.06-3.46,2.59-10.31,3.78-20.63,7.55-31.05,11a7.28,7.28,0,0,1-5.33.18c-7.21,1.25-13.76,4.54-20.64,6.82-11,3.64-19.43-.2-23.39-11-2.38-6.5-4.57-13.07-6.85-19.61,2-1.58,3.77-.53,5.5.53,4.91,3,9.83,3.08,15.28,1.12,23.8-8.57,47.7-16.88,71.5-25.46C235.8,339.52,239.15,337,242.91,339.58Z"/><path class="cls-5" d="M486,273.74c-5.62-12.08-9.21-24.91-13.9-37.34-6-15.83-11.37-31.89-17-47.85,5.32-.05,10.63-.17,15.94-.15,6.75,0,11.15,2.8,13.41,9Q493.8,223,502.82,248.8c2.17,6.18.37,11.48-4.59,15.58C494.27,267.64,490.09,270.63,486,273.74Z"/><path class="cls-6" d="M200,412.5c-.38-.15-1.57,1.16-1.81,1.38a20.5,20.5,0,0,0-2.2,2.27c-1.1,1.37-3.25,4.84-.27,5.37,3.85.68,8.91.4,12.13-2.08A11,11,0,0,0,210,416.5Z"/><path class="cls-1" d="M191.14,388.31c12.91-5.68,25.93-11,39.84-13.81q5.61,15.3,11.23,30.6-18.27,6.61-36.52,13.24c-2.32.84-3.74.83-4.71-2.14-2.47-7.58-5.4-15-8.14-22.5C192.27,391.91,191.71,390.11,191.14,388.31Z"/><path class="cls-4" d="M546.66,248.62c-6.46,0-12.92-.07-19.38,0-2.87.05-5.15-.74-5.21-3.87s2.15-4.12,5-4.26q19.13-.92,38.25-1.95c3-.16,6.14,0,6.42,3.7.33,4.23-3.09,4.32-6.2,4.47-6.3.3-12.58.7-18.87,1.06Z"/><path class="cls-4" d="M542.7,161.23a4.79,4.79,0,0,1-2.36,3.64q-16,11.85-32.05,23.63c-2.27,1.66-4.7,2.07-6.56-.49s-.44-4.35,1.63-5.88l32.43-24a4,4,0,0,1,4.64-.55A4.29,4.29,0,0,1,542.7,161.23Z"/><path class="cls-4" d="M527.79,270.57c7.75,1.72,15.68,3.46,23.6,5.25,5.18,1.17,10.34,2.41,15.5,3.63,2.56.61,4.4,2,3.8,4.86-.65,3.09-3.11,3.68-5.83,3.06-12.61-2.88-25.19-5.84-37.79-8.73-2.64-.61-4.31-2-3.78-4.83C523.7,271.63,525.23,270.39,527.79,270.57Z"/><path class="cls-4" d="M520.22,217.68c-2.5.15-4-.7-4.49-2.79-.67-2.87,1-4.35,3.43-5.21,8.87-3.2,17.77-6.34,26.65-9.5,3.44-1.22,6.85-2.48,10.32-3.61,2.34-.77,4.34-.15,5.37,2.22s-.09,4.33-2.38,5.17c-12.58,4.59-25.21,9.06-37.83,13.56A4.34,4.34,0,0,1,520.22,217.68Z"/><path class="cls-4" d="M487,166.07a4.11,4.11,0,0,1-3.63-2.23c-1-1.92-.17-3.51,1-5q9-11.6,18.06-23.17c1.94-2.49,3.81-5,5.79-7.49,1.69-2.08,3.8-2.75,6.09-1s1.91,4,.3,6.07q-11.91,15.35-23.85,30.66A5.08,5.08,0,0,1,487,166.07Z"/><path class="cls-5" d="M476.17,365.31c-1.89,1.41-3.51,0-5.12-.62a444.52,444.52,0,0,0-88.3-24.56c-31.95-5.51-64.15-6.49-96.41-5.44-14.4.48-28.76,2.47-43.13,3.78-2.89-.28-3.69-2.58-4.46-4.77q-10-28.44-20.31-56.81c-.88-2.44-1.32-4.82.38-7.11,39.36-23.8,74.65-52.52,105.22-87a420.28,420.28,0,0,0,57.45-82.27c5.81,13.22,10.07,27,14.93,40.6Q435.77,251,474.89,361C475.39,362.42,475.75,363.87,476.17,365.31Z"/><path class="cls-1" d="M218.82,269.78Q231,304.13,243.2,338.47l-.29,1.11c-25.7,9.16-51.52,18-77,27.67-9.49,3.6-17.67,3.67-25.63-2.75-5.1-14.36-10.3-28.68-15.29-43.09-3.4-9.84.8-18.39,10.56-21.89Q177.16,284.63,218.82,269.78Z"/><path class="cls-7" d="M485,390.39c13.07-.09,20.82-5.73,23.27-16.72.85-3.8-.08-7.34-1.28-10.75q-27.47-77.42-55.09-154.78-22.87-64.2-45.77-128.41a17.63,17.63,0,0,0-4.26-7.23h3c8.25,3.64,12.42,10.2,15.33,18.64,11,31.94,22.58,63.67,33.94,95.48.33.93.56,1.88.84,2.82,2.54,1.31,3.82,3.52,4.75,6.12C466,212.74,472,230,478.18,247.19c2.47,6.88,5,13.73,7.34,20.66a11.76,11.76,0,0,1,.41,6.78q9.65,27.54,19.32,55.09c5.53,15.71,11.16,31.38,16.67,47.1,4.2,12,.81,21.91-9,26.71s-19.38,1.67-26.48-8.64a5.75,5.75,0,0,0-.68-.72C485.24,393,483.27,392.06,485,390.39Z"/><path class="cls-7" d="M242.83,340.46c3.7,8.44,6.56,17.17,9.4,25.92-5.44,3-11.6,4.16-17.25,6.65-1.46.64-3.25.66-4.08,2.36-.63,1.56-2,2.06-3.46,2.59-10.32,3.78-20.63,7.55-31.05,11a7.28,7.28,0,0,1-5.33.18c-7.21,1.25-13.76,4.54-20.64,6.82-11,3.64-19.43-.2-23.39-11-2.38-6.5-4.57-13.07-6.85-19.61,2-1.58,3.77-.53,5.5.53,4.91,3,9.83,3.08,15.27,1.12,23.81-8.57,47.71-16.88,71.51-25.46C235.72,340.41,239.07,337.85,242.83,340.46Z"/><polygon class="cls-6" points="287 421.5 259 432.5 287 420.5 287 421.5"/><polygon class="cls-6" points="298 451.63 270 462.63 298 450.63 298 451.63"/><polygon class="cls-6" points="294 485.63 266 496.63 294 484.63 294 485.63"/></g></svg>