<svg xmlns="http://www.w3.org/2000/svg" viewBox="0 0 650 650"><defs><style>.cls-1{fill:#dcecd5;opacity:0.49;}.cls-2{fill:tan;}.cls-3{fill:#987554;}.cls-4{fill:#e5d3b3;}.cls-5{fill:#664229;}.cls-6{fill:#d29f80;}.cls-7{fill:#bf8163;}.cls-8{fill:#eeb08c;}.cls-9{fill:#88180e;}.cls-10{fill:#b87f5e;}.cls-11{fill:#aacb9a;}</style></defs><title>iconos</title><g id="donar"><circle class="cls-1" cx="325.14" cy="324.64" r="324.75"/><rect class="cls-2" x="134.75" y="370.55" width="375.39" height="189.04"/><rect class="cls-3" x="134.75" y="350.3" width="375.39" height="20.25"/><rect class="cls-2" x="123.95" y="324.64" width="396.99" height="25.66"/><polygon class="cls-4" points="123.95 324.64 209.02 235.52 442.62 235.52 520.94 324.64 123.95 324.64"/><polygon class="cls-2" points="264.38 284.13 271.13 276.03 381.86 276.03 388.61 284.13 264.38 284.13"/><polyline class="cls-5" points="256.28 284.13 264.38 284.13 271.13 276.03 381.86 276.03 377.81 270.63 268.43 270.63 256.28 284.13"/><polygon class="cls-6" points="379.16 92.39 334.6 134.25 325.14 155.85 326.49 163.96 340 168.01 364.3 157.21 381.86 127.5 389.96 100.49 387.26 92.39 379.16 92.39"/><path class="cls-7" d="M422.39,135.6c.29.5-17.31,14.4-18.46,15.36l-24.41,20.35-22,18.3,6.75,31.06c-.09-.64,10.28-3.87,11.11-4.16,4.73-1.68,11.33-2.79,14.8-6.63,3.74-4.17,3.6-11.64,4.47-16.89.25-1.44,8.47-3.07,9.86-3.73,5.9-2.79,11.14-8.16,12.64-14.64a35.75,35.75,0,0,0,.39-10c0-1,5.42-2,6.14-2.26,3.22-1.16,5.47-3.74,7.84-6.24,2.9-3-2.05-9.17-3.77-11.7C425.84,141.59,424.12,138.59,422.39,135.6Z"/><path class="cls-8" d="M299.49,139.65c-2.91,4.18-5.13,7.9-6.75,10.8-1.46,2.62-2.78,5.35-5.41,10.81-3.51,7.29-3.82,8.39-4.05,9.45-.83,3.9-.46,7,0,10.8.58,4.79.87,7.18,2.7,9.45a11.9,11.9,0,0,0,6.76,4c5.55,1.1,10.14-2.48,12.15-4,4-3.13,5.19-6.16,8.1-10.8,5.2-8.28,9.81-8.56,12.15-14.85a21.66,21.66,0,0,0,1.35-6.75l12.16-12.16"/><path class="cls-9" d="M308,190.08a33.26,33.26,0,0,0-47.56,39.3c7.38,23.22,36.6,35.77,58.46,40.4a190.65,190.65,0,0,0,45.72,3.83Z"/><path class="cls-9" d="M308.21,189.93a33.26,33.26,0,0,1,54.2-29.47c18.79,15.5,19.54,47.3,15.68,69.3a190.75,190.75,0,0,1-13.49,43.85Z"/><rect class="cls-9" x="331.15" y="181.64" width="7.8" height="96.13" transform="translate(-71.17 227.01) rotate(-34.05)"/><path class="cls-10" d="M363.08,136.86c1,1.32,2.33,3,2.57,2.71a6.52,6.52,0,0,0,1.37-3.79v-1.14a1.37,1.37,0,0,0-.09-.57,1.33,1.33,0,0,0-.33-.38c-1-.9-2-1.82-2.92-2.78l-3.54-3.54-6.84-6.83L351,118.26c-.77-.77-1.66-1.81-2.88-1.54a25.87,25.87,0,0,0,2.5,4.17C354.85,126.17,359,131.47,363.08,136.86Z"/><path class="cls-8" d="M329.44,202.3a27.6,27.6,0,0,1-7.57-3.34c-2.3-1.45-4.27-3.78-4.41-6.49a12.11,12.11,0,0,1,.93-4.46c.6-1.74,1.19-3.48,1.79-5.21a6.58,6.58,0,0,1,2.88-4.07,447.18,447.18,0,0,0,35.18-30.48c2.82-2.67,6.15-5.21,8-8.7,2.4-4.62,2.62-10.12,3.77-15.14A73,73,0,0,1,376,107c1.43-2.73,3.69-5.66,4.17-8.66-2.29,1.1-4.39,3.24-6.43,4.87-5.8,4.64-10,13.44-14.18,19.49-6.5,9.4-14.27,17.06-22.28,25.07l-38.49-7.42c1.07.2,10.66-15.22,11.68-16.71,4.84-7,9.5-14.19,14.75-20.93,10.15-13,24.7-22.88,39.44-30a254.49,254.49,0,0,1,30-11.9c7.78-2.62,16.22-3.56,23.48-7.6,1.35-.74,14.19-8.92,14.34-8.7L467.6,95.77c-12.26,8.17-22.21,16-25.53,31.28-1.43,6.56-4.39,10.6-8.23,16-2.37,3.32-7,6.22-10.13,8.77q-7.45,6-15.2,11.66C390,177,370,187.9,349.7,198.54a45.5,45.5,0,0,1-8.95,3.89A21.59,21.59,0,0,1,329.44,202.3Z"/><path class="cls-11" d="M446.78,25.14,427.77,37l44.56,64.81,55-29.21A323.86,323.86,0,0,0,446.78,25.14Z"/></g></svg>