<svg xmlns="http://www.w3.org/2000/svg" viewBox="0 0 650 650"><defs><style>.cls-1{fill:none;}.cls-2,.cls-3{fill:#e5d3b3;}.cls-2,.cls-8{opacity:0.45;}.cls-4{fill:#f6f6f6;}.cls-5{fill:#987554;opacity:0.73;}.cls-6{fill:#d6d6d6;}.cls-7{fill:#cebea3;}.cls-8{fill:#c9b99f;}.cls-9{fill:#fbd5c0;}.cls-10{fill:#f5b846;}.cls-11{fill:#466e35;}.cls-12{fill:#848687;}.cls-13{fill:#f5b847;}.cls-14{fill:#858788;}.cls-15{fill:#fec095;}.cls-16{fill:#868889;}.cls-17{fill:#918d8a;}.cls-18{fill:#e2bfab;}.cls-19{fill:#e59f3e;}.cls-20{fill:#e5a03e;}.cls-21{fill:#f6f2f1;}</style></defs><title>iconos</title><g id="form"><path class="cls-1" d="M68.39,469.46C59.62,409.15,43.3,351,29.51,292.07h0c-4.11-6.73-4.06-14.49-5.45-21.9h0c-8-27.25-12.5-55.44-22.39-82.17v-5.49c2.5-5,7.21-6.6,12.15-7.85,53.34-13.44,106.78-26.49,160-40.34,3.95-1,7.95-2,12.11-1.2h.1c-2-7.9,5.73-10.48,9.92-13.9A381.36,381.36,0,0,1,323.41,49.93c23.1-7.29,46.81-10,70.6-12.84h79.57c17.13,3.65,34.33,7,51.36,11A355.16,355.16,0,0,1,649,104.93V1.5H1.51V649h150.1C107.16,598.73,78.5,539,68.39,469.46Z"/><path class="cls-2" d="M473.58,37.09H394c-23.79,2.83-47.5,5.55-70.6,12.84A381.36,381.36,0,0,0,196,119.22c-4.19,3.42-11.94,6-9.92,13.9,15.8.46,30.29-5.69,45.19-9.39,68.54-17,136.92-34.63,205.39-51.93,3.91-1,8-1.13,12.05-1.67h0a16.15,16.15,0,0,1,3.5,2.07Q541.61,161.45,631,250.78c2.3,2.29,4.44,4.62,4.32,8.17,4.59,3.08,9.15,6.23,13.7,9.41V104.93A355.16,355.16,0,0,0,524.94,48.1C507.91,44.06,490.71,40.74,473.58,37.09Z"/><path class="cls-3" d="M458.65,162.39c3.93-1,8.05-1.2,12.07-1.77h0q-11-45.24-22-90.49c-4,.54-8.14.68-12.05,1.67-68.47,17.3-136.85,34.9-205.39,51.93-14.9,3.7-29.39,9.85-45.19,9.39H186c-4.16-.81-8.16.17-12.11,1.2-53.24,13.85-106.68,26.9-160,40.34-4.94,1.25-9.65,2.84-12.15,7.85V188c9.89,26.73,14.4,54.92,22.39,82.17h0c27-2,52.44-11.19,78.41-17.68C221.29,222.82,339.93,192.44,458.65,162.39Z"/><path class="cls-4" d="M575.3,621.69h0l14.36-13.27h0l-3.78-17.09C528.09,546.91,482.53,490.59,434.6,436.5c-13.21-14.91-28.66-28-43.92-40.9-10.16-8.61-15.49-18.67-15.91-31.69h0L279.2,349.27h0l-8.47-2.44h0c-18,4.93-35.92,9.79-53.84,14.86-4.2,1.2-8.47,2.59-10.19-2.8-1.84-5.74,3.34-6.87,7-7.93,15.27-4.41,30.64-8.47,46-12.66l-11.16-10.55h0L232,316.18a48,48,0,0,1,19.45-7.33c11.74-4.24,22.95-10.18,35.78-10.79h0l62.8,8.48h0c23.66-30.94,59.68-39.77,93.57-52.52,15.86-6,33.4-8,47-19.52h0q-7.38-28.55-14.78-57.08h0q-116.53,29.93-233.07,59.84Q136.09,264.64,29.51,292.07C43.3,351,59.62,409.15,68.39,469.46,78.5,539,107.16,598.73,151.61,649H482.82c25.64-6.51,51.21-13.3,76.78-20.09C565.14,627.42,571.39,627,575.3,621.69ZM118.14,374.26a27.65,27.65,0,0,1,55.3-.08c.07,15-13.28,28-28.32,27.6C130.42,401.4,118.14,388.87,118.14,374.26Zm31.58,112.8c-.21-15.68,12-27.74,27.91-27.47a27.43,27.43,0,1,1-27.91,27.47Zm58.53,140c-14.56-.09-27.28-12.4-27.7-26.8-.42-14.71,13-28.23,27.87-28.07,15.28.16,26.76,11.6,27,26.9C235.66,615.17,224,627.14,208.25,627Zm29.63-156c-1-5,3.09-6,6.61-7q32.88-9.21,65.78-18.3c9.65-2.68,19.27-5.47,29-7.9,3-.75,6.7-1,7.87,3.19,1.08,3.82-1.19,6.26-4.54,7.2-32.44,9.09-64.91,18.05-96.45,26.79C241.55,475.92,238.61,474.83,237.88,471.05Zm47.63,114.59c-3.07.85-6.16,1.6-9.93,2.57-3,.54-5.95-.72-6.68-4.36-.76-3.84,2.15-5.68,5.45-6.63q13.78-4,27.6-7.81,73.1-20.26,146.18-40.48c1.76-.49,3.6-.68,5.35-1.17,4.41-1.26,9.6-3.44,11.17,3.06,1.38,5.72-4.33,6.35-7.94,7.38-18.39,5.28-36.89,10.16-55.33,15.27Q343.44,569.52,285.51,585.64ZM530.7,616.56c-32.91,9.33-65.84,18.58-96.73,27.28-5.54-.07-9.13-.3-9.22-4.61-.1-4.59,3.71-5.7,7.37-6.7q40.26-11,80.52-22.13c4.84-1.33,9.64-2.82,14.5-4.07,3.63-.93,6.45.46,7.49,4.08C535.55,613.6,533.61,615.73,530.7,616.56Z"/><path class="cls-5" d="M589.66,608.42h0L575.3,621.69h0c-1.44,7.53,6.11,10.18,8.48,15.64h0L596.19,649H649v-92.7q-24.59,21.81-49.4,43.38A21.78,21.78,0,0,1,589.66,608.42Z"/><path class="cls-6" d="M583.78,637.33h0c-2.37-5.46-9.92-8.11-8.48-15.64h0c-3.91,5.26-10.16,5.73-15.7,7.21C534,635.69,508.46,642.48,482.82,649H576C578.59,645.1,581.21,641.23,583.78,637.33Z"/><path class="cls-7" d="M475.75,177.42h0q-2.52-8.4-5-16.8h0c-4,.57-8.14.78-12.07,1.77-118.72,30.05-237.36,60.43-356.18,90.1-26,6.49-51.41,15.65-78.41,17.68h0c1.39,7.41,1.34,15.17,5.45,21.9h0q106.59-27.4,213.17-54.81Q359.22,207.32,475.75,177.42Z"/><path class="cls-8" d="M583.78,637.33c-2.57,3.9-5.19,7.77-7.78,11.66h20.19l-12.41-11.66Z"/><path class="cls-9" d="M578.33,221.7c-10-7.17-18.49-8.52-29.8-3.74-14.62,6.18-30,10.59-45.12,15.51-4.1,1.34-8.31,4.38-12.87,1h0C477,246,459.44,248.05,443.58,254c-33.89,12.75-69.91,21.58-93.57,52.52l82.36,12.94h0c3.12-6.72,10.15-5.74,15.47-7,32.62-7.68,65.41-14.65,98.1-22,6.22-1.4,12-1.57,16.08,4,12.07,16.34,25.24,31.92,35.14,49.79,17.29,2.74,34.53,5.81,51.84,8.36V268.36c-4.55-3.18-9.11-6.33-13.7-9.41C616.25,246.62,596.73,234.94,578.33,221.7Z"/><path class="cls-8" d="M476.26,176.23l.27.06c9.63,17.91,14,37.31,16.26,57.33,20.87-8.24,42.44-14.41,63.66-21.64,4.95-1.69,10-1.95,14.44,1.17,18,12.58,37.61,23,54.62,37-.56-.58-1.1-1.17-1.68-1.75Q541,165.82,458.33,83.07c-2-2-3.84-4.42-6.1-6.15,9.33,19.54,11.93,41.2,17.87,61.8,2.08,7.19,5.73,14.65,1.47,22.41C477.55,164.85,478.79,170,476.26,176.23Z"/><path class="cls-2" d="M452.23,76.92c2.26,1.73,4.08,4.14,6.1,6.15q82.82,82.6,165.5,165.34c.58.58,1.12,1.17,1.68,1.75,3.37,2.78,6.65,5.68,9.79,8.79.12-3.55-2-5.88-4.32-8.17Q541.6,161.49,452.18,72.2a16.15,16.15,0,0,0-3.5-2.07h0C450,72.36,451.14,74.63,452.23,76.92Z"/><path class="cls-8" d="M452.23,76.92c2.26,1.73,4.08,4.14,6.1,6.15q82.82,82.6,165.5,165.34c.58.58,1.12,1.17,1.68,1.75,3.37,2.78,6.65,5.68,9.79,8.79.12-3.55-2-5.88-4.32-8.17Q541.6,161.49,452.18,72.2a16.15,16.15,0,0,0-3.5-2.07h0C450,72.36,451.14,74.63,452.23,76.92Z"/><path class="cls-3" d="M470.72,160.62h0l.85.51c4.26-7.76.61-15.22-1.47-22.41-5.94-20.6-8.54-42.26-17.87-61.8-1.09-2.29-2.25-4.56-3.55-6.79h0Q459.7,115.39,470.72,160.62Z"/><path class="cls-8" d="M470.72,160.62h0l.85.51c4.26-7.76.61-15.22-1.47-22.41-5.94-20.6-8.54-42.26-17.87-61.8-1.09-2.29-2.25-4.56-3.55-6.79h0Q459.7,115.39,470.72,160.62Z"/><path class="cls-4" d="M476.53,176.29l-.27-.06c-.15.4-.32.79-.51,1.19h0q7.39,28.54,14.78,57.08h0l2.25-.88C490.57,213.6,486.16,194.2,476.53,176.29Z"/><path class="cls-8" d="M476.53,176.29l-.27-.06c-.15.4-.32.79-.51,1.19h0q7.39,28.54,14.78,57.08h0l2.25-.88C490.57,213.6,486.16,194.2,476.53,176.29Z"/><path class="cls-7" d="M471.57,161.13l-.85-.51q2.52,8.4,5,16.8c.19-.4.36-.79.51-1.19C478.79,170,477.55,164.85,471.57,161.13Z"/><path class="cls-8" d="M471.57,161.13l-.85-.51q2.52,8.4,5,16.8c.19-.4.36-.79.51-1.19C478.79,170,477.55,164.85,471.57,161.13Z"/><path class="cls-9" d="M570.89,213.15c-4.46-3.12-9.49-2.86-14.44-1.17-21.22,7.23-42.79,13.4-63.66,21.64l-2.25.88c4.56,3.35,8.77.31,12.87-1,15.13-4.92,30.5-9.33,45.12-15.51,11.31-4.78,19.85-3.43,29.8,3.74,18.4,13.24,37.92,24.92,57,37.25-3.14-3.11-6.42-6-9.79-8.79C608.5,236.15,588.92,225.73,570.89,213.15Z"/><path class="cls-8" d="M570.89,213.15c-4.46-3.12-9.49-2.86-14.44-1.17-21.22,7.23-42.79,13.4-63.66,21.64l-2.25.88c4.56,3.35,8.77.31,12.87-1,15.13-4.92,30.5-9.33,45.12-15.51,11.31-4.78,19.85-3.43,29.8,3.74,18.4,13.24,37.92,24.92,57,37.25-3.14-3.11-6.42-6-9.79-8.79C608.5,236.15,588.92,225.73,570.89,213.15Z"/><path class="cls-9" d="M616.28,401.74h0l-5,8.48h0a35.68,35.68,0,0,1-.67,4c-9.43,34.08-36.19,41.44-62.33,17.06-3.27-3.06-6-6.74-8.93-10.12h0c-10-3.83-17.31-11-24.09-18.92-7.6-6.35-17.21-10.36-22.5-19.38-9.86-4.27-16.3-12.86-24.42-19.34-9.42-8.09-20.09-14.75-28-24.54h0c-14.39-10.49-29.56-14.9-46.43-5.9h0c-6.81,4.26-11.26,10.8-16.25,16.82h0q-1.41,7-2.83,14h0c.42,13,5.75,23.08,15.91,31.69,15.26,12.92,30.71,26,43.92,40.9,47.93,54.09,93.49,110.41,151.28,154.83l13.72,8.34h0q24.81-21.57,49.4-43.38V406c-10.87-1.74-21.66-4.3-32.72-4.25Z"/><path class="cls-10" d="M479.25,326.64c-15.63-2.34-31.25-4.77-46.88-7.16h0L350,306.54h0l-62.8-8.48h0l-2.52,16.24c36.35,6.45,73.49,8.35,109.15,18.79h0c16.87-9,32-4.59,46.43,5.9h0c29.49,1.5,58.28,8.16,87.43,12.19,40.5,5.6,80.82,12.43,121.29,18.26V352.55c-17.31-2.55-34.55-5.62-51.84-8.36Q538.21,335.42,479.25,326.64Z"/><path class="cls-11" d="M204.64,486.82a27.59,27.59,0,0,0-27-27.23c-15.87-.27-28.12,11.79-27.91,27.47a27.43,27.43,0,0,0,28.22,27.37A27.8,27.8,0,0,0,204.64,486.82Z"/><path class="cls-11" d="M208.42,572.17c-14.87-.16-28.29,13.36-27.87,28.07.42,14.4,13.14,26.71,27.7,26.8,15.78.1,27.41-11.87,27.17-28C235.18,583.77,223.7,572.33,208.42,572.17Z"/><path class="cls-11" d="M173.44,374.18a27.65,27.65,0,0,0-55.3.08c0,14.61,12.28,27.14,27,27.52C160.16,402.18,173.51,389.16,173.44,374.18Z"/><path class="cls-12" d="M464.65,530.82c-1.57-6.5-6.76-4.32-11.17-3.06-1.75.49-3.59.68-5.35,1.17Q375,549.14,302,569.41q-13.81,3.83-27.6,7.81c-3.3.95-6.21,2.79-5.45,6.63.73,3.64,3.71,4.9,6.68,4.36,3.77-1,6.86-1.72,9.93-2.57q57.94-16.08,115.87-32.17c18.44-5.11,36.94-10,55.33-15.27C460.32,537.17,466,536.54,464.65,530.82Z"/><path class="cls-13" d="M295.15,337.52c-4.43-.66-8.91-1-13.38-1.44q-1.29,6.6-2.57,13.19h0l95.57,14.64h0q1.41-7,2.83-14h0Q336.38,343.7,295.15,337.52Z"/><path class="cls-14" d="M527.14,606.33c-4.86,1.25-9.66,2.74-14.5,4.07q-40.26,11.08-80.52,22.13c-3.66,1-7.47,2.11-7.37,6.7.09,4.31,3.68,4.54,9.22,4.61,30.89-8.7,63.82-18,96.73-27.28,2.91-.83,4.85-3,3.93-6.15C533.59,606.79,530.77,605.4,527.14,606.33Z"/><path class="cls-15" d="M251.43,308.85c0,6.44.49,13-2.89,18.91l11.16,10.55a16.86,16.86,0,0,1,11,8.52h0l8.47,2.44h0q1.29-6.58,2.57-13.19,1.46-10.89,2.92-21.78h0l2.52-16.24h0C274.38,298.67,263.17,304.61,251.43,308.85Z"/><path class="cls-14" d="M347.13,441c-1.17-4.14-4.83-3.94-7.87-3.19-9.72,2.43-19.34,5.22-29,7.9q-32.89,9.12-65.78,18.3c-3.52,1-7.57,2-6.61,7,.73,3.78,3.67,4.87,8.26,4,31.54-8.74,64-17.7,96.45-26.79C345.94,447.3,348.21,444.86,347.13,441Z"/><path class="cls-16" d="M259.7,338.31c-15.33,4.19-30.7,8.25-46,12.66-3.69,1.06-8.87,2.19-7,7.93,1.72,5.39,6,4,10.19,2.8,17.92-5.07,35.89-9.93,53.84-14.86h0A16.86,16.86,0,0,0,259.7,338.31Z"/><path class="cls-17" d="M251.43,308.85A48,48,0,0,0,232,316.18l16.56,11.58h0C251.92,321.82,251.41,315.29,251.43,308.85Z"/><path class="cls-8" d="M589.66,608.42a21.78,21.78,0,0,0,9.94-8.75h0l-13.72-8.34,3.78,17.09Z"/><path class="cls-18" d="M479.25,326.64q58.95,8.81,117.91,17.55c-9.9-17.87-23.07-33.45-35.14-49.79-4.09-5.53-9.86-5.36-16.08-4-32.69,7.39-65.48,14.36-98.1,22-5.32,1.26-12.35.28-15.47,7h0C448,321.87,463.62,324.3,479.25,326.64Z"/><path class="cls-19" d="M440.28,339h0c8,9.79,18.62,16.45,28,24.54Q558.65,377.77,649,392V369.44c-40.47-5.83-80.79-12.66-121.29-18.26C498.56,347.15,469.77,340.49,440.28,339Z"/><path class="cls-18" d="M602.54,401.74h0L583.33,399c-10-2.3-20.52-1.13-30.18-5.21h0l-18.94-2.15h0a5.12,5.12,0,0,1-.64,2.4h0l5.76,27.18h0c3,3.38,5.66,7.06,8.93,10.12,26.14,24.38,52.9,17,62.33-17.06a35.68,35.68,0,0,0,.67-4h0C611.42,404.25,608.3,401.63,602.54,401.74Z"/><path class="cls-10" d="M468.32,363.53c8.12,6.48,14.56,15.07,24.42,19.34l41.2,5.57h0l19.2,2.74c9.9,2.68,20.56,1.12,30.19,5.34,6.65-.78,12.92,1.1,19.21,2.8h0c4.64.44,9.71-1.5,13.74,2.42h0c11.06-.05,21.85,2.51,32.72,4.25V392Q558.66,377.81,468.32,363.53Z"/><path class="cls-20" d="M281.77,336.08c4.47.47,9,.78,13.38,1.44q41.24,6.14,82.45,12.39h0c5-6,9.44-12.56,16.25-16.82h0c-35.66-10.44-72.8-12.34-109.15-18.79h0Q283.22,325.19,281.77,336.08Z"/><path class="cls-18" d="M515.24,402.25c6.48-1.94,7.78-15.38,18.33-8.25a5.12,5.12,0,0,0,.64-2.4h0l-.27-3.16h0l-41.2-5.57C498,391.89,507.64,395.9,515.24,402.25Z"/><path class="cls-21" d="M533.57,394h0c-10.55-7.13-11.85,6.31-18.33,8.25,6.78,7.9,14.12,15.09,24.09,18.92h0Z"/><path class="cls-18" d="M602.54,401.74h0c5.76-.11,8.88,2.51,8.72,8.49h0l5-8.48h0c-4-3.92-9.1-2-13.74-2.42Z"/><path class="cls-18" d="M553.15,393.75h0c9.66,4.08,20.22,2.91,30.18,5.21v-2.44c-9.63-4.22-20.29-2.66-30.19-5.34C553.14,392,553.15,392.89,553.15,393.75Z"/><path class="cls-18" d="M534.21,391.6h0l18.94,2.15h0c0-.86,0-1.72,0-2.57l-19.2-2.74h0Z"/><path class="cls-18" d="M583.33,399l19.21,2.79h0v-2.42h0c-6.29-1.7-12.56-3.58-19.21-2.8Z"/></g></svg>