<svg xmlns="http://www.w3.org/2000/svg" viewBox="0 0 600 700"><defs><style>.cls-1,.cls-14,.cls-3{fill:#987554;}.cls-1{opacity:0.17;}.cls-2{fill:tan;}.cls-4{fill:#466e35;}.cls-5{fill:#b79c7d;}.cls-6{fill:#598943;}.cls-7{fill:#68503c;}.cls-8{fill:#a2776c;}.cls-9{fill:#1d1d14;}.cls-10{fill:#e9b180;}.cls-11{fill:#1e1c17;}.cls-12{fill:#e4e4e5;}.cls-13{fill:#e0e1de;}.cls-14{opacity:0.59;}</style></defs><title>iconos</title><g id="macho_y_hembra" data-name="macho y hembra"><path class="cls-1" d="M462,504.5C303.58,555,270.91,689.07,205,670.5,167.79,660,147.69,578,109,414.5c-37.88-160.12-30.83-192.88-25-212,23.86-78.25,100-166.3,196-167,106.79-.78,174.79,107.05,188,128,45,71.39,9.91,90.51,66,215,8.81,19.55,21.47,45.27,12,71C533,484.91,486.74,496.62,462,504.5Z"/><path class="cls-2" d="M385,452.53c-2.56,13-6.51,25.65-10.83,38.17-3.07,8.91-6.48,17.68-10.09,26.38A242.31,242.31,0,0,1,350,545.57a12.11,12.11,0,0,0-2.07,6c-7.8,7.84-12,18.38-19.48,26.38-8,8.57-14.07,19-23.69,26.11-3.57,2.65-3.25,4,.78,6.52a81.81,81.81,0,0,1,17.88,15.09,24.09,24.09,0,0,1,1.55,2c5.52,7.57,5.67,11.83.44,20.42,4.64.4,9.06,0,13.46.21,2.11.08,4.38-.51,6.16,1.26-1.38,1.41-3.15.82-4.75.82-12.66.05-25.32,0-38,0-29.11,0-58.22.1-87.33,0-23.47-.1-47,0-70.4-.86-22.3-.78-39.78-11.41-51.58-30-10-15.78-12.47-33.73-10.43-52.15.42-3.84-.68-5.79-3.54-7.83-8.85-6.31-15.51-14.3-19.12-24.77-4.07-11.84-2.5-23.08,3-34.93,1.72,10.21,5.26,18.81,11.71,26a43.46,43.46,0,0,0,16.36,11.8c2.35,1,3.77.65,5.53-1.41,3.22-3.78,7-7.11,10.47-10.64,1.18.44,1.73,1.5,2.44,2.4,6.55,8.18,17.07,8.46,24,.55,4.39-5,5.91-10.86,5-17.55-.81-6.17-4.13-11.51-5.31-17.52,12.65-18.49,24.76-37.31,35.18-57.18,7.14-13.62,14.48-27.15,21.73-40.72,2.43-.67,3.68,1.18,5,2.52,17.14,17.06,37.49,28.84,59.83,37.81,24.66,9.91,50.32,14.36,76.63,16.41a299.55,299.55,0,0,0,48.76-.21C381.81,451.89,383.52,451.26,385,452.53Z"/><path class="cls-2" d="M423.27,197.72a22.08,22.08,0,0,1,4.07,8.43c1.18,4.66,3.92,7.19,8.49,8.72,21.54,7.25,42.57,15.89,63.28,25.15,11.39,5.09,23.28,9.67,32.66,18.62,8.79,8.38,11.88,18.54,10.35,30.21-3,22.58-15.62,40.13-30.06,56.67a8,8,0,0,0-4.29,1.12c-16.69,7.59-33.34,6.23-50-.18a39.62,39.62,0,0,0-5.71-1.95c5.05,4.53,9.09,9.3,14.39,12.75a28.33,28.33,0,0,0,24.79,3.64c1.83-.55,3.69-1.81,5.69-.42a12,12,0,0,1-1.8,2.87c-17,15.15-35.8,27.52-56.94,36.3-10.11,4.2-20.66,6.85-31,10.12-6.7,2.5-13.59,1.11-20.41.9a36.14,36.14,0,0,1-5.82-.92,21,21,0,0,0-4.38-.85c-18.73.37-37.09-2.75-55.36-6.22a363.08,363.08,0,0,1-41.93-10.87,226.7,226.7,0,0,1-53.76-24.57c-3-1.9-5.18-4.69-8.28-6.32-4.38-2.74-8.16-6.24-12-9.63-.79-.7-2-1.47-1-2.87.23-3.4.68-6.79.64-10.19-.2-16.27,1.27-32.46,2.41-48.66,2-.45,3.51.83,5,1.83,13.55,9.21,28.59,13.73,44.87,14.89,29.1,2.07,55.06-5.94,77.12-24.88,14.93-12.83,23.21-29.65,25.4-49.39,2.28-20.51-1.66-40-9-59-2-5.11-3.73-10.32-6.64-15-.83-1.35-1.8-2.88-1-4.67,2-1.51,4.44-1.24,6.69-1.09,4.27.29,6.39-1.87,7.48-5.66.77-2.68.81-5.59,2.41-8a3,3,0,0,1,2.73-.94c8.09,1.9,16,4.26,22.61,9.65a2.58,2.58,0,0,1,.77,1.77c-2.47,6.14-2.46,6.13,4.12,7.36,5.63,1.07,10.74,3.29,14.73,7.51,1.86,2,4.32,3,6.31,4.69-1.18,1.22-1.74,2.1-.45,4,3.38,5,7.43,9.74,8.52,16-2.55.48-3.75-1.77-5.54-2.79-4.1-2.34-7.4-1.47-9.5,2.64-3.81,7.44,2.68,23,10.64,25.75,2.85,1,4.83.09,6.37-2.28,1.83-2.8,1.89-5.91,1.71-9.11C422.56,201.09,421.38,199.2,423.27,197.72Z"/><path class="cls-3" d="M343.2,153.7c10.23,18.68,16.64,38.43,18.15,59.85,1,13.84-.57,27.11-5.68,39.92-6.55,16.42-17.92,28.79-32.75,38.21-17.42,11.08-36.68,16.32-57,16.51-21.34.19-41.36-5.16-58.58-18.62a496.89,496.89,0,0,1,9-65.17c.08-.14.15-.4.25-.41,9.23-1.3,11.17-9.54,14.95-15.9,8.56-14.36,16.42-29.13,25-43.45a14.9,14.9,0,0,1,3.65-4.67c6.74-1.24,12.89-3.74,18-8.46a5.79,5.79,0,0,1,3.18-1.26c16.81-.5,33.58.72,50.35,1.41C335.51,151.81,339.8,150.73,343.2,153.7Z"/><path class="cls-4" d="M260.15,160.61c-4.87,8.39-9.78,16.77-14.6,25.18-6,10.43-12,20.83-17.77,31.37-2.58,4.73-5.23,8.69-11.51,7.24-.05-1.75-1.68-1.86-2.71-2.55Q170.68,193,170,141.32c-.08-4.69,1.49-6.37,6.18-6.37,7.31,0,14.62-.58,21.92-.92,4.48-2.08,9.25-2,14-1.92a228,228,0,0,0,27.9-1.29c1.77.38,2.24,1.86,2.53,3.3C244.74,145.39,251.45,153.66,260.15,160.61Z"/><path class="cls-4" d="M343.2,153.7c-6.29-.34-12.57-.78-18.86-1-14.75-.51-29.51-.91-44.26-1.36a7.57,7.57,0,0,1-1.93-4c-.52-9.46-5.54-16.63-12-22.89-3.31-3.23-3.21-5.84-.15-8.83l30.88-32.24c1.76-.74,3-.1,3.46,1.64.41,1.42-.71,2.08-1.75,2.66a18.18,18.18,0,0,0-3.35,2.15c-3.48,3-4.69,6.9-3.29,10.71a9.91,9.91,0,0,0,9,6.69c4.53.23,8.75-1.64,9.32-5.85,1-7.57,4.46-10.05,11.86-9.72,3.11.14,6.24-2.53,6.63-6.62a1.29,1.29,0,0,0-1.25.15c-1.73,1.38-3,4.35-5.64,3.2-3-1.3-1.64-4.28-1.4-6.68a16.57,16.57,0,0,0,.18-3c-.17-1.89.79-4.32-1.58-5.32s-4.17.46-5.9,1.81c-2.08,1.64-2.82,4-3.57,6.43-.47,1.5-.29,3.81-2.42,3.86s-3.43-1.82-4.7-3.37-1.39-3,0-4.48c.56-.62,1-1.31,1.62-1.9,3.08-3.22,6.13-6.47,9.25-9.65,5.34-5.44,5.36-5.42,11.73-.62.45,8.46,6.12,14,11.24,19.75.83.93,1.66,2.53,3.16,1.41,1.18-.88.09-2.09-.34-3.12-1.41-3.35-1.4-3.35.87-4l2.3,2a36.56,36.56,0,0,1,8.49,10.92,65.05,65.05,0,0,1,10.47,43.8,5.87,5.87,0,0,1-.85,2.31c-1.27,3.42-1.37,7.11-2.7,10.56-1.27,3.28-3,4.8-6.63,4.43A64,64,0,0,0,343.2,153.7Z"/><path class="cls-3" d="M360.48,138.56c-.09-4-.42-8-.22-12,.63-12.7-5.1-23.35-10.63-34.08,5.13-11.45,11-22.44,20.36-31.11,5.68-5.23,10.78-6.49,16.16-3.89,5.17,7.5,6.29,16.33,7.81,24.92,3.67,20.81,4.74,41.66-.74,62.39a3.1,3.1,0,0,0,1,3.57c-2.74,2.3-5.87,1.85-9,1.26-2.61-3.32-6.14-5.16-10.05-6.55C370.3,141.4,365.72,138.92,360.48,138.56Z"/><path class="cls-5" d="M345,649.48H321.54c3.94-4.08,7.23-7.15,6.53-12.17-.73-5.25-3.85-9.06-7.32-12.66-5.18-5.38-10.67-10.41-17.51-13.65-4.06-1.93-3.7-4.87-.74-6.79,9.95-6.45,15.65-16.82,23.46-25.19A79.66,79.66,0,0,0,340,559c1.48-3.15,3.6-6.73,7.88-7.44q0,6-.05,12c-.77,1.64.11,3.49-.67,5.13-.94,10.58-1.77,21.17-2.87,31.73-.52,5-.61,9.2,4.36,12.47a26.29,26.29,0,0,1,8.25,9.23c5.36,9.66,3.42,18.09-5.78,24.16A67.67,67.67,0,0,1,345,649.48Z"/><path class="cls-3" d="M241.08,131.7a112.58,112.58,0,0,1-28.92,1.56,6.35,6.35,0,0,1-2.64-4c-3.75-13.3-6.65-26.7-5.91-40.66a22.78,22.78,0,0,1,3.32-11.3c1.69-2.69,3.92-4.44,7.17-4.69,7.79,2.09,13.71,7.33,19.74,12.19a163.45,163.45,0,0,1,30.39,31.5c.9,3.4-1.77,4.32-3.88,4.31-8,0-13.4,3.85-17.63,10.09A2.93,2.93,0,0,1,241.08,131.7Z"/><path class="cls-5" d="M385,452.53c-5.74.65-11.48,1.65-17.24,1.89a316.79,316.79,0,0,1-51.72-2c-26.06-3.17-51.14-9.74-75-21.1a174.34,174.34,0,0,1-49.74-35,6.44,6.44,0,0,0-1.27-.78c.47-1.85.66-3.82,2.31-5.13,2.28-1.11,3.86.36,5.33,1.62,6.32,5.39,12.52,10.92,19.7,15.21a229.71,229.71,0,0,0,59,27.57c18.91,5.8,38.3,8.38,57.72,11.09,5,.69,10,.13,15,.24,10.95-.62,22,.81,32.85-1.67,1.55-.35,3.38-.34,4.34,1.54C386,448.19,386.25,450.5,385,452.53Z"/><path class="cls-4" d="M386.17,446c-3.92-1.13-7.47,1.11-11.24,1.26a248.29,248.29,0,0,1-26.87,0c-1-1.91.47-2.82,1.65-3.55,11.56-7.16,16.72-18.41,19.21-31,.76-3.85,2-5.17,5.6-4.61,1.75.28,3.62-.55,5.29.55l27.37,1.2c-4,11.25-9.51,21.88-14.16,32.87C391.71,445.73,388.4,444.76,386.17,446Z"/><path class="cls-4" d="M216.2,407.48c-7.34-3-12.44-9.09-18.53-13.8-1.7-1.31-3.1-3-5.39-3.32-.19-.62-.19-1.54-.61-1.81-7.18-4.61-6.32-10.16-2.85-16.86,3.67-7.06,6.43-14.59,9.45-22,1.46-3.57,3.14-4.75,6-1.3,3.7,4.47,8.71,7.45,12.92,11.34,3.47,1.73,3.22,4.58,2.33,7.65a74.12,74.12,0,0,0-3,24.47,53.14,53.14,0,0,0,1.2,9.8C218.19,403.7,219.47,406.29,216.2,407.48Z"/><path class="cls-6" d="M241.08,131.7c3.82-7.51,9.16-12.7,18.32-12.29,2.27.1,4.31-.44,4.83-3.16l1.81-.65c-3.18,4.94.82,7.63,3.46,10.58,5.19,5.79,9.6,11.93,9.52,20.12,0,1.85,2.46,3,1.06,5-5.51,5.54-11.71,9.59-19.93,9.27-1.16-.06-2.35,0-3.28-.87C248.6,152.09,241.9,143.54,241.08,131.7Z"/><path class="cls-3" d="M133.06,493.39c5.37,8.51,8.2,17.54,6,27.71-1.29,6-8.89,13.43-15,14.43a15.56,15.56,0,0,1-16.63-8.12,9,9,0,0,1-.52-1.9A321.88,321.88,0,0,0,133.06,493.39Z"/><path class="cls-4" d="M304.16,75.75c-3.6,4.78.33,6.75,3.52,9.64.82-5.5,1.85-10.28,6.92-12.9,4.92-2.54,7.54-1.15,7.46,4.23,0,2.64.26,5.3-.78,7.88a2.38,2.38,0,0,0,.76,3.13c1.4.75,2-.76,2.79-1.46.62-.54,1.06-1.28,1.66-1.85.84-.8.3-3.69,2.82-2,1.83,1.23,2,2.85.87,4.75-2.94,4.92-7.24,7.3-12.9,6.33-3.57-.6-4.3.45-4.34,4-.08,7.43-5.76,11.88-13.4,11.13-5.56-.54-10.09-6.51-9.46-12.54.48-4.62,3.63-7.24,7.28-9.4.77-.46,2.33,0,2.21-1.39s-1.53-1.57-2.65-1.9C299.57,81.05,301,77.57,304.16,75.75Z"/><path class="cls-7" d="M214.1,72.56c-6.56,3.74-8.85,9.57-9.15,16.9-.63,15.15,3.3,29.45,7.21,43.8-4.69.35-9.37,1.15-14.11.78-2.31-14.9-4.54-29.78-3-44.94A35.53,35.53,0,0,1,197.14,80C200.2,71.85,205.68,69.5,214.1,72.56Z"/><path class="cls-8" d="M497,360.48c-8.25,3.06-16.52,4.76-25.11,1.11-9.55-4.06-16.22-11.33-22.39-19.28,7.36,2.16,14.36,4.82,21.73,6.61,13.11,3.18,25.28,1.2,37.3-4.05,1.17-.51,3-2.75,3.57.65A67.4,67.4,0,0,1,497,360.48Z"/><path class="cls-7" d="M386.15,57.52c-10.48-2-16.31,5-21.88,11.85A90.79,90.79,0,0,0,352,90.3c-.5,1.13-1,2.12-2.36,2.22-1.7-4.14-6-6.54-7.25-11a120.88,120.88,0,0,1,21.87-26.12C370.48,49.72,380.94,47,386.15,57.52Z"/><path class="cls-9" d="M423.27,197.72c.29,4.11,1.32,8.17,0,12.33-1.92,6.18-5.83,7.77-11.31,4.36-6.57-4.1-11.62-15.3-10.33-23,.56-3.41,1.78-6.52,5.28-7.89,3.8-1.49,6.74.36,9.43,2.84.85.78,1.74,1.51,2.61,2.26A36.87,36.87,0,0,1,423.27,197.72Z"/><path class="cls-7" d="M385.18,149.66c2.8-1.9,6-.79,9-1.26a22,22,0,0,1,17.54,15.49,5.17,5.17,0,0,1-.83,4.68c-2.41.5-4-.57-5.58-2.38a23.84,23.84,0,0,0-16.88-8.58,6.28,6.28,0,0,1-1.95-.33c-1.76-.73-4.22-.61-4.63-3.15S383.57,150.78,385.18,149.66Z"/><path class="cls-4" d="M340.07,79.51c-3.32,1.86.21,3,.75,3.9,1.25,2,1.66,3.54-.33,5.15-2.31,1.87-3.27-.46-4.35-1.62-2.46-2.66-4.56-5.66-7.07-8.27a14.36,14.36,0,0,1-3.93-13.19A53.94,53.94,0,0,1,340.07,79.51Z"/><path class="cls-10" d="M347.2,568.65c-.09-1.75-.67-3.57.67-5.13C348,565.28,348.34,567.06,347.2,568.65Z"/><path class="cls-3" d="M212,458.25c-1.39,21.95-6.4,42.61-22.19,59.11-6.27,6.56-13.91,10.13-23.27,8.48-9.69-1.7-16.71-8.07-17.2-17.84-1.42-28.66,8.57-52.62,31.59-70.39,5.8-4.48,12.69-5.41,19.86-3.29,8,2.36,10.37,8.65,11.16,16A73,73,0,0,1,212,458.25Z"/><path class="cls-6" d="M216.2,407.48c1.28-1.24,1-2.81.61-4.21-3.59-12.58-2.05-24.95,1.63-37.16a6.07,6.07,0,0,0-1.27-6.35c4.23.91,6.63,4.62,10.06,6.79,16.88,10.66,35,18.26,53.94,24.32a373.5,373.5,0,0,0,61.24,14c10.45,1.49,21,3.29,31.72,2.81,1.87-.08,4-.79,5.68.86-2.81,0-6.1-.82-8.29.36s-1.49,4.9-2,7.38c-2.15,10.06-7.39,18.11-14.22,25.44-2.12,2.27-6.09,2-7.22,5.47-11.52,1.11-22.76-1.27-34.1-2.66-14.58-1.78-28.74-5.51-42.8-9.49-8.06-2.27-15.76-6-23.47-9.35a224.5,224.5,0,0,1-29.49-16.18C217.33,409,216.48,408.54,216.2,407.48Z"/><path class="cls-7" d="M508.59,269c6.35.36,12.69.6,18.53,3.5,5.29,2.63,6.64,6.13,4,11.43-5.79,11.62-15,20.21-25.35,27.71-4.39,3.2-9.51,2.84-14.33.8-11.19-4.73-19.69-12.88-27.06-22.25-2.67-3.39-2.31-7.06.7-10.41,2.55-2.85,5.85-4.36,9.26-5.66C485.38,270,496.92,269,508.59,269Z"/><path class="cls-11" d="M347.87,220.05c-.7,5.55-1.41,11.31-5.52,16-4,4.48-8.63,4.61-12.15-.19a25.81,25.81,0,0,1-4-24.12c2-6.36,6-9.46,10.86-9.31,5.52.18,7.2,4.11,9.8,10.52C347.67,215,347.53,217.5,347.87,220.05Z"/><path class="cls-7" d="M304.07,189.59c1.33-9.15,6.88-15.55,13.87-21,3.16-2.46,6.6-4.44,10.66-5,3.64-.48,6.9.75,8.2,4.15,1.4,3.64-1.64,5.35-4.46,6.64-7.77,3.57-13.95,8.69-17.8,16.59-1.33,2.73-3.69,5.49-7.55,4.29C304.31,194.47,303.87,192.12,304.07,189.59Z"/><path class="cls-12" d="M407,189.44c1.78.27,3.06,1.23,2.89,3.17a2.88,2.88,0,0,1-3.32,2.82,2.71,2.71,0,0,1-2.64-2.92C403.85,190.53,405,189.56,407,189.44Z"/><path class="cls-13" d="M333.38,208.82a2.83,2.83,0,0,1,3,3.06,2.63,2.63,0,0,1-2.63,2.92,2.84,2.84,0,0,1-3.35-2.78C330.27,210.18,331.35,209,333.38,208.82Z"/><path class="cls-14" d="M276.12,648.32c19.89,0,39.79,0,59.68.15,3.11,0,4.82-.73,4.29-4.14,9.36.62,18.76.93,29.24,4-6.89,3.4-13,3.41-18.95,3.91-29.21,2.46-58.52,2.86-87.82,3.51-33.48.73-66.95.12-100.41-.75-21.93-.57-43.94-.9-65.68-4.57-1.46-.24-3-.22-4.74-2.18,8.82-3.18,17.75-2.85,26.42-3.92l-.1.27c2.6,1.83,5.57,2,8.59,2,12.64,0,25.28,0,37.92,0,2.64,0,5.38-.28,7.6,1.69l64,.06c1.69-1.66,3.87-1.77,6-1.79q13.94-.12,27.87,0C272.23,646.58,274.4,646.71,276.12,648.32Z"/></g></svg>