<svg xmlns="http://www.w3.org/2000/svg" viewBox="0 0 650 650"><defs><style>.cls-1,.cls-12,.cls-3{fill:#987554;}.cls-1{opacity:0.17;}.cls-2{fill:#e5d3b3;}.cls-3{opacity:0.73;}.cls-4{fill:#c6b59b;}.cls-5{fill:#020202;opacity:0.31;}.cls-6{fill:#eeb08c;}.cls-7{fill:#e8b8a0;}.cls-8{fill:#dba082;}.cls-9{fill:#fbd5c0;}.cls-10{fill:#d1b0a3;}.cls-11{opacity:0.05;}.cls-12{opacity:0.29;}.cls-13{fill:#f9f9f9;opacity:0.25;}</style></defs><title>iconos</title><g id="historia"><path class="cls-1" d="M469.23,558.1a14.75,14.75,0,0,0-4.49-1.07c-7.56-.56-14.07,4.81-20.23,9.24-31.95,23-73.45,26-112.09,33.47-10.37,2-21.07,4.38-31.37,2-27.3-6.2-47.59-36.3-68.55-53.11-32.73-26.26-76.26-39-118-37.4-9,.34-18.13,1.31-26.79-1-18.51-5-20.11-25.15-26.18-40.46a692.82,692.82,0,0,1-23.45-69.87c-4.5-16.25-9.54-32.7-9.62-49.39-.09-19.86,1.47-39.56,2.92-59.35,1.87-25.45,2.21-50.82,5.33-76.19,6-48.33,18.92-95.74,44.61-137.49,6.27-10.19,13.22-20.41,23.26-26.91C128.14,35.31,165,32.87,192,36.05c31.76,3.74,63.11,15.74,90.48,32,6.39,3.81,12.87,8,20.25,9,13.74,1.83,26.07-7.71,37.11-16.09,22.61-17.16,47.7-31.89,75.38-38.15,45.77-10.35,76.54,8.39,111,35.48,68,53.45,70.89,142,70.57,221.78-.31,79.12-5.49,158.29-17.59,236.47-4.55,29.4-12.07,63.24-39.74,79.86-14.75,8.87-36.22,8.55-47.08-4.8-4.87-6-7.05-13.65-10.57-20.51C479,565.65,474.73,560.33,469.23,558.1Z"/><path class="cls-2" d="M604.05,399.8c-8-11.88-18.79-21.66-30-30.56a323.91,323.91,0,0,0-43.89-29.3c-12.5-6.94-25.79-13.08-39.89-15.84-12.52-2.45-28.85-2.69-39.36,5.66-2.09,1.66-4.23,3.38-5.52,5.71a16.65,16.65,0,0,0-1.61,4.94A51.49,51.49,0,0,0,443,351c0-.24-4.64.2-5.05.25a10.88,10.88,0,0,0-7.31,3.45c-2.74,3.13-2.88,7.92-3.39,11.86-.42,3.23,1.35,5.64,2.75,8.44l-2,2c-1.89,1.89-2.89,3-3.52,5.65a23.94,23.94,0,0,0,7.82,23.59c6.88,5.62,16.68,7.38,25.11,9.42,4.24,1,9.22.34,13.59.34,35.69,35.69,50.89,75.7,58.92,125.1,4.09,25.19,7.38,51.3,20.24,73.35,7.27,12.46,17.06,21.92,28.21,29.76a391.55,391.55,0,0,0,70.4-69.41c-15.89-28.93-19.71-58.47-22.41-91.28C624,454.4,620.41,424,604.05,399.8Z"/><path class="cls-3" d="M558.5,526.42c8.45-.66,16.5-3.94,22.13-10.64,5.37-6.38,6.76-15.53,10.83-22.75a145.16,145.16,0,0,1,10.38-15.87,37.57,37.57,0,0,1,6.1-6.56c2.59-2.14,5.54-2.88,8.29-4.6,5-3.09,4.66-12.52,4.94-17.52s-.73-8.48-2-13.09q-1.28-4.77-2.84-9.44A109.45,109.45,0,0,0,609,408.4a106.18,106.18,0,0,0-21.48-27.49A258.69,258.69,0,0,0,557,357c-11.48-7.71-23.24-14.94-35.4-21.53l0,0c-2.13-1.06-6.22-.76-8.61-1.07-2.17-.28-5.89-1.55-7.84-.26a5.53,5.53,0,0,0-1.33,1.44A37.79,37.79,0,0,0,498,348.44a20.49,20.49,0,0,0-.1,10.57,29,29,0,0,0,2.49,5.36c4.06,7.43,8.16,15,11.79,22.69,3.3,7,4.44,14.24,2.14,21.72-1.84,6-5.76,9.1-11.89,10.09C495,420.08,487.52,420.5,480,421h-3l.37,1.65,6.42,7.35,5.94,7.52,4.8,6.71,4.58,7,5.73,9.94,5.8,11.76,4.84,11.67c6.55,15.78,15.81,40.11,36.18,41.76A43.39,43.39,0,0,0,558.5,526.42Z"/><path class="cls-4" d="M429.94,374.9c1.58,1.59,2.74,3.54,4.18,5.25a34.88,34.88,0,0,0,2.77,2.93c.25.24,2.63,2.05,2.55,2.29.23-.69-.34-1.33-.79-1.78C435.74,380.7,432.82,377.82,429.94,374.9Z"/><polyline class="cls-5" points="513.5 416.5 505.5 407.5 495.5 397.5 477.5 385.5 466.5 378.5 456.5 373.5 446.5 368.5 436.5 364.5 427.5 361.5 427.5 367.5 428.5 372.5 429.5 374.5 427.5 376.5 425.5 380.5 423.5 386.5 423.5 390.5 424.5 393.5 425.5 397.5 426.5 399.5 427.5 401.5 429.5 403.5 430.5 404.5 432.5 406.5 435.5 408.5 437.5 409.5 441.5 411.5 444.5 412.5 448.5 413.5 452.5 414.5 456.5 415.5 458.14 415.82 459.62 416.04 462.1 416.21 463.77 416.22 465.61 416.17 468 416 470.89 416 473.24 418.28 474.88 419.98 477 422.25 477.99 423.33"/><path class="cls-6" d="M472.27,388.42a9.51,9.51,0,0,0,.06-5.39c-.74-2.85-3.84-5.38-6.29-6.74-4.24-2.34-10.89-4.87-15.37-1.82a6.9,6.9,0,0,0-3,4.49c-.36,3.32,2.75,6.86,5,8.86,3.08,2.7,7.27,4.74,11.43,4.52a14.36,14.36,0,0,0,5.33-1.52,5.73,5.73,0,0,0,2.59-1.94A3.29,3.29,0,0,0,472.27,388.42Z"/><path class="cls-6" d="M470.48,366.53a40.41,40.41,0,0,1-6.25-5.2c-1.21-1.27-3.73-3.92-3.73-5.83a13.14,13.14,0,0,1,.57-4.75,4.28,4.28,0,0,1,1.79-2.24,5.63,5.63,0,0,1,1.65-.55,20.42,20.42,0,0,1,16.71,4.53c2.27,2,5.31,4.92,5,8.26a9.64,9.64,0,0,1-4.34,7.42C478.1,370.49,473.81,368.9,470.48,366.53Z"/><path class="cls-6" d="M456.49,398.53c5.63.23,12.32,2.56,15.14,7.29,1.63,2.72.07,5.37-2.08,7.2-2.46,2.09-6.41,1.83-9.41,1.29-4.61-.82-14.55-3.21-13.86-9.57.41-3.77,4.14-5.86,7.59-6.15A22.6,22.6,0,0,1,456.49,398.53Z"/><path class="cls-7" d="M453.48,399.56c1,.4,3.15,1.49,2.9,2.88s-2.43,1.81-3.59,1.93c-1.44.16-3.77-.51-4.25-2.08a2.76,2.76,0,0,1,.63-2.39,1.64,1.64,0,0,1,.5-.48C450.56,398.93,452.56,399.2,453.48,399.56Z"/><path class="cls-7" d="M454.48,374.61c1.91.31,3.48.88,4.29,2.73.23.54.83,1.69.61,2.26-.14.38-.64.55-1,.65a6.58,6.58,0,0,1-2.65.18,23.18,23.18,0,0,1-4-1.21,3,3,0,0,1-.9-.44c-.95-.74-.29-4.33,1.11-4.34A14.68,14.68,0,0,1,454.48,374.61Z"/><path class="cls-7" d="M467.5,355.5a11.8,11.8,0,0,1-1.86-2,4.72,4.72,0,0,1-.84-3.68,1.73,1.73,0,0,1,.8-1.18,1.85,1.85,0,0,1,.93-.16,8.65,8.65,0,0,1,2,.35,5.59,5.59,0,0,1,1.77.72,7.25,7.25,0,0,1,2.22,3.7,2.25,2.25,0,0,1-.31,1.61c-.84,1.19-3.48.65-4.72.65"/><path class="cls-6" d="M483.49,394.49a10.72,10.72,0,0,0,.8-5.54,44.63,44.63,0,0,1-.64-4.88c0-2.09.32-4,1.94-5.43a13.62,13.62,0,0,1,6.84-3,15.83,15.83,0,0,1,5.74-.11c2.36.45,4,1.76,5.81,3.22,8.86,7.11,17.8,17.1,13.17,29.24-3.46,9.09-13,14.7-22.51,14.62-6.6-.05-15-1.21-17.35-8.4-1.13-3.48-1.73-8.11-.45-11.61.92-2.52,2.87-3.75,4.75-5.46A7.89,7.89,0,0,0,483.49,394.49Z"/><path class="cls-8" d="M484.94,379.32,483.83,382l-.17,2.52.52,3.6.17,1.74-.24,2.8-.61,1.88-1.07,1.72-2,1.88-1.85,1.71-1.23,1.63-1,3.12-.21,3.13.26,2.67.51,2.46.62,2,1.43,2.51,1.59,1.62L482.1,420l2.47,1.12,2.65.74,2.82.46,2.12.17h1.91l3.2.08,2.09-.42,3.07-.77,1.69-.61,1.73-.77,1.68-.91,1.59-1L512,416l1.8-2.26,1.31-1.79,1.25-2.18L517,408l.86-2.28.56-2.75v-2L518,398l-.63-2.69-1.15-2.74-1.54-2.66-1.2-1.72-3.06-3.61-3-3c-.77-.66-1.58-1.76-2.54-2.11-.06,3.58,3.49,6.33,5.36,9a15.67,15.67,0,0,1,2.11,3.26,12.21,12.21,0,0,1,.7,4.06c.05,1.75.07,3.51.11,5.27a10.55,10.55,0,0,1-.55,4.53,14.27,14.27,0,0,1-3.33,3.9,25.41,25.41,0,0,1-6.65,4.69,18.89,18.89,0,0,1-15.34,0c-2.14-.92-3-2.35-4.26-4.2a10.2,10.2,0,0,1-1.12-5,5.1,5.1,0,0,1,.38-2c1.06-2.24,4-3.05,5.57-4.92,1.87-2.29,1.45-6.46.57-9-.61-1.78-1.87-3.29-2.31-5.11-.18-.75,0-1.49-.21-2.21-.21-.89-.59-1.78-.88-2.65"/><path class="cls-7" d="M493.5,401.5a14.15,14.15,0,0,0,3-.69c1.61-.49,2.33-2.59,2.69-4.11a5.22,5.22,0,0,0-1.12-4.66,8,8,0,0,1-2-2.84L495,386.05a3.25,3.25,0,0,1-.26-1.33c.11-1.13,1.76-2.19,2.51-2.91a.48.48,0,0,0,.18-.26.42.42,0,0,0,0-.29c-.38-1.11-.87-2.14-2.14-2a5.07,5.07,0,0,0-2.81,1.41c-1.29,1.41-.94,3.38-.61,5.09.77,4,1.75,8.16,1.67,12.29a4.12,4.12,0,0,1-.39,2C492.56,401,492.09,401.62,493.5,401.5Z"/><path class="cls-4" d="M443.21,350.85c1.58,1.59,2.73,3.54,4.18,5.25a34.91,34.91,0,0,0,2.77,2.94c.25.23,2.63,2,2.55,2.28.23-.68-.35-1.32-.79-1.77C449,356.65,446.09,353.77,443.21,350.85Z"/><path class="cls-9" d="M360.62,244.12c-11.11-11.51-24.58-20.88-36-32.2-3.94-3.9-8-10-12.76-12.64-2.43-1.34-5.69-1.9-8.34-2.78-9.41-3.92-18.61-7.41-28.82-8.63a49.37,49.37,0,0,1-8.57-1.37c-3.46-1-6.54-3-9.58-5-13.38-8.66-26.6-17.67-40.53-25.42-9.74-5.43-20.11-4.38-30.39-7.81-4.09-1.36-7.67-3.89-11.55-5.76-3.35-1.61-6.91-2.73-10.26-4.32-8.21-3.89-14.73-10.35-22.06-15.56-7.56-5.36-16.54-8.81-25-12.51-6.81-3-13.8-5.68-20-9.73-5.45-3.53-10.21-8-15.38-11.94A123.63,123.63,0,0,0,68.42,80,385,385,0,0,0,11.1,152l8.9,3,10,4c5.57,14.86,15.31,27.52,27.44,37.77,15.24,12.87,34,20.48,49.48,32.82A109.2,109.2,0,0,1,118.1,240c3.08,3.26,5.9,7.86,9.47,10.54,7.17,5.37,17.76,8.64,25.92,12.42a7.69,7.69,0,0,1,2.44,1.53,7.54,7.54,0,0,1,1.25,2c6.61,13.56,15.58,25,14.91,40.74-.26,6.06-.71,12.35,1.13,18.23,1.25,4,1.58,4.51.78,8.52l-1,5-2,6v7l1,7,1,7,4,2,5-1,4-4,5-6c0-2.17,3.43-6.33,4.49-8.38a73.94,73.94,0,0,0,5.77-12.92,43.54,43.54,0,0,0,1.5-7.4A87,87,0,0,0,202,305c0-.08-1-6-1-6l6-1c3.2-1.87,6.11-3.66,8-7l5,9c-3.42,2-3.92,6.69-4,10.67-.21,7.13-.42,14.36.88,21.41,1.09,5.87,4.68,11.91,1.48,17.79-4.72,8.7-7,19.86-2.33,29.12l2,4,6,5h8l5-4,3-5,3-9c2.54-20.29,4.76-40.76,8.41-60.95.86-4.8,4.2-12.23,2.59-17.05-.05-.14-3-9-3-9l-3-6-4-7-6-9-6-6a24.18,24.18,0,0,1-3.47-3.79c6.92-3.11,14.56,5.7,17.47,10.79l4,7,4,6,5,6,7,6,1,4c2.2,13.18,5.37,25.38,11.93,37.23a25.2,25.2,0,0,1,2.53,5.42,30.89,30.89,0,0,1,.6,7.26c.17,5.57,1.76,10.38,3.44,15.61,1.35,4.23,1.82,8.77,4.31,12.58a15.07,15.07,0,0,0,7.84,6.26c6.7,2.12,15.85-2.62,15-10.44-.59-5.39-2.76-10.47-3.81-15.79-1.26-6.36-.89-12.86-1-19.31-.11-5.83-1.52-11.18-2.18-16.9-.89-7.71-1.88-15.43-3.4-23.05-3-15.1-8.09-30.73-19.23-41.87l-11-11c-2.13-2.13-7.23-9.57-10-10.12,13.3,2.7,26.13,6.84,39,11.12l3,3c13.89,10.43,28.89,19.45,42.73,30.05,6.45,4.95,12.83,10.2,20.36,13.26a30.27,30.27,0,0,0,14.31,2.27c1.16-.12,11.36-2.52,11.1-4.09C389.64,265.36,371.88,255.77,360.62,244.12Z"/><path class="cls-10" d="M190.5,212.5l-.65.19c-4.19,1.19-8.29,2.31-11.7,5.2a13.14,13.14,0,0,0-4.73,8.19c-.56,4.56,2.65,9.52,5.05,13.19a55,55,0,0,0,12.94,13.84c1.08.78,2.24,1.44,3.33,2.19A51.39,51.39,0,0,1,206,265.83a52.84,52.84,0,0,1,7.41,12.42,20.29,20.29,0,0,0,1.48,3.52,11.2,11.2,0,0,1-.44-2.63,38.7,38.7,0,0,0-6.66-14.44c-3.3-4.46-7.71-7.79-11.82-11.46s-8.66-7.5-12.3-11.74c-3-3.54-6.52-7.69-7.36-12.42C174.64,219.66,183.79,216.05,190.5,212.5Z"/><path class="cls-10" d="M158.5,267.5c4.63,4.63,8.75,9.72,13.53,14.22a95.36,95.36,0,0,0,17.47,13,46.07,46.07,0,0,0,4.63,2.4,34.52,34.52,0,0,0,8,2.32c-2.61-.52-5.39-.22-7.9-1.12a19.93,19.93,0,0,1-3.57-1.88c-1.19-.72-2.44-1.26-3.68-1.87a93.12,93.12,0,0,1-8.29-4.32,34.88,34.88,0,0,1-2.94-2,30.8,30.8,0,0,1-5.31-5c-1.83-2.25-3.2-4.91-5.21-7-1.24-1.26-2.51-2.48-3.76-3.73l-3-4.15Z"/><path class="cls-11" d="M215.22,291.4l2.26,4.06,2,4v.85l-1,.88L216.65,305l-.15,1.52-.62,7.23-.06,5.49.16,5.48.6,5.8L217,335l1.93,4.85.64,3.62-.08,3-.9,2.92-1.2,2.34-1.08,2.44-2.16,7.06-.69,6.76,2,9.81,2.23,4.57,3.44,3.24L224,388h6.1l4.89-2.39.93-.75L236,379c-1.43-4.29-3.79-9.21-2.55-13.8a17.53,17.53,0,0,1,1.57-3.58A121.43,121.43,0,0,1,241,351l1-4c.73-2.93-4.58-7.37-6.13-9.3-3.6-4.48-4.36-10.25-4.85-15.84-.66-7.5.36-14.58,2-21.86l2-7c.57-2,2.89-4.34,4-6.06-.39.59-7-5.44-7.54-6a32.28,32.28,0,0,1-5.45-8.36A30,30,0,0,1,224,254v-2l7.8-1.44,3.85,1,4.47,3.1,5.31,6.39L250,269l5.65,8,3.35,4,4.1,3.51L266,287l1,4,1.32,7.14,2.71,11,2.58,7.65,3.88,8.74,2.82,5.28,1.23,3.2.4,2.68L282,340v2l.78,4.95,1.7,6.36,1.52,4.93,1.22,4.71,1.53,4.24,2.05,3.28,1.88,2,2.33,1.71,3,1.31,4.21.34,3.65-.89c1.6-.7-.9-3.34-1.55-4.5a41.31,41.31,0,0,1-5.21-15.95c-.33-3-.12-5.94-.29-8.91s-1-5.63-1-8.52c0-2.36.83-5.73-.58-7.82-1.14-1.68-3.66-2.75-5.37-3.74a26.83,26.83,0,0,1-6.07-4.49c-2.68-2.8-3.56-6.46-4.88-10l-3-13,1-11,3-11,1-3a24.54,24.54,0,0,1-4,.74,9.58,9.58,0,0,1-5.2-1.05,16.61,16.61,0,0,1-4.14-3.34c-3.58-3.71-7.35-8.38-8.77-13.44-.34-1.19-.49-2.44-.83-3.63A13.51,13.51,0,0,0,256,246c-1.95-1.69-4.24-2.83-5.39-5.29a13.1,13.1,0,0,1,.3-10c1.52-2.85,7.29-3.15,10.08-3.62l2.27.46,4.62.71,4.69,1.15,9.32,2.59,6.8,2.08,7.64,2.47L301,238l6.77,5.78,6.83,4.83,7.72,5.28,6.66,4.52,14.49,10.19,7.33,5.59,4.9,3.63L363,282.4l5.26,2.37,6.1,1.59,4.34.35,4.26-.45,3.78-1c-1,.27-4.73-2.09-5.84-2.59a111.7,111.7,0,0,1-18.82-10.48c-2.64-1.89-5.53-3.63-7.59-6.18-2.36-2.9-2.64-6.54-3.52-10-.08-.34-4.34-.49-4.79-.54-3.86-.47-6.73-3-9.95-4.92-3.73-2.22-7.44-4.48-11-6.9-8.5-5.73-15.56-12.15-21.22-20.64l-4-6c-2.84,1.62-5.32,3.46-8.56,4.25a31.18,31.18,0,0,1-10.29.45,25.4,25.4,0,0,1-7.76-1.77c-4.22-1.85-5.8-5.43-8.39-8.93-.28-.38-5.2.4-5.89.44-2.15.09-4.31.13-6.46.08a85.35,85.35,0,0,1-12.86-1.23c-8.32-1.45-16.87-2.7-25.34-2.39s-16.25,2.79-24.31,4.79l-2.88,1.48-3.5,1.93L181,218l-2,2-1.62,2-1,2.43-.26,1.63L176,228l.48,1.91,1.16,3.16,2.92,4.65,2.38,2.94,8.5,8.56,7.47,6.59,4.16,3.7,5.3,6,2.95,4.93,2,4.67L215,279v10Z"/><path class="cls-10" d="M262.89,227.09a14.93,14.93,0,0,0-6.66-3.78c-2.85-.6-5.72.17-8.52.74a86.46,86.46,0,0,1-9.1,1c-6.87.64-13.76,1.06-20.61,1.92,11.51,1.44,22.84,1.19,34-2l3-1c.5-.17,2.55,1.07,3,1.28A25.6,25.6,0,0,0,262.89,227.09Z"/><path class="cls-10" d="M230.57,250.62a46.89,46.89,0,0,0-7.1-1.26A31.32,31.32,0,0,0,216,249c1.14.47,2.17,1.14,3.26,1.67a26.84,26.84,0,0,0,3.93,1.26q4.05,1.25,8.13,2.4L229,251S230.44,250.67,230.57,250.62Z"/><path class="cls-12" d="M583.83,603c-11.44-12.26-16.32-27.77-19.86-43.78-4-17.83-5.73-36-8.51-54.07s-6.69-36.47-14.6-53.18c-5-10.68-12-19.44-19.36-28.48l-8-7L478,423.31l1.61,1.8,9,10.87,7.55,10.59,4.56,7.26,6,10.81,5.4,11.5,4.65,11.75,4.78,14.71,3.37,12.79,3.25,15.23,2,11.55,3.25,19.88,3,15.31,3.83,14.19,2.29,9,5.88,10.76,10.47,15.44L573,640.2l7,4.61q14-11.19,26.9-23.67A108.63,108.63,0,0,1,583.83,603Z"/><path class="cls-13" d="M291,191.7l-5.86-1.77-4.62-1.1-4-.7-4.51-.55-8.84-2.2L257.29,182l-6.74-4.39-6.48-4.23-8.17-5.29-6.28-4-6.43-3.91-5.2-3-5.71-2.88-5.39-1.71-9-1.68-8.24-1.51-5.9-1.86-5.66-2.91-6-3-7-2.85-5.44-2.85-4.87-3.28-4-3-3.52-2.79L142,123l-4.62-3.17-4.94-2.68L125,113.67l-6-2.58-6.52-2.82-4.34-1.89-4.76-2.23-4-2.15-3.79-2.39L91,96.27l-4.29-3.48-3.19-2.61L77.91,86,67.74,79.58q-4.87,4.9-9.58,10L64,94l16,10,10,6,10,5,12,5,13,3,8,5,11,8,12,6,12,9,16,9,7,4,8,1,6,1,12,5,9,5,13,6s13,7,14,7,10,2,10,2l11,3,8,1h17.85l-5.19-2Z"/><path class="cls-11" d="M186.06,291.73a18.14,18.14,0,0,0-.34-2.94,13.41,13.41,0,0,0-1.42-3.28l-6-11.11c-1.46-2.7-3-7.68-5.52-9.49-2.18-1.58-6.43-1.87-9-2.85a33.34,33.34,0,0,1-8.57-4.62c-6-4.58-10.76-10.49-15.86-16-19-20.47-45.13-31.87-64.26-52.35A157.77,157.77,0,0,1,61.17,172c-3.9-5.55-6.75-12.06-12.46-16s-12.88-5.41-19.46-7.66a68.69,68.69,0,0,1-12.56-5.76q-2.9,4.48-5.69,9V152l2.5.83,10.62,3.82L30,159l.95,2.41,4.08,8.5,3,5,5,7.06,5.59,6.49,7.68,7.35,8.18,6.44L74.77,209l12.38,7.4,8.24,5.07,10.25,7.13L113.1,235l4.9,5,2.92,3.36,4.66,5.46,5.6,4.12,6.06,3.13,7.68,3.28,6,2.49L156,265l2.39,3.92,4.54,8.46,2.77,5.25,3.26,7.21,2,6.23,1.13,7.87-.21,8.84v3.94l.41,4.72L173,325l.89,2.65.54,3L174,334l-1.44,6.31-1.56,5.4v5l.08,1.89.5,3.47.51,3.57.44,3.06L173,366l4,3c1.68-7-1.23-16.58,3-22.69,1.43-2.08,3.69-3.58,4.72-5.88a13.23,13.23,0,0,0,.84-4.68c.35-6.12.53-12.29,1.2-18.37.68-6.23,1.39-12.54.45-18.78C186.83,296.31,186.26,294,186.06,291.73Z"/></g></svg>