<svg xmlns="http://www.w3.org/2000/svg" viewBox="0 0 650 650"><defs><style>.cls-1{fill:#dcecd5;opacity:0.49;}.cls-2{fill:#664229;}.cls-3{fill:#e5d3b3;}.cls-4,.cls-5{fill:#987554;}.cls-4{opacity:0.17;}.cls-6{fill:#88180e;}.cls-7{fill:#b99976;}.cls-8{fill:#e1c4ab;}.cls-9{fill:#543427;}</style></defs><title>iconos</title><g id="ingresar"><circle class="cls-1" cx="326.15" cy="325.36" r="324.75"/><path class="cls-2" d="M355,365.24l.75-.15c13.44-2.75,27.22-5.17,40.78-7.8,17.39-3.37,36.33-3.23,50.36,8.92,27,23.37,45.63,57.68,40.92,94.06-1,7.93,4,10.74,9.09,13.6,14.89,8.31,31.38,9.68,48,10.38,17.17,2.26,17.17,2.26,13.9,15.59-5.29,11.88-16.53,12-26.86,12.89-21.12,1.88-42-2.75-63-3.25-14.22-5.51-16.24-8.9-6.93-17.09,19.85-17.47,13.25-36.65,4.69-55.23-12.48-27.07-50.51-34.48-73.23-15.84-8.26,6.78-15.14,14.63-21.83,22.79-3.54,4.1-5.36,9.84-11.16,11.81-5.94,1.41-11.32-.71-16.74-2.67-4.05-1.84-8.08-3.73-11.23-7-3.65-4.71-4.19-10.31-3-15.66,4.3-18.74-.23-36.14-6.95-53.39-1.74-4.44-4.87-9.43,1.28-13.29,3.94-2.48,11.58.36,15.62,1.24A34.53,34.53,0,0,0,355,365.24Z"/><polygon class="cls-3" points="261 252 248 261 238 256 236 242 237 225 244 210 253 212 264.28 215.13 268 219 267 235 261 252"/><path class="cls-3" d="M167.22,497.63c3.2-5.49-1.76-11.11.28-16.61,9.41-1.69,12-14.23,22.55-14.16,4.66-.32,9.09.31,13,3.06.94.74,1.86,1.53,2.85,2.24a5.78,5.78,0,0,0,1,.61c.32-.8-.63-.54-.89-1-4.71-5-9.32-9.95-13.79-15-3.22-4.46-3.68-9.62-3.76-14.86.34-5.82-1.69-6.9-6.2-3.06-2.16,1.15-4.28,2.68-6.77.78,7.35-11.43,15.37-22.5,19.41-35.73,1.86-1.54.55,7,3.69,1.18,1.22-2.25,1.87-4.78,3.06-7.07C206,392.15,212,387.9,216,381.78c3.31-5,8.53-6.18,14.2-6.43,7.64-.34,15.37.88,22.92-1.18a25.62,25.62,0,0,1,4.14-1c10.77-2.07,15.76,3.62,21.62,12.29,15,22.27,21.92,43.56,3.91,67.58-5,6.71-2.87,13.79,5.4,18.28,9.52,5.17,15.11,13.21,15.25,24.47.13,9.73-5.32,14.23-14.39,14.38-17.23.3-34.51,1.75-51.66-1-9.22-4.6-6.95-10.57-1.48-16.31,4.3-4.51,10.24-5.69,14.08-6.08-9.13,1.82-21,3-23.24,17.78-15.69,4.24-31.45,5.76-47.28.68C174.79,503.76,169.83,502.56,167.22,497.63Z"/><path class="cls-4" d="M183,497.63c10.76,3.74,21.31,8.91,32.85,6.58,4-.8,8.12-.66,12.19-.95,2.92-2.16,4.6.54,6.41,2.71,13.37,0,26.76-.63,40.1.26,8.62.57,12.61-2.79,11.42-14.22,5.73,2.38,12.44-3.3,17.62,3.56,1.77,8.16,7.29,8.32,12.11,8.51,15.67.61,31.4,2,47-1,11.76-2.3,23.47-.08,35.2-.56,5.52-1.22,10.52,1.93,15.76,3.07,19.71,1.05,39.4,3,59.18,1.92,6-.33,10-2.58,11.94-10,10.23,6.52,20.66,3.88,31.17,1.44,6.81-1.59,13.86-5.26,20.37,1.49,5.37,1.51,14.72.93,14.72,6.62,0,7.41-9,6-14.15,7.35-35.78,9.54-71.77,16.53-108.36,19.77-37.07,3.28-74.08,2.87-111,1.59-31.85-1.1-63.58-6.31-95.08-13.73-17.45-4.11-34.77-8.84-52.15-13.29-2.37-2-4.59-4.14-2.15-8.27C173,498.91,177.83,497.05,183,497.63Z"/><path class="cls-5" d="M371.19,264.45c6.64,16.93-4.46,33.39-11,49.42-5.33,13-11.36,25.52-15,39.18-.73,2.76-1.58,5.8-4,7.32-3.2,2-7.44.35-10.62-1.74a49.08,49.08,0,0,1-18.78-23.25c-1.07-2.78-5.78-9.27-8.64-4.13-1,1.85-.63,4.15-.1,6.21s1.18,4.23.55,6.25c-1.85,6-38.15,19.61-39.56,14.13-3.77-14.7-7.18-29.25,10.58-38.06,1.53-.76,1.61-3.09,1.94-4.86.94-4.11,4.65-4.41,7.62-5.51,1.19-1.23,1.65,1.34.85-.31-.71-1.47-1.95.33-2.91-.34a4.8,4.8,0,0,1-2.67-2.19c-.09-15-1.3-29.48-14.62-39.52-3.05-3.51-7.43-4.78-11.34-6.85-2.92-1.54-5.47-3.45-2.66-7.23,8.44-7.45,8.51-17.71,8.87-27.64.71-19.87,27-12.59,39.25-9.16,7.06,2,14,6.07,20.47,9.54,9.41,5.06,19.22,9.45,28.45,14.87,8,4.68,15.54,10.49,20.48,18.3A32.28,32.28,0,0,1,371.19,264.45Z"/><path class="cls-5" d="M144.47,304.84c-2.58-10.15-5-20.32-6-30.76-1.59-16.37,7.53-27.09,20.45-35.71,16.89-11.28,35.23-22.27,55.19-27.9,11.93-3.37,41.1-10.9,38.34,10.52-1.4,10.87-4.59,21.34-7.88,31.75-2.71,5.12-8.52,6.67-12.29,10.59-15,3.31-22.29,14.51-28,27.33-1.76,1.13-3.32,1-4.6-.79a9.15,9.15,0,0,0,1.67,3.55,28,28,0,0,1,5.27,9.46,22.81,22.81,0,0,0,6.74,13.19C223.37,325.24,232,334.6,229,349.88c-.76,3.81,2.57,5.34,6.09,5.85,4.42.64,9.22.13,12.7,3.91-1.39,7.65-7.71,6.4-12.73,6.61-11.06.45-21.39-3.3-31.76-6.54.38-8.81,1.33-17.31-3-26-5.3-10.62-9.65-11.38-15.81-1.31a105.47,105.47,0,0,0-10.79,13.16c-2.64,4-6.09,8.31-11.31,7.13-10.57-2.38-11.09-18.86-12.88-27.27C148,318.52,146.21,311.68,144.47,304.84Z"/><path class="cls-6" d="M203.27,359.71c2.63-2.66,4.63-3.15,9-1.63,11.23,3.91,23,8.19,35,1.58,4.59-5.63,9.89-7.42,16.32-3,9.91-2,19.79-4.41,28.17-10.1,4.17-2.83,7.57-2.12,11.54-1.12,4.54.29,6.41,3.1,6.87,7.25-7.35,14.68-21,19.22-35.68,21.69-6.18,1-12.71-.78-18.71,2.08l0,.06c-14.16,3.35-28.94-1.22-43.13,3.63-4,1.38-7.22-3-9.58-6.49C199.86,369,203.41,364.37,203.27,359.71Z"/><path class="cls-5" d="M175.51,439.6l4.74-3c4.6-1.9,8.91-2.68,11.52,3,1.79,5.24-1,11.44,3.37,16.14,1.15,3.94,5.4,6.26,5.68,10.71-2.89,4.21-7.92.72-11.27,3.16-6.71,1.52-10.31,6.69-13.48,12-3.64,6.13-6,2.29-8.57-.7C166,466.41,168.2,452.51,175.51,439.6Z"/><path class="cls-5" d="M203,373.67c11.62,7,24.19.94,36.24,2.57,5.4.73,11,.23,16.47.29-2.1.75-4.41,2.49-6.28,2.1-21.36-4.43-34.6,7.27-46.06,22.7-7.47-2.05-4-7-3-11.36Z"/><path class="cls-7" d="M200.33,390c.79,3.85-1.15,8.43,3,11.36-.14,4.45-2.3,8.56-6.4,8.94-3.43.31-1.15-4.22-2.06-6.4Z"/><path class="cls-5" d="M464.54,509.57l-21.12.11c-21.23-3.63-39.37-14.7-57.66-24.93-14.58-8.16-15.43-23.85-17.24-38.46,10.27-13.52,21.16-26.58,37.15-33.48,17.94-7.75,56.83,7.49,64.42,25.41,4.06,9.61,6.61,20,8.91,30.19,3.25,14.4-6.3,23.22-15.82,31.25C457.35,504.58,458.79,507,464.54,509.57Z"/><path class="cls-5" d="M324.11,363a3.39,3.39,0,0,1,.1,1.7c10.19,26.18,11,53.65,11.12,81.21-1.71,14.65-12.59,24.51-19.72,37.94,7.24-8.73,12.05-17.37,16.55-26.17,2.6-5.09,4.87-10.13,12.08-7.07l16.46,3.78c4.51,10,.46,20.64,1.84,30.93a5.46,5.46,0,0,1-6.22,5.91c-12.23-1.94-23,5.24-34.91,4.91-6.8-3.22-16,6.25-21.45-4.09-1.34-9.72-7.73-15.83-16.16-18.63-9.71-3.23-10.47-8.43-6.66-16.43,4.51-9.47,8.52-19.19,13.39-28.47,2.86-5.45,3.16-9.64-.5-15-5.36-7.91-10.91-16.14-13.94-25.06-3.68-10.88-10.06-13.91-20.34-11.92,15-6.4,32.73-5.66,45.87-17.37,2.66-2.37,6.27-3.61,6.58-7.85C316.48,351.1,320.34,357,324.11,363Z"/><path class="cls-3" d="M321.41,496.1c9.23-6.56,19.42-10.21,30.76-8.45,5.92.93,9.05.73,6.9-6.43-2.75-9.12-.24-18,1.63-26.88q3.92-6,7.82-12c.34.31.92.59,1,.94,4.8,37,36.91,43.67,63.23,56.65,3.66,1.8,7.92,2.38,10.69,5.8-6.42,4.49-12.92-.39-19.5.07-26.76,1.85-53.54,4-80.45,3.18a76.12,76.12,0,0,1-22.7-4.05C313.78,502.45,314.45,498.56,321.41,496.1Z"/><path class="cls-7" d="M344.24,450.57c-12.45,3.31-10.84,16.82-17.52,24.52-5,5.79-8.59,12.66-16.93,15.52,5.66-16.54,17.42-29.65,25.54-44.74Z"/><path class="cls-8" d="M233.54,506l-8.26-2.71c-2-8.13-2.08-12.93,9.15-15.47,9.94-2.25,19.38-5.18,31.76-5.66C259.93,490,252.55,489,246.6,491,239,493.51,232.93,496.63,233.54,506Z"/><path class="cls-5" d="M189.55,469.69c9.8-1.43,7.44-7.75,5.59-13.87l13.35,14.45c.16,4.73-2.24,4.42-5.34,2.7C199.15,469.67,194.23,470.17,189.55,469.69Z"/><path class="cls-5" d="M203.15,473c2.15-.16,4.31-.33,5.34-2.7,3.88,1.56,6.43,4.28,8.3,9.07C209.8,480.87,207.11,475.5,203.15,473Z"/><path class="cls-5" d="M191.77,439.68l-11.51-3c2.66-2.84,4.49-8.12,9.12-6.64C193.49,431.32,191.51,436.24,191.77,439.68Z"/><path class="cls-3" d="M263.56,356.67l-16.32,3a35.43,35.43,0,0,0-4.09-.42c-18.39.16-18.76.14-17.57-18.31.45-6.93-1.83-10.75-7.4-14.51-8.5-5.75-15.32-13.17-15-24.6,5.09-2.23,9.41,3,14.44,1.43a24.89,24.89,0,0,0,6.38-2.38c15.84-7.57,17.87-7.2,32.2,6,2.61,2.58,5.31,5,9.19,5.53,4,1.81,8.72.24,12.58,2.68,8.14,5.2-.86,8.42-2.34,9-11.71,4.83-13.81,12.76-9.59,23.78C267.29,351.12,265.44,354,263.56,356.67Z"/><path class="cls-3" d="M266.34,265.43c14.25,7.82,20.31,24.88,14.84,41.73-2.75,7.82-9.17,7.46-15.62,7-3.69-.63-6.19-3.12-8.66-5.63q-2.43-2.35-4.83-4.76c-12.55-12.64-12.67-16.73-1-30.67C256.2,270.61,260.16,265.8,266.34,265.43Z"/><path class="cls-7" d="M312.11,234.23c9.52,2.05,9.81,7.88,9.73,13.92-.34,23.24-8.72,45.27-10.95,68.36C302.68,289.07,318.31,262.37,312.11,234.23Z"/><path class="cls-9" d="M266.34,265.43c-3.5,4.21-6.46,9.17-12.92,9.25-4.31,1.79-8.38,5.08-13.49,2.34-5.27-3.06-12.33-4.83-9.91-13.52-.21-8.43,6-8.43,11.8-9l9.11,1.09C255.17,260.28,266,254.66,266.34,265.43Z"/><path class="cls-2" d="M281.11,260.31c1.26-4.51,2.86-8.32,6.95-10s6.88.73,9.21,3.74c2.71,3.53,3.23,7.36,1,11.3-1,1.83-3.49,2.59-4.29.78-2.32-5.2-4.89-7.95-10.43-3.77C283.34,262.52,281.87,261,281.11,260.31Z"/><path class="cls-2" d="M263.93,311.84c6.92,2.77,12.06-1,17.24-4.67a16.6,16.6,0,0,0,2.44.1c1,1,2.67,1.53,2.74,3.33L278,315.06a15.84,15.84,0,0,1-13.94.4A2.44,2.44,0,0,1,263.93,311.84Z"/><path class="cls-2" d="M286.35,310.6l-2.74-3.33c2.94-2,5.28-8.91,9.23-3.63C295.31,306.94,288.73,308.26,286.35,310.6Z"/><path class="cls-3" d="M230,263.5c2.07,5.51,6.43,8.6,11.52,10.92,4.81,13.08,3.42,16.8-8,22.31-5.29,2.57-9.84,6.57-15.6,8.28-9.14-.52-14.19-5.37-15.24-14.44C206.61,271.8,215.62,262.86,230,263.5Z"/><path class="cls-2" d="M208.92,250c-.38-5.65,2.55-8.42,6.18-10.5,3.22-1.85,6.3-.86,8.36,2,2.2,3.08,3.41,7.46,1.11,10.13-3.08,3.59-3.85-1.45-5.41-2.93C215.22,245,213.12,251.64,208.92,250Z"/><path class="cls-2" d="M202.73,290.57c4.67,4.53,6.89,11.61,14.09,13.49a1.79,1.79,0,0,1,.71,1.92c-.22.65-.44,1-.67,1-5.94,2-9.51-2.38-13.68-5.13C204,298,191.8,294.76,202.73,290.57Z"/><path class="cls-2" d="M217,307.16c0-1,0-1.93-.07-2.9,4.21-2.56,8.14-5.9,12.69-7.52,11.11-4,13.41-12,11.74-22.35,3.93,2.46,7.93-.69,11.88.14-10.56,12.57-10.42,13.31,6,32,.57,2.84-.7,3.84-3.4,3.43C244,293.6,230.5,300.35,217,307.16Z"/><path class="cls-2" d="M255.66,310.09l3.43-3.4,4.84,5.16.09,3.61C260,315.57,257.43,313.47,255.66,310.09Z"/><path class="cls-3" d="M252.75,216.63A14.45,14.45,0,0,0,252,214a7.11,7.11,0,0,0-.69-1.87,2.37,2.37,0,0,0-2-.82l-1.76-.16-4-.41c-2.63-.27-5.27-.51-7.91-.65-1.32-.07-2.64-.05-3.95-.13-2.64-.14-5.3-.14-7.94-.33-2.27-.16-4.66-.78-6.91-.24,6.22-1.48,12.51-2.86,18.9-3.1a25.73,25.73,0,0,1,6.62.46c4,.9,7.47,3.26,11.29,4.67s8.34,1.54,12.45,1.47c8.22-.14,16.87-1.61,24.76,1.44-6.9-.79-13.83.13-20.65,1.15-1.38.2-17.45,2.51-17.5,1.89A5.35,5.35,0,0,0,252.75,216.63Z"/><path class="cls-3" d="M253,218a74.82,74.82,0,0,0-6.27-4.16c-1.1-.67-2.21-1.33-3.34-2a13.69,13.69,0,0,1-3.26-2,.75.75,0,0,1-.25-.65.27.27,0,0,1,.12-.17.28.28,0,0,1,.13,0,71.15,71.15,0,0,1,7.69,1l.62.11c2.15.43,4.54,1.18,5.49,3.15.27.57.46,1.27,1,1.52a2,2,0,0,0,1,.05c5.47-.71,10.84-2.11,16.34-2.61a55,55,0,0,1,19.75,2.18,36.06,36.06,0,0,0-7.27-.9,69.23,69.23,0,0,0-13.19.44c-2.25.3-4.49.7-6.69,1.22a65.35,65.35,0,0,1-6.41,1.62c-1.84.24-3.69.79-5.51,1.18"/></g></svg>