<svg xmlns="http://www.w3.org/2000/svg" viewBox="0 0 650 650"><defs><style>.cls-1,.cls-5{fill:#987554;}.cls-1,.cls-4{opacity:0.17;}.cls-2{fill:#664229;}.cls-3{fill:#e5d3b3;}.cls-4{fill:#a37f61;}.cls-6{fill:#88180e;}.cls-7{fill:#dcdcdb;}.cls-8{fill:#b99976;}.cls-9{fill:#e1c4ab;}.cls-10{fill:#543427;}</style></defs><title>iconos</title><g id="ingresar"><path class="cls-1" d="M181.69,591.66a14.81,14.81,0,0,1,4.5-1.07c7.56-.56,14.07,4.82,20.22,9.24,32,23,73.46,26,112.1,33.48,10.36,2,21.06,4.38,31.36,2,27.31-6.21,47.59-36.31,68.56-53.12,32.73-26.26,76.25-39,118-37.4,9,.34,18.12,1.31,26.78-1.05,18.52-5,20.11-25.14,26.18-40.46a689.48,689.48,0,0,0,23.45-69.87c4.51-16.25,9.55-32.7,9.62-49.39.09-19.86-1.46-39.56-2.92-59.35-1.86-25.45-2.2-50.82-5.32-76.19-6-48.33-18.93-95.74-44.61-137.49-6.27-10.19-13.23-20.41-23.27-26.91-23.52-15.24-60.38-17.68-87.36-14.51-31.76,3.74-63.1,15.74-90.47,32.05-6.39,3.8-12.88,8-20.25,9-13.74,1.83-26.07-7.71-37.12-16.1-22.6-17.16-47.7-31.89-75.38-38.15C190,46,159.18,64.78,124.73,91.87c-68,53.45-70.89,142-70.58,221.79.31,79.11,5.49,158.28,17.59,236.46,4.56,29.4,12.08,63.24,39.74,79.87,14.75,8.86,36.22,8.54,47.09-4.81,4.87-6,7-13.64,10.56-20.51C171.93,599.22,176.2,593.9,181.69,591.66Z"/><path class="cls-2" d="M357.35,369.77l.75-.15c13.44-2.75,27.23-5.17,40.78-7.8,17.4-3.37,36.33-3.23,50.37,8.92,27,23.37,45.62,57.68,40.91,94.06-1,7.93,4,10.74,9.09,13.6,14.89,8.31,31.39,9.67,48,10.38C564.4,491,564.4,491,561.14,504.37c-5.29,11.88-16.53,12-26.87,12.89-21.11,1.88-42-2.75-63-3.25-14.23-5.51-16.24-8.9-6.94-17.09,19.85-17.47,13.25-36.65,4.69-55.23-12.47-27.07-50.51-34.48-73.22-15.84-8.26,6.78-15.14,14.63-21.83,22.79-3.55,4.1-5.36,9.83-11.16,11.81-5.95,1.41-11.32-.72-16.74-2.67-4.06-1.84-8.09-3.73-11.24-7-3.64-4.71-4.19-10.32-3-15.66,4.31-18.74-.22-36.14-6.95-53.39-1.73-4.44-4.87-9.43,1.28-13.29,3.95-2.48,11.58.36,15.62,1.24A34.53,34.53,0,0,0,357.35,369.77Z"/><polygon class="cls-3" points="263.38 256.53 250.38 265.53 240.38 260.53 238.38 246.53 239.38 229.53 246.38 214.53 255.38 216.53 266.66 219.66 270.38 223.53 269.38 239.53 263.38 256.53"/><path class="cls-3" d="M169.61,502.16c3.2-5.49-1.76-11.11.27-16.61,9.41-1.69,12-14.23,22.56-14.16,4.65-.33,9.08.31,13,3.06.94.74,1.86,1.53,2.84,2.24a5.29,5.29,0,0,0,1,.61c.31-.8-.64-.54-.89-1-4.72-5-9.33-9.95-13.8-15-3.21-4.46-3.67-9.62-3.76-14.86.34-5.82-1.68-6.9-6.19-3.06-2.17,1.15-4.28,2.68-6.78.78,7.35-11.43,15.37-22.5,19.42-35.73,1.86-1.54.54,7,3.69,1.18,1.21-2.25,1.87-4.78,3.06-7.07,4.3-5.83,10.35-10.08,14.36-16.2,3.3-5.05,8.52-6.18,14.19-6.43,7.65-.34,15.37.88,22.93-1.18a25.51,25.51,0,0,1,4.13-1c10.77-2.07,15.76,3.62,21.62,12.29,15,22.27,21.93,43.56,3.91,67.57-5,6.72-2.87,13.8,5.4,18.29,9.53,5.17,15.11,13.2,15.25,24.46.14,9.74-5.32,14.24-14.38,14.39-17.24.3-34.52,1.75-51.67-1-9.22-4.6-6.94-10.57-1.48-16.31,4.3-4.51,10.25-5.69,14.09-6.08-9.13,1.82-21,3-23.24,17.78-15.7,4.24-31.46,5.76-47.28.68C177.18,508.29,172.22,507.09,169.61,502.16Z"/><path class="cls-4" d="M167,503.77c12.13,3.27,24,7.79,37,5.76,4.52-.71,9.16-.58,13.75-.83,3.29-1.9,5.18.47,7.23,2.37,15.07,0,30.17-.55,45.21.22,9.72.5,14.22-2.44,12.88-12.44,6.46,2.09,14-2.88,19.87,3.12,2,7.13,8.22,7.28,13.66,7.44,17.66.53,35.4,1.78,53-.89,13.27-2,26.47-.07,39.69-.49,6.23-1.07,11.87,1.69,17.77,2.69,22.23.91,44.43,2.62,66.73,1.67,6.79-.29,11.29-2.25,13.47-8.74,11.53,5.7,23.29,3.39,35.14,1.26,7.68-1.39,15.63-4.61,23,1.3,6.05,1.32,16.61.82,16.6,5.79,0,6.48-10.15,5.22-16,6.43-40.35,8.35-80.93,14.46-122.19,17.29-41.79,2.87-83.53,2.51-125.21,1.4-35.92-1-71.7-5.53-107.22-12-19.66-3.59-39.2-7.73-58.79-11.63-2.68-1.78-5.18-3.62-2.43-7.22C155.73,504.89,161.22,503.26,167,503.77Z"/><path class="cls-5" d="M373.57,269c6.65,16.93-4.46,33.39-11,49.42-5.33,13-11.36,25.52-15,39.18-.73,2.75-1.58,5.79-4,7.32-3.21,2-7.45.35-10.63-1.74a49.08,49.08,0,0,1-18.78-23.25c-1.07-2.78-5.78-9.27-8.64-4.13-1,1.85-.63,4.15-.1,6.21s1.18,4.22.55,6.25c-1.84,6-38.14,19.61-39.55,14.13-3.78-14.7-7.18-29.25,10.57-38.06,1.54-.76,1.62-3.09,1.94-4.86.95-4.11,4.65-4.41,7.62-5.51,1.2-1.24,1.65,1.34.85-.31-.71-1.47-1.94.33-2.9-.34a4.82,4.82,0,0,1-2.68-2.19c-.09-15-1.3-29.48-14.61-39.52-3-3.51-7.43-4.78-11.35-6.85-2.91-1.55-5.47-3.45-2.65-7.23,8.44-7.45,8.51-17.71,8.86-27.64.72-19.87,27-12.59,39.25-9.17,7.06,2,14,6.08,20.48,9.55,9.4,5.06,19.21,9.45,28.44,14.87,8,4.68,15.54,10.49,20.49,18.3A32.21,32.21,0,0,1,373.57,269Z"/><path class="cls-5" d="M146.85,309.37c-2.57-10.15-5-20.32-6-30.76-1.59-16.37,7.53-27.09,20.44-35.71,16.89-11.28,35.23-22.27,55.2-27.9,11.93-3.37,41.09-10.9,38.34,10.52-1.4,10.87-4.59,21.34-7.89,31.75-2.71,5.12-8.51,6.67-12.28,10.59-15,3.31-22.3,14.51-28,27.33-1.76,1.13-3.32,1-4.6-.79a9,9,0,0,0,1.68,3.55,28,28,0,0,1,5.26,9.46,22.81,22.81,0,0,0,6.74,13.19c10.08,9.17,18.72,18.53,15.68,33.81-.76,3.81,2.57,5.34,6.08,5.85,4.42.64,9.23.13,12.71,3.91-1.39,7.65-7.72,6.4-12.74,6.61-11.06.45-21.38-3.3-31.76-6.54.39-8.82,1.33-17.31-3-26-5.3-10.62-9.65-11.38-15.81-1.31a106.37,106.37,0,0,0-10.79,13.16c-2.63,4-6.09,8.31-11.31,7.13-10.56-2.38-11.09-18.86-12.88-27.27C150.4,323.05,148.6,316.21,146.85,309.37Z"/><path class="cls-6" d="M205.65,364.24c2.64-2.66,4.63-3.15,9-1.63,11.23,3.91,23,8.19,35,1.57,4.6-5.62,9.89-7.41,16.33-3,9.9-2,19.79-4.42,28.17-10.11,4.17-2.82,7.57-2.11,11.54-1.11,4.53.29,6.4,3.1,6.86,7.25-7.35,14.68-21,19.22-35.68,21.69-6.17,1-12.7-.78-18.71,2.08l0,.06c-14.17,3.35-29-1.22-43.14,3.63-4,1.38-7.22-3-9.58-6.49C202.24,373.48,205.79,368.89,205.65,364.24Z"/><path class="cls-4" d="M565.4,506.21c-16.54-1.34-32.1,6.6-48.74,5-5.39-.51-9.68-.79-9.37-7.6,5.06-11.06-4.75-9.34-10-11.58,21.12-.07,41.47,6.44,62.49,7.34C563.5,499.57,565,502.72,565.4,506.21Z"/><path class="cls-5" d="M177.89,444.13l4.75-2.95c4.6-1.9,8.91-2.68,11.51,3,1.8,5.25-1,11.45,3.37,16.15,1.16,3.94,5.4,6.26,5.69,10.71-2.89,4.21-7.92.72-11.27,3.16-6.71,1.52-10.31,6.69-13.49,12-3.64,6.13-5.95,2.29-8.57-.7C168.4,470.94,170.59,457,177.89,444.13Z"/><path class="cls-5" d="M205.39,378.2c11.63,7,24.2.94,36.24,2.57,5.41.73,11,.23,16.48.29-2.11.75-4.42,2.49-6.29,2.1-21.36-4.43-34.59,7.27-46,22.7-7.48-2.05-4.05-7-3.06-11.36Z"/><path class="cls-7" d="M150.38,505c.92,2.76,1.85,5.51,2.78,8.27-5.68,0-11.53.48-15.37-5.46C141.53,503.18,146.29,505.62,150.38,505Z"/><path class="cls-8" d="M202.71,394.5c.79,3.85-1.14,8.43,3,11.36-.14,4.45-2.29,8.56-6.39,8.94-3.44.31-1.16-4.22-2.06-6.4Z"/><path class="cls-5" d="M466.93,514.1l-21.13.11c-21.23-3.64-39.37-14.7-57.66-24.93-14.58-8.16-15.42-23.85-17.23-38.46,10.26-13.52,21.16-26.58,37.14-33.48,17.95-7.75,56.83,7.49,64.42,25.41,4.07,9.61,6.61,20,8.92,30.18,3.24,14.41-6.3,23.23-15.83,31.26C459.73,509.11,461.18,511.53,466.93,514.1Z"/><path class="cls-5" d="M326.5,367.49a3.38,3.38,0,0,1,.09,1.7c10.2,26.18,11,53.65,11.13,81.21C336,465.05,325.13,474.91,318,488.34c7.24-8.73,12.06-17.37,16.55-26.17,2.6-5.09,4.87-10.13,12.09-7.07l16.45,3.78c4.52,10.05.47,20.63,1.84,30.93a5.46,5.46,0,0,1-6.22,5.91c-12.22-1.94-23,5.24-34.91,4.91-6.8-3.22-16,6.25-21.45-4.09-1.33-9.72-7.73-15.83-16.16-18.63-9.7-3.23-10.47-8.43-6.66-16.43C284,452,288,442.29,292.91,433c2.86-5.45,3.16-9.64-.49-15-5.36-7.91-10.92-16.14-13.94-25.06C274.79,382,268.41,379,258.13,381c15-6.39,32.74-5.65,45.87-17.36,2.66-2.37,6.27-3.61,6.58-7.85C318.87,355.63,322.73,361.5,326.5,367.49Z"/><path class="cls-3" d="M323.79,500.63c9.23-6.56,19.42-10.21,30.77-8.45,5.91.93,9.05.72,6.89-6.43-2.75-9.12-.24-18,1.64-26.88l7.82-12.05c.33.31.92.59,1,.94,4.8,37,36.91,43.66,63.24,56.65,3.65,1.8,7.92,2.38,10.69,5.8-6.42,4.48-12.92-.39-19.5.06-26.77,1.86-53.54,4-80.45,3.19a76.13,76.13,0,0,1-22.71-4.05C316.17,507,316.83,503.09,323.79,500.63Z"/><path class="cls-8" d="M346.63,455.1c-12.45,3.31-10.85,16.82-17.52,24.52-5,5.79-8.59,12.66-16.94,15.52,5.67-16.54,17.42-29.65,25.55-44.75C340.69,452,343.66,453.53,346.63,455.1Z"/><path class="cls-9" d="M235.93,510.5l-8.27-2.71c-2-8.13-2.08-12.93,9.15-15.47,9.94-2.25,19.38-5.18,31.76-5.66-6.26,7.86-13.63,6.86-19.59,8.85C241.39,498,235.31,501.16,235.93,510.5Z"/><path class="cls-5" d="M191.94,474.22c9.8-1.43,7.43-7.75,5.58-13.87l13.36,14.45c.15,4.73-2.24,4.42-5.35,2.7C201.53,474.2,196.62,474.69,191.94,474.22Z"/><path class="cls-5" d="M205.53,477.5c2.15-.16,4.31-.33,5.35-2.7,3.87,1.56,6.43,4.28,8.3,9.07C212.18,485.4,209.49,480,205.53,477.5Z"/><path class="cls-5" d="M194.15,444.2l-11.51-3c2.66-2.84,4.5-8.12,9.12-6.65C195.87,435.85,193.89,440.77,194.15,444.2Z"/><path class="cls-3" d="M266,361.2l-16.33,3a37.58,37.58,0,0,0-4.08-.41c-18.4.16-18.77.14-17.57-18.31.44-6.93-1.84-10.75-7.4-14.51-8.5-5.75-15.33-13.17-15-24.61,5.08-2.22,9.41,3,14.43,1.44a25,25,0,0,0,6.39-2.38c15.83-7.57,17.86-7.2,32.2,6,2.61,2.58,5.3,5,9.19,5.53,4,1.81,8.72.24,12.57,2.68,8.14,5.2-.85,8.42-2.34,9-11.71,4.83-13.81,12.76-9.58,23.78C269.67,355.65,267.82,358.55,266,361.2Z"/><path class="cls-3" d="M268.73,270c14.24,7.82,20.31,24.88,14.83,41.73-2.74,7.82-9.16,7.46-15.61,7-3.7-.64-6.19-3.12-8.67-5.63-1.61-1.57-3.23-3.16-4.83-4.77-12.54-12.63-12.67-16.72-1-30.66C258.59,275.14,262.54,270.33,268.73,270Z"/><path class="cls-8" d="M314.49,238.76c9.52,2.05,9.82,7.88,9.73,13.92-.33,23.24-8.72,45.27-10.94,68.35C305.06,293.6,320.69,266.9,314.49,238.76Z"/><path class="cls-10" d="M268.73,270c-3.51,4.2-6.47,9.17-12.93,9.25-4.31,1.79-8.37,5.08-13.48,2.34-5.27-3.06-12.34-4.83-9.92-13.52-.21-8.43,6-8.43,11.8-9l9.11,1.09C257.56,264.81,268.38,259.19,268.73,270Z"/><path class="cls-2" d="M283.49,264.84c1.26-4.51,2.87-8.32,7-10s6.88.73,9.2,3.74c2.72,3.53,3.24,7.36,1,11.3-1.05,1.82-3.49,2.59-4.3.78-2.32-5.2-4.88-7.95-10.42-3.77C285.73,267.05,284.26,265.51,283.49,264.84Z"/><path class="cls-2" d="M266.32,316.37c6.91,2.77,12.06-1,17.23-4.67a16.66,16.66,0,0,0,2.44.1c1,1,2.67,1.53,2.74,3.33l-8.38,4.46a15.84,15.84,0,0,1-13.94.4A2.43,2.43,0,0,1,266.32,316.37Z"/><path class="cls-2" d="M288.73,315.13,286,311.8c2.95-2,5.29-8.91,9.24-3.63C297.7,311.47,291.12,312.79,288.73,315.13Z"/><path class="cls-3" d="M232.4,268c2.07,5.51,6.43,8.6,11.52,10.92,4.81,13.08,3.42,16.8-8,22.31-5.3,2.57-9.85,6.57-15.61,8.28-9.14-.53-14.19-5.37-15.23-14.44C209,276.33,218,267.39,232.4,268Z"/><path class="cls-2" d="M211.3,254.5c-.38-5.65,2.56-8.42,6.18-10.5,3.22-1.85,6.31-.86,8.36,2,2.21,3.07,3.41,7.46,1.11,10.13-3.08,3.59-3.84-1.45-5.41-2.93C217.61,249.47,215.5,256.17,211.3,254.5Z"/><path class="cls-2" d="M205.12,295.1c4.66,4.53,6.88,11.61,14.09,13.49a1.78,1.78,0,0,1,.7,1.92c-.22.65-.44,1-.66,1-5.95,2-9.51-2.38-13.68-5.14C206.4,302.56,194.18,299.29,205.12,295.1Z"/><path class="cls-2" d="M219.39,311.69c0-1,0-1.93-.07-2.9,4.21-2.56,8.15-5.9,12.7-7.52,11.11-4,13.4-12,11.73-22.35,3.93,2.46,7.93-.69,11.88.14-10.56,12.57-10.42,13.3,6,32,.58,2.83-.69,3.84-3.4,3.43C246.37,298.13,232.88,304.88,219.39,311.69Z"/><path class="cls-2" d="M258,314.62l3.43-3.4,4.85,5.16.09,3.61C262.4,320.1,259.81,318,258,314.62Z"/><path class="cls-3" d="M255.14,221.16a16.6,16.6,0,0,0-.73-2.68,7.56,7.56,0,0,0-.69-1.86,2.4,2.4,0,0,0-2-.82l-1.76-.16-3.94-.41c-2.64-.27-5.27-.51-7.92-.65-1.31-.07-2.63-.06-3.95-.13-2.64-.14-5.3-.15-7.93-.33-2.27-.16-4.66-.78-6.92-.24a97.2,97.2,0,0,1,18.9-3.1,25.84,25.84,0,0,1,6.63.45c4,.91,7.46,3.27,11.28,4.68s8.35,1.54,12.45,1.47c8.22-.14,16.87-1.62,24.77,1.44-6.9-.79-13.84.13-20.66,1.15-1.37.2-17.45,2.51-17.49,1.89C255.2,221.62,255.17,221.39,255.14,221.16Z"/></g></svg>