<svg xmlns="http://www.w3.org/2000/svg" viewBox="0 0 600 700"><defs><style>.cls-1,.cls-18,.cls-3{fill:#987554;}.cls-1{opacity:0.17;}.cls-2{fill:tan;}.cls-4{fill:#333;}.cls-5{fill:#b79c7d;}.cls-6{fill:#010000;}.cls-7{fill:#020202;}.cls-8{fill:#68503c;}.cls-9{fill:#a2776c;}.cls-10{fill:#211d1a;}.cls-11{fill:#343434;}.cls-12{fill:#1d1b17;}.cls-13{fill:#466e35;}.cls-14{fill:#060606;}.cls-15{fill:#040404;}.cls-16{fill:#e6e6e4;}.cls-17{fill:#dddddb;}.cls-18{opacity:0.59;}</style></defs><title>iconos</title><g id="macho_y_hembra" data-name="macho y hembra"><path class="cls-1" d="M152.5,591c-20.26-23.92-67.6-84.54-97-179-28.91-92.86-51.16-164.35-17-238C73.87,97.76,166.2,26.73,247.5,40c118.93,19.4,177.11,213.12,286,246,7.46,2.25,32.16,8.89,37,26,6.51,23-30,39.81-46,75-26.74,58.91,35,101.45,23,158-20,94.32-232.78,169.23-343,98C186.92,631.64,175.44,618.09,152.5,591Z"/><path class="cls-2" d="M475.58,555c3.49,3.54,7.55,6.53,10.39,10.7,1.45,2.13,3.11,2.43,5.55,1.39,11.94-5.11,20.09-13.84,24.82-25.78,1.45-3.65,2.31-7.54,3.46-11.37,4,8.09,5.86,16.39,4.79,25.47a42.83,42.83,0,0,1-16.07,29.27c-5.9,4.75-9.62,8.83-8.42,17.49a67.86,67.86,0,0,1-5.89,37.45c-6.93,15.24-17.45,26.87-33.21,33.93-12.88,5.77-26.19,5.4-39.62,5.51-34.27.27-68.54,1-102.8.63-25.46-.26-50.91.65-76.36.1-1.62,0-3.36.44-4.8-.78,2.42-2.16,5.38-1.13,8.11-1.28,3.78-.21,7.59.12,11.19-.17.66-1,.14-1.54-.24-2.05-4.15-5.58-4.41-9.48-.82-15.52,5.06-8.53,12.8-14.28,20.83-19.66,4.52-3,4.83-3.46.75-7.17-12.47-11.35-22.19-25-32.56-38.13-3.57-4.51-4.89-10.65-10.08-14-.35-1.59-.35-3.15-1.26-4.72-14-24.05-23.88-49.77-31.27-76.55-1.62-5.89-3.57-11.68-4.54-17.74,3.39-1.57,6.89-.44,10.27-.15,12.8,1.08,25.55.7,38.37,0a290.89,290.89,0,0,0,49.41-6.46A225.81,225.81,0,0,0,338,461a173.81,173.81,0,0,0,38.26-23.33c3.63-2.93,7.35-5.69,10.34-9.36,1.39-1.71,3-3.71,5.77-3.25,5.77,8.87,9.84,18.64,14.78,28a688.77,688.77,0,0,0,42.26,69.89c-1.45,6.43-4.67,12.31-5.42,19-1.18,10.57,6.64,21.24,16.39,21.76a13.63,13.63,0,0,0,12.15-5.46C473.46,557.05,474.07,555.6,475.58,555Z"/><path class="cls-2" d="M70.44,375c-5.7-5-9.54-11.45-13.75-17.56-7.4-10.72-13.33-22.17-15.75-35.23-3.43-18.44,4.12-33.07,20.71-41.9,23.79-12.66,48.84-22.25,73.9-31.89,3.55-1.37,7.09-2.81,10.73-3.89,4.69-1.39,7.76-4,8.9-9a17.57,17.57,0,0,1,4.19-8.35c1.75,1.77.51,3.8.44,5.7-.2,5.21,1.68,9.9,4.52,10.92s7.1-1.32,10.2-5.82c3.46-5,6.07-10.52,5-16.78-1.13-6.84-5.89-8.72-11.71-5.09-1.34.84-2.37,2.49-4.35,1.83,1.42-6.05,5.19-10.89,8.52-15.89,1.27-1.92.78-2.79-.44-4a85.51,85.51,0,0,0,8.5-6.68,26.55,26.55,0,0,1,12.54-5.54c6.52-1.17,6.57-1.29,4.49-7.51a7.62,7.62,0,0,1,4-4.23c12.09-6.48,24.88-10.06,38.74-9,3.15,2.07,6.38,4.07,7.05,8.26-2.16,4.13-5.09,7.81-7.27,11.92a148,148,0,0,0-17.11,56.44,89.8,89.8,0,0,0,5.19,39.71C233,295.65,242.12,307,254.23,315.8c16.55,12,35.06,18.48,55.61,20.08,17.44,1.37,33.71-2.05,49.63-8.54,3.89-1.59,7.13-4.29,10.78-6.28,1.56-.86,2.88-2.38,4.94-2,1.33,15.42,2.38,30.85,2.31,46.34,0,4.29,1.52,8.57.07,12.86-.11,2.95-2.62,4.18-4.27,6-24.08,20.83-52.84,32.31-82.86,41.06-22.87,6.67-46.39,10.15-70,12.88-4.28.5-8.66-.45-12.87,1-10.79.23-21.52,2.58-32.34.77-2.81-1.89-6.08-2.39-9.25-3.32-24.52-7.13-47.08-18.08-67-34.29-4.74-3.86-9.85-7.24-13.65-12.14,1.38-1.69,3-.95,4.55-.38,12,4.5,22.17,1,31.28-7a83,83,0,0,0,8.51-8.65,126.5,126.5,0,0,1-18.89,5.74c-11.82,2.81-23.08,1.27-34.19-3C74.57,376.13,72.7,374.92,70.44,375Z"/><path class="cls-3" d="M375.19,319.05c-14,11-30.11,16.35-47.66,18A105.23,105.23,0,0,1,282.92,332c-28.36-9.67-49.7-26.86-58.69-56.6C219,258,219.94,240.36,224,222.86c3.65-15.57,9.18-30.41,17.87-44a31.21,31.21,0,0,1,4.61-5.79c5.12.9,7.91,5.21,11.32,8.3,18.87,17.09,40.06,30.68,62.33,42.79,13.89,7.56,28.18,14.13,43.32,18.77.92.29,2,.56,1.87,1.91-1.29,5,1.22,9.52,2.06,14.22A570.57,570.57,0,0,1,375.19,319.05Z"/><path d="M454.39,107l-76.91,90c-1.11,2.46-1.83,5.27-5.19,5.66-7.66-1.25-14.54-4.8-21.5-7.88-27.05-11.94-51.79-27.35-72.07-49.23-1.24-1.34-2.67-2.55-3.06-4.47a4.54,4.54,0,0,1,2.39-4.45c3.37-3.16,4-7.58,5.33-11.68a4.06,4.06,0,0,1,.17-.91c1.12-2.45,3.2-1.79,5.18-1.66,5.53.35,8.67-2,10.71-8.11-2.16.62-2.56,2.72-4,3.56a3.49,3.49,0,0,1-3.28.61c-1.33-.54-1.33-1.74-1.34-2.94-.06-4.69,1.14-9.14,2.54-13.56l1.19-2.84c1.39-.21,1.65.88,1.94,1.78,2,6.33,7.43,10.1,11.27,15,.58.76,1.54,1.58,2.55.82s.44-1.94-.23-2.61c-3.38-3.39-2.06-5.68,1.49-7.79a9.83,9.83,0,0,0,5.14-9.13c-.17-4.16,1-5.2,5.21-4.05A9.62,9.62,0,0,0,333.78,86c1.28-5.66-1.6-10.47-7.11-11.88-6.28-1.6-11.95,3.09-11.87,9.8.06,5.72.06,5.74-5.34,4.73a16.1,16.1,0,0,0-6.89.64c-1.12.28-3.05,1.56-3.17-1.22l28.16-63.89c3.67,1.73,4.28,5.85,6.54,8.7,3.65,4.59,9.44,7.33,11.43,13.28,2.66,6.52,9.4,9.38,13.33,14.81,1.64,2.28,4.49,1.64,7,1.12a9.33,9.33,0,0,1,6.06,2c5.27,3.78,10.94,6.94,16.3,10.56a241.6,241.6,0,0,0,35.7,19.65c9.07,4.1,18,8.66,28.13,9.71C453.51,104.09,455.68,104.43,454.39,107Z"/><path class="cls-4" d="M372.26,202.08c2.57-.8,3.26-3.56,5.22-5-.78,2.79,1.73,3.72,3.1,5.15,8.24,8.65,16.64,17.18,21.23,28.52,4.07,10.07.58,16-10,17.68-5,.77-9.94,0-14.83-.76-3.91-.63-7.73-1.84-11.59-2.79-20.39-6-39.19-15.5-57.57-26.08a338.21,338.21,0,0,1-61.27-45.69l-6.18-7c-8.89-6-13.41-15-15.75-25-1.6-6.86,2.28-11.59,9.39-13.29a101,101,0,0,1,15.45-.71c3,3.27,7.44,2.37,11,3.91,4.78,5.68,10.94,7.26,18,6.12-.75,1.39-2.22,2.41-2.17,4.21.16,3.18-1.67,5.7-2.88,8.39-1.62,3.58-1.13,6.53,1.1,9.75,6.57,9.51,15.69,16.23,24.87,22.77,16.28,11.61,33.36,21.84,52.61,27.95,9.2,2.92,10.77,2.53,16.72-4.63A14.45,14.45,0,0,1,372.26,202.08Z"/><path class="cls-3" d="M234.34,129c-7.06,1.51-10.09,6.11-8.42,13.1,1.83,7.59,6.27,13.8,10.93,19.85,1.1,1.44,2.33,2.79,3.49,4.18-14.81,0-28.88,2.78-41.42,11.19a8.71,8.71,0,0,0-1.53,1.84,9.09,9.09,0,0,1-9.1-1.21,3.06,3.06,0,0,0,1-3.55c-6.23-23.69-4.11-47.28.92-70.82,1.24-5.79,2.5-11.59,6.09-16.53,6-3.13,10.92-.25,15.4,3.33,6.45,5.14,11,11.91,14.93,19,2.54,4.64,5.14,9.27,7.25,14.14C234.69,125.28,236.19,127,234.34,129Z"/><path class="cls-4" d="M344.54,46.94c-1.39-5.68-7-7.84-10.23-12.07a60.77,60.77,0,0,1-6.75-10.73c1-4.58,4.51-4.19,7.78-3.71,10.73,1.54,20.44,6,30.13,10.6.7,2.15-1.15,3.3-2,4.81-2.85,5.2-2.7,9.9,1.4,14.18,3.57,3.73,6.47,8.18,10.51,11.3.77-.57.92-.85.87-1.21-.32-2.52-3.84-3.75-3.06-6.47.68-2.36,3.63-2.67,5.31-4.25a15.72,15.72,0,0,0,3.4-5.43c.51-1.17.23-3.22,2.52-2.9,24.07,13.49,46.91,28.67,66.49,48.33A52.45,52.45,0,0,1,456.1,96c3,4.18,2.8,7.94-1.71,11-.67-3.38-3.52-1.77-5.32-2.12-11.7-2.25-22.08-7.8-32.65-12.83a303,303,0,0,1-44.6-26.68c-1.86-1.31-3.9-2.62-6.42-2.37.17-1.92,1.59-4.16-2.55-3.79-4.58.4-10.07-6.7-9-11.26.53-2.22.1-2.8-2-2.45-1,.17-2.16.36-2.89-.33C346.16,42.53,345.69,45.53,344.54,46.94Z"/><path class="cls-5" d="M234.6,581c3.5-.23,5,2.29,6.25,4.83,4.81,9.58,12,17.38,18.55,25.71a201.65,201.65,0,0,0,20.3,22.22c3.79,3.59,3.44,4.52-1.26,7.08a61.81,61.81,0,0,0-19.61,16.53c-6.29,8.16-5.95,11.1,1.9,21.61H237.42a21.76,21.76,0,0,1-7.25-4.17C220.82,667.69,220,657.23,228,648c1.73-2,3.46-4.2,5.65-5.57,5.15-3.2,4.91-7.71,4.45-12.87-1.28-14.51-3.4-28.95-3.74-43.53C234.36,584.35,234.53,582.7,234.6,581Z"/><path class="cls-5" d="M392.39,425A181,181,0,0,1,368,445.69c-12.79,8.93-26.68,15.68-41.15,21.5a182.94,182.94,0,0,1-28.73,9.15c-12,2.64-24.19,5-36.64,5.92a466.56,466.56,0,0,1-46.68,1.65c-5.75-.15-11.48-1.23-17.22-1.88l-1.85-6.92c1.14-1.3,2.65-1.22,4.12-1,7,1,14.1,1.35,21.16,1.78a34.73,34.73,0,0,0,14,.26,9.69,9.69,0,0,1,1.6-.34c32.33-1.11,63.57-7.42,93.45-19.94a218.74,218.74,0,0,0,34.21-18.32C372,432.17,380,427,386.41,419.92c.9-1,1.91-3.05,4-1.47C390,421,392.64,422.56,392.39,425Z"/><path class="cls-6" d="M236.44,477l-.47.15h-.5a54.49,54.49,0,0,1-14.15.06c-8.62.25-17.11-1.13-25.64-2-4.24,0-6.11-2.64-7.64-6.28-4.09-9.7-8.53-19.25-12.82-28.87.63-1.38,1.9-1,3-1.07q15-.54,30-1c2.84-.86,4.64-.47,5.15,3.07,2.06,14.26,9.08,25.46,21.14,33.45C235.44,475,236.71,475.42,236.44,477Z"/><path class="cls-7" d="M390.39,418.45c-7.87,7.1-15.87,14-24.85,19.73-2.16-.22-1.46-1.88-1.29-3,1.7-11.06,2.42-22.11.42-33.21-.47-2.62.29-4.68,3-5.45,3.58-1,4.44-3.57,4.28-6.88a10.76,10.76,0,0,1,1.39-6.72c1-1.92,3.48-2.53,4.2-4.71l4.53-3.33c1.75,4,3.52,7.94,5.22,11.91,2.81,6.56,5.38,13.24,8.47,19.67,1.62,3.39,1.53,5.74-1.61,8A28,28,0,0,0,390.39,418.45Z"/><path class="cls-3" d="M475.58,555c-4.29,11.92-18.84,13.89-27.62,3.7-4.59-5.32-6.12-11.4-4.92-18.39,1.07-6.25,2.58-12.23,6.39-17.43A328.7,328.7,0,0,0,475.58,555Z"/><path class="cls-8" d="M234.34,129c-2.41-8.87-7.4-16.5-12-24.25A58.12,58.12,0,0,0,213.05,93c-4.73-4.66-10.09-6.94-16.71-6,4.85-7.81,10.75-9.34,18.42-4.71,7.43,4.47,12.71,11.12,17.78,17.92,6.34,8.51,12.27,17.3,16.89,26.91C244.63,129.58,239.33,128,234.34,129Z"/><path d="M299.4,88c1,1.55,2,.34,3,0a12,12,0,0,1,11.38,1c0-3.5-1.22-6.7.22-9.76a10.74,10.74,0,0,1,7.23-6.26c4.7-1.28,10.29.63,12.65,4.51s2,9.77-.7,13.13c-3.45,4.23-9.12,5.33-15.31,2.68,1.29,7.47-1.22,12.9-8.17,15.9-1.57.67-.78,1.49-.14,2.25.95,1.15,1.91,2.3,2.94,3.37,1.65,1.71.15,2.61-.86,3.65s-2.07,1.73-3.29.26c-4-4.82-8.19-9.56-12-14.53-1-1.31-1.17-3.3-1.72-5A50.29,50.29,0,0,1,299.4,88Z"/><path class="cls-9" d="M70.44,375c.15-1.51.75-2.08,2.29-1.3,20,10.13,39.59,6.84,58.92-2.18a2.7,2.7,0,0,1,.95-.08c-.9,3.3-7.25,10.38-12.66,14.31C110,393,99.5,395.87,87.75,390.35a6.75,6.75,0,0,0-2.44-.14A79.59,79.59,0,0,1,70.44,375Z"/><path class="cls-10" d="M163.51,218a12.92,12.92,0,0,0,1.57-1.15c3.08-3.13,6.67-5.55,11-3.43,4.71,2.28,5.42,7,4.83,11.62-.93,7.24-3.51,13.87-9.7,18.38-5.9,4.3-10.25,2.59-12.14-4.4-1.09-4-.29-7.87.26-11.78A34.56,34.56,0,0,1,163.51,218Z"/><path class="cls-8" d="M188.29,177.9c3.05.28,6.22-.31,9.1,1.21,1.65,1.11,3.7,2.08,3.23,4.52s-2.8,2.94-4.66,3.11c-8,.7-14.76,3.66-19.8,10.09-1.19,1.52-2.88,1.44-4.57,1.26a5.09,5.09,0,0,1-.85-4.67A22,22,0,0,1,188.29,177.9Z"/><path class="cls-4" d="M384.44,41.06c-1.91,5.53-4,10.89-11.06,12.45,1.65,2.1,2.94,3.77,4.27,5.41s.74,2.72-.49,3.91c-1.5,1.43-2.41.21-3.28-.75-3.35-3.68-6.74-7.35-10-11.15-5.07-6-4.93-11.77.23-17.87a18.59,18.59,0,0,0,1.32-2,27.28,27.28,0,0,1,7.11,3.87c-.37,1.7-1.94,2.14-3.13,3-2.13,1.49-3.18,3.4-2.14,6a4.53,4.53,0,0,0,4.78,2.83,4.78,4.78,0,0,0,4.87-4.1c.37-1.56,0-3.37,1.52-4.55A18.33,18.33,0,0,1,384.44,41.06Z"/><path d="M293.38,102q-.63,6.61-1.25,13.25c-.09.91-.78,2.06.48,2.59,1.1.45,1.81-.55,2.44-1.26s1.34-1.86,2-2.77.18-3.26,2.33-2a3.28,3.28,0,0,1,1.7,4.17c-1.5,4.75-7.19,8.51-12.42,7.87-1.75-.21-3.5-1.25-5.15.27C286.23,116.48,289.85,109.26,293.38,102Z"/><path class="cls-11" d="M378.48,38c0,4.11.86,8.76-4.74,10.06-3.64.85-6.86-.47-8-4.14s.45-6.47,4.09-8c.92-.37,1.85-.71,2.78-1.07A15.58,15.58,0,0,1,378.48,38Z"/><path class="cls-4" d="M278.5,137.15c-9.23,3.25-12.22,2.24-18-6.12,4.68,1.47,9.45,2.71,14,4.48,2.7,1,3.9.4,4.78-2.14a29.69,29.69,0,0,1,4.12-8.35C284.23,130.06,282.22,134,278.5,137.15Z"/><path class="cls-3" d="M370.42,485.89c0-.3,0-2,0-3.63.43-16.94,14.71-24.73,29.57-16.19,10.35,5.95,17.26,15.12,22.75,25.27,7,13,11.34,26.81,10.76,41.9-.33,8.79-3.06,16.23-11.16,20.26-8.65,4.3-17.14,2.69-24.92-2.81-10.51-7.43-16.31-18.22-20.56-29.88C372.94,510,370.1,498.91,370.42,485.89Z"/><path class="cls-4" d="M373.37,383a60.68,60.68,0,0,0,0,6.47c.49,4.68-.3,8.27-6,8.57-1.42.07-2.14.88-1.76,2.33,3.32,12.63,1.22,25.23-.11,37.85-22.79,15.43-47.89,25.42-74.56,31.73-17.93,4.25-36.05,7.15-54.55,7-13.36-7.6-21.43-18.92-24-34.12-.42-2.46-.24-5.45-4.18-5,13.35-1.45,26.73-2.65,40-4.8,37.34-6.07,73.23-16.36,105.82-36.17C360.82,392.77,367,387.63,373.37,383Z"/><path class="cls-8" d="M57.49,301A84.38,84.38,0,0,1,111.15,305c8.52,3.49,12,10.71,4.07,18.51-7.16,7-14.15,14.06-23.47,18.19-6.36,2.82-12.32,2.2-17.73-2.29a117,117,0,0,1-15.69-15.31c.07-2.48,2.25-2,3.65-2.52,3-1.06,4.32-3.18,3.82-6.15s-2.67-4.46-5.73-4.45c-1,0-2,.26-3,.24-1.67,0-3.51,0-4.12-2-.55-1.83.82-2.73,2.21-3.4C57.24,304.79,56.58,302.55,57.49,301Z"/><path class="cls-9" d="M57.49,301c.66,2.5,3.14,5.64-2.15,6-.91.06-1.64.53-1.59,1.52.06,1.34,1.15,1.42,2.17,1.45a12.07,12.07,0,0,0,2-.1c5.55-.73,8.87,1,9.52,5.05.72,4.44-2,7.34-7.46,8.21a5.83,5.83,0,0,0-1.64.88c-4.17-3.4-6.4-8-7.65-13.05C49.6,306.69,52,303.47,57.49,301Z"/><path class="cls-12" d="M257.49,249.62c.6,5.37-1.58,10.24-4.47,14.78-3.54,5.59-8.3,6-12.69,1.13-7.23-8-7.53-22.19-.65-30.89,3.22-4.09,9.38-3.8,13.14.46A19,19,0,0,1,257.49,249.62Z"/><path class="cls-8" d="M254.12,193.06a14.67,14.67,0,0,1,3.92,1.08c8.95,4.9,16.48,11.16,19.67,21.38a7.17,7.17,0,0,1,.49,1.41c.26,2.95,1.12,6.31-2.5,7.8s-6.09-1.09-7.34-3.64c-4-8.18-10.39-13.51-18.41-17.37-2.39-1.15-5.67-2.67-4.31-6.27C246.84,194.25,249.8,193,254.12,193.06Z"/><path class="cls-13" d="M372.26,202.08c-6.89,11.42-8.53,13.19-20.16,9.43-26.33-8.51-48.91-23.42-69.72-41.28a24,24,0,0,1-2.5-2.44c-11.6-13.08-11.21-11.94-3.55-26.43C296,163.3,320,179.3,346.53,191.62,354.91,195.51,363.67,198.61,372.26,202.08Z"/><path d="M330.19,67.09a6.65,6.65,0,0,1,6.34-6.89c1.38,0,2.78,0,2.91,1.88.1,1.31.3,2.75-1.7,2.92-1.54.14-3.38.46-2.64,2.55.67,1.88,2.38,1.06,3.86.71,3-.71,6-.92,8.15,2a6.92,6.92,0,0,1,.53,7.52c-1.45,3-4,3.73-7.06,3.45-1.06-.1-2-.38-2.07-1.66s-.07-2.39,1.57-2.56c1.79-.18,3.74-.75,2.95-2.9s-2.83-1-4.37-.68C333,74.54,330.14,72.47,330.19,67.09Z"/><path class="cls-4" d="M344.54,46.94c-.25-1.84-.55-4,1.19-5,1.51-.8,2.27,1.42,3.34,2.28s2.12.63,3.12-.08a2.18,2.18,0,0,1,3.4.48c.93,1.21.91,2.1-.11,3.45-3,4,2.26,5.09,3.08,7.83.56,1.85,2.27,3.52,4.61,2.22,1.92-1.06,3.41-1.19,4.58.83,1.55,2.66-1.65,2.65-2.35,4.05-3.67,2.29-6.27.34-8.74-2.18-3-3-4.84-7.14-9.51-8.31C344.31,51.82,347.52,47.85,344.54,46.94Z"/><path d="M356.37,69.87c-.16,1.65-1.48,2.46-2.63,3.36s-1.81-.19-2.4-.86c-3.92-4.49-7.75-9.07-11.72-13.52-1.36-1.53-1.07-2.5.38-3.64,1.15-.9,2.1-2.47,3.66-.66q6.13,7.17,12.23,14.4A4.63,4.63,0,0,1,356.37,69.87Z"/><path class="cls-4" d="M221.32,477.15l14.15-.06A30.61,30.61,0,0,1,221.32,477.15Z"/><path class="cls-14" d="M307.43,92c2.74.45,5.56,1.65,5.84,5.54s-3.34,7.62-7.14,7.43A6,6,0,0,1,300,99.12C299.72,95.27,303,92.11,307.43,92Z"/><path class="cls-15" d="M324,90.05a6.89,6.89,0,0,1-6.25-6.55,6.72,6.72,0,0,1,6.46-6.3A6.43,6.43,0,0,1,324,90.05Z"/><path class="cls-16" d="M175.94,218.86a2.87,2.87,0,0,1,2.59,3.48c-.21,1.52-1.06,2.82-2.95,2.65a3,3,0,0,1-3-3.23C172.62,219.9,174,218.91,175.94,218.86Z"/><path class="cls-17" d="M248.53,238.32c2.32-.07,3.52,1,3.56,2.88a2.8,2.8,0,0,1-3,3.11,2.68,2.68,0,0,1-2.95-2.63A2.86,2.86,0,0,1,248.53,238.32Z"/><path class="cls-18" d="M394.47,677.31c19.9,0,39.79,0,59.69.15,3.1,0,4.81-.73,4.28-4.15,9.36.63,18.76.94,29.24,4-6.89,3.4-13,3.41-18.95,3.91-29.21,2.46-58.51,2.86-87.82,3.51-33.48.73-67,.12-100.4-.75-21.94-.57-43.95-.9-65.69-4.57-1.46-.24-3-.22-4.74-2.18,8.82-3.18,17.75-2.85,26.42-3.92l-.1.27c2.6,1.83,5.57,2,8.59,2,12.64,0,25.29,0,37.93,0,2.63,0,5.37-.28,7.59,1.68l64,.07c1.69-1.67,3.87-1.77,6-1.79q13.93-.12,27.87,0C390.58,675.57,392.75,675.7,394.47,677.31Z"/></g></svg>