<svg xmlns="http://www.w3.org/2000/svg" viewBox="0 0 650 650"><defs><style>.cls-1,.cls-14,.cls-8{fill:#987554;}.cls-1{opacity:0.17;}.cls-2{fill:#f4f5e0;}.cls-3{fill:#b6d7a8;}.cls-4{fill:#e2bfaf;}.cls-5{fill:#fbd5c0;}.cls-6{fill:#664229;}.cls-7{fill:#ddc;}.cls-9{fill:#090922;}.cls-10{fill:#aacb9a;}.cls-11{fill:#fad5c0;}.cls-12{fill:#e5d3b3;}.cls-13{fill:#d6c5aa;}.cls-14{opacity:0.73;}.cls-15{fill:#543427;}.cls-16{fill:tan;}.cls-17{fill:#af9087;}.cls-18{fill:#e2bfab;}.cls-19{fill:#492c22;}.cls-20{fill:#271910;opacity:0.59;}.cls-21{fill:#563823;}</style></defs><title>iconos</title><g id="mision"><path class="cls-1" d="M186.06,9c-18.65.41-37.29,1.18-55.91,1.87-14.87.56-30.3,1.19-43.55,8C74.27,25.16,65,36.31,58.51,48.55,47.8,68.83,39.8,94.41,36.56,117.08c-3.05,21.4-2.06,43.11.07,64.55C42.07,236.28,53,291.81,89.46,334.83c1.77,2.09,3.65,4.29,4.08,7,.53,3.35-1.31,6.56-3.07,9.45-8.89,14.55-19.71,29-24.86,45.46-5.39,17.21-6.74,34.8-17.4,50-14.12,20.07-12.85,52.08-11,75.36A220.15,220.15,0,0,0,47,572c3.57,11.06,8.75,33,20.34,38.25,4.79,2.17,10.18,2.5,15.43,2.8l83.31,4.67c22.71,1.27,49.69,10,70.57-2.41,7.9-4.7,14.7-11,22.15-16.42,28.13-20.38,63.94-23.2,97.36-17.85,31.94,5.12,63.67,11.48,95.73,15.76,35.34,4.71,76.78,2,101.9-26.48,26.56-30.07,36.51-81.06,42.91-119.46a264.24,264.24,0,0,1,12.77-48.85c3.42-9.1,8.39-17.79,11.79-26.77,9.41-24.84,5-53,5.53-78.9.64-29.16,3.59-54.45-9.84-81.9-19.45-39.76-50-76.75-95.39-84.63-26.85-4.67-55.22-2.36-80.51-12.5C399.1,100.53,381.56,55.85,345.11,32,315.52,12.61,278,11,243.62,9.43,224.44,8.58,205.25,8.61,186.06,9Z"/><path class="cls-2" d="M176.35,627.37c-28.78,0-57.55,0-86.33.06-2.36,0-3.4-.28-3.18-3.22q3.54-46.07,3.38-92.27c0-2.86,1.52-2.28,3-2.28h76.13c29.23,0,58.46.06,87.69-.1,3.16,0,3.66,1,3.51,4-.86,16.51-1.29,33,.49,49.51,1.44,13.21,3,26.41,4.54,39.61.56,4.76.64,4.75-3.93,4.75Z"/><path class="cls-3" d="M282.51,503l-7.2,1.38L252.19,476.5s-8.85-17-9.53-18.37-3.4-10.2-3.4-10.2l5.5-1.6,2-1.12,10.89,2s9.52,11.56,9.52,12.25,10.2,14.28,10.88,15,4.76,17.68,4.76,17.68Z"/><polygon class="cls-3" points="501.81 627.5 488.19 627.4 458.96 583.29 439.24 541.12 426.31 509.83 431.75 479.9 436.51 478.54 414.07 406.44 409.99 407.12 403.19 404.4 359.65 410.52 310.68 405.76 301.16 404.4 300.23 403.1 305.24 398.96 306.87 397.42 396.38 385.36 410.67 383.31 426.31 387.4 440.6 398.28 469.5 342.57 476.53 344.1 498.41 349.99 505.37 353 585.48 485.34 599.76 518.67 588.88 533.63 567.11 524.79 546.02 513.91 533.78 506.43 530.04 511.53 530.71 518.37 531.41 523.32 509.63 612.88 501.81 627.5"/><polygon class="cls-3" points="380.06 627.5 370.45 627.5 363.74 609.82 363.74 594.17 378.1 591 391.62 594.85 389.58 610.5 380.06 627.5"/><polygon class="cls-3" points="330.14 493.7 333.81 506.43 338.57 505.07 342.65 506.43 346.39 507.45 351.62 513.27 355.26 513.31 376.24 513.31 377.68 495.88 369.52 464.6 356.59 445.55 317.82 429.91 287.69 412.96 285.86 416.3 285.86 441.47 302.86 466.64 318.63 482.37 322.74 479.42 325.31 477.52 333.47 476.84 330.14 493.7"/><polyline class="cls-4" points="478.69 487.57 476.27 485.04 472.62 470.75 471.88 466.3 471.88 460.7 471.2 457.45 471.2 450.17 471.2 445.89 479.37 437.05 492.29 444.53 496.37 452.69 499.09 489.42 500.01 500.9 478.69 488.03"/><path class="cls-5" d="M271.05,298.66c-.73-.35-1.33-1.16-1.79-2.71-4.67-15.66-8.23-31.33-11.63-47.31l40.13-11.56L370.88,285l36.05,27.21,3.25,7L411,337.4l13.6,4.76,12.93-2.72.73-.25,7.43,1.61L433.45,368s-36.05,11.56-38.09,13.6S355.91,383,355.91,383l-2-8.16.85-8.33,2.24-.85,2.87-1.46,13.09-7-4.17-.81-4-6.67-83.67-53.06-4.15,1C274.56,298.23,272.54,299.4,271.05,298.66Z"/><path class="cls-6" d="M286.88,277.21l-19.73-2-2.72-16.33-2.72-17-19-46.26,6-9.57,60-49.6,25.85-4.08,4.12-3.82,36.69-3,11.56,1.36,6.8,4.76,38.09,51.69,5.45,2.72,5.44,30.61v5.44l-3.15,25.19-2.63,9.16-12.93,2-6.12,1.36L411,249s-8.84-16.33-10.2-16.33-22.45-12.24-22.45-12.24l-23.81,8.84L334.83,249,309,266Z"/><polygon class="cls-7" points="261.03 495.55 254.91 490.78 257.63 509.83 258.99 515.95 263.07 517.31 264.43 511.87 261.71 503.03 261.03 495.55"/><path class="cls-8" d="M168.52,400.32,157,403l-25.17-6.8L106,392.84h-19l-2,2L82.14,403l-7.48,10.2-4.08,32.65L66,459.72l-3.48,8.7L61.05,467,57,428.89,76.7,391.48l5.44-23.81v-10.2L78.06,348,75.34,335l-7.69-7.68c-3.81-3.82-8.15-7.48-11.66-11.55a7.19,7.19,0,0,1-1.21-2.35c-3.45-9.59-4.08-19.11-4.42-29.17l27-32.91L93.7,233l13.61-14.28,45.57-33.33,8.11-2.76c1.57-.53,3.13-1.13,4.72-1.6a16.72,16.72,0,0,1,7.89.12c4.84,1,9.41,3.82,13.86,5.93L199,192.51l2.18,1,20.41,48.3-28.57,17-44.21,8.84-19.05,6.13L112,267.44l8.16,23.81.11,23.37-6.12,13.6-3.4,15-.3,20.16,10.27,14.76,6.91,3.22Z"/><path class="cls-8" d="M138.6,382l5.44,2,4.08,2.73,4.08,4.08.68,5.44s-7.48-.68-8.16-.68-12.93-3.4-12.93-3.4-7.48-4.08-7.48-4.76v-6.13Z"/><path class="cls-9" d="M98.46,443.85,85.2,405.06v-16.3l14.63,12.92,3.4,10.2s-1.36,14.29-1.36,15.65-2,15-2,15l-1.37,2"/><polygon class="cls-10" points="328.93 448.74 322.25 443.85 308.05 435.96 297.74 430.07 292.92 426.39 289.04 422.2 286.51 418.16 286.22 415.64 286.86 414.48 288.26 418.73 294.79 425.85 303.88 431.61 309.21 435.01 316.12 438.41 319.52 439.77 329.69 444.61 337.54 449.12 345.91 455.12 352.21 460.88 357.51 467.01 361.95 473.59 366.66 482.81 369.8 490.78 372.33 498.83 374.99 510.3 375.98 515.95 365.78 517.31 364.08 513.57 364.08 511.53 361.27 500.65 353.87 477.52 345.71 459.15 328.93 448.74"/><polygon class="cls-4" points="85.03 439.35 85.54 430.93 95.85 435.82 98.47 441.81 93.02 447.25 85.03 439.35"/><polygon class="cls-4" points="76.7 412.56 80.78 406.44 84.18 402.36 89.62 403.04 93.7 406.44 95.74 413.24 98.47 422.08 99.14 424.81 98.89 429.6 97.78 435.69 97.78 440.45 86.69 431.68 80.1 434.33 73.3 434.33 71.26 424.81 76.7 412.56"/><path class="cls-11" d="M69.9,474.46s-2.72,8.84-3.4,8.84,2,6.8,2,6.8L76,492.82l6.8-7.48,3.4-2,2-21.76V447.93l-5.44-4.08-3.75-.51s-7.81,12.07-8.49,14.11S69.9,474.46,69.9,474.46Z"/><path class="cls-4" d="M86.22,453.37c-6.88-7.46-11.86-13.32,0-21.08Z"/><polygon class="cls-9" points="478.63 431.07 478.69 439.77 495.01 441.13 499.77 441.81 500.32 441.21 500.32 436.44 492.29 427.53 479.37 430.93 478.63 431.07"/><polygon class="cls-10" points="374.68 589.19 376.86 590.93 378.27 591.99 379.6 592.29 380.06 551.44 378.91 547.16 356.35 534.17 352.25 530.75 345.41 530.07 338.57 530.75 338.57 535.54 344.04 547.85 374.68 589.19"/><path class="cls-2" d="M107.31,520H98.46s-4.08-18.36-4.08-19,4.77-42.18,4.77-42.18l.68-21.76.68-40.81v-7.48l5.91-2.83,92.71,68.8,19.73-3.4,2-21.08,5.49,3.55L235.18,450l1.36,8.16-.68,8.85,23.81,42.17v8.16l-1.23,15.59.07,4-17.21,5.61-23.12,1.36Z"/><path class="cls-2" d="M261.13,511.38l.92,4.91,2.25,28.05s.75,8,.61,8.34a50,50,0,0,0,.64,5.17l19.62,48.22,35.41-2.6,20.18-11.41,3.59-2.31L343,556.42l-2.54,0-6.2,2.52-35.47,19.23-18.37-9.53,5-33.13-3-15.84-1.79-7.83L277,509.49l-16,1.64Z"/><polygon class="cls-12" points="359.26 537.85 356.25 534.32 352.17 530.91 353.53 524.79 385.5 524.79 375.98 513.97 374.8 509.49 382.78 507.11 401.83 506.43 424.27 507.79 444.35 510.81 446.04 515.27 457.98 532.88 460.32 538.4 450.12 549.96 418.83 550.64 392.98 543.84 384.82 536.36 377.34 539.76 359.26 537.85"/><path class="cls-9" d="M37.38,299.39c.62-3,3.61-3.78,5.48-5.56,3.63-3.47,7.64-6.54,11.5-9.77,2.36-3.71,6.15-5.91,9.41-8.6q26.58-21.91,53.1-43.89c7.84-6.49,15.72-12.95,23.56-19.43a5.4,5.4,0,0,1,3-1.53q17.19-14.06,34.36-28.11,17.82-14.64,35.56-29.37a8.1,8.1,0,0,0,.89-1l48.22-39.66c8-6.62,16.11-13.2,24.07-19.91,1.57-1.32,2.46-1.45,4.11-.07q35,29.37,70,58.6c.53.44,1,.93,1.57,1.31.71.46,1.31,1.48,2.34.88.82-.48.49-1.43.49-2.18,0-6.46.19-12.92-.07-19.37-.1-2.73.83-3.08,3.23-3.07q31.95.12,63.9,0c2.66,0,3.36.63,3.35,3.33-.11,25.95,0,51.9-.11,77.85a7.07,7.07,0,0,0,2.81,6.08q52.2,43.41,104.32,86.91c2.16,1.8,2.09,2.68,0,4.33-4.11,3.19-8.08,6.56-11.95,10-1.37,1.23-2.33.92-3.51.06L502.9,296.92c-.59-.5-1.11-1.42-1.94-1.15-1.16.39-.58,1.58-.58,2.36q-.08,21.25-.05,42.5,0,48.28,0,96.56v2c-2.18-1.27-4-2.36-5.82-3.38a17.12,17.12,0,0,0-12.82-1.71c-2.72.67-3.09-.14-3.09-2.69q.12-75.65.13-151.3a6.52,6.52,0,0,0-2.69-5.69c-11.65-9.5-23.17-19.14-34.74-28.73-2.05-.27-3.36-1.8-4.79-3-7.39-6.32-14.94-12.46-22.35-18.76-10.87-9.23-21.92-18.22-32.79-27.44-8.11-6.88-16.38-13.57-24.52-20.42-10.9-9.17-21.88-18.26-32.82-27.4q-15.88-13.26-31.77-26.55c-2-1.67-3.34-1.52-5.24,0-17.63,14.37-35.13,28.9-52.65,43.4-16.64,13.78-33.24,27.63-49.93,41.34-18.53,15.23-36.94,30.62-55.57,45.73-6.94,5.63-13.73,11.44-20.71,17a6.88,6.88,0,0,0-2.75,6.07q.11,52,0,104c0,1.67.39,3.43-.77,4.93,0,17.67-.11,35.35-.12,53,0,24,.06,48.05-.1,72.07,0,3.11.9,3.61,3.74,3.6q107.78-.12,215.56-.09c2.33,0,4.11.36,5.9,2.25,3.94,4.17,14.3,5.57,19.53,3.12,1.16-.55,2.51-1.23,2.77-2.36.78-3.52,3.36-3,5.81-3,39.1,0,78.2,0,117.3.08,3.08,0,3.75-.84,3.68-3.76-.19-8.7-.07-17.41-.07-26.56l11.3,5.11a10.29,10.29,0,0,1,7.56,7.51c3.09,3.68,2.87,8.06,2.8,12.47-.11,7.25-.13,14.51,0,21.76.05,2.38-.63,3-3,3-22.44-.08-44.88,0-67.32,0q-170.49,0-341,.06c-3.12,0-4.16-.52-4.14-4,.17-30.37.11-60.74.12-91.11v-1.63c2.24.82,2.63,2.84,3.65,4.28,1.18,1.66,2.13,3.64,4.61,3.49s3.58-2,4.32-3.86c5.31-13.5,5.55-26.94-1.4-40-2.21-4.12-5.39-7.61-11.21-5V375.76q0-41.31,0-82.61c0-1.41.72-3.45-.48-4.08s-2.4,1.21-3.48,2.09C72.7,298,64.39,304.79,56.16,311.72c-1.49,1.25-2.37,1.35-3.9,0C47.39,307.51,42.35,303.49,37.38,299.39Z"/><path class="cls-3" d="M518.88,507.73c8.66-8.28,10.53-18.44,8.13-30.13,3.72,2.12,7.15,4.19,10.7,6.06,7.1,3.75,14.54,6.75,21.87,10,10.87,4.82,20.31,11.37,25.4,22.72.07.14.38.18.83.37.35-2.1-.76-3.59-1.7-5.11-5.68-9.26-14.29-15-23.93-19.24-8.25-3.67-16.51-7.31-24.58-11.4a15.42,15.42,0,0,1-7.88-8.72c-.36-.94-.88-1.81-1.32-2.72-2.18-2.08-2.06-5.21-3.39-7.44.74,2.66,2.32,5.28,2.49,8.32.79,1.85,1.57,3.7,2.57,6.06-5.7-2.91-10.61-5.85-12.06-12.23-1.27-1.54.39-3.38-.52-4.95-.76-7.7-5.94-12.48-11.4-17a5.78,5.78,0,0,1-2.4-5.09q.1-39.76,0-79.53v-6.16a144,144,0,0,1,23,11.19c21.4,12.63,35.42,31.47,45.86,53.53,9.44,19.95,17,40.69,25.7,60.92,5.65,13.06,12.37,25.68,16.53,39.36,2.34,7.71,4.35,15.48,3.34,23.66-1.72,14-14.12,23.08-28.14,20.94-10.92-1.67-19.32-8-27.56-14.56a264.08,264.08,0,0,1-31.39-30A49.18,49.18,0,0,0,518.88,507.73Z"/><path class="cls-12" d="M386.08,543.61c-.06-.53.07-1.29-.23-1.55-.65-.55-.9.14-1.11.67-.29.74-.54,1.49-.89,2.2-1.77,3.67-4.69,5-8.65,3.86-5.84-1.69-10.23-5.62-14.57-9.59-1.55-1.41-2.89-3.05-4.34-4.6.53-.58,1.25-.3,1.87-.3q49,0,98,0c.45,0,.9.07,1.35.11a8.25,8.25,0,0,1,2.78,3.74c2.57,5.38,5.14,10.77,8,16,1.75,3.16,3.08,6.53,4.66,9.75,3.29,6.66,6.57,13.3,9.28,20.23,1.18,3,2.38,6.1,4.55,8.63,3.73,10.66,6.36,21.61,8.92,32.59.64,2.78-1.13,2.06-2.41,2.06H444.15c-21.38,0-42.76-.07-64.15.08-3.05,0-3.58-.91-3.18-3.63.54-3.56.73-7.17,1.07-10.76,1.43-.11,1-1.33,1.07-2.06,1.08-9.45,3.72-18.61,5.05-28,1.67-11.74,3.81-23.47,1.73-35.4A8.64,8.64,0,0,1,386.08,543.61Z"/><path class="cls-3" d="M452.7,466.76c1.95-6.25.17-12.06-3-17.2-6.26-10.07-10.6-20.89-14.46-32s-9.07-14.25-20.84-13.35a4.53,4.53,0,0,1-3.51-.72c-12.18-9.58-25.87-10.22-40.29-6.85-8.69,2-17.17,4.88-26,6.56-6.87,1.31-13.55.07-20.23-1-6.21-1-12.61-1-18.95-3.24,3.17-3.56,6.9-6.07,10.35-8.88a160.5,160.5,0,0,1,40.3-24.14,2.82,2.82,0,0,1,3.3.46c24.77,19.71,66.57,8.47,80.53-20.68,2.55-5.34,5.19-6.28,10.19-5.85,8.47.73,16.8,2.24,25.14,3.8,1.85.34,2.05,1.23,2.05,2.74q0,43.32,0,86.66c0,1.63-.63,2.27-2,3-4.84,2.77-6.59,6.81-5.29,12.13.27,1.07-.42,1.38-.71,2-1.38,3.05-1.88,6.08.38,8.91a1.66,1.66,0,0,1,.37,2.06,3.62,3.62,0,0,0-.39,2.29c1.57,5.13.44,10.58,1.92,15.71a13.2,13.2,0,0,0,2.85,5.72c2.57,2.58,2.95,5.54,2.82,9-.2,5.31-.09,10.64,0,16,0,1.58-.39,2.17-2.07,2.14-6.34-.13-12.68-.13-19-.17a16.37,16.37,0,0,1-3.24-7c-1.14-4.73-2.72-9.31-4.11-14a20.9,20.9,0,0,1,1.88-16.35A16.63,16.63,0,0,0,452.7,466.76Z"/><path class="cls-12" d="M444.65,511.78c-22.44,0-44.87,0-67.3.19-2.87,0-2.26-2.07-2.57-3.41-2.68-11.84-6.2-23.35-12.24-34-8.58-15.08-21.78-24.83-37.12-32.11-2-1-4.09-1.89-6.14-2.85-.06,0-.06-.21-.18-.64a42.28,42.28,0,0,0,17.75-.48,40,40,0,0,0,7.26-2.83c1.87-.91,3.29-3.1,6.07-1.52-1.21-2-3.23-2.25-4.47-3.88.89,2.61-.85,3.33-2.41,4.18-7.75,4.22-16,4.3-24.45,3.12C307.66,436,299,429.9,291,422.51a10.86,10.86,0,0,1-.84-1.06c-4.4-5.67-4.1-7.64.93-12.56,7.52-7.35,16.39-8.26,26.14-6.37,5.21,1,10.52,1.51,15.78,2.31,8.8,1.33,17.05-1.32,25.34-3.54,9.39-2.5,18.69-5.5,28.59-5.09a37.62,37.62,0,0,1,22,7.69c-.34.78-1,.62-1.45.74-6.74,1.73-8.29,4.4-6.45,11.14a11.69,11.69,0,0,1,.2,1.34,39.17,39.17,0,0,1-2,19c-3.36,9.17-5,18.47-3.44,28.2,1.12,6.92,4.23,12.48,10.9,15.52,4.83,2.45,10,2.86,15.3,2.71,1.68-.69,2.69.2,3.75,1.38a210.71,210.71,0,0,1,16.83,21.87C443.79,507.49,445.62,509.22,444.65,511.78Z"/><path class="cls-2" d="M239.31,441.6c22.65,18,31.64,44,41.37,70.3-6.59,0-12.44,0-18.3,0-1.61,0-1.39-1.16-1.54-2.08a101.57,101.57,0,0,0-2.93-13.24c-.31-1-.24-2.26-1.55-2.92-1.1,1.09-.11,2.18.13,3.07,1.13,4.15,1.95,8.35,2.8,12.56.46,2.27-.1,2.69-2.22,2.65-6.8-.11-13.6,0-20.4,0q-63.57,0-127.15.08c-3.09,0-3.62-.84-3.62-3.73.11-38.52.07-77,.08-115.58,0-2.15,0-4.31.08-6.46,3.1-2.77,7-2.71,10.8-3.11,13.88-1.48,25.62,4.05,36.87,11.24,3.82,2.44,7.54,5,11.21,7.63a26.85,26.85,0,0,0,5.78,3.52c4.62,1.76,8,4.07,9.8,9.39,2.2,6.46,7.88,10.36,14.43,12.38,5.06,1.57,9.91,1.2,13.57-3.29,1.51-1.85,2.76-2,4.32-.07a29.19,29.19,0,0,0,8.66,7,13.17,13.17,0,0,0,3.68,2.32c3.7,1.69,7.14,3.87,10.79,5.65C237.28,439.53,238.65,440.13,239.31,441.6Z"/><path class="cls-3" d="M465.82,535.47c.16-2.23,1.88-1.13,2.82-1.14,9.61-.08,19.24-.18,28.85,0,3.3.07,4.48-.58,4.34-4.21-.32-8.36,0-16.74-.16-25.11-.06-3,.86-3,2.91-1.56a28.58,28.58,0,0,0,2.66,1.47c9.63,4.71,15.65,12.31,18.5,22.6,2,7.2,3.75,14.47,5.8,21.65,1.87,6.6,2.18,13.38,3.18,20.08.7,4.66,1.1,9.39,2.38,14,1.61,13.81,3.17,27.63,4.88,41.43.29,2.35-.36,2.78-2.6,2.76q-19.35-.16-38.7,0c-2.44,0-3.18-.8-3.69-3.07a401.8,401.8,0,0,0-28.94-84.76C467.38,538.21,466.57,536.85,465.82,535.47Z"/><path class="cls-3" d="M363.71,511.78c-1.13.05-2.27,0-3.38.16-4.32.58-7.16,0-8.82-5.2-2-6.24-9.69-9-16.92-6.86-2.7.79-3-.32-3.42-2.22a119.75,119.75,0,0,0-10.6-27.79c-.45-.85-.48-2.33-2.57-2.26,1.58,3.27,3.05,6.35,4.55,9.41.58,1.17,1,2-.54,3-11.79,8-23.27,16.46-36.62,21.83-6,2.41-5.93,2.49-8-3.37a177.09,177.09,0,0,0-25.84-47.84c-1.37-1.79-3-3.37-4.67-5.23,13.35-9.12,26.68-18.2,38.8-29.14,4.46,10.64,14,15.09,23.08,20,5.95,3.23,12.45,5.36,18.28,8.84,1.76,3.08,4.93,4.6,7.44,6.85a70.32,70.32,0,0,1,20.46,30.72c2.69,8.17,6.18,16.06,8.26,24.44C363.55,508.69,364.39,510.14,363.71,511.78Z"/><path class="cls-3" d="M342,620.64a518.74,518.74,0,0,0-3.54-83c-.38-3.07.5-3.73,3.22-3.35a10.15,10.15,0,0,0,3.39,0c6.73-1.34,11.46,1.64,15.2,6.87a10.4,10.4,0,0,0,2,3.85,72.36,72.36,0,0,1,8.89,15.09c2.08,4.94,1.74,10.18,2.19,15.3.3,3.46,1,6.92.8,10.42-.19,2.67,2.64,2.42,3.63,3.94.61,2.65.95,5.28-.43,7.82-.69,9-1.46,18-2,27-.14,2.35-.82,2.94-3.18,2.89-8.8-.17-17.61-.25-26.4.05-3.49.12-4.35-1.05-3.83-4.14A16.07,16.07,0,0,0,342,620.64Z"/><path class="cls-10" d="M379.57,604c-.3,2.79,0,5.7-.83,8.4-3.75.86-4.56-1.63-4.65-6.46-.22-10.31-.38-20.74-1.67-30.86-1.49-11.75-6.48-21.52-11.74-30.79-1.11-1.94-2.06-3.48-.86-5.86,5.77,6,11.11,13.14,18.76,14.56,1.8.34,1.11,2.39,1.17,3.7.67,14.74.1,29.47-.22,44.2C379.51,601.89,379.56,602.93,379.57,604Z"/><path class="cls-5" d="M517.44,470.3a15.41,15.41,0,0,0,2.83,2.87c6.86,4.09,7,10.45,6,17.22A26.24,26.24,0,0,1,519.7,505c-1.29,1.38-2.6,1.93-4.49,1.14-3.12-1.3-6.32-2.41-9.47-3.63-3.64-1.41-5.36-4.66-7.29-7.7-2.62-2.38-5.06-4.93-7.53-7.46l-14.19-6.94c.06,2.09,1.11,3.52.09,5.39a21.08,21.08,0,0,1-4.69-13.17c0-2.22,1.31-3,3.65-2.74,4.16.47,7.78,2.19,11.41,4.08,1.15.6,2.28,1.83,4.41,1-5.5-3.08-10.39-6.35-16.52-6.4-2.48,0-3.84-1-3.95-3.51s0-4.92,3.14-5.94c4.12-1.31,8-.75,11.94.66,1.22.44,2.4,1,3.81.58-3.74-2-7.57-3.68-12-3.35-1.12.08-2.23.48-3.35.49-1.62,0-3.88,2-4.71-.56s-.87-5.48,1.93-7.3a15.16,15.16,0,0,1,13-1.8c1.89.53,3.61,1.8,5.79,1.62-2.36-2.78-9.43-4.43-14-3.31-.77.19-1.5.54-2.27.66-1.11.17-2.12,1.8-3.3.46-1-1.15-.64-2.53-.16-3.87a10.6,10.6,0,0,1,6.56-6.87c6.15-2.15,12.11-2.2,17.92,1.39a72.54,72.54,0,0,1,13.88,11.36c3.56,3.64,4.5,8.24,5.4,12.92a104.32,104.32,0,0,1,.62,14.68c0,2.37,0,4.73,0,7.09,0-4-.06-8,.06-11.94C515.47,471,515.05,468.84,517.44,470.3Z"/><path class="cls-5" d="M367.81,359.29c2.91-2.15-.05-3.63-.69-5.78A76.4,76.4,0,0,0,391,339.75a92.25,92.25,0,0,0,18.88-20.9c6.65,10.74,13.92,20.29,27.91,20.28,4.15.49,2.45,2.93,1.5,4.86-6.91,14.16-18.14,23.41-33.05,28-16.06,5-31.47,3.9-45.5-6.32a10.79,10.79,0,0,1-1-.86c-.08-.06-.1-.18-.24-.45Z"/><path class="cls-10" d="M363.71,511.78c-2.63-9.78-6.33-19.21-9.55-28.8a72.11,72.11,0,0,0-21-31.09c-1.74-1.55-3.91-2.64-5.54-4.39-.68-.73-1.18-1.35-.57-2.33a82,82,0,0,1,14,8.4,71,71,0,0,1,11.51,9.74c9.72,10.45,14.93,23.25,18.7,36.74,1.06,3.79,1.89,7.65,2.88,11.73Z"/><path class="cls-10" d="M537.1,583.24c-2.33-1.28-1.61-3.68-2-5.62-2.22-12.14-2.7-24.58-6.64-36.44-1.91-5.73-2.92-11.76-5-17.47-2.88-8-8.84-13.37-15.62-18a4.37,4.37,0,0,1-.66-.75l10.75,3.8a68.28,68.28,0,0,1,11.46,10.29c1.95,2.07,2,4.73,2.44,7.24C535.23,545.13,536.48,564.16,537.1,583.24Z"/><path class="cls-9" d="M314.1,513.31h46.71l.21,8.08s-17.69,3.4-18.37,3.4-21.09-1.36-21.09-1.36Z"/><path class="cls-13" d="M327.87,509l1.54,3.83,1.68,1.74,3.17,1.78,5.8,1.36,3.27.26,6.8-4.76-6.19-6.47-4-2.37s-4.76.68-5.44.68S327.87,509,327.87,509Z"/><path class="cls-14" d="M327.93,404.25c-1.42.81-2,3.24-2.71,4.6-.86,1.64-2.5,3.65-2.76,5.51-.22,1.58,1,2.75,1.79,4,.63,1,.72,2.3,1.58,3.16s2.82,1.31,4.11,1.76a58.73,58.73,0,0,0,18,3.25c8.42.31,16.73,2.61,24.93,4.34a6.25,6.25,0,0,0,3.85,0c2.09-.95,2.83-3.86,3.69-5.78,1.5-3.33,3.36-6,6.58-7.81,2.75-1.55,6.05-2.47,8.08-5,.82-1,1.52-2.16,2.41-3.12A13.15,13.15,0,0,1,402.7,406c1-.37,2-.69,3-1,1.21-.41,1.83-.56,1.64-2-.08-.61-3.33-1.95-3.9-2.24a41.86,41.86,0,0,0-4.3-1.85,41.26,41.26,0,0,0-9.09-2.18c-6.52-.8-13.13.17-19.5,1.56-3.51.76-7,1.69-10.45,2.6a148,148,0,0,1-16.07,3.75,46.45,46.45,0,0,1-10.4.36c-1-.07-2.09-.22-3.13-.39C329.66,404.4,328.64,403.84,327.93,404.25Z"/><path class="cls-15" d="M303.2,412.68c-1.42,2.85-2.63,6.23-5.25,6.28-1.75,1.23-3.4,3.46-5.47,1.6-2.14-2.08-5-3.29-4-9.2-.09-5.73,2.44-5.73,4.79-6.12l3.69.74C298.67,409.17,303.06,405.35,303.2,412.68Z"/><path class="cls-6" d="M341,416c.86-3.07,2-5.66,4.73-6.79s4.69.49,6.27,2.54a6.49,6.49,0,0,1,.67,7.68c-.72,1.25-2.38,1.76-2.93.54-1.57-3.54-3.32-5.41-7.09-2.57C342.54,417.5,341.54,416.45,341,416Z"/><path class="cls-16" d="M386.08,543.61a64.13,64.13,0,0,1,1.38,18.47c-.67,7.13-1.13,14.28-2.53,21.34-2.05,10.35-3.84,20.74-5.76,31.21l-1.28-1.54.72-15.54a28.51,28.51,0,0,1,.67-13.67,298.38,298.38,0,0,0,.47-30.79c0-.35,0-.67,0-1a2.82,2.82,0,0,1,2-2.7C384.16,548.35,384.84,545.71,386.08,543.61Z"/><path class="cls-10" d="M452.7,466.76a5.38,5.38,0,0,1,0,6.12c-5.76,8.15-3.63,16.42-.81,24.8,1.56,4.67,2.92,9.41,4.37,14.11-2.29.62-3.64-.24-4.85-2.33-5.28-9-10.63-18-15.39-27.38-1.11-2.16-.75-2.88,1.53-3.71C443.74,476.11,449.36,472.87,452.7,466.76Z"/><path class="cls-12" d="M338.59,506.4c-1.46,4.22.37,7.76,2.37,11.27-5.95.45-8.76-.51-8.94-9.72-1.53,1.57-1.53,1.57-1,6.51-4.15-3.24-4.31-8.22-.17-11.23,4.3-3.12,9.1-3.23,13.89-1.29,4.14,1.69,6.25,5.09,6.8,9.43a6.41,6.41,0,0,1-7.53,6.88c-1-.21-1.45-1-2-1.75A22.56,22.56,0,0,1,338.59,506.4Z"/><path class="cls-16" d="M444.65,511.78c-1.33-4.93-5-8.43-7.68-12.52-3.57-5.45-8.05-10.18-12.16-15.2a3.84,3.84,0,0,0-2.79-1.55c3.29-.74,6.6-1.4,9.86-2.24,1.13-.29,1.61-.06,2.1.94,5,10.24,10.83,20,16.68,29.81.09.15,0,.42,0,.76Z"/><path class="cls-16" d="M406.72,481.94c-4.17-.6-9.8-6.42-11-11.44a56.79,56.79,0,0,1,2.16-32.63c1.83-5.09,3.15-10.36,2.62-16-.15-1.56.44-3.2.7-4.8,2.48,7.68,1.6,15.41.19,23.12-1.13,6.19-2.8,12.28-3.35,18.57C397.27,468,398.71,476.28,406.72,481.94Z"/><path class="cls-17" d="M403.27,441.1l-.72,0c1.14-7.46,2.12-14.91.63-22.47-.52-2.67-2.4-5.16-1.29-8.1C405.31,420.62,406.11,430.78,403.27,441.1Z"/><path class="cls-7" d="M43.37,532.27,42,543.84l-5.44,2.72-2.72-6.12,4.76-17.69,11.56-23.12,9.52-17,6.81-18.36,2-11.57s4.76-2,4.76-1.36,2.72,10.21,3.4,10.21.68,8.16.68,8.16l-3.8,1.51-2.15,3.2-2.55,4.47-.79,1.41Z"/><path class="cls-2" d="M43.55,591.28c-4.87-1.2-8.13-4.34-10.34-8.71-10-22.41-6.93-44,4-65.13,7.59-14.63,15.81-28.93,22.92-43.81a144.63,144.63,0,0,0,7.58-19c2.09.13,1.56,1.85,1.65,3a35.13,35.13,0,0,1-3.23,16.76C61.8,484.53,56,493.9,50.74,503.61c-1.38,2.57-3.39,5-3.1,8.26-4.57,10.7-9.16,21.41-9.92,33.32,4.64-24.65,17.58-45.33,31.08-66,3.12,4.45,7.55,6.19,12.56,6.53,1.72.12,2.3.45,2.29,2.27-.08,14.61.94,29.31-.34,43.8C82,546.73,78.74,561.58,70.49,574.6c-5,7.95-11.72,14-21.2,16.37A23.07,23.07,0,0,1,43.55,591.28Z"/><path class="cls-2" d="M274,534.38c1.92,0,3.85-.09,5.77-.09,5.84,0,5.85,0,7.1,5.89,2.32,10.93,4.68,21.85,6.91,32.8.44,2.12,1.13,2.75,3.38,2.21,8.11-1.93,15.45-5.65,22.79-9.4,6.12-3.12,12.22-6.31,19-8.55,1.11,6.51,1,12.91,1.45,19.26.33,4.4.22,8.82.35,13.23,0,1.16.11,2.15-1.16,2.88-13.43,7.65-26.56,15.92-41.22,21.15-5,1.78-10.07,3.4-15.46,3.54-1.93.74-2.26-1-3-2-4.58-6.61-7.14-14.08-9.39-21.71-2.61-8.87-3.62-18-4.28-27.1-.6-8.46-1.67-16.89-1.47-25.39a29.38,29.38,0,0,1,.15-3.39c.3-2.09,1.27-3.23,3.6-3.12A16,16,0,0,0,274,534.38Z"/><path class="cls-8" d="M55,314.72q10.13-8.5,20.23-17c2.58-2.16,5.21-4.26,7.9-6.46.78.91.5,1.85.5,2.68q0,49.47,0,98.93a6.55,6.55,0,0,1-2.29,5.24c-7.53,7.27-11.74,16.8-17,25.64a18.57,18.57,0,0,0-2.11,14A29.64,29.64,0,0,0,65.63,447a8.67,8.67,0,0,1,.69,7.38A79.6,79.6,0,0,1,61.4,467a26.09,26.09,0,0,1-4.89-8.18c-.19-4.28-1.81-8.27-2.37-12.52a64.31,64.31,0,0,1,3.17-29.58c2.14-6.26,5.59-11.77,9.2-17.22.68-1,1.57-1.94,1.55-3.28,3.81-5.85,8.11-11.39,10.62-18,2.75-7.32,2.76-14.21-1.83-20.95-4.25-6.24-8.11-12.76-12.12-19.16-1.36-2.17-2.9-4.24-3.64-6.74-2.09-4.34-4.27-8.63-6-13.15C54.73,317.08,53.89,315.93,55,314.72Z"/><path class="cls-11" d="M99.32,425.07c-1.83-4.33-3.57-8.7-5.52-13-1.43-3.16-2.68-6.9-6.85-7.17s-5.7,3.49-7.6,6.37c-.66,1-1.18,2.12-1.74,3.15,1,.84,1.35.18,1.71-.4.59-.95,1.08-2,1.74-2.9,1.54-2.17,2.72-5.17,6-4.85s4.15,3.3,5.26,5.72c2,4.42,3.66,9,5.62,13.44,1.53,3.46,1.27,6.76-.3,10.36-1.86-3.65-3.46-7.22-5.44-10.56-1.84-3.11-3.83-6.37-8.28-5.91-3.22.34-7.17,4.63-8.3,9.07,1.9-.69,2.27-2.49,3.21-3.72,4.3-5.57,8.22-5.43,11.78.66A74.47,74.47,0,0,1,96,436.26a4.65,4.65,0,0,1-.5,4.82c-1.46,1.91-3.09,2.31-4.64.1-1.17-1.66-2.13-3.47-3.35-5.09-1.47-2-3.14-2-4.76-.08a8.38,8.38,0,0,0-1.65,8.59c4.17,12.49,1.94,25.38,2.51,38.09.08,1.71-.9,1.83-2.14,1.7A18.59,18.59,0,0,1,75,482.71c-5.24-2.66-6.34-4.73-2.87-9.2,4.57-5.89,2.78-11.23.16-16.79-2.17-4.6-4.71-9-6.87-13.62-3.24-6.93-3-13.71,1.06-20.37,4.41-7.22,8.12-14.89,13.64-21.41,6.79-8,12.06-7.39,16.29,2.15A36.91,36.91,0,0,1,99.32,425.07Z"/><path class="cls-7" d="M276,533.7c-2.2,1.13-4.74.57-7.09.54-3.14,0-4.55.93-4.63,3A120.41,120.41,0,0,0,266,560.77c.91,5.8,1.07,11.67,2.27,17.44,2.84,13.63,8,26.76,19.74,38.2.15.14.61.14.92.21-7.46,1.25-14.88.5-22.31-.2-2-.19-2-1.24-2.23-2.25-5.31-25.94-8.45-51.95-5.79-78.18.16-1.57.47-2.54,3.26-2.44C266.57,533.71,271.3,533.66,276,533.7Z"/><path class="cls-8" d="M68.06,396.21c1.35,1.63-.48,2.44-1.08,3.31a76.76,76.76,0,0,0-11.65,26.06c-2.37,10-1,19.93,1.12,29.8.24,1.12,1.24,2.27.06,3.43-7-20.94-3.81-40.37,8.71-58.4C66.18,399,67.11,397.61,68.06,396.21Z"/><path class="cls-6" d="M387.05,126.79c-2.32,1.31-4.05.17-5.79.24q-7.62.33-15.26.43c-1.74,0-2.35.7-2.33,2.45.06,5.77,0,11.55,0,17.33,0,1.2,0,2.4,0,4.43l-11.45-9.5c-4.26-3.54-8.42-7.19-12.8-10.57-2.18-1.68-1.71-2.66.25-3.85a42.54,42.54,0,0,1,25.61-6.08,65.79,65.79,0,0,1,19.48,4C385.37,125.93,386,126.26,387.05,126.79Z"/><path class="cls-5" d="M218.86,399.43a94,94,0,0,0-2.22,19c.05,4.53-6.65,9.9-12.38,10.37-10.14.85-17.3-4.14-23.76-10.16-4.89-4.56-7.35-9.49-2.68-15.6,2.48-3.25,2.94-7.36,4.44-11,1-1.69,2.35-1.32,3.78-.51,9.1,5.2,19.09,7.22,29.82,6.74C216.87,398.18,218.76,397.31,218.86,399.43Z"/><path class="cls-6" d="M437.52,185.89A88,88,0,0,1,442.63,217c-4.43-1.87-6.26-4.88-6.05-9.52C436.91,200.28,436.27,193.07,437.52,185.89Z"/><path class="cls-8" d="M52.86,284c-.89.33-1.34,1.48-2.48,1.32-1.1-.66-.88-1.78-.8-2.74.89-10.78,3.21-21.09,9.24-30.36A39.79,39.79,0,0,1,72,239.83a2.93,2.93,0,0,0,2.11-3.46C75.9,221.8,84.78,212,96,203.73c3.27-2.42,6.78-4.44,10.09-6.77a11.71,11.71,0,0,1,2-1.72c14.6-7.3,29.7-13.1,46.12-14.72l10.9.18c-.59,2.26-2.68,3.78-3,6.24-.12,1-1.28,1.1-2.16,1.33-4.77,1.23-5.63,2.89-3.94,7.49.23.62.62,1.22.25,1.92-.62,1.5-2.09,2-3.31,2.79-1.18-.91-.8-2.24-.93-3.43-.09-.88.11-1.95-1.06-2.23-.84-.2-1.41.49-2,1-1.27,1-1,3.71-3.23,3.39-1.56-.22-2.15-2.23-4.14-3.3,1.76,2.44,1.55,4.18-.17,6.12-2.13,2.4-1.69,3.94,1.25,7.27,0,.16-.08.32-.11.48-2,3.23-5.33,5.07-8.14,7.41q-14.78,12.38-29.71,24.56c-9.76,8-19.38,16.18-29.23,24.09C69.69,270.46,64,275.23,58.31,280A41.46,41.46,0,0,1,52.86,284Z"/><path class="cls-18" d="M216.55,403.1c-8.8,0-17.53-.14-25.78-4.2-2.42-1.19-5-2-6.92-4-1.1-1.16-1.93-1.16-3.06-.44-.22-3.61,1-4.83,4.67-4.39a126.77,126.77,0,0,0,31-.22c1.6-.2,3.21-.25,5.1-.39C219.83,394.18,218.19,398.64,216.55,403.1Z"/><path class="cls-8" d="M156.31,197.68c-2.89-4.29-3.23-7.71.09-9a11.54,11.54,0,0,0,7.21-6.74c.23-.54,1-.85,1.54-1.26,3.67,0,7.37-.31,11.26,1.1C169.43,187,163.43,193,156.31,197.68Z"/><path class="cls-8" d="M142.68,209.27c-3.67-1.42-4.81-4.92-2.22-7.57,1.74-1.77,2.88-3.14.3-5a1.11,1.11,0,0,1-.27-1.75c.73-.84,1.36-.42,2,.15,1.27,1.1,2.57,2.17,4,3.37.64-1.08,1.06-2.86,2.48-4a3.07,3.07,0,0,1,3.12-.68c1.14.4.78,1.48.82,2.33.07,1.46.07,2.92.09,4.38C150,203.89,146,206.24,142.68,209.27Z"/><path class="cls-8" d="M220.75,429.94c-7.6-3.9-10-10.13-8.62-18.31a58.73,58.73,0,0,1,4.6-15.88,5.86,5.86,0,0,1,4.82-3.6c12.84-2,22.85-8.6,30.21-19.32,2.09-3.05,4.47-5.9,7.21-9.49,0,1.7.06,2.65,0,3.58-.64,8.76.76,17.4,1.56,26.07,1.42,15.26-3.4,28.32-14,39.22-7.46,7.67-7.54,7.53-17,2.69C228.08,434.17,221.34,430.25,220.75,429.94Z"/><path class="cls-19" d="M297.74,416c-.89.68-1.21,1.12-1.51,1.11a.82.82,0,0,1-.81-1.09.71.71,0,0,1,.9-.64A10.58,10.58,0,0,1,297.74,416Z"/><path class="cls-8" d="M179.41,398.28l4-4.19,2.78-6-34.69-19.73-10.2-25.85,4.76-20.4,5.44-19.73L184.9,289l39.4-7,13.6-4.76,10.89,6.12L261,297.61l4.76,6.12,1.36,2a37.19,37.19,0,0,0,2.58,4.33c2-7.71-2-17.18-3.76-24.71-1.09-4.55-3.58-10.28-3.58-15v-6.12l-27.89-5.44-46.93,6.8-49.65,6.81-8.17,1.36s-8.84,12.24-8.84,12.92-4.76,25.85-5.44,27.21-9.3,24.44-9.41,27.52,7.37,35.05,7.37,35.05l27.89,6.12L157,388.08l8.16,7.48Z"/><polygon class="cls-8" points="183.55 395.21 185.53 390.12 180.09 390.12 179.41 393.52 183.55 395.21"/><path class="cls-8" d="M256.34,191.66c12.17,6.07,21.94,14.73,28.24,26.89,5.51,10.66,4.58,21.45-.38,32-3.07,6.54-6.43,12.95-9.75,19.39a62.34,62.34,0,0,0-6.35,19.56c-.6,4.09.18,8.1.79,12.17-6.06-7.1-11.46-21.15-11.76-30.58,0-.87-.31-1.93.7-2.44.83-.42,1.46.35,2.14.69s1.07,1.27,2,.72c-1.46-3-2.86-3.57-10.37-3.9-3.5-1.18-6.61.5-9.72,1.53-9.35,3.08-18.09,7.65-27.09,11.58-10.13,4.43-20.65,6.57-31.65,7.59-14.45,1.35-28.35-.58-42.14-4.58-2.46-.71-4.71-2-7.27-2.4-1.48-.27-2.15-2.44-4.48-1.73,16.37,33.6,14.26,66-6.86,97.43,2.48-.77,2.59-.71,4.51-4.18,1-1.82,1.59-2,3-.34,3,3.44,6.69,5,11.17,3.22,1.32-.54,1.88.13,2.63.76,11,9.28,23.5,15.55,37.82,17.89,1.85.3,2.18,1.28,1.87,2.85a47.89,47.89,0,0,1-3.26,9.95c-.78,1.81-1.8,2.27-3.71,1.64a43.73,43.73,0,0,1-11.63-6.17c-9.72-6.86-19.49-13.74-31.06-17.12a47.82,47.82,0,0,0-27.73.46h0q0-55-.11-110a4.76,4.76,0,0,1,2.15-3.94L141.57,243l55-45.29c1.57-1.29,2.76-3,4.61-4a67.26,67.26,0,0,1,17-6.27c11.75-2.92,23-1.25,34.1,3.06C253.55,191.05,254.73,192.2,256.34,191.66Z"/><path class="cls-8" d="M218.13,393.77a.73.73,0,0,1,.13-.39,33.55,33.55,0,0,1,7.32-8.9c5.33-4.65,10.59-9.37,15.95-14a176.31,176.31,0,0,1,15.41-12.4c1.77-1.21,3.64-2.23,5.45-3.34L259,364.3s-2,10.85-2,11.53-10.89,17.69-10.89,17.69l-15.91,6c-1.65.61-3.29,1.25-5,1.85-1.26.46-1.54-.47-2.36-1.5l-4.51-5.66A.72.72,0,0,1,218.13,393.77Z"/><path class="cls-5" d="M318.22,355.45a18.36,18.36,0,0,0-6.14-1.49c-6.13-2.39-12.08-5.11-16.83-9.86A47,47,0,0,1,284,326.16a101.9,101.9,0,0,0-11.08-22.8c-3.59-5.39-3.91-10.88-2.77-16.83.21-1.1.45-2.21.73-3.3,1.93-7.56,1.95-7.34,9.57-8.05,8.64-.81,14.94-6,20.64-12,6.07-6.41,10.53-14,15.29-22.35-.08,4.82-1.66,8.46-2.31,12.28-.15.92-1,2,.18,2.78.94.59,1.7-.34,2.4-.77,18-11,31.31-25.81,36.44-46.9.32-1.31.56-2.64.92-4.38,11.41,8.48,25.24,10.64,38.16,15.11,16.43,5.69,24.61,17.87,28,34.15,1.18,5.71,1.28,5.69,6.74,3.45,6-2.44,10.55-1.69,12.35,2,2.16,4.46-1,11.86-6.31,14.64a17.62,17.62,0,0,1-7,1.65,3.66,3.66,0,0,1,.87,4.15c-7,25-19.41,46.4-40.25,62.44-12.56,9.67-26.9,14-42.56,14.68A161.87,161.87,0,0,1,318.22,355.45Z"/><path class="cls-5" d="M132.25,280.88c15.89,8.34,32.39,8.9,49.18,8.34,16.62-.56,31.58-6.35,46.25-13.42A97.7,97.7,0,0,1,248,268.21c1.32-.3,2.67-.45,4-.66,2.79-.45,3.85.37,3.79,3.55-.19,9.47,3.65,17.81,8.18,25.87,2.16,3.84,4.33,7.68,6.46,11.55,6.61,12,6.77,24-.5,35.74a298.44,298.44,0,0,1-23.68,33.08c-6.88,8.28-16.27,11.92-26.54,13.72-16.5,2.88-32.88,3-49-2.31a75.42,75.42,0,0,1-25.78-14.67c-1.47-1.25-2.65-2.28-4.92-1-2.57,1.46-6.41-.1-8.83-2.64s-1.41-4.52-.07-7c14-26.22,13.37-52.89,2.27-79.84Z"/><path class="cls-6" d="M331.77,241.57a6.12,6.12,0,0,1-3.07,3c-3.8,2.37-7.18,5.34-11,7.65-.65.39-1.17,1.16-2.07.58.61-3.44,2.09-6.68,2.19-10.22a7.57,7.57,0,0,0,.19-1.67c-.24-1,.06-2.59-1.19-2.87s-1.41,1.26-1.85,2.09c-5,9.3-10.39,18.32-18.34,25.39-5.35,4.76-11.28,8.74-19.05,8.3-2.28-.12-3.41-.07-1.9-3,4.22-8.09,8.91-16,11.93-24.66,3.94-11.31,2.57-22-3.75-32.08-7.92-12.68-19.25-21.1-33.07-26.28-2.76-1-2.45-1.92-1.25-4,4.26-7.32,8-14.92,12.84-21.91a9.18,9.18,0,0,1,2.66-3c3.7-2.63,6.39-6.36,10.1-9A81.42,81.42,0,0,1,306,136.6c.9-.19,1.79.24,2.67-.09,15.11,12.56,30.26,25.07,45.32,37.68,16.21,13.56,32.31,27.23,48.51,40.8,11.44,9.57,23,19,34.43,28.57,1.08.9,2.87,1.6,2.64,3.26a45.64,45.64,0,0,1-1.8,7.15c-.29.94-1.15.41-1.73.18-4.14-1.66-7.79,0-11.27,1.88-1.72.94-2.18.77-2.7-1.14-1.69-6.18-3.16-12.43-6.11-18.23-4.45-8.77-11.73-14.17-20.49-17.88-8.12-3.44-16.73-5.42-25-8.25a67.12,67.12,0,0,1-14.26-6.92c-1.78-1.13-2-2.85-1.91-4.75a47.77,47.77,0,0,0-3.46-20.19c-.4-1-.57-2.21-2.66-2.91,3.26,8,5.29,15.83,4.61,24.06C350.23,216,342.58,229.57,331.77,241.57Z"/><path class="cls-6" d="M411.51,191.84c-8.95-7.62-17.36-14.8-25.83-21.93a3.05,3.05,0,0,1-.94-2.72c0-4.3.06-8.61-.05-12.91-.05-2,.44-2.81,2.62-2.77q10.88.18,21.75,0c2.34,0,2.87,1,2.83,3.07-.2,8.93-.3,17.87-.44,26.8C411.4,184.61,412.36,187.83,411.51,191.84Z"/><path class="cls-20" d="M424.2,263.41c1.17-3.81,7.49-6.51,10.36-4.88.41.23.83.47.64,1-.08.22-.52.53-.69.47C430.48,258.75,427.5,261.09,424.2,263.41Z"/><polygon class="cls-16" points="379.75 552.32 379.71 552.13 379.11 549.06 380.4 548.64 381.63 547.88 382.69 546.81 383.68 545.27 384.07 544.44 384.59 543.13 384.82 542.52 385.06 542.08 385.3 541.88 385.54 541.88 385.96 542.22 386.06 542.8 386.06 543.43 385.95 543.83 385.65 546.64 383.46 550.64 379.75 552.32"/><path class="cls-18" d="M366.28,352.19c.92,1.85,22-12.56,23.83-14.06a105.48,105.48,0,0,0,10.1-9.62c3-3.26,5.67-8.1,9.11-10.75a3.22,3.22,0,0,1,.71,3.44,10.46,10.46,0,0,1-2,3.36,164,164,0,0,1-14.57,16.8c-5.5,5.28-12,11.13-19.49,13.39l-5.19,1.57Z"/><path class="cls-6" d="M398.64,408.22c.73-2.81,2.64-4.15,5.45-4.54a83.81,83.81,0,0,1,14.77-.81c5.72.22,9.07,3.45,11.63,8a50.23,50.23,0,0,1,4.9,12.07c2.27,8.78,6.33,16.7,11.25,24.24a46.07,46.07,0,0,1,4.24,8.84c4.15,10.92-1.19,17.08-9.83,21.32a64,64,0,0,1-22.9,6.5c-4,.34-8,.31-11.58-1.89,0-.12-.05-.28-.13-.34-10.34-6.76-11.1-16.71-9.28-27.58.73-4.41,2-8.71,2.62-13.14,1.8-9.63,2.82-19.22-.71-28.73A12.12,12.12,0,0,1,398.64,408.22Z"/><path class="cls-21" d="M348.46,175.55c.25.72,1.17,1.21,1.48,2a55.19,55.19,0,0,1,3.18,9,53.34,53.34,0,0,1,1.18,12.61,6.24,6.24,0,0,1-.17,1.55,5.58,5.58,0,0,1-1.79,2.64c.51-.44.23-2.21.27-2.81a47.81,47.81,0,0,0-.82-13,49,49,0,0,0-1.71-6.31c-.32-.94-.79-1.85-1-2.82A27.34,27.34,0,0,0,348.46,175.55Z"/><path class="cls-6" d="M318,437.22c10.7.87,18.25-2.54,25.85-5.9,1.24-.05,2.48-.15,3.71-.3,1.61.57,4.16.66,4.39,1.9l-12.42,4.4a50.69,50.69,0,0,1-21.13,2.41C316.67,439.07,316.54,438.24,318,437.22Z"/><path class="cls-10" d="M317.19,463.57h.05a3.9,3.9,0,0,1,2.16,1.1,7.42,7.42,0,0,1,1,1.6c1.48,3,3.08,6,4.42,9,.56,1.28,1.08,2.58,1.51,3.9a20,20,0,0,1,.57,2,6.77,6.77,0,0,1,.26,2,10.55,10.55,0,0,1-.54-1.35l-.94-2.46-1.54-4,0-.08-.61-1.4-1.6,1.37.18-1-1.16-2.65c-.62-1.43-1.31-2.83-2-4.22-.36-.71-.71-1.41-1.06-2.12a18.13,18.13,0,0,1-1-2C316.9,463.48,317.05,463.53,317.19,463.57Z"/></g></svg>