<svg xmlns="http://www.w3.org/2000/svg" viewBox="0 0 650 650"><defs><style>.cls-1,.cls-10{fill:#987554;}.cls-1{opacity:0.17;}.cls-2{fill:#2c2c35;}.cls-3{fill:#090922;}.cls-4{fill:#aacb9a;}.cls-5{fill:#bca180;}.cls-6{fill:#e2b87d;}.cls-7{fill:tan;}.cls-8{fill:#b99976;}.cls-9{fill:#b6d7a8;}.cls-11{fill:#88180e;}</style></defs><title>transitar_con_fondo_oscuro</title><g id="transitar"><path class="cls-1" d="M233,555.92c-30.48,14.37-25.23,40.18-59.47,57.85-1.89,1-45.08,22.29-84.49-5.5-25.78-18.19-33.42-42-19.93-78.45,11.75-31.8,28.11-60.31,40-92s19.2-68.7,11.23-102.47c-5.88-24.88-19.21-44.92-26.68-68.81s-11.11-50.29-14-75.66c-4.76-41.42-7.27-63.25,3.12-79.88,27.83-44.59,103.52-27.4,139.69-18.68C291,108.87,349.5,54.86,411.69,24.56c19.22-9.37,39.51-16.78,59.94-14.71,60.65,6.14,71.27,105,77.76,168.46q8.63,84.38,10.78,169.6c.36,14,.23,29.45-6.62,40.18-17.2,26.94-49,15.66-50.81,62.64-.88,22.39,6.66,43.68,14,63.86,8.14,22.22,23.07,57.67,7.21,79.9s-53.8-15.71-129.36-27.55c-30.95-4.85-25.73,1.34-70.94-4.13C265.65,555.77,255.35,545.35,233,555.92Z"/><path class="cls-2" d="M333.31,555.37c13.33,6.12,26,11.63,40.66,13.92,22,3.42,46.1.79,67.14-6.26,15.83-5.31,27.23-15.95,35.54-30.25,7-12,9.7-24.49,10.23-38.16l-53.06.15-102.44,9.5,1.93,51.1"/><path class="cls-3" d="M333.55,553.63c11.71,1.12,23.1,1.92,34.9,1.34a277.53,277.53,0,0,0,40.72-5.2,215.9,215.9,0,0,0,37.16-10.61c11.83-4.69,23-11.59,33.62-18.49a9.76,9.76,0,0,0,1.94-1.5,9.46,9.46,0,0,0,1.63-2.78c2.78-6.56,3.05-13.05,3.63-20V487.9L390,490l-49.63,1.05-6.81,62.56"/><polygon class="cls-3" points="488.21 423.48 491.38 412.92 488.21 409.75 478.71 412.92 476.59 418.2 479.1 424.67 486.1 425.6 488.21 423.48"/><path class="cls-3" d="M353,275.63c-.66-3.88-5.4-9.33-7.35-12.82-2.93-5.22-5.84-10.46-8.47-15.84-5.26-10.77-9.51-22.24-10.14-34.32-.8-15.34,4.39-30.71,13.34-43.2a89.23,89.23,0,0,1,25.9-23.7c5.91-3.64,14.85-7.94,22.1-7.94,11.65,0,22.39.17,33.59,4,13.86,4.75,23.56,15.06,28.57,28.52,3.93,10.58,10.82,18.26,19.16,25.56,12.61,11,16.12,29.88,15.72,45.75-.23,9.15,2.45,13.55,7.51,20.79,4.37,6.24,9.94,8.07,11.69,16.34,2.23,10.51-.63,20.79,7.12,29.54,3,3.36,6.58,6.13,9.82,9.25,15.83,15.22,26,42.39,14.56,63-6,10.8-18.66,15.89-30.57,16-4.17,8.53-11.49,14.36-18.18,20.81l-18.8,18.1c-1.87,1.8-22.47,24.16-24.22,23.32l-39.07-17.95-31.69-42.25Z"/><path class="cls-4" d="M365.69,494q-3.69.2-7.41.23-1.56,5.28-3.14,10.54l5.28,6.34c1.58,1.89,5.86,3.16,8,4.39,3.68,2.11,7.27,4.43,11.27,5.91a57.35,57.35,0,0,0,10.55,2.46c10.69,1.77,21.48,3.39,32.32,3.17,10-.21,20.14-2.05,29.12-6.58,9.4-4.75,18-10.57,26.53-16.69,5.15-3.67,8.47-7.38,10.59-13.49,3-8.68,4.8-17.62,7-26.51q2.73-11,5.16-22.14a181,181,0,0,0,3.25-18.05c.67-5.88.38-11.68.38-17.55,0-2.24.42-5-.13-7.11-3,.53-5.77,3.61-7.53,6-2,2.66-3.56,5.63-5.51,8.33a45,45,0,0,1-4.45,5.19,33.4,33.4,0,0,1-8.44,6.53c-4.11,2.12-8.59,2.39-13,3.27l-3.16,3.16c-6.15,6.15-11.37,13.64-16.93,20.32-9.45,11.21-18.77,22.53-28.13,33.81a11.7,11.7,0,0,1-2.19,2.2c-2.78,1.91-7,1.41-10.26,1.94-4.26.7-8.58,1.16-12.86,1.72C383.24,492.54,374.49,493.58,365.69,494Z"/><path class="cls-5" d="M300.22,566.07c2.15,1.15,3.78,3,5.78,4.4a12.72,12.72,0,0,0,7.15,1.8c4.41.07,8.8.14,13.21.16,7,0,17.85,1,22.9-5.12a1.72,1.72,0,0,0,.5-1,1.94,1.94,0,0,0-.27-.83c-2.08-4-4.57-8.54-8.67-10.8-2.75-1.52-6.09-1.57-9.21-1.09-3.77.58-7.47,2-11.32,2-2.11,0-9.5,1-11.62,2.11s-8.44,8.45-8.44,8.45"/><path class="cls-6" d="M286.48,578.66c17-4.17,32.47-9.44,45.34-21.83a119.84,119.84,0,0,0,34.06-60.73,18.41,18.41,0,0,0,.45-7.59c-.63-3-2.62-5.57-4.54-8-5.06-6.37-11.07-10.72-19.35-6.95-5.71,2.6-11.59,8.05-14.23,13.82l-22.82,50C299.1,551.13,292.87,564.93,286.48,578.66Z"/><path class="cls-7" d="M208.87,400.78l36.06-18.35L307,350.83c7.41-3.77,14.83-7.51,22.22-11.32L324.9,329c-2.5-6-8.53-9-9.12-16.13a7.8,7.8,0,0,1,0-2,7.14,7.14,0,0,1,.71-1.88c1.77-3.5,4.44-6.29,6.44-9.62,3.8-6.33,5.12-13.82,5.44-21.1.31-7.05-1.8-14.45-1.2-21.32a6.89,6.89,0,0,1,1.68-4.44c.69-.7,4.64-2.05,4.64-2.78,0-9.09-6.69-16.63-12.89-22.53a180.45,180.45,0,0,0-23.2-19.1,77,77,0,0,0-16.19-8.64c-6-2.22-12-2.4-18.22-3.08a95.49,95.49,0,0,0-40.73,4.42,17.6,17.6,0,0,0-4.36,2c-1,.7-1.86,1.59-2.84,2.34-4.16,3.19-9.31,2.36-14.16,3.32a128.18,128.18,0,0,0-25.56,7.89c-4.56,1.95-11.87,6.18-10.37,12.23a15.63,15.63,0,0,0,3.32,5.73c5.11,6.35,11.54,14.9,19.46,17.54,1.81.6,1.48,12.06,1.58,13.82.29,5.52.49,11.06,1.28,16.54,1.33,9.22,4.58,18.62,11.49,24.87.82.73,2.45,1.79,2.77,2.9.37,1.28-.74,2.58-1.32,3.76q-2.34,4.74-4.62,9.52c-3.1,6.48-6.11,13-9.08,19.56-5.93,13.09-11.65,26.28-17.41,39.46Z"/><path class="cls-8" d="M189.47,258.93q-.65-2.88-1.27-5.77a1,1,0,0,1,0-.65,1.08,1.08,0,0,1,.59-.52l18.4-9.68a2.22,2.22,0,0,1,.92-.33.78.78,0,0,1,.81.43c.19.46-.24.93-.63,1.24q-9.39,7.65-18.81,15.28"/><path class="cls-8" d="M327.42,253.52c-.27-1.35-2.64-2.52-3.5-3.27l-8.47-7.36c-6.82-5.92-13.56-11.95-20.41-17.83-.65,1.34.51,2.81,1.41,3.81,4.27,4.71,8.51,9.45,12.82,14.13,4,4.31,8,8.45,11.68,13.05a1.06,1.06,0,0,0,.51.43,1.16,1.16,0,0,0,.49,0c1.31-.2,5.29-.76,5.48-2.59A1.15,1.15,0,0,0,327.42,253.52Z"/><path class="cls-9" d="M183.53,382.82c-4.15-.53-8.38-.69-12.55-1-1.95,5.11-3.93,10.61-2.62,15.91A13.58,13.58,0,0,0,173,405a27,27,0,0,0,7.24,3.74q32,12.63,64,25.33l30.63-8.44L306.56,415l23.24-11.61,6.33-5.28-9.5,24.29L315,466.78s2.11,29.54,2.11,29.57c0-1.42,13.83-4.45,15.15-4.82,2.91-.81,6.88-2.71,9.91-2.69,5.67,0,5.33,4.69,7.18,10.27a1.71,1.71,0,0,0,2.58,1.34c12.7-3.38,23.44,3.92,35.81,6.37a111.46,111.46,0,0,0,35.61,1.39c23-2.95,44.69-15.54,48.11-40.26a150.35,150.35,0,0,0,1.41-18.49c.05-4,1.52-15.31-.71-18.62-3.48-5.18-13.94-2.15-19.34-2.6-6.48-.54-14.59-16.4-20.75-19.76-7.68-4.19-17.57-.05-25.48-4.08a26.61,26.61,0,0,1-5-3.3c-8.1-6.78-8.43-15.47-8.95-25.22-.46-8.76.54-17.53-.16-26.29-1.17-14.63-7-28.34-14.57-40.77C371.48,298.24,363,283,352.5,276.16L343,297.28,333.49,311l-14.78,19c-3.06,3.93-7.92,6.87-11.47,10.35a92.11,92.11,0,0,1-17.3,13.31c-14.89,9-31.27,19.13-48.19,23.56-18.74,4.9-38.94,5.89-58.22,5.58"/><path class="cls-7" d="M178.78,568.8c-2.6.11-4.82,1.31-7.1,2.51-.84.44-3.49,2.36-4.52,2.14-13.88-3-27.32-5.51-39.84-12.71a59.29,59.29,0,0,1-11.79-8.64,18.36,18.36,0,0,1-5.48-15c.71-6.09,9.31-10.57,14.88-10.08a19.48,19.48,0,0,1,9.43,3.77c3.15,2.23,5.61,5.14,8.46,7.68.83.73,3.74,3.83,4.8,3.83h1.06c.6,0-3.93-20.51-4.48-22.22-2.64-8.27-5.81-16.68-5.45-25.51.4-9.84,7.4-18.82,12-27.25.11-.2-9.19-9.48-9.95-10.5a164.23,164.23,0,0,1-10-15.87,4,4,0,0,1-.53-3.71c1.49-6.56,4.42-17.44,11-20.75a12.55,12.55,0,0,1,7.82-.87,36,36,0,0,1,11.2,4.18l7.39,4.22V398.67c0,1,5.61,3.59,6.42,4q4.5,2.35,9.18,4.37a139.6,139.6,0,0,0,19.78,6.82c17.33,4.55,34.53,4.85,52.28,3.8,24.82-3.3,48.18-11.13,71.82-19l10.56-4.22c-.84.33-.08,14.95-.11,16.73-.11,6.14-.34,12.28-.79,18.41a225.69,225.69,0,0,1-4.58,29.68c-1.95,9.31-6.39,18.45-10.35,27.07,1.23-2.46,4.49-3.82,6.59-5.41,3.6-2.73,7-5.46,11.27-7.06a19.18,19.18,0,0,1,12.37-.63,15.36,15.36,0,0,1,7.88,5.84c7,10.16,2.88,23.3-1.85,33.47-2.47,5.3-5.43,10.32-8.32,15.39-2.28,4-3.68,9.94-6.83,13.31-9.05,9.65-17.73,19.11-28.85,26.48a13.84,13.84,0,0,1-4,2,27.81,27.81,0,0,1-4.08.43c-4.7.49-7.47,4.54-11.7,6.07-6.05,2.18-13.45,2.66-19.81,3.47-21.93,2.79-47,3.07-68.24-3.31l-22.15-6.64a18.24,18.24,0,0,0-4.77-1Z"/><path class="cls-10" d="M131.75,431.94a2.73,2.73,0,0,0-.39.91,119,119,0,0,0,4.48,62.52,84.8,84.8,0,0,0,3.53,8.68c.81,1.66,3,.62,4.41.61,1.83,0,4.53.69,5.41,2.47.57,1.15.47,2.74.88,4a14.28,14.28,0,0,0,2.27,4.25,3.37,3.37,0,0,0,.72.74c1.75,1.18,4.72.2,6.6-.13a15,15,0,0,0,11.8-10.84c2-6.92-1.45-16-6.08-21.22-1.15-1.3-2.48-2.42-3.68-3.67-6.13-6.44-6.55-14.59-9-22.61-.72-2.34-1.66-4.85-3.49-6.57-2.14-2-5.22-3.5-7.68-5.15a6.39,6.39,0,0,1-2.22-2.1,6.12,6.12,0,0,1-.53-2c-.42-2.77-.88-5.53-1.17-8.31a8.42,8.42,0,0,0-.57-2.64,2.6,2.6,0,0,0-2.05-1.57A12.63,12.63,0,0,0,131.75,431.94Z"/><path class="cls-5" d="M222.53,576.7c.94-4.83,6.33-8.23,10.78-9.49,4.88-1.38,8.51.38,13.17,1.66,2.88.79,6.05,1,8.66,2.59a6.4,6.4,0,0,1,3.17,5.18c.14,1.85-.22,5.07-1.79,6.29a4.9,4.9,0,0,1-1.5.7,45.81,45.81,0,0,1-18.23,2.11c-4.17-.36-13.39-.93-14.28-6.22A7.84,7.84,0,0,1,222.53,576.7Z"/><path class="cls-11" d="M280.36,102.77a8.62,8.62,0,0,0-15.78,2.62c-1.37,6.17,3.55,12.79,7.85,16.68a49.28,49.28,0,0,0,9.75,6.81Z"/><path class="cls-11" d="M280.44,102.77a8.62,8.62,0,0,1,16,.45c2.19,5.93-1.78,13.16-5.51,17.59a49.53,49.53,0,0,1-8.74,8.07Z"/><rect class="cls-11" x="280.26" y="102.72" width="2.02" height="24.93" transform="translate(-7.18 19.37) rotate(-3.9)"/><path class="cls-11" d="M362.09,79.4a8.62,8.62,0,0,0-16-1c-2.72,5.7.59,13.26,3.91,18a49.46,49.46,0,0,0,8,8.82Z"/><path class="cls-11" d="M362.16,79.41a8.63,8.63,0,0,1,15.49,4c.81,6.26-4.69,12.41-9.32,15.9a49.13,49.13,0,0,1-10.33,5.9Z"/><rect class="cls-11" x="359.18" y="79.23" width="2.02" height="24.93" transform="translate(18.94 -55.59) rotate(9.06)"/><path class="cls-11" d="M315.41,32.41a8.62,8.62,0,0,0-15.63,3.39C298.71,42,304,48.4,308.43,52.07a49.25,49.25,0,0,0,10.08,6.33Z"/><path class="cls-11" d="M315.48,32.41a8.63,8.63,0,0,1,16-.34c2.48,5.81-1.13,13.23-4.64,17.84a50,50,0,0,1-8.33,8.49Z"/><rect class="cls-11" x="315.92" y="32.3" width="2.02" height="24.93" transform="translate(-3.06 37.32) rotate(-6.71)"/><path class="cls-5" d="M337.38,394c0,.55-8.13,3.1-9,3.44q-4.68,1.77-9.39,3.49c-6.26,2.27-12.55,4.45-18.9,6.46-12.45,3.93-25.33,7.49-38.27,9.36a158.39,158.39,0,0,1-40.87.37,133.32,133.32,0,0,1-36-9.45,129.47,129.47,0,0,1-16.62-8.41c2.14,1.29,4.06,4.21,6,5.9a73.83,73.83,0,0,0,22.42,13.45A132.3,132.3,0,0,0,234.47,427c1.87.13,3.74.22,5.61.28,27.33.81,54.7-6.12,81-12.65,2.4-.6,4.83-1.1,7.25-1.63l9-2Z"/><path class="cls-4" d="M337.35,411c8.78-4.92,16.36-11.79,20.94-20.84,3-6,5.28-12.38,8.08-18.5,2.49-5.47,6.2-12.09,4.92-18.32-3.23,3.49-5.44,8.89-8,12.93a197.07,197.07,0,0,1-11.87,16.94,42.52,42.52,0,0,1-6.17,6.34c-2.4,2-5.5,2.72-7.83,4.49"/><path class="cls-8" d="M167.39,424c1.27,5.35,2.69,10.66,4,16-.64-2.7-.5-5.59-1.18-8.32A77.68,77.68,0,0,0,167.39,424Z"/><path class="cls-10" d="M328.76,470.66c1.09-3.32-10.23-7.07-12-8.84a7.94,7.94,0,0,1-2-5.21c-.21-3.4-.21-7.21,1-10.46,1.4-3.86,3.74-7.61,5.56-11.3a8.6,8.6,0,0,0,.92-2.54c.54-4.23-4.36-6.72-1.1-11.22,1.73-2.38,8.44-8,11.39-5,1.73,1.77,4.15,3.77,4.64,6.32a9.51,9.51,0,0,1,.05,2.5A187.44,187.44,0,0,1,328.76,470.66Z"/></g></svg>