<svg xmlns="http://www.w3.org/2000/svg" viewBox="0 0 650 650"><defs><style>.cls-1{fill:#dcecd5;opacity:0.49;}.cls-2{fill:#2c2c35;}.cls-3{fill:#090922;}.cls-4{fill:#aacb9a;}.cls-5{fill:#bca180;}.cls-6{fill:#e2b87d;}.cls-7{fill:tan;}.cls-8{fill:#b99976;}.cls-9{fill:#b6d7a8;}.cls-10{fill:#987554;}.cls-11{fill:#88180e;}</style></defs><title>iconos</title><g id="transitar"><circle class="cls-1" cx="325.23" cy="325.23" r="324.75"/><path class="cls-2" d="M331.91,555.33c13.33,6.13,26,11.64,40.66,13.92,22,3.43,46.1.79,67.14-6.26,15.83-5.31,27.23-16,35.54-30.24,7-12,9.71-24.5,10.24-38.17l-53.07.15L330,504.24l1.93,51.09"/><path class="cls-3" d="M332.15,553.59c11.71,1.12,23.1,1.92,34.9,1.34a277.52,277.52,0,0,0,40.72-5.19,215.93,215.93,0,0,0,37.16-10.62c11.83-4.69,23-11.58,33.62-18.49a9.76,9.76,0,0,0,1.94-1.5,9.25,9.25,0,0,0,1.63-2.78c2.78-6.55,3.05-13.05,3.64-20v-8.45L388.59,490,339,491l-6.81,62.55"/><polygon class="cls-3" points="486.81 423.45 489.98 412.88 486.81 409.72 477.31 412.88 475.19 418.17 477.7 424.63 484.7 425.56 486.81 423.45"/><path class="cls-3" d="M351.63,275.59c-.66-3.87-5.4-9.33-7.35-12.81-2.93-5.23-5.83-10.47-8.47-15.85-5.26-10.77-9.5-22.24-10.14-34.31-.8-15.34,4.39-30.72,13.34-43.21a89.23,89.23,0,0,1,25.9-23.7c5.91-3.64,14.85-7.94,22.1-7.94,11.65,0,22.4.17,33.59,4,13.87,4.75,23.56,15.06,28.57,28.53,3.93,10.58,10.82,18.26,19.16,25.55,12.61,11,16.12,29.89,15.72,45.75-.23,9.15,2.45,13.55,7.51,20.79,4.37,6.24,9.94,8.07,11.69,16.34,2.23,10.52-.63,20.79,7.12,29.54,3,3.36,6.58,6.13,9.82,9.25,15.83,15.22,26,42.39,14.56,63-6,10.8-18.66,15.9-30.57,16.05C500,405.12,492.7,411,486,417.4l-18.8,18.11c-1.87,1.79-22.47,24.15-24.22,23.32l-39.07-18-31.68-42.24S351.87,277,351.63,275.59Z"/><path class="cls-4" d="M364.29,494q-3.69.18-7.41.23-1.56,5.26-3.14,10.54L359,511.1c1.58,1.89,5.86,3.16,8,4.39,3.68,2.12,7.27,4.43,11.27,5.91a56.55,56.55,0,0,0,10.55,2.46c10.7,1.78,21.48,3.39,32.33,3.17,10-.21,20.13-2,29.11-6.58,9.4-4.75,18-10.57,26.53-16.68,5.15-3.68,8.47-7.39,10.59-13.49,3-8.69,4.8-17.62,7-26.52q2.73-11,5.16-22.13a181.72,181.72,0,0,0,3.25-18.06c.67-5.88.38-11.68.38-17.55,0-2.23.42-5-.13-7.1-3,.52-5.76,3.61-7.53,6-2,2.66-3.56,5.63-5.51,8.33a45.91,45.91,0,0,1-4.45,5.2,33.86,33.86,0,0,1-8.44,6.53c-4.1,2.11-8.59,2.38-13,3.26l-3.17,3.17c-6.15,6.14-11.37,13.64-16.93,20.31-9.45,11.21-18.77,22.53-28.13,33.82a11.65,11.65,0,0,1-2.19,2.19c-2.78,1.91-7.05,1.41-10.26,1.94-4.26.7-8.58,1.17-12.86,1.73C381.84,492.5,373.09,493.54,364.29,494Z"/><path class="cls-5" d="M298.82,566c2.15,1.14,3.79,3,5.78,4.39a12.64,12.64,0,0,0,7.15,1.8c4.41.07,8.8.14,13.21.17,7,0,17.85,1,22.9-5.13a1.68,1.68,0,0,0,.5-1,1.89,1.89,0,0,0-.27-.82c-2.07-4-4.57-8.55-8.66-10.8-2.76-1.52-6.1-1.57-9.21-1.1-3.78.58-7.48,2-11.33,2-2.11,0-9.5,1-11.61,2.11s-8.45,8.45-8.45,8.45"/><path class="cls-6" d="M285.08,578.62c17-4.17,32.47-9.44,45.34-21.83a119.77,119.77,0,0,0,34.06-60.73,18.4,18.4,0,0,0,.45-7.59c-.63-3-2.61-5.57-4.54-8-5.06-6.38-11.07-10.72-19.35-7-5.71,2.59-11.59,8-14.23,13.81l-22.82,50C297.7,551.09,291.47,564.9,285.08,578.62Z"/><path class="cls-7" d="M207.47,400.74l36.06-18.35,62.11-31.59c7.41-3.77,14.84-7.51,22.23-11.32L323.5,329c-2.5-6-8.52-9-9.12-16.13a7.72,7.72,0,0,1,0-2,7.07,7.07,0,0,1,.71-1.89c1.77-3.49,4.45-6.29,6.44-9.62,3.8-6.33,5.12-13.82,5.44-21.1.31-7.05-1.8-14.45-1.2-21.32a6.84,6.84,0,0,1,1.68-4.43c.69-.71,4.64-2.05,4.64-2.78,0-9.1-6.68-16.63-12.89-22.53A179.7,179.7,0,0,0,296,208.08a78,78,0,0,0-16.19-8.64c-6-2.22-12-2.39-18.22-3.07a95.37,95.37,0,0,0-40.73,4.41,17.43,17.43,0,0,0-4.36,2c-1,.7-1.86,1.58-2.83,2.33-4.17,3.19-9.32,2.36-14.17,3.32a127.55,127.55,0,0,0-25.56,7.9c-4.55,1.95-11.86,6.17-10.37,12.22a15.55,15.55,0,0,0,3.32,5.73c5.11,6.35,11.54,14.9,19.46,17.54,1.81.6,1.48,12.06,1.58,13.82.29,5.52.49,11.06,1.28,16.54,1.33,9.22,4.58,18.62,11.49,24.87.82.74,2.45,1.79,2.77,2.9.37,1.29-.74,2.59-1.32,3.76q-2.34,4.74-4.62,9.52c-3.1,6.49-6.11,13-9.08,19.56-5.93,13.1-11.65,26.29-17.41,39.46Z"/><path class="cls-8" d="M188.08,258.9c-.43-1.93-.86-3.85-1.28-5.78a1.11,1.11,0,0,1,0-.65,1.08,1.08,0,0,1,.59-.52l18.4-9.68a2.37,2.37,0,0,1,.92-.33.81.81,0,0,1,.81.43c.19.46-.24.93-.63,1.25q-9.39,7.63-18.8,15.28"/><path class="cls-8" d="M326,253.48c-.27-1.35-2.64-2.52-3.5-3.26l-8.47-7.37c-6.82-5.92-13.56-11.94-20.41-17.83-.65,1.35.51,2.82,1.41,3.82,4.27,4.71,8.51,9.45,12.82,14.12,4,4.31,8,8.45,11.68,13a1.06,1.06,0,0,0,.51.43,1,1,0,0,0,.49,0c1.31-.2,5.29-.76,5.49-2.58A1.59,1.59,0,0,0,326,253.48Z"/><path class="cls-9" d="M182.13,382.79c-4.15-.54-8.37-.69-12.54-1-2,5.1-3.94,10.6-2.63,15.9a13.65,13.65,0,0,0,4.62,7.26,27.24,27.24,0,0,0,7.25,3.74q32,12.61,64,25.33l30.63-8.45L305.16,415l23.24-11.62,6.33-5.28-9.5,24.29-11.62,44.36s2.11,29.53,2.11,29.56c0-1.42,13.83-4.45,15.15-4.81,2.91-.81,6.88-2.71,9.91-2.69,5.67,0,5.33,4.68,7.18,10.27a2.33,2.33,0,0,0,.83,1.33,2.26,2.26,0,0,0,1.75,0c12.7-3.38,23.44,3.92,35.81,6.37a111.18,111.18,0,0,0,35.61,1.4c23-3,44.69-15.55,48.11-40.26a150.66,150.66,0,0,0,1.41-18.5c0-4,1.52-15.3-.71-18.62-3.48-5.18-13.94-2.15-19.34-2.6-6.48-.54-14.59-16.39-20.75-19.76-7.68-4.19-17.57-.05-25.48-4.08a26.61,26.61,0,0,1-5-3.3c-8.1-6.78-8.43-15.47-8.94-25.21-.47-8.76.53-17.54-.17-26.29-1.17-14.64-7-28.34-14.56-40.78-6.42-10.58-14.87-25.84-25.4-32.66l-9.5,21.12L332.09,311l-14.78,19c-3.06,3.94-7.92,6.88-11.47,10.36a92.48,92.48,0,0,1-17.3,13.3c-14.89,9-31.27,19.14-48.19,23.56-18.74,4.9-38.94,5.89-58.22,5.59"/><path class="cls-7" d="M177.38,568.76c-2.6.11-4.82,1.31-7.1,2.51-.84.44-3.49,2.37-4.52,2.14-13.88-3-27.32-5.51-39.84-12.71a59.18,59.18,0,0,1-11.79-8.64,18.34,18.34,0,0,1-5.48-15c.71-6.1,9.31-10.57,14.88-10.09a19.4,19.4,0,0,1,9.43,3.78c3.15,2.23,5.61,5.14,8.47,7.67.82.73,3.73,3.84,4.79,3.84h1.06c.6,0-3.93-20.52-4.47-22.23-2.65-8.27-5.82-16.68-5.46-25.51.4-9.84,7.4-18.81,12-27.25.11-.19-9.19-9.48-9.95-10.49a163.16,163.16,0,0,1-10-15.88,5.36,5.36,0,0,1-.71-1.65,5.28,5.28,0,0,1,.18-2.05c1.49-6.56,4.42-17.44,11-20.76a12.62,12.62,0,0,1,7.82-.87,36,36,0,0,1,11.2,4.18l7.4,4.22V398.63c0,1,5.6,3.6,6.41,4,3,1.57,6.07,3,9.18,4.36a138.35,138.35,0,0,0,19.78,6.82c17.33,4.55,34.53,4.85,52.28,3.81,24.82-3.31,48.19-11.14,71.82-19l10.56-4.23c-.84.34-.08,15-.11,16.73-.11,6.14-.33,12.28-.79,18.41a225.69,225.69,0,0,1-4.58,29.68c-1.95,9.31-6.39,18.45-10.35,27.07,1.23-2.45,4.49-3.82,6.59-5.41,3.61-2.73,7-5.46,11.27-7.06a19.21,19.21,0,0,1,12.38-.62A15.3,15.3,0,0,1,358.6,479c7,10.16,2.88,23.3-1.85,33.47-2.47,5.3-5.43,10.32-8.32,15.39-2.28,4-3.68,10-6.83,13.31-9.05,9.65-17.73,19.12-28.85,26.48a13.36,13.36,0,0,1-4,2,27.81,27.81,0,0,1-4.08.43c-4.7.5-7.47,4.55-11.7,6.07-6.05,2.19-13.45,2.66-19.81,3.47-21.93,2.79-46.94,3.07-68.24-3.31l-22.15-6.64a18.23,18.23,0,0,0-4.76-1Z"/><path class="cls-10" d="M130.35,431.9a2.59,2.59,0,0,0-.38.91,119,119,0,0,0,4.47,62.53A83.72,83.72,0,0,0,138,504c.81,1.66,3.05.62,4.41.61,1.83,0,4.53.7,5.41,2.48.57,1.14.47,2.73.88,4a14.4,14.4,0,0,0,2.27,4.25,3.33,3.33,0,0,0,.72.73c1.75,1.19,4.72.2,6.6-.13a15,15,0,0,0,11.8-10.84c2-6.92-1.45-16-6.08-21.22-1.15-1.29-2.48-2.41-3.68-3.67-6.13-6.43-6.55-14.58-9-22.6-.72-2.35-1.66-4.86-3.48-6.57-2.15-2-5.23-3.5-7.69-5.16a6.3,6.3,0,0,1-2.22-2.1,6.13,6.13,0,0,1-.53-2c-.42-2.77-.88-5.53-1.17-8.32a8,8,0,0,0-.57-2.63,2.62,2.62,0,0,0-2.05-1.58A12.8,12.8,0,0,0,130.35,431.9Z"/><path class="cls-5" d="M221.14,576.66c.93-4.83,6.32-8.22,10.77-9.49,4.88-1.38,8.52.39,13.17,1.66,2.88.79,6,1,8.66,2.59a6.44,6.44,0,0,1,3.18,5.18c.13,1.85-.23,5.08-1.8,6.3a5.12,5.12,0,0,1-1.5.69,45.81,45.81,0,0,1-18.23,2.12c-4.17-.37-13.39-.94-14.28-6.23A7.62,7.62,0,0,1,221.14,576.66Z"/><path class="cls-11" d="M279,102.74a8.63,8.63,0,0,0-15.79,2.61c-1.37,6.17,3.55,12.79,7.85,16.68a48.87,48.87,0,0,0,9.75,6.81Z"/><path class="cls-11" d="M279,102.73a8.62,8.62,0,0,1,16,.46c2.19,5.92-1.78,13.15-5.51,17.58a49.53,49.53,0,0,1-8.74,8.07Z"/><rect class="cls-11" x="278.86" y="102.68" width="2.02" height="24.93" transform="translate(-7.18 19.28) rotate(-3.9)"/><path class="cls-11" d="M360.69,79.36a8.62,8.62,0,0,0-16-1c-2.72,5.7.59,13.26,3.91,18a49.54,49.54,0,0,0,8,8.83Z"/><path class="cls-11" d="M360.76,79.37a8.63,8.63,0,0,1,15.49,4c.81,6.26-4.69,12.42-9.32,15.9a49.8,49.8,0,0,1-10.32,5.91Z"/><rect class="cls-11" x="357.78" y="79.19" width="2.02" height="24.93" transform="translate(18.92 -55.37) rotate(9.06)"/><path class="cls-11" d="M314,32.38a8.62,8.62,0,0,0-15.64,3.39C297.31,42,302.55,48.37,307,52a49.47,49.47,0,0,0,10.08,6.32Z"/><path class="cls-11" d="M314.09,32.37a8.62,8.62,0,0,1,16-.33c2.49,5.81-1.13,13.22-4.64,17.83a49.58,49.58,0,0,1-8.33,8.49Z"/><rect class="cls-11" x="314.52" y="32.26" width="2.02" height="24.93" transform="translate(-3.06 37.15) rotate(-6.71)"/><path class="cls-5" d="M336,394c0,.55-8.13,3.11-9,3.44q-4.69,1.77-9.4,3.49c-6.26,2.27-12.55,4.45-18.9,6.46-12.45,3.93-25.33,7.49-38.27,9.36a158,158,0,0,1-40.87.37,133.32,133.32,0,0,1-36-9.45,129.47,129.47,0,0,1-16.62-8.41c2.14,1.29,4.06,4.21,6,5.9a70.67,70.67,0,0,0,6.92,5.37,73.17,73.17,0,0,0,15.49,8.08A132.3,132.3,0,0,0,233.07,427c1.87.13,3.74.22,5.62.28,27.33.82,54.69-6.12,81-12.65,2.4-.59,4.83-1.09,7.25-1.63l9-2Z"/><path class="cls-4" d="M336,410.94c8.78-4.92,16.36-11.79,20.94-20.83,3.05-6,5.28-12.38,8.08-18.51,2.49-5.47,6.2-12.08,4.92-18.31-3.23,3.48-5.43,8.88-8,12.92A195.52,195.52,0,0,1,350,383.15a42.45,42.45,0,0,1-6.16,6.34c-2.41,2-5.51,2.72-7.84,4.49"/><path class="cls-8" d="M166,424c1.27,5.35,2.69,10.66,4,16-.64-2.7-.5-5.58-1.18-8.31A74.54,74.54,0,0,0,166,424Z"/><path class="cls-10" d="M327.37,470.62c1.08-3.32-10.24-7.06-12-8.84a7.85,7.85,0,0,1-2-5.2c-.21-3.41-.22-7.22.95-10.47,1.4-3.86,3.74-7.61,5.56-11.3a8.33,8.33,0,0,0,.92-2.54c.54-4.22-4.36-6.72-1.1-11.22,1.73-2.38,8.44-8,11.39-5,1.73,1.78,4.15,3.77,4.64,6.32a9.51,9.51,0,0,1,0,2.5A187.42,187.42,0,0,1,327.37,470.62Z"/></g></svg>