<svg xmlns="http://www.w3.org/2000/svg" viewBox="0 0 500 500"><defs><style>.cls-1{fill:#466e35;}.cls-2{fill:#fefefe;}.cls-3{fill:#fdfdfd;}.cls-4{fill:#fcfcfc;}.cls-5{fill:#fbfbfb;}.cls-6{fill:#fafafa;}</style></defs><title>iconos</title><g id="facebook"><path class="cls-1" d="M412.55,363.81c-10,1.33-20,2.64-30,4-14.52,2-29.11,3.24-43.72,4.26-33.41,2.33-66.87,3.39-100.37,3-15.17-.19-30.34-.76-45.51-1.16-1.05.92-2.09.61-3.14,0-11-.78-22-1.51-33-2.36-21.19-1.64-42.3-3.93-63.29-7.31-19-3.07-37.91-6.72-56.2-12.95-8-2.7-15.78-5.73-22.58-10.86C7,334.57,6.55,330.79,10.45,322c5.31-12,9.93-24.37,14.82-36.59q17.5-43.76,35-87.54c2.14-5.39,4.34-10.76,6.19-16.25,6.76-20.08,29.67-29.47,48.3-19.45,3.39,1.81,3.82.95,4.73-2.19a34.15,34.15,0,0,1,49.62-20.28l2.37,1.34c6.45-29.48,41.13-38.35,60.82-16.06,5.63-6.4,12.5-10.79,21-12,14.12-2,25.4,3,33.81,14.4,1.28,1.74,1.69,1.87,3.36.56,21.05-16.34,49-6.26,55.38,19.93,1.51-.11,2-1.51,2.86-2.37a34.11,34.11,0,0,1,55.47,10c1,2.1,2.18,2.68,4.24,3.06,14.74,2.72,24.14,11.29,28.48,25.74,1.74,5.76,4.49,11.21,6.77,16.8a7.48,7.48,0,0,1,2.28,5.57Q456,231.87,466,257.19c7.24,18.2,14.4,36.44,21.81,54.57,1.84,4.51,3.4,9.13,5.9,13.4,2.61,4.45,1,9.36-4,13.63-7.84,6.68-17.32,10.11-26.9,13.24a288.42,288.42,0,0,1-42.92,10.23,22.22,22.22,0,0,0-2.62.74C415.7,363.19,414.32,364.65,412.55,363.81Z"/><path class="cls-2" d="M281.12,326.76c0,5.15-.72,10.12-3.38,14.59-5.35,9-14.56,11.15-24.12,5.77-1.36-.77-2.24-1.53-4.07-.5-13.1,7.37-25.28,1.81-27.57-13.19-2.38-15.57,2.43-29,15.26-38.72,10-7.56,21.23-6.63,30.72,2C276.77,304.77,280.74,315,281.12,326.76Z"/><path class="cls-2" d="M235.5,222c-6.61,0-13.21-.06-19.82,0a3.13,3.13,0,0,1-3.3-2c-4.87-10-4.13-19.57,2.37-28.49a25.88,25.88,0,0,1,28.3-9.63c10.6,3.1,17.07,10.24,19.23,21.14,1.2,6.07,0,11.77-2.74,17.23a4,4,0,0,1-4.2,2.58c-6.61-.17-13.23-.06-19.84-.06Z"/><path class="cls-2" d="M392.22,199.12c0,7.08-.17,7.21-6.07,8.8-9.75,2.64-19.6,4.72-29.53,6.53-2.31.43-2.51-.22-2.7-2.06A33.6,33.6,0,0,0,342.82,190c-1.4-1.26-1.15-2.19-.35-3.64,5.18-9.38,16.82-14.62,28.29-12.63,9.87,1.72,19,10.8,20.79,20.66C391.9,196.3,392.1,198.23,392.22,199.12Z"/><path class="cls-2" d="M123.6,188.29c-.57.47-1.19.94-1.78,1.45a33.27,33.27,0,0,0-9.73,14.7c-.42,1.22-.49,2.22-2.24,1.65-11.82-3.81-23.43-8-33.54-15.59-3.13-2.36-3.57-4.58-2.1-8.15,6.68-16.27,27.32-21.88,41.12-11a8.58,8.58,0,0,1,3.6,5.71,28.29,28.29,0,0,0,3.51,9.37C122.74,187,123.1,187.48,123.6,188.29Z"/><path class="cls-2" d="M301.7,221.06c-8.5.36-8.5.36-8.57-5.63a26.84,26.84,0,0,1,24.76-27c13.62-1,26.46,9.3,28.41,22.75.48,3.26.41,5.39-4.16,5.6-7.2.33-14.34,1.86-21.53,2.63S306.44,220.67,301.7,221.06Z"/><path class="cls-2" d="M302.37,185.63c-5.68-14,3.85-31.3,18.8-34.5,12.56-2.69,24.56,3,30.22,14.26.91,1.82,1.41,2.8-1.13,4a33.12,33.12,0,0,0-14.1,13c-.48.77-.59,2.38-2.46,1.59C323,179.38,312.52,180.1,302.37,185.63Z"/><path class="cls-2" d="M293.2,179c-11.56-6.76-23-7.54-34.74-1.83-2.07,1-2.21.15-2.68-1.48-4.94-17,10.49-34.72,28.51-32.77a26.66,26.66,0,0,1,16.95,8.4c1,1.05,1.68,1.72.41,3.42C294.75,163.89,293.55,167.61,293.2,179Z"/><path class="cls-2" d="M172.08,152c-12.56,5.07-20.59,13.6-23.06,26.83-.28,1.53-.67,2.35-2.7,2.15a28.25,28.25,0,0,0-13.65,2.16c-2.21.92-3.14.54-4.18-1.48a27,27,0,0,1,8.3-33.85A26.5,26.5,0,0,1,172.08,152Z"/><path class="cls-2" d="M204.52,221.29c-13.17-.9-25.79-2-38.37-3.74-2.07-.28-2.45-1.15-2.43-3,.13-19.4,21.78-32.23,38.88-23,1.27.69,2.63,1.13,1.77,3.13C200.66,203.33,201,212,204.52,221.29Z"/><path class="cls-2" d="M178.89,145.71c.27-11.15,8.31-21.3,19.2-24.64,10.06-3.09,22.45.91,28.47,9.21,1.79,2.46.88,4.82-2,5.19a33.82,33.82,0,0,0-25.23,16.1c-1,1.62-1.7,2.38-3.89,1.38a26.76,26.76,0,0,0-11.67-2.47C179.93,150.57,178.6,148.81,178.89,145.71Z"/><path class="cls-2" d="M286.11,221.89l-19.25.9c3.94-9.44,4.57-18.59.94-27.85a30.46,30.46,0,0,0-5.31-8.93c-1-1.21-1.4-1.78.41-2.72,9.53-4.9,24-2,30.92,6.24,1.43,1.69.82,2.46-.29,3.82C286.73,201.6,284.41,211.07,286.11,221.89Z"/><path class="cls-2" d="M245.75,149.56c5,4.14,5,4.14,3.14,10.14a35.57,35.57,0,0,0-1,15.61,38.29,38.29,0,0,0-16.24-1.67,34,34,0,0,0-15,5.67,38.53,38.53,0,0,0-7.44-16.46c-.74-1.17-.1-2,.78-2.63q8.47-6.06,17.44-11.42a4.43,4.43,0,0,1,2.62-.54c3.91.44,7.82-.92,11.74.12A16.57,16.57,0,0,1,245.75,149.56Z"/><path class="cls-3" d="M282.45,134.29c0,1.36-.95,1-1.63,1.05-9.73.14-17.76,4-24.32,11.06-1.11,1.19-1.65,1.34-2.83,0a32.74,32.74,0,0,0-17-10.12c-1.45-.33-2.1-.72-1.18-2.3,5-8.74,12.59-13.65,22.65-13.93,10.39-.29,18.34,4.4,23.79,13.27C282.09,133.68,282.28,134,282.45,134.29Z"/><path class="cls-2" d="M166.44,188.41c-3.12-1.5-5.72-3.92-9.06-5.07-1.94-.68-1.19-2.47-.89-3.67,2.43-9.83,8.09-17,17.91-20.16s18.57-1.18,26.25,5.66c-.34,2.46-2.68,3-4.25,4-9.45,6.09-18.61,12.61-28.19,18.49A3.8,3.8,0,0,1,166.44,188.41Z"/><path class="cls-2" d="M222.47,270.9c.32-4.93,1.4-9.38,4.62-13.06,4.38-5,10.63-5.19,15.23-.42,6.5,6.75,6.52,19.88,0,26.63-4.71,4.9-11.44,4.48-15.78-1.05C223.75,279.41,222.78,275.17,222.47,270.9Z"/><path class="cls-2" d="M255.26,271.34a21.09,21.09,0,0,1,2.73-11c4.85-8.43,14.31-8.54,19.12-.08,4,7.06,3.88,14.38-.19,21.36-4.49,7.69-13.3,7.81-18.36.46A20.17,20.17,0,0,1,255.26,271.34Z"/><path class="cls-2" d="M222.58,297.49A17.53,17.53,0,0,1,218.93,309c-4.4,5.91-11.27,6.26-16.24.84-5.87-6.39-6.06-18.71-.37-25.4,5.05-6,12.56-5.57,17,.89C221.63,288.72,222.6,292.19,222.58,297.49Z"/><path class="cls-2" d="M304.35,297.41a18.13,18.13,0,0,1-4.5,12.4c-4.22,4.93-10.29,5.17-14.94.67-6.75-6.52-6.72-20.76,0-27.19,4.5-4.28,10.5-4.07,14.69.55C303,287.56,304.38,292,304.35,297.41Z"/><path class="cls-3" d="M425.14,190.81c-6.91,6.1-15.43,9.13-23.83,12.38-2,.76-1.73-.64-1.68-1.84.42-11.86-4.39-21.3-13.46-28.82a10.8,10.8,0,0,1,5.28-3.66,3.46,3.46,0,0,1,2.92.65c10,6.69,20.12,13.11,29.94,20A2.21,2.21,0,0,1,425.14,190.81Z"/><path class="cls-3" d="M292.06,136.67c7.92-7.82,16.7-10.81,27-8.08,8.16,2.16,14,7.25,17.68,15.48-9.58-2.2-18.25-1.27-26.36,3.36-1.28.73-2,.63-2.92-.49C303.44,142.16,298.22,139.12,292.06,136.67Z"/><path class="cls-3" d="M129.69,211.17c-3-.71-6-1.47-9-2.1-1.79-.38-1.72-1.08-1.17-2.67,5.47-15.94,24.36-22.69,39.07-13.89.35,1.63-.86,2.31-1.92,3-7.55,4.89-15,9.9-22.63,14.74C132.67,211.11,131.33,211.81,129.69,211.17Z"/><path class="cls-3" d="M361.22,145.67c14.22-6.45,29.52-1.09,35.95,12.87a64.19,64.19,0,0,0-11.67,4.38c-4.13-.36-6.5-3.82-9.79-5.66-3.79-2.12-7.38-4.62-11-7C363,149.19,361,148.2,361.22,145.67Z"/><path class="cls-4" d="M393.93,167.48c14.77-5.19,30.32,2.2,35,16.58.73,2.21.68,4-1.48,5.23a4,4,0,0,1-4.35-.57c-9-6.26-18.3-12-27.3-18.24C394.76,169.74,393.55,169.11,393.93,167.48Z"/><path class="cls-5" d="M383.75,164.27c-2.81,3.5-6,4.38-10.35,2.49-3.46-1.53-7.37-1.19-11.1-.86-1.82.16-2.81-.38-3.43-2.09a22.3,22.3,0,0,0-4.95-8.24c-2.09-2.1-1.48-3.33.35-4.94a18.59,18.59,0,0,1,4.6-3.43,2.19,2.19,0,0,1,2.19.4c6.84,5.12,14.43,9.11,21.24,14.26C383.13,162.48,384.13,163,383.75,164.27Z"/><path class="cls-4" d="M202.18,166.71c5.19,5.4,7.32,11.87,7.13,19.87-9.55-5.91-19.29-6.9-29.49-4.21-1.1-1.53-1.19-1.67.82-2.88,5.06-3.05,9.72-6.7,14.86-9.61C197.64,168.66,199.15,166.07,202.18,166.71Z"/><path class="cls-4" d="M160.22,193.84c1.35.67,2.39,1.19,1.17,3.11-3.23,5.06-5.27,10.59-5.11,16.71.05,2-.69,2.42-2.51,2.09-6.71-1.19-13.5-2-20.07-3.89-.36-1.17.52-1.69,1.25-2.13,8.05-5,15.61-10.69,23.8-15.43A3.47,3.47,0,0,1,160.22,193.84Z"/><path class="cls-6" d="M245.75,149.56c-4.26.32-8.5-1.19-12.8-.11-1.12.28-2.59.47-3.46-.9-.16-.92.43-1.41,1.06-1.9-6.67,4.23-13.28,8.54-19.81,13-1.15.78-2.3,1.77-3.85.82-2-1.25-2.74-2.52-1.25-5C214.21,141.58,233.61,138.64,245.75,149.56Z"/></g></svg>