<svg xmlns="http://www.w3.org/2000/svg" viewBox="0 0 500 500"><defs><style>.cls-1{fill:#466e35;}</style></defs><title>iconos</title><g id="facebook"><path class="cls-1" d="M181.35,173.8l-5.77,1.45c-8.24,3.1-16.55,2.75-24.9.45a3.66,3.66,0,0,1-1.12-.95c-15.05-5.27-26.16-14.85-31.69-30-12.19-33.39,11.78-67,47.35-66.65,2.43,0,5.56,1,7.09-.11,1.76-1.33,0-4.5-.05-6.86-.22-6.47,1.07-12.68,2.66-18.87a5.53,5.53,0,0,1,2.47-5.53l8.37-11.52a.6.6,0,0,1,.62-.63l7.24-6c2.15-3.07,5.53-4.18,8.76-5.55,2.35-1,5-1.13,7.24-2.39a8.16,8.16,0,0,1,1.2-.32A52.08,52.08,0,0,1,239.7,22.5a47.67,47.67,0,0,1,25.43,21.86c1.43,4,4.7,7.33,4.12,12a54.94,54.94,0,0,1-4,37.38v0c-4.28,6.83-9.34,12.94-16.17,17.58a39.24,39.24,0,0,0,6.4,6.36l0,0c12.36,12.57,24.68,25.18,37.08,37.7q47.16,47.61,94.33,95.2c2.32,2.35,3.38,2.7,5.6-.17,7-9,16.51-14.25,27.21-17.61a5.67,5.67,0,0,1,6.37-1l12.24.13a6.84,6.84,0,0,1,7.18,1.68c12.38,4.73,22.25,12.57,28.41,24.37,9.19,17.62,8.69,35.3-2.51,51.73-10.83,15.89-26.72,22.53-45.76,21.14-3.79-.27-3.84.87-3.53,3.84,2.89,27.61-16.18,48.66-39.05,53.25-10.7,2.15-21.06.66-31.09-3.49l-.56.08c-4.16-.63-6.86-4-10.42-5.67a10,10,0,0,1-3.78-3.47,60,60,0,0,0-5.94-7.46,6.92,6.92,0,0,1-1.88-3.2c-6.72-11.79-7.73-24.38-5.35-37.46a34.89,34.89,0,0,1,1.67-5.38c3.55-8.62,8.2-16.47,15.89-22.11,2.41-1.75,2-3.38.06-5.27-3.9-3.75-7.65-7.65-11.52-11.45-25-25.56-50.15-50.9-74.92-76.65-3.16-3.33-6.47-6.51-9.69-9.78-1.1-1.16-2.21-2.31-3.37-3.41-.4-.37-.78-.75-1.16-1.13-2.37-2.25-4.46-4.79-7.12-6.73a10.54,10.54,0,0,1-2.76-2.77,49.81,49.81,0,0,0-7-7.14,5.18,5.18,0,0,1-1.06-1.32c-2.78-4.26-6.66-7.46-10.37-10.81a9.39,9.39,0,0,1-2-2c-.16-.21-.31-.44-.49-.64-3.81-4.37-3.92-4.48-7.79-.21A58.36,58.36,0,0,1,186,172.64C184.52,173.39,183.08,174.19,181.35,173.8Z"/><path class="cls-1" d="M174.11,460.51c5.57-13.28,11.86-26.17,20.53-37.77a157.06,157.06,0,0,1,37.29-36.1c.88-.6,1.67-1.34,2.5-2,2.68-3.2,6.41-5,9.93-6.88a132,132,0,0,1,12.77-6.21c2.86-1.08,5.67-2.28,8.54-3.36a126.19,126.19,0,0,1,23.79-6.29,7.27,7.27,0,0,1,4,0,2.15,2.15,0,0,1,1,.86c.85,4.71-1.29,9-1.93,13.49-.65,2.18-1.41,4.33-1.88,6.56-1.06,3-2,6.08-3,9.1-.33.93-.74,1.83-1.11,2.74-1.83,4.07-3.33,8.29-5.39,12.26-1.34,2.09-2.13,4.57-4.36,6-10.58,17.21-23.65,32.13-40.28,43.77a134,134,0,0,1-64.93,24.11c-2.27.22-3.34.1-2.47-2.67C170.86,472.28,172.43,466.38,174.11,460.51Z"/><path class="cls-1" d="M254.56,353.41a152,152,0,0,0-41.47,22.91c-33.57,25.64-54.83,59.23-64,100.47a26.61,26.61,0,0,0-.33,3.22c-1.32,1.52-3,.87-4.59.75-9.22-.69-18.2-2.76-27.18-4.82-1.82.38-3.42-.5-5.1-.93-1.58-.71-3.5-.79-4.59-2.43h0c-3.06.33-5.3-1.3-7.47-3.1l-2.45-.84a32.58,32.58,0,0,1-13.06-7.16l-1.65-1c-4-1.67-7.29-4.35-10.75-6.8-1.5-1.6-3.7-2.5-4.62-4.67a19.43,19.43,0,0,0-4.89-4.37,7.73,7.73,0,0,1-5.59-5.48,20.4,20.4,0,0,0-4.33-4.75,10.61,10.61,0,0,1-5.53-6.65L42,421a2,2,0,0,1-1.45-2.28c-8.38-13.59-15-27.92-18.78-43.52a163.56,163.56,0,0,1-4.05-27.77c-.17-2.57.27-3.63,3.25-4.15,58.42-10.17,101.52-41.45,128.9-94.22.55-1.06,1.36-2,1.27-3.35a1.57,1.57,0,0,1,.05-2.06,7,7,0,0,0,1.58-3.91c.32-1.47,1.37-2.6,1.84-4a114.56,114.56,0,0,0,3.85-10.8,11.29,11.29,0,0,1,.37-1.12c1.41-3.24,1.44-7,3.64-9.94a5.62,5.62,0,0,0,.19-.53c0-.09,0-.19-.06-.29-1.55-3.07-.9-5.71,1.54-8,5.83,0,11.8-1.07,17.22,2.21a37.21,37.21,0,0,0,8.74,1.8c4.64-.13,8.9,1.47,13.18,3,2.21.74,4.35,1.67,6.52,2.52,1.2.47,2.35,1.07,3.52,1.6.34.14.65.31,1,.48a17,17,0,0,0,3.43,1.45c1.89.78,3.71,1.7,5.52,2.65,2.67,1.87,5.7,3.14,8.4,5a138.12,138.12,0,0,1,62.65,94.94,84.87,84.87,0,0,1,1.58,17.78c-.11,4.66-.91,5.68-5.54,6.36A184.83,184.83,0,0,0,267,350c-2.59.78-5.19,1.57-7.74,2.48A19,19,0,0,1,254.56,353.41Z"/><path class="cls-1" d="M131.51,243.06c-8.88,16.05-19.65,30.62-33.34,42.92a150.21,150.21,0,0,1-73.4,36.69c-5.08,1-5.21.9-4.25-4.31,6-32.37,21.63-59.23,46.51-80.64A136.24,136.24,0,0,1,124.82,208a17.65,17.65,0,0,0,1.91-.71c4.89-3.42,10.69-2.47,16.11-3.2,2.45-.34,3.16,2.1,2.45,4.08-1.86,5.21-1.84,10.94-4.48,15.91a5.94,5.94,0,0,1-1.9,2.72L135.4,235A10.54,10.54,0,0,1,131.51,243.06Z"/></g></svg>