<svg xmlns="http://www.w3.org/2000/svg" viewBox="0 0 500 500"><defs><style>.cls-1{fill:#466e35;}</style></defs><title>iconos</title><g id="facebook"><path class="cls-1" d="M250,438.59H458.75c1.25,0,2.5,0,3.75,0,2-.05,2.94.91,2.95,2.88,0,3.29.07,6.59,0,9.88,0,2.07-1.16,3.11-3.21,3.15-1,0-2,0-3.07,0H40.36c-6.26,0-6.27,0-6.26-6.29,0-2.27,0-4.55.08-6.82,0-2,1-2.89,3-2.83,1.25,0,2.5,0,3.75,0Z"/><path class="cls-1" d="M432,174.06c5.86-1.11,11.18,1.37,16.41,3.12,3.5,1.17,6.18,4.46,8.7,7.41A24.51,24.51,0,0,1,462.29,207a26.09,26.09,0,0,1-12.68,17c-5.3,3-10.87,3.16-16.38,3.16q-152.46.21-304.92,0c-7.36,0-14.88,0-22-1.57-3.93-.85-8.35-1-12.06-3.6-2.36-1.63-5.52-1.92-8.28-3.23a93.59,93.59,0,0,1-16.18-9.85,100,100,0,0,1-16-15.53c-3.91-4.63-6.59-10.08-9.74-15.22-3-4.86-3.46-10.61-6.73-15.2a.58.58,0,0,1-.14-.31c.66-5.59-3-10.4-2.94-15.87,0-5.8,0-11.6,0-17.4,0-3.18,0-6.35,1.8-9.22a4.15,4.15,0,0,0,.63-2.61c-.87-4.91,2-9,3.4-13.19a74.88,74.88,0,0,1,6.27-12.79c3.68-6.44,8.34-12,13.17-17.44,4.58-5.16,10.35-9,15.9-13.06A54.27,54.27,0,0,1,86.75,54.8c3.26-1.36,7-2.55,10.17-3.93,5.42-2.32,11.44-1.11,16.55-4,1.43-.81,3.13-.44,4.7-.44q65.16,0,130.3,0c1.59,0,3.18-.08,4.76-.13a11.7,11.7,0,0,1,3.39-.17q77.82,0,155.65,0c1.12,0,2.27-.25,3.35.29l1.27.1a23.28,23.28,0,0,0,6.24,2,1.63,1.63,0,0,0,.62,0c1.05.77,2.44-.2,3.46.7h0a8.81,8.81,0,0,0,4.14,2,2.34,2.34,0,0,0,.59.09c1.65.83,2.75,2.69,4.87,2.65h0a14.9,14.9,0,0,1,2.63,2.25l10.36,8.68c.39,1,1.37,1.43,1.89,2.28.35,2.39,2.4,3.77,3.51,5.72a27.75,27.75,0,0,1,2.61,5.71,9.61,9.61,0,0,1,2.11,2.79,1.77,1.77,0,0,0,.09.56c-.05,3.07,1.58,5.62,2.6,8.35l.17,4.62a55.23,55.23,0,0,1,0,12.26l-.14,4a12.07,12.07,0,0,1-2,4.88h0c-.76,1,.06,2.35-.59,3.41l-.12,1.31a13.86,13.86,0,0,1-2.13,2.75c-.87.79-.53,1.83-.55,2.79-.65.93-1.44,1.75-2,2.72l-3.46,5.42a11.16,11.16,0,0,1-2.22,2.67l-4.68,4.67a18.9,18.9,0,0,1-3.33,2.92h0a7.92,7.92,0,0,0-2.11,2l0,0c-2,.17-3.2,1.8-4.78,2.76h0c-2.26.06-3.86,1.48-5.54,2.71l-1.27.13a8.2,8.2,0,0,0-4.81,1.94h0c-1.29.92-2.88-.08-4.19.65l-1.94.07a67.43,67.43,0,0,1-10.13.67q-149.88,0-299.76,0a43,43,0,0,1-8.09-.68c-6.18-1.41-10.47-5-14-10.38-4-6.08-3.14-12.62-1.86-18.64a17.46,17.46,0,0,1,12.48-13.34,4.62,4.62,0,0,0,2.69-1.88c1.24-.88,2.64-.43,4-.43l286.85,0c1.34,0,2.72.27,4.05-.26,2.09.43,3.3-1,4.66-2.17a5.89,5.89,0,0,0,2.11-2c.16-.71,0-1.52.62-2.07a5,5,0,0,0,0-5.34c-.64-.6-.47-1.42-.63-2.16a9.1,9.1,0,0,0-2.75-2.74c-.73-.15-1.55,0-2.15-.63-.35-1-1.15-1.27-2.09-1.5a23.64,23.64,0,0,0-5.75-.51q-139.15,0-278.3,0c-7.13,0-13.84,1.8-20.57,4.3C78.05,99,71.4,106.51,66.73,115.74c-2.86,5.64-3.51,12.09-3.43,18.68.15,12,5.23,21.28,13.59,29.17a41.14,41.14,0,0,0,14.86,8.68,27.44,27.44,0,0,0,9.44,1.78Q266.6,174.08,432,174.06Z"/><path class="cls-1" d="M397.13,307l2.73-2.75a9.45,9.45,0,0,0,.06-9.48h0c-1.13-1.79-2.52-3.2-4.78-3.38l-.63-.08c-1.44-2.17-3.66-1.95-5.83-1.95H265.55q-78.28,0-156.57,0A56.91,56.91,0,0,0,92,292a39.49,39.49,0,0,0-21.62,16.26c-2.74,4.22-4,8.95-6.61,13.12a5,5,0,0,0-.24,2.34c0,3.3.11,6.6-.13,9.89-.44,6.06,1.65,11.27,4.32,16.6a35.75,35.75,0,0,0,9.83,12.67c4.12,3.19,7.83,7.66,14,6.94h0c3,2.38,6.58,2.38,10,2.38,42,0,84,.13,125.94,0,1.13-.05,2.26-.16,3.39-.16q101.64,0,203.28,0c10.52,0,19.14,3.77,24.89,12.57,5.23,8,5.84,16.62,2.16,25.73-1.93,4.78-5.22,8.1-8.74,11.45-7.9,5.12-16.72,5.5-25.8,5.49q-149.93-.13-299.87,0a97.08,97.08,0,0,1-23.23-2.73c-19.65-4.86-36.46-14.91-49.42-30.87A90.13,90.13,0,0,1,41.4,373c-3.4-6.67-5.11-13.91-6.7-21.14s-.9-14.64-1.18-22c-.26-6.94,2-13.38,3.31-19.93a45.35,45.35,0,0,1,5.78-14.31c.72-1.19,1.09-2.46,1.74-3.63,0-1.87,2.6-2.58,2.18-4.67,1.65-1.4,2.61-3.34,3.89-5A87.81,87.81,0,0,1,72.6,260.47a90.47,90.47,0,0,1,17.58-9.35c3.69-1.48,7.59-2.21,11.19-3.93,2.57-1.23,5.57-.6,8.34-1.29a68.52,68.52,0,0,1,16.84-2q140.14,0,280.28,0c1.34,0,2.73-.34,4,.31,17.14,2,31.49,8.69,42.07,23,9.73,13.18,12.12,28,9.41,43.28a49,49,0,0,1-20,32c-5.9,4.75-12.94,7.37-19.71,10.5l-1.81,0a52.88,52.88,0,0,1-8.14.66H102.41a30.84,30.84,0,0,1-5.76-.5c-2.42.21-3.81-1.9-5.84-2.6l-5.44-5.43c-.57-1.79-2.12-3-2.66-4.86l0,.05C80.55,332.61,80.61,325,85.42,318l0,0c3.41-5.24,8.71-7.64,14.32-9.59h0c1.23-.71,2.57-.22,3.86-.37q144.63,0,289.24,0C394.26,308.06,396.06,308.87,397.13,307Z"/></g></svg>