<svg xmlns="http://www.w3.org/2000/svg" viewBox="0 0 500 500"><defs><style>.cls-1{fill:#e1e1e1;}.cls-2{fill:#466e35;}.cls-3{fill:#fefefe;}</style></defs><title>iconos</title><g id="facebook"><polygon class="cls-1" points="190.77 422.16 321.75 422.29 340.81 348.83 338.24 257.74 337.86 222.2 293.16 247.97 250.67 305.55 204.61 328.58 147.03 328.19 110.89 330.96 102.16 341.29 103.35 395.69 176.78 421.61 190.77 422.16"/><path class="cls-2" d="M116.88,17.12H310.76c12.09,3.16,16.24,8.37,16.58,21.13.19,7,.07,14.09.05,21.14,0,18.64-4.21,23.83-22.36,27.79-1,3.1,1.66,4.72,3,6.74,19.7,29.89,31.92,62,30,98.49-.49,9.37,0,18.79-.13,28.18-.05,4.89-1.1,9.43-5.16,12.58-15.11,11.7-25.23,27.74-36.75,42.52-14.61,18.76-29.34,37.44-43.36,56.65-5.17,7.09-11.36,10.08-20.12,10-36.7-.25-73.39-.14-110.09-.09-11.42,0-11.77.42-11.81,12,0,9.1-.16,18.2,0,27.3.32,15.42,5.53,20.68,20.8,20.81,18.49.16,37-.09,55.48.14,4.13.05,10.29-1.37,11.11,4.18.78,5.32.84,12-5.94,15.07-25.12-.11-50.25-.86-75.36.42-16-.46-24.75-9.2-24.66-24.63q.27-115.08,0-230.13c-1.13-9.76.64-19.15,3.68-28.39a171.42,171.42,0,0,1,26.8-50.18c-.06-1.56-.35-2.08-1-2.28-18-6.25-21.16-10.77-21.21-30.23,0-5.57-.11-11.13,0-16.69C100.8,26.6,104.84,21.13,116.88,17.12Z"/><path class="cls-2" d="M257.88,482.5c-2.74-2.93-6.78-2.83-10.15-4.32-30.47-13.53-40.11-50.88-19.4-78.21C263,354.21,298.12,308.8,333.12,263.3c6.95-9,15.77-15.72,26.83-18.87,30.63-8.71,58.34,9.22,65.7,42.3,1.08,3.62.28,7.32.53,11,1,11.89-3.88,21.8-10.9,30.78-34,43.46-67.49,87.33-101.42,130.85-10,12.79-21.51,22.16-38.36,23.17Z"/><path class="cls-3" d="M277,84.27c21.1,24.48,34.64,52.49,40,84.48,1,6.06-.59,7.48-6.49,7.47-64.56-.18-129.12-.27-193.68.08-9.22,0-7.26-4.94-6.4-10,5.2-30.11,18.39-56.52,37.37-80.22.36-.45.64-1,1-1.43,1.39-2.28,3.67-1.4,5.57-1.4q58.83-.09,117.64,0C273.68,83.26,275.51,82.92,277,84.27Z"/><path class="cls-3" d="M213.38,307.9c-2.64,0-5.29-.16-7.92,0-7.71.55-10.27-3.45-10.47-10.62-.19-6.89,3.25-16.05-1.5-20-4-3.37-12.86-1.23-19.56-1.09-7.28.16-11-2.83-10.91-10.32.23-27.55-3.12-26.86,24.81-26.22,5.46.13,7.55-1,7.41-7.06-.66-29-1.12-24.53,25.82-25.1,8.22-.17,10.88,3.54,10.63,11.2-.22,6.66-2.14,15.42,1.23,19.46,3.57,4.28,12.64,1.43,19.27,1.28,8.09-.19,12.17,2.7,11.65,11.23-.34,5.56,0,11.15-.1,16.72s-3,8.45-8.68,8.79c-7.78.45-18.18-3.48-22.58,1.72-3.78,4.47-.93,14.55-1.06,22.15-.1,5.43-3,7.91-8.36,7.84C219.83,307.86,216.61,307.9,213.38,307.9Z"/><path class="cls-2" d="M277,84.27l-128.22.42c1.26-2.78,3.79-2.33,6.08-2.34H274.62a7.48,7.48,0,0,1,2.43.46C277.18,82.85,277,83.76,277,84.27Z"/><path class="cls-2" d="M192.54,420.25c-25.78,1.27-51.57.75-77.37.26,1.6-1.72,3.71-1.47,5.73-1.47,22.23,0,44.45,0,66.67,0C189.23,419.1,190.88,419.84,192.54,420.25Z"/><path class="cls-3" d="M269.28,469.79c-15.39-.89-27.22-7.47-34.24-21.18-6.81-13.3-6.45-27,2.24-39.11,13.85-19.25,28.81-37.71,43.11-56.65,2.43-3.21,4-2.93,6.88-.67q26.67,20.82,53.65,41.23c3.39,2.56,3.56,4.19.91,7.55-14,17.7-27.61,35.69-41.52,53.45C292.43,464.48,281.81,469.32,269.28,469.79Z"/><polygon class="cls-2" points="164 421.49 223.82 422.29 228.03 403.63 190.56 402.38 164 421.49"/><polygon class="cls-2" points="234.36 342.33 297.52 342.48 338.24 257.74 337.93 217.93 289.58 257.9 268.54 300.39 234.36 342.33"/></g></svg>