<svg xmlns="http://www.w3.org/2000/svg" viewBox="0 0 100 100"><defs><style>.cls-1{fill:#466e35;stroke:#070707;stroke-miterlimit:10;}</style></defs><title>iconos</title><g id="indice"><path class="cls-1" d="M1,49.48c2.62-4.78,5.27-9.55,7.85-14.36A4.21,4.21,0,0,1,11.2,33c6.05-2.35,12.08-4.74,18.11-7.11a5.92,5.92,0,0,1,5.41.37c3,1.73,6,3.4,9.1,5a6.28,6.28,0,0,1,3.33,4.56c1,5.1,2.1,10.2,3.06,15.31A2.8,2.8,0,0,0,52,53.42c2,1,4.33,1.65,6,3.3.1.1.25.33.27.32,2.92-1.71,3.59,1.86,5.77,2.25.37-.46,0-1.2.11-1.85.25-1.59-.2-2.25-2-2.23-3.13,0-5.8-1.1-7.27-4.15-1.17-2.42-1.11-3.2,1.48-3.74,3.45-.72,4.59-4.08,7.29-5.56.34-.18.28-1.07.4-1.63.21-.94-.27-2.18.95-2.69s1.69.79,2.47,1.31a2.67,2.67,0,0,0,.36.08c.18-.56.4-1.13.55-1.72.19-.79.33-1.6,1.36-1.69s1.44.78,1.74,1.6q2.91,8,5.8,16.08a4.42,4.42,0,0,1,.24.6c.44,2.39,1.84,3.58,4.17,4.51a20.09,20.09,0,0,1,13,19.45,14.84,14.84,0,0,1-2.73,8c2.33-.52,3.61-1.76,4-3.78a36.3,36.3,0,0,0,.38-4.32c0-.72-.09-1.54.7-1.91s1.52.1,2,.81v5.66c-1.17,4.9-4.26,7.3-10.22,7.48-6.31.2-12.63.1-18.94,0-2.75,0-3.61-1.53-2.52-4A6,6,0,0,1,69.56,83c1.83-1.23,1.82-1.25,1-3.58-2,2.49-3.41,5.25-5.16,7.8a6.84,6.84,0,0,1-7.72,2.24c-1.31-.57-1.56-1.77-.52-3.52,1.79-3,3.68-5.91,5.51-8.87,2-3.23,1.27-8.63-1.44-11.24-.37-.35-.72-.85-1.23-.85-4.55,0-8.44-2-12.5-3.66C44.09,60,42,57.88,41.63,54.21a18.34,18.34,0,0,0-.8-3.64c-2.43,3.14-2.42,3.4-.15,6.23,1.59,2,3.16,4,4.75,6a5.31,5.31,0,0,1,.86,5.9c-2.73,6.09-5.51,12.16-8.49,18.13A5,5,0,0,1,31,89.2a5.26,5.26,0,0,1-2.32-6.88c1.85-4.34,3.91-8.59,5.93-12.85.45-.94,1.08-1.87.39-3.18-.48,3.42-2.39,6.06-3.67,8.95C29.65,79,28,82.8,26,86.47c-1.48,2.83-4.38,4-6.88,2.69-2.8-1.4-3.72-4.2-2.34-7.21,2-4.28,3.91-8.58,6-12.81a3.08,3.08,0,0,0-.46-3.75c-2.13-2.57-4.25-5.15-6.33-7.76-2.57-3.2-2.76-6-.78-9.66,1.56-2.86,3.12-5.73,4.75-8.59-2.87.56-4.57,2.28-5.82,4.85A86.08,86.08,0,0,1,9.4,53a4.66,4.66,0,0,1-4.79,2.34A4,4,0,0,1,1,51.66Z"/><path class="cls-1" d="M60.24,19.83a10.4,10.4,0,0,1-10.6,10.3A10.51,10.51,0,0,1,39.38,19.64a10.43,10.43,0,0,1,20.86.19Z"/></g></svg>