<svg xmlns="http://www.w3.org/2000/svg" viewBox="0 0 100 100"><defs><style>.cls-1{fill:#466e35;stroke:#070707;stroke-miterlimit:10;}</style></defs><title>iconos</title><g id="indice"><path class="cls-1" d="M48.45,65.56c-3.37-.48-6.8-.56-10.16-1.17A16.26,16.26,0,0,1,34,63.12a4.87,4.87,0,0,1-2.89-6.2A15.6,15.6,0,0,1,32.79,53a38.17,38.17,0,0,0,3.57-7.83,15.48,15.48,0,0,0,.61-3.3c.22-3.4-1.6-5.72-5-6.36a19,19,0,0,0-8.42.63A18.79,18.79,0,0,0,18.94,38a3.33,3.33,0,0,0-1.15.93c-.1.13-.15.28,0,.4a.25.25,0,0,0,.35-.06A6.57,6.57,0,0,1,21,37.57,21.92,21.92,0,0,1,31,35.9a7.89,7.89,0,0,1,2.8.76,4.69,4.69,0,0,1,2.69,4.21,15.57,15.57,0,0,1-1.55,6.9,53.58,53.58,0,0,1-2.72,5.34,13.08,13.08,0,0,0-1.71,4.81,5,5,0,0,0,2.12,4.92,13.18,13.18,0,0,0,5.42,2c3,.57,6,.69,9,1l1.64.23c.17,0,.33.06.41.25a5,5,0,0,0,1.57,1.93,4.73,4.73,0,0,1-2.27.58c-1.07,0-2.14,0-3.21,0a.65.65,0,0,1-.28,0c-2.34-1.11-4.91-1.14-7.41-1.49a50.36,50.36,0,0,1-8.86-1.6,5,5,0,0,1-3.81-4,8.5,8.5,0,0,1,.58-4.37l.16-.37c.06-.14.11-.29,0-.42s-.28,0-.4.07-.24.19-.36.28a15.11,15.11,0,0,1-6,3,6.14,6.14,0,0,1-6.44-2.35,9.7,9.7,0,0,1-1.46-2.51c-.08-.19-.07-.53-.39-.47s-.23.36-.26.58a18.83,18.83,0,0,0,4,13.69,31.37,31.37,0,0,0,11.29,9,55.45,55.45,0,0,0,15.26,4.91c1.26.23,2.52.4,3.78.59,0,0,.06,0,0,.06s0,0,0,0a72.85,72.85,0,0,1-7.82-.36A58.05,58.05,0,0,1,24.5,80.76a32.17,32.17,0,0,1-11.9-6.48A23.5,23.5,0,0,1,5,60.18,25.47,25.47,0,0,1,5,50.3a23.19,23.19,0,0,1,5.78-10.68,43.77,43.77,0,0,1,13.83-9.76,82.38,82.38,0,0,1,21-6.56A84.15,84.15,0,0,1,63.83,22,51.3,51.3,0,0,1,79.7,24.69a21.4,21.4,0,0,1,11.5,9,26.34,26.34,0,0,1,3.27,9.62,41.76,41.76,0,0,1,.45,9.07,24.84,24.84,0,0,1-4.76,12.67A31.15,31.15,0,0,1,76.32,76a83.23,83.23,0,0,1-12.14,3.78,28.57,28.57,0,0,0-4.62,1.48,4.72,4.72,0,0,0-1.82,1.34,2,2,0,0,1-1.44.6,20.45,20.45,0,0,1-5.24-.24c-.28,0-.33-.18-.27-.43a3.62,3.62,0,0,1,1.28-2,12.65,12.65,0,0,1,4.77-2.26c3.18-.91,6.39-1.72,9.57-2.66A24.91,24.91,0,0,0,75.52,71,8.42,8.42,0,0,0,78,67.86c.16-.36.37-.29.63-.22a29.35,29.35,0,0,0,5.36.77c2.17.16,4.9-2.66,4.66-5.07a1.53,1.53,0,0,0-.44-1Q82,56.17,75.76,49.9a3.71,3.71,0,0,0-.29-.27.22.22,0,0,0-.35,0,.21.21,0,0,0,0,.3c.1.12.21.23.32.34,4,4,8,8.07,12,12.07a1.91,1.91,0,0,1,.58,2,4.94,4.94,0,0,1-3,3.4,4.49,4.49,0,0,1-2.1.09,20.88,20.88,0,0,1-6.39-1.38c-.35-.15-.69-.32-1-.5a2.33,2.33,0,0,1-1.26-1.78c-.47-2.7-1-5.38-1.55-8.07a1.6,1.6,0,0,0,0-.23c0-.17-.11-.36-.34-.29s-.19.24-.15.42l.69,3.58c.32,1.69.63,3.37,1,5,.08.38,0,.48-.37.58a48.85,48.85,0,0,1-7.68,1.46,58.14,58.14,0,0,0-6.93,1.12,24.07,24.07,0,0,1-2.46.89,8.33,8.33,0,0,1-4.56-.29,4.46,4.46,0,0,1-2.6-2.86,1.71,1.71,0,0,1,.46-1.84,7,7,0,0,1,2.32-1.42c3-1.26,5.86-2.66,8.81-4a.79.79,0,0,0,.52-.9,7.34,7.34,0,0,1,3.47-6.72,8.56,8.56,0,0,1,3.18-.83,46.73,46.73,0,0,0,5.36-1.36,2.46,2.46,0,0,1,2.51.4,6,6,0,0,0,4.45,1.43,2.64,2.64,0,0,0,2.39-3.64,8.42,8.42,0,0,0-2.37-3.38c-.13-.13-.23-.16-.38,0s-.1.25,0,.38a10,10,0,0,1,1.56,1.81,4.75,4.75,0,0,1,.77,1.77,2,2,0,0,1-1.55,2.48,4.71,4.71,0,0,1-3.43-.49,5.8,5.8,0,0,1-1.29-.83A2.64,2.64,0,0,0,73.43,48a47.65,47.65,0,0,1-6,1.49c-.23,0-.45.13-.63-.18a7.69,7.69,0,0,0-5.52-3.68,23.75,23.75,0,0,0-7.8-.17,81.94,81.94,0,0,0-16.6,4.12A2.61,2.61,0,0,0,35.25,51a16.14,16.14,0,0,0-1.8,4.79,5.08,5.08,0,0,0,2.47,5.46A14.82,14.82,0,0,0,41.36,63c2.35.41,4.73.59,7.1.79.42,0,.54.13.34.52a1.75,1.75,0,0,0-.08,1C48.79,65.54,48.69,65.62,48.45,65.56Z"/><path class="cls-1" d="M46.13,76.52a20.79,20.79,0,0,1-3.22-.26c-.39,0-.45-.2-.33-.56A3.38,3.38,0,0,1,44,74a13.87,13.87,0,0,1,4.72-1.82c3.25-.8,6.56-1.31,9.8-2.18a31.7,31.7,0,0,0,6.66-2.52,7.56,7.56,0,0,1,2.55-.54,37.89,37.89,0,0,0,6.24-1.34.5.5,0,0,1,.65.29c.16.26-.18.27-.3.36-.82.59-1.7,1.11-2.46,1.76a18,18,0,0,1-7.31,3.35c-3.33.88-6.73,1.44-10.07,2.29a19.3,19.3,0,0,0-4.3,1.52,1.79,1.79,0,0,0-.53.32A4.37,4.37,0,0,1,46.13,76.52Z"/><path class="cls-1" d="M48.45,65.56a.29.29,0,0,0,.27-.27c.06.11.16.24,0,.34S48.54,65.64,48.45,65.56Z"/><path class="cls-1" d="M44.58,83.5s0-.07,0-.1.22,0,.33,0a.77.77,0,0,1,.17,0A.57.57,0,0,1,44.58,83.5Z"/></g></svg>