<svg xmlns="http://www.w3.org/2000/svg" viewBox="0 0 100 100"><defs><style>.cls-1{fill:#466e35;stroke:#070707;stroke-miterlimit:10;}</style></defs><title>iconos</title><g id="indice"><path class="cls-1" d="M28.48,50.85a4,4,0,0,0-1,1.16,2.13,2.13,0,0,1-2.91.91c-2-.75-4-1.8-6-2.57-2.45-.93-4.88-1.68-7.55-1.25a3.49,3.49,0,0,1-2.4-.48,4.72,4.72,0,0,0-4.21-.41,2.56,2.56,0,0,1-2.78-.72,1.89,1.89,0,0,1-.51-2c.22-.78.87-.9,1.49-1a18.59,18.59,0,0,1,2.36,0c2.37.1,4.73.3,7.1.21,2.21-.09,4.26.84,6.43,1.06a15.24,15.24,0,0,0,2.24.16,1.93,1.93,0,0,0,1.92-2.17,4.83,4.83,0,0,1,1.65-4.33A14.92,14.92,0,0,0,25.61,38,3.7,3.7,0,0,0,24.67,32a17.86,17.86,0,0,0-4.15-1.7,50,50,0,0,0-6-1.32,5.11,5.11,0,0,1-4.17-4.07,1.45,1.45,0,0,1,1.3-2.11c1.44-.26,2.9-.37,4.35-.59a3.26,3.26,0,0,0,2.53-1.65,4.06,4.06,0,0,1,3-1.93c2.59-.46,5.18-.89,7.77-1.27a12.15,12.15,0,0,1,5.89.54c.82.29,1.88.45,1.9,1.6a3.29,3.29,0,0,1-1.6,3.37,8.15,8.15,0,0,1-3.79.88,11.63,11.63,0,0,1-4.38-1c-.49-.29-1.05-.44-1.55-.72a12.5,12.5,0,0,0,1.4.63c1.14.61,2.47.72,3.62,1.32a6.64,6.64,0,0,0,3.34-.14c.59-.21.89.13,1.24.49a87.3,87.3,0,0,1,6.94,8.86c1.64,2.19,3.2,4.46,5,6.53A22.89,22.89,0,0,0,59.86,47.6c2.46.55,5,.42,7.47,1,.66.16,1.31.35,2,.48,1.47.31,2.16-.39,1.87-1.85-.67-3.42-3.21-5.7-7.2-6.51a41.91,41.91,0,0,0-7.42-.46,7.12,7.12,0,0,1-4.06-1.12c-.36-.26-.84-.51-.77-1s.67-.61,1.07-.67c5.51-.91,11-1.29,16.19,1.41s7.33,7.1,7.58,12.67A1.7,1.7,0,0,0,77.28,53a10.64,10.64,0,0,1,4.51,8.88,10.79,10.79,0,0,0,.38,3.34,2.68,2.68,0,0,0,3.71,1.84c.24-.09.47-.22.72-.32A2.39,2.39,0,0,1,90,67.87c.35.58.64,1.19,1,1.78a8.07,8.07,0,0,0,4.51,4,4.2,4.2,0,0,1,2.23,2c.54.93.27,1.59-.77,1.88a3.7,3.7,0,0,1-3.85-.92c-1.26-1.24-2.5-2.49-3.77-3.72a5.82,5.82,0,0,0-6-1.54c-2,.53-3.83,1.29-5.77,1.86-2.94.87-4.79.27-6.57-2.2a42.57,42.57,0,0,1-3-4.38c-2.16-4-5.67-5.86-9.88-7-5.34-1.44-10.79-1.25-16.23-1.48-1.39-.06-2.78,0-4.17-.13a11.71,11.71,0,0,1-7.13-3.25,17.56,17.56,0,0,0-1.74-1.61c-1-.67-.92-1.31-.15-2a3,3,0,0,1,2.41-1C30.19,50,29.38,50.59,28.48,50.85Z"/><path class="cls-1" d="M27.2,22.62l4.5,1.16c-.28.18-.67-.1-.91.22a10.6,10.6,0,0,1-3.68-1.27Z"/><path class="cls-1" d="M28.48,50.85a3.44,3.44,0,0,1,3-.78,6.45,6.45,0,0,0-2.74,1Z"/><path class="cls-1" d="M27.11,22.73A2.27,2.27,0,0,1,25.79,22l1.41.67Z"/></g></svg>