<svg xmlns="http://www.w3.org/2000/svg" viewBox="0 0 650 650"><defs><style>.cls-1{fill:#466e35;}</style></defs><title>iconos</title><g id="intagram"><path class="cls-1" d="M642.57,311.26c-2.05-2.28-1.34-5.07-1.32-7.66.14-17.88,0-35.93-4.38-53.2-23.61-92-78.29-160.79-160.53-206.82-31.85-17.83-66.68-30.19-104.2-32.31-39.27-2.23-78.9-4.9-117.37,3.38-67.53,14.54-124.87,48.8-170,101.08C36.7,171.43,7.16,235.39,7.57,310.65c.21,37.89-1.13,76,11.54,112.62,21.22,61.34,55,114.3,106.64,154.47,44.47,34.55,93.37,59.21,150.78,64,9.22.77,18.7-1,27.7,2.24h43c4.1-2.68,8.67-1,13-1.3,20.43-1.39,40.65-3,60.48-9.33,61.63-19.81,113.88-53.77,153.76-104.52,35.1-44.67,61.15-94,65.91-152.42.82-10.09-1.21-20.42,2.22-30.3ZM521.73,357.68c.08,29-.53,58-7.3,86.23-11.58,48.32-49,72.31-93.44,76.46-49,4.57-98.18,3.9-147.23,2.37-21.55-.67-43.42-.89-64.9-6.41-42-10.78-65.35-38.23-73.53-79.23-7.28-36.47-5.93-73.62-5.52-110.61-.45-36.54-1.06-73.12,5.39-109.3,7.65-42.88,37.51-72.74,80.56-80.22,42.33-7.36,85.13-5.32,127.81-5.49,33.4-.13,67-.61,99.61,7.58,41,10.28,65.44,37.71,72.78,78.54C524.28,263.86,521.61,310.9,521.73,357.68Z"/><path class="cls-1" d="M324.89,394.44c-37.56-.22-66.49-29.77-66.31-67.74.18-37.32,29.9-66.48,67.74-66.43,37.08,0,66.7,30.21,66.52,67.76C392.66,365.22,362.54,394.67,324.89,394.44Z"/><path class="cls-1" d="M326.32,260.27c-37.84,0-67.56,29.11-67.74,66.43-.18,38,28.75,67.52,66.31,67.74s67.77-29.22,67.95-66.41C393,290.48,363.4,260.31,326.32,260.27Z"/><path class="cls-1" d="M489.47,256.29c0-12.07-1.23-24.21-5-35.52-15.22-45.91-39.37-55.4-79.2-56.34-58.86-1.39-117.9-3.72-176.79,1.83-31.68,3-59.32,29.44-64,60.68-5,33.39-1,66.88-2.55,93.84,0,32.81-.64,59.2.14,85.55,1.34,45.48,23.39,75.77,72.28,82.54,20.15,2.79,40.13,2.26,60.13,2,41.94-.62,84,3.45,125.81-2.57,26.69-3.84,47.53-16.13,59.5-41.81,7.21-15.45,9.28-31.66,9.48-48C489.85,351.05,489.5,303.67,489.47,256.29ZM425.06,328c0,55.3-43.9,98.68-99.82,98.67-56.56,0-98.77-43.14-98.93-100.67C226.15,269,274,227,328,227.72,379.2,228.41,427.38,273.81,425.06,328Zm5.17-84.69c-11.24-.17-21.46-10.38-21.24-21.23.23-11.33,11.56-22.89,22.16-22.63,10.06.25,20.75,11.61,20.76,22C451.92,234.45,443,243.48,430.23,243.29Z"/></g></svg>