<svg xmlns="http://www.w3.org/2000/svg" viewBox="0 0 650 650"><defs><style>.cls-1{fill:#d5e0ce;}</style></defs><title>iconos</title><g id="twitter"><path class="cls-1" d="M325.5.5C150.15.5,8,142.65,8,318S150.15,635.5,325.5,635.5,643,493.35,643,318,500.85.5,325.5.5Zm181.59,230c-4.39,4.33-6.94,8.12-6.83,14.47C501.4,308,479,361.88,436.08,407.64,397,449.3,349.26,471.67,292,476.47c-37.07,3.1-71.92-3-106.6-14.4-10.95-3.61-19.84-10.35-29.7-16.62,21.47-.36,42.43-2,62.71-9.13,14.16-5,27.23-11.88,39.91-19.71,2.54-1.57,6.51-2.36,6.18-6-.38-4.15-4.77-3.34-7.44-3.67-21.15-2.64-37.58-13.32-51.11-29.18a31.6,31.6,0,0,1-2.71-2.86c-3.78-5.78-10.2-12.08-7.68-18.4,1.71-4.3,10.44-.87,15.95-1.7,4-.6,10.35,2.23,11.11-3.6.72-5.6-6.12-5.06-9.81-6.57-27.24-11.19-43.38-31.41-49.28-60-1.4-6.79-.06-11.39,8.73-8.23a125,125,0,0,0,16.43,4.38c2.41.51,5.71,1.06,7-1.77,1.48-3.18-1.78-4.24-3.69-5.91-27.4-23.87-34.25-53.36-24.47-87.73,2.74-9.65,5.2-13.29,13.47-3.85,36.71,41.93,84.29,64.1,138,74.63,4.25.84,8.68.8,13,1.26,9.58,1,10.85-4.34,10-12.17-3.86-34.63,11.1-60.77,39.81-77.81,27.36-16.24,56.05-14.25,83.25,2.68a51.35,51.35,0,0,1,10.07,8.29c4.9,5.17,9.85,6.1,16.48,3.13,10.66-4.78,21.68-8.75,35.41-14.2-6.2,18.09-18.2,27.72-31.61,39.83,15.37.85,26.82-3.92,40.81-7.05C527.82,213.07,516.62,221.11,507.09,230.52Z"/></g></svg>