<svg xmlns="http://www.w3.org/2000/svg" viewBox="0 0 650 650"><defs><style>.cls-1{fill:#aacb9a;}.cls-2{fill:#466e35;}.cls-3{fill:#fbd5c0;}.cls-4{fill:#b7b7b7;}.cls-5{fill:#dbdbdb;}.cls-6{opacity:0.14;}.cls-7{opacity:0.06;}</style></defs><title>iconos</title><g id="denunciar"><path class="cls-1" d="M239.39,97.88c.94-4.66,2.3-9.23,1-14.1-2-7.76-7.62-11.91-14.52-14.84h-7c-3.66,1.39-5.74,4.06-7,7.76-15.9,45-32,90-48,135q-26,73.16-52.17,146.25c-4.43,12.49.41,24.28,12.15,29.48a16.8,16.8,0,0,0,12.63.5,4.83,4.83,0,0,0,2.49-2.94c2.77-7.19,5.79-14.31,7.53-21.86,11.33-28.42,20.8-57.52,31.2-86.28,14.54-40.2,28.79-80.51,43.2-120.76,5.72-16,11.27-32,17.11-47.93C239.2,104.78,239.27,101.35,239.39,97.88Z"/><path class="cls-2" d="M515.76,580.74a9.59,9.59,0,0,0,3.76-5.1q17.9-50.42,35.82-100.82c2.61-7.36,1.73-9.18-5.68-11.82-18-6.4-36-12.55-53.85-19.33-7.44-2.84-9.56-1.17-12.14,5.21-2.43.86-3.56,2.76-4.36,5.07-8.93,25.92-18.41,51.65-27.51,77.51-1.76,5-3.86,9.92-5.34,15-.61,2.12-1.22,4.19.29,6.18.34,4.12,3.08,5.86,6.64,7.12q26.5,9.35,52.93,18.9c1.53.55,3,1.36,4.45,2Z"/><path class="cls-1" d="M135.76,386.83c-13.06-.09-20.81-5.73-23.27-16.72-.84-3.8.08-7.34,1.29-10.75q27.47-77.42,55.08-154.78,22.89-64.2,45.78-128.41a17.5,17.5,0,0,1,4.25-7.23h-3c-8.25,3.64-12.43,10.2-15.34,18.64-11,31.94-22.58,63.67-33.94,95.49-.33.92-.56,1.88-.84,2.82-2.53,1.3-3.81,3.52-4.75,6.11-6.21,17.19-12.24,34.43-18.41,51.63-2.47,6.88-5,13.73-7.35,20.67a11.75,11.75,0,0,0-.4,6.78q-9.66,27.54-19.32,55.08c-5.54,15.71-11.17,31.39-16.68,47.11-4.19,12-.8,21.9,9,26.7s19.37,1.67,26.47-8.64a5.79,5.79,0,0,1,.69-.71C135.55,389.41,137.53,388.5,135.76,386.83Z"/><path class="cls-3" d="M446.75,552.67l36.92-103.79c-9.39-11.56-19.22-22.79-28-34.78C448.24,404,437.79,398.05,428,391c-2.22.06-3,1.64-3.83,3.38-2.14,4.53-3.39,9.38-5.11,14.06-1.27,3.45-3.38,4.61-7,3.35-8.79-3.08-17.56-6.21-26.35-9.29-2.42-.85-4.71-1.74-7.11-.11-8.91-3.16-17.82-6.34-26.73-9.47q-13.76-4.83-20.49,4.79c-4.27,6.1-3.46,13.14,2.74,21-5-1-9.48-2.33-14.09-.3s-7.92,5.53-9.13,10.5c-2.06,8.42,1.76,14.29,12.7,19.64-8.84,1.51-15.1,5.83-15.48,15-.53,12.55,9.46,15.37,19.72,18.64-4.12.94-7.35,1.39-10,3.39a14.92,14.92,0,0,0-6.24,14.81,14.21,14.21,0,0,0,9.82,12.13c34.8,12.54,69.59,25.11,104.57,37.14C432.55,551.9,439.84,551.73,446.75,552.67Z"/><path class="cls-4" d="M135.76,386.83c-.25,1.26-.51,2.52-.76,3.79a416.45,416.45,0,0,1,91.39-26.42,432.78,432.78,0,0,1,96.2-5.85q23.1,1.29,46,4.47a3.43,3.43,0,0,0,2.69-1.94c3.1-8.05,7.28-15.77,7.66-24.67a3.33,3.33,0,0,0-1-1.38c-3.15-1.78-6.72-1.81-10.15-2.26-22.14-2.89-44.39-3.43-66.7-3.19a430.1,430.1,0,0,0-144.37,27.36c-4.2,1.57-8.35,3.18-12,5.9Z"/><path class="cls-1" d="M378,336.91c-3.7,8.43-6.56,17.17-9.4,25.91,5.43,3,11.6,4.17,17.25,6.65,1.45.64,3.24.66,4.08,2.36.63,1.57,2,2.07,3.46,2.59,10.31,3.79,20.62,7.56,31,11a7.23,7.23,0,0,0,5.33.18c7.22,1.25,13.77,4.54,20.65,6.82,11,3.65,19.42-.19,23.38-11,2.38-6.51,4.57-13.08,6.85-19.62-2-1.58-3.76-.53-5.5.53-4.9,3-9.83,3.09-15.27,1.13C436,354.92,412.14,346.6,388.33,338,385.07,336.85,381.73,334.3,378,336.91Z"/><path class="cls-5" d="M134.87,271.08c5.61-12.08,9.2-24.92,13.89-37.35,6-15.83,11.38-31.88,17-47.84-5.31-.06-10.62-.18-15.94-.16-6.75,0-11.14,2.81-13.41,9q-9.35,25.63-18.37,51.39c-2.18,6.18-.38,11.48,4.59,15.58C126.6,265,130.79,268,134.87,271.08Z"/><path class="cls-6" d="M420.87,409.83c.38-.15,1.57,1.17,1.81,1.39a21.44,21.44,0,0,1,2.21,2.26c1.1,1.37,3.25,4.84.26,5.37-3.85.68-8.91.41-12.13-2.07a11.47,11.47,0,0,1-2.15-2.95Z"/><path class="cls-1" d="M429.73,385.64c-12.9-5.68-25.93-11-39.83-13.81l-11.23,30.6q18.25,6.61,36.51,13.24c2.32.85,3.75.83,4.71-2.13,2.47-7.58,5.4-15,8.14-22.5Q428.89,388.34,429.73,385.64Z"/><path class="cls-4" d="M74.22,246c6.46,0,12.92-.08,19.37,0,2.88,0,5.16-.73,5.22-3.87s-2.15-4.12-5-4.25q-19.14-.92-38.26-2c-3-.17-6.13,0-6.42,3.69-.32,4.23,3.09,4.32,6.21,4.47,6.29.3,12.58.7,18.87,1.06Z"/><path class="cls-4" d="M78.18,158.56a4.83,4.83,0,0,0,2.36,3.65q16,11.83,32.05,23.62c2.27,1.67,4.69,2.07,6.56-.48s.43-4.36-1.64-5.89q-16.2-12-32.43-24a4,4,0,0,0-4.63-.55A4.24,4.24,0,0,0,78.18,158.56Z"/><path class="cls-4" d="M93.08,267.9c-7.75,1.72-15.68,3.46-23.6,5.25-5.17,1.17-10.33,2.42-15.49,3.64-2.57.6-4.4,2-3.81,4.85.65,3.09,3.11,3.68,5.84,3.06,12.6-2.88,25.19-5.84,37.79-8.73,2.64-.6,4.3-2,3.77-4.83C97.17,269,95.65,267.72,93.08,267.9Z"/><path class="cls-4" d="M100.65,215c2.51.15,4-.69,4.5-2.79.66-2.86-1-4.35-3.43-5.21q-13.32-4.78-26.66-9.49c-3.43-1.22-6.85-2.49-10.31-3.62-2.35-.77-4.35-.15-5.38,2.22s.1,4.33,2.38,5.17c12.59,4.59,25.22,9.06,37.84,13.56A3.83,3.83,0,0,0,100.65,215Z"/><path class="cls-4" d="M133.85,163.4a4.14,4.14,0,0,0,3.64-2.22c1-1.93.16-3.52-1-5q-9-11.58-18.07-23.17c-1.94-2.49-3.8-5-5.79-7.48-1.68-2.09-3.79-2.76-6.09-1s-1.91,4-.29,6.08q11.9,15.34,23.85,30.65A5,5,0,0,0,133.85,163.4Z"/><path class="cls-5" d="M144.7,362.64c1.9,1.41,3.51,0,5.13-.62a444.33,444.33,0,0,1,88.3-24.56C270.08,332,302.27,331,334.54,332c14.4.47,28.75,2.47,43.13,3.77,2.89-.28,3.69-2.58,4.46-4.77q10-28.44,20.3-56.81c.88-2.43,1.33-4.82-.37-7.1-39.36-23.81-74.66-52.53-105.22-87a419.13,419.13,0,0,1-57.45-82.27c-5.82,13.22-10.07,27-14.93,40.6Q185.11,248.39,146,358.35C145.49,359.75,145.13,361.21,144.7,362.64Z"/><path class="cls-1" d="M402.06,267.12,377.67,335.8l.3,1.11c25.69,9.17,51.51,18,77,27.68,9.48,3.6,17.66,3.66,25.62-2.76,5.11-14.36,10.31-28.68,15.29-43.08,3.41-9.85-.79-18.4-10.55-21.89Q443.71,282,402.06,267.12Z"/><path class="cls-7" d="M135.84,387.72C122.78,387.63,115,382,112.57,371c-.84-3.8.08-7.34,1.29-10.75q27.46-77.42,55.08-154.78,22.89-64.2,45.78-128.41A17.5,17.5,0,0,1,219,69.83h-3c-8.25,3.64-12.43,10.2-15.34,18.64-11,31.94-22.58,63.67-33.94,95.49-.33.92-.56,1.88-.84,2.82-2.53,1.3-3.81,3.52-4.75,6.11-6.21,17.19-12.24,34.43-18.41,51.63-2.47,6.88-5,13.73-7.35,20.66A11.79,11.79,0,0,0,135,272q-9.66,27.54-19.32,55.08c-5.54,15.71-11.17,31.39-16.68,47.11-4.19,12-.8,21.9,9,26.7s19.37,1.67,26.47-8.64a6.69,6.69,0,0,1,.69-.72C135.63,390.3,137.61,389.39,135.84,387.72Z"/><path class="cls-7" d="M378.05,337.8c-3.7,8.43-6.56,17.17-9.4,25.91,5.43,3,11.6,4.17,17.25,6.65,1.45.64,3.24.66,4.08,2.36.63,1.57,2,2.07,3.46,2.59,10.31,3.79,20.62,7.56,31,11a7.23,7.23,0,0,0,5.33.18c7.22,1.25,13.77,4.54,20.65,6.82,11,3.65,19.42-.19,23.38-11,2.38-6.51,4.58-13.08,6.85-19.62-2-1.58-3.76-.53-5.5.53-4.9,3-9.83,3.08-15.27,1.13-23.81-8.57-47.7-16.89-71.51-25.47C385.15,337.74,381.81,335.19,378.05,337.8Z"/><polygon class="cls-6" points="333.88 418.83 361.88 429.83 333.88 417.83 333.88 418.83"/><polygon class="cls-6" points="322.88 448.96 350.88 459.96 322.88 447.96 322.88 448.96"/><polygon class="cls-6" points="326.88 482.96 354.88 493.96 326.88 481.96 326.88 482.96"/></g></svg>