<svg xmlns="http://www.w3.org/2000/svg" viewBox="0 0 650 650"><defs><style>.cls-1,.cls-3{fill:#987554;}.cls-1{opacity:0.17;}.cls-2{fill:tan;}.cls-4{fill:#e5d3b3;}.cls-5{fill:#664229;}.cls-6{fill:#d29f80;}.cls-7{fill:#bf8163;}.cls-8{fill:#eeb08c;}.cls-9{fill:#88180e;}.cls-10{fill:#b87f5e;}.cls-11{fill:#aacb9a;}</style></defs><title>iconos</title><g id="donar"><path class="cls-1" d="M461.08,47.27c17.35.38,34.7,1.11,52,1.76,13.84.51,28.19,1.11,40.53,7.46,11.47,5.9,20.13,16.36,26.14,27.84,10,19,17.42,43,20.42,64.26,2.84,20.07,1.92,40.43-.06,60.53C595.08,260.37,585,312.44,551,352.79c-1.65,1.95-3.4,4-3.8,6.54-.49,3.14,1.22,6.15,2.86,8.86,8.27,13.64,18.34,27.2,23.13,42.63,5,16.14,6.28,32.63,16.2,46.85,13.13,18.81,12,48.84,10.24,70.67a207.43,207.43,0,0,1-9.12,46.89c-3.32,10.37-8.14,30.92-18.93,35.86-4.45,2-9.47,2.35-14.36,2.62l-77.53,4.38c-21.14,1.2-46.25,9.4-65.68-2.25-7.35-4.41-13.68-10.34-20.61-15.4-26.18-19.11-59.51-21.76-90.61-16.74-29.72,4.8-59.25,10.77-89.09,14.78-32.89,4.41-71.45,1.83-94.83-24.84-24.71-28.19-34-76-39.94-112A248.38,248.38,0,0,0,67,415.82c-3.18-8.54-7.81-16.69-11-25.11-8.75-23.29-4.61-49.7-5.14-74-.6-27.35-3.34-51.06,9.15-76.81,18.1-37.27,46.55-72,88.77-79.36,25-4.37,51.39-2.21,74.93-11.72,39-15.77,55.37-57.67,89.29-80,27.54-18.17,62.49-19.72,94.45-21.15C425.36,46.85,443.22,46.88,461.08,47.27Z"/><rect class="cls-2" x="138.73" y="372.68" width="375.39" height="189.04"/><rect class="cls-3" x="138.73" y="352.42" width="375.39" height="20.25"/><rect class="cls-2" x="127.93" y="326.77" width="396.99" height="25.66"/><polygon class="cls-4" points="127.93 326.77 213 237.65 446.61 237.65 524.92 326.77 127.93 326.77"/><polygon class="cls-2" points="268.36 286.26 275.12 278.15 385.84 278.15 392.59 286.26 268.36 286.26"/><polyline class="cls-5" points="260.26 286.26 268.36 286.26 275.12 278.15 385.84 278.15 381.79 272.75 272.42 272.75 260.26 286.26"/><polygon class="cls-6" points="383.14 94.51 338.58 136.37 329.13 157.98 330.48 166.08 343.98 170.13 368.29 159.33 385.84 129.62 393.94 102.61 391.24 94.51 383.14 94.51"/><path class="cls-7" d="M426.37,137.72c.3.5-17.3,14.4-18.46,15.37L383.5,173.43l-22,18.3,6.75,31.06c-.1-.64,10.28-3.87,11.11-4.16,4.72-1.67,11.33-2.78,14.79-6.63,3.75-4.17,3.6-11.63,4.48-16.89.25-1.44,8.46-3.07,9.86-3.73,5.9-2.79,11.14-8.16,12.64-14.64a35.37,35.37,0,0,0,.38-10c0-1,5.42-2,6.14-2.26,3.22-1.16,5.47-3.73,7.85-6.23,2.89-3.05-2.05-9.18-3.77-11.71C429.83,143.71,428.1,140.71,426.37,137.72Z"/><path class="cls-8" d="M303.47,141.77c-2.91,4.19-5.13,7.9-6.75,10.81-1.46,2.61-2.77,5.34-5.4,10.8-3.51,7.29-3.83,8.39-4.05,9.45-.84,3.9-.46,7,0,10.8.58,4.79.87,7.18,2.7,9.46a12,12,0,0,0,6.75,4c5.56,1.09,10.14-2.49,12.15-4,4-3.13,5.19-6.16,8.1-10.81,5.2-8.28,9.82-8.56,12.16-14.85a22.27,22.27,0,0,0,1.35-6.75l12.15-12.16"/><path class="cls-9" d="M312,192.21a33.25,33.25,0,0,0-47.55,39.3c7.37,23.21,36.6,35.76,58.46,40.39a190.56,190.56,0,0,0,45.71,3.83Z"/><path class="cls-9" d="M312.19,192.05a33.26,33.26,0,0,1,54.2-29.47c18.79,15.5,19.54,47.3,15.68,69.31a190.82,190.82,0,0,1-13.49,43.84Z"/><rect class="cls-9" x="335.14" y="183.76" width="7.8" height="96.13" transform="translate(-71.68 229.6) rotate(-34.05)"/><path class="cls-10" d="M367.06,139c1,1.32,2.34,3,2.57,2.71A6.52,6.52,0,0,0,371,137.9v-1.14a1.24,1.24,0,0,0-.09-.57,1.44,1.44,0,0,0-.32-.38c-1-.9-2-1.82-2.93-2.77l-3.54-3.54-6.83-6.84L355,120.38c-.77-.76-1.66-1.8-2.88-1.54a26.61,26.61,0,0,0,2.5,4.17Q360.95,130.93,367.06,139Z"/><path class="cls-8" d="M333.43,204.42a27.36,27.36,0,0,1-7.58-3.34c-2.3-1.45-4.27-3.78-4.4-6.49a12.1,12.1,0,0,1,.92-4.46l1.8-5.21a8.85,8.85,0,0,1,1.17-2.51,9,9,0,0,1,1.7-1.56,447,447,0,0,0,35.19-30.48c2.82-2.67,6.14-5.2,8-8.7,2.4-4.62,2.62-10.12,3.78-15.13a72.68,72.68,0,0,1,6-17.44c1.42-2.73,3.68-5.65,4.16-8.66-2.28,1.1-4.39,3.24-6.42,4.87-5.81,4.64-10,13.44-14.19,19.49-6.5,9.4-14.26,17.06-22.28,25.08l-38.48-7.43c1.06.2,10.65-15.22,11.67-16.71,4.85-7,9.5-14.19,14.75-20.93,10.16-13,24.7-22.87,39.45-30a253.13,253.13,0,0,1,30-11.9c7.77-2.62,16.22-3.56,23.47-7.59,1.35-.75,14.19-8.93,14.35-8.7l35.11,51.31c-12.27,8.17-22.22,16-25.54,31.28-1.42,6.56-4.39,10.61-8.22,16-2.38,3.32-7,6.23-10.14,8.77q-7.45,6-15.19,11.66C393.93,179.12,374,190,353.68,200.66a45.67,45.67,0,0,1-8.94,3.89A21.59,21.59,0,0,1,333.43,204.42Z"/><path class="cls-11" d="M450.76,27.27l-19,11.88L476.31,104l55-29.21A323.52,323.52,0,0,0,450.76,27.27Z"/></g></svg>