<svg xmlns="http://www.w3.org/2000/svg" viewBox="0 0 650 650"><defs><style>.cls-1{fill:#466e35;}</style></defs><title>iconos</title><g id="facebook"><path class="cls-1" d="M308.17,10.5h37.75c11.32,3.06,23,1.43,34.5,2.37,18.07,1.47,35.49,4.87,52.27,11.49C533,64,602.16,133.34,634.7,237.78c5.54,17.78,4.51,36.29,7.8,54.28v75.8c-2.79,28.61-6.4,56.78-17.9,83.8-40.05,94.15-109,156-205.2,188-12.4,4.12-25.65,4-38.52,5.71-7.83,1.07-11.71-2.87-12.74-10.37a100,100,0,0,1-.61-13.51q0-90,0-180c0-24.15,3.28-27.34,27.15-27.52,12.13-.09,24.26-.17,36.39,0,7.53.11,11.71-2.81,12.94-10.49,3.06-19.13,6.12-38.26,8.72-57.47,1.25-9.2-4.35-10.55-11.46-10.59-16.62-.07-33.25.14-49.87-.09-19.81-.28-23.55-4-23.84-23.89-.19-13.08-.42-26.17.11-39.24,1.42-35.59,19.42-54.56,54.78-58.06,6.72-.67,13.46-.44,20.2-.55,15.75-.25,16.36-.84,16.49-17.2.08-11.73.11-23.46-.06-35.19-.09-5.67-.7-11.23-7.8-12.22-33-4.61-66-8.39-98.67,2-34.27,10.93-54.28,35.13-63.52,69.41-7.05,26.15-5.05,52.82-5.19,79.37-.2,35-.61,35.58-35.32,35.61-11.24,0-22.47.18-33.7,0-8.68-.15-12,3.8-11.93,12.3q.25,27.06,0,54.13c-.08,8.59,3.53,12.25,12.09,12.17,15.27-.13,30.55-.24,45.82.07,18.28.37,22.77,4.41,22.86,22.22q.43,95.41,0,190.83c-.09,17.5-2.88,19.36-20.06,17.43-58.56-6.59-107.17-34.66-150.89-72-44.88-38.35-74.21-87.56-94-142.86-8.19-22.84-10-46.68-10.6-70.5-1.39-52.3-2.58-104.57,19.91-154C70.81,111.19,140,47.61,239,17.82c16.89-5.08,34.54-4.85,52-6C296.72,11.43,302.63,13.33,308.17,10.5Z"/></g></svg>