<svg id="Layer_1" data-name="Layer 1" xmlns="http://www.w3.org/2000/svg" viewBox="0 0 1920 1080"><defs><style>.cls-1{opacity:0.17;}.cls-2{fill:#987554;}</style></defs><title>fondos</title><g class="cls-1"><path class="cls-2" d="M6,712.33a9.91,9.91,0,0,1-4.83,4.48c-3.67,1.54-6.78-.44-7-4.42a10.62,10.62,0,0,1,6.92-9.82,4.56,4.56,0,0,1,6.22,4.13A9.7,9.7,0,0,1,6,712.33Z"/><path class="cls-2" d="M11.87,725.54c-2,3.33-4.71,5.62-8.8,5.67a4.34,4.34,0,0,1-4.56-5c.3-4.41,5.25-8.81,9.68-8.58a4.47,4.47,0,0,1,4.46,5.49A8.58,8.58,0,0,1,11.87,725.54Z"/></g><g class="cls-1"><path class="cls-2" d="M47.74,763.75a9.88,9.88,0,0,1-4.31,5c-3.49,1.93-6.8.3-7.43-3.63a10.6,10.6,0,0,1,5.82-10.51A4.55,4.55,0,0,1,48.45,758,9.75,9.75,0,0,1,47.74,763.75Z"/><path class="cls-2" d="M34.29,759.34a9,9,0,0,1-3.85,4.84,4.38,4.38,0,0,1-6.17-1.6,9.13,9.13,0,0,1-.73-7.5,9.64,9.64,0,0,1,3.05-4.94c2.77-2.36,6.21-1.58,7.67,1.75A10,10,0,0,1,34.29,759.34Z"/><path class="cls-2" d="M20.13,766.71c-.74,1.82-1.6,3.25-3.23,4a4,4,0,0,1-4.63-.6c-2.31-2-3-4.67-2.94-7.58a8.87,8.87,0,0,1,1.75-5.31c2.11-2.83,5.61-2.87,7.7,0A10.14,10.14,0,0,1,20.13,766.71Z"/><path class="cls-2" d="M55,776.25c-1.63,3.52-4.07,6.1-8.13,6.59a4.33,4.33,0,0,1-5.08-4.44c-.18-4.42,4.27-9.33,8.69-9.58a4.47,4.47,0,0,1,5,5A8.45,8.45,0,0,1,55,776.25Z"/><path class="cls-2" d="M41.5,789.51a11.58,11.58,0,0,0-.63-2.66,38.43,38.43,0,0,1-2.1-8.2,11.07,11.07,0,0,0-1.52-4.46,10.11,10.11,0,0,0-5-3.88c-4.83-1.86-8.53-1.44-11.79,1.5a31.23,31.23,0,0,1-6.14,4.24,18,18,0,0,0-3.15,2.13,5.24,5.24,0,0,0-1.41,6.33,8.53,8.53,0,0,0,6.12,4.87,17.44,17.44,0,0,0,4.08.21,10.58,10.58,0,0,1,7.31,2.72c.58.53,1.19,1,1.79,1.55a8.82,8.82,0,0,0,8.27,1.92A5.37,5.37,0,0,0,41.5,789.51Zm-10.68-5.46a19.14,19.14,0,0,1-4.76,1.8.6.6,0,0,1-.77-.28,18.52,18.52,0,0,1-2.55-5.06,4.9,4.9,0,0,1,0-3.28,3,3,0,0,1,2.72-2,3,3,0,0,1,3,1.78c.21.41.37.43.76.28a3.15,3.15,0,0,1,3.69.92,3.41,3.41,0,0,1,0,4A6.27,6.27,0,0,1,30.82,784.05Z"/><ellipse class="cls-2" cx="27.93" cy="781" rx="5.89" ry="7.94" transform="translate(-634.71 366.68) rotate(-55.94)"/></g><g class="cls-1"><path class="cls-2" d="M61.35,694.6a9.88,9.88,0,0,1-4.27,5c-3.47,2-6.79.36-7.45-3.57a10.59,10.59,0,0,1,5.72-10.56A4.55,4.55,0,0,1,62,688.85,9.72,9.72,0,0,1,61.35,694.6Z"/><path class="cls-2" d="M47.87,690.29a9,9,0,0,1-3.81,4.88,4.39,4.39,0,0,1-6.19-1.55,9.13,9.13,0,0,1-.79-7.5,9.77,9.77,0,0,1,3-5c2.75-2.37,6.19-1.63,7.68,1.7A10,10,0,0,1,47.87,690.29Z"/><path class="cls-2" d="M33.77,697.79c-.73,1.82-1.58,3.25-3.2,4a4.06,4.06,0,0,1-4.64-.56c-2.32-2-3-4.64-3-7.56a8.9,8.9,0,0,1,1.7-5.32c2.09-2.85,5.6-2.91,7.7-.07A10.13,10.13,0,0,1,33.77,697.79Z"/><path class="cls-2" d="M68.69,707c-1.6,3.53-4,6.12-8.07,6.65a4.32,4.32,0,0,1-5.11-4.39c-.22-4.42,4.19-9.37,8.61-9.66a4.46,4.46,0,0,1,5.07,4.92A8.55,8.55,0,0,1,68.69,707Z"/><path class="cls-2" d="M55.33,720.4a12.08,12.08,0,0,0-.65-2.65,37.82,37.82,0,0,1-2.17-8.18A11.19,11.19,0,0,0,51,705.12a10.14,10.14,0,0,0-5.05-3.84c-4.85-1.82-8.55-1.37-11.78,1.6a31.2,31.2,0,0,1-6.1,4.29,17.26,17.26,0,0,0-3.13,2.16,5.22,5.22,0,0,0-1.37,6.34,8.56,8.56,0,0,0,6.17,4.82,17.4,17.4,0,0,0,4.08.17,10.61,10.61,0,0,1,7.33,2.66c.59.53,1.2,1,1.81,1.53a8.78,8.78,0,0,0,8.28,1.86A5.38,5.38,0,0,0,55.33,720.4ZM44.6,715a19.64,19.64,0,0,1-4.74,1.83.62.62,0,0,1-.78-.27,18.35,18.35,0,0,1-2.58-5,4.85,4.85,0,0,1,0-3.28,3.06,3.06,0,0,1,2.71-2,3,3,0,0,1,3,1.77c.21.4.38.42.76.27a3.16,3.16,0,0,1,3.71.89,3.39,3.39,0,0,1,.06,4A6.28,6.28,0,0,1,44.6,715Z"/><ellipse class="cls-2" cx="41.68" cy="712.01" rx="5.89" ry="7.94" transform="translate(-574.52 352.85) rotate(-56.41)"/></g><g class="cls-1"><path class="cls-2" d="M24,647.24a9.88,9.88,0,0,1-4.7,4.61c-3.64,1.64-6.8-.26-7.1-4.23a10.6,10.6,0,0,1,6.65-10,4.55,4.55,0,0,1,6.33,4A9.69,9.69,0,0,1,24,647.24Z"/><path class="cls-2" d="M11,641.74a9,9,0,0,1-4.23,4.51,4.39,4.39,0,0,1-6-2.1,9.18,9.18,0,0,1-.12-7.54A9.82,9.82,0,0,1,4,631.93c3-2.12,6.32-1.06,7.5,2.38A10,10,0,0,1,11,641.74Z"/><path class="cls-2" d="M30.19,660.29c-1.92,3.38-4.56,5.74-8.64,5.9a4.33,4.33,0,0,1-4.7-4.84c.18-4.42,5-8.94,9.45-8.84a4.47,4.47,0,0,1,4.61,5.37A8.58,8.58,0,0,1,30.19,660.29Z"/><path class="cls-2" d="M15.67,672.39a12.24,12.24,0,0,0-.41-2.69,38.11,38.11,0,0,1-1.42-8.34,11,11,0,0,0-1.15-4.58A10.18,10.18,0,0,0,8,652.5c-4.66-2.25-8.39-2.14-11.88.53a31.42,31.42,0,0,1-6.46,3.72,17.24,17.24,0,0,0-3.32,1.87,5.22,5.22,0,0,0-1.93,6.18,8.55,8.55,0,0,0,5.71,5.36,17.25,17.25,0,0,0,4,.54A10.54,10.54,0,0,1,1.23,674c.54.57,1.11,1.13,1.67,1.69a8.81,8.81,0,0,0,8.07,2.6A5.39,5.39,0,0,0,15.67,672.39ZM5.48,666.08a19.47,19.47,0,0,1-4.9,1.4.6.6,0,0,1-.74-.34,18.46,18.46,0,0,1-2.13-5.25A4.83,4.83,0,0,1-2,658.63,3,3,0,0,1,.9,656.88a3,3,0,0,1,2.86,2c.17.42.33.45.73.34a3.16,3.16,0,0,1,3.61,1.22,3.4,3.4,0,0,1-.3,4A6.25,6.25,0,0,1,5.48,666.08Z"/><ellipse class="cls-2" cx="2.84" cy="662.81" rx="5.89" ry="7.94" transform="translate(-515.65 249.9) rotate(-51.22)"/></g><g class="cls-1"><path class="cls-2" d="M81.52,632.43a9.87,9.87,0,0,1-4.68,4.63c-3.63,1.66-6.8-.23-7.12-4.2a10.6,10.6,0,0,1,6.61-10,4.55,4.55,0,0,1,6.34,3.93A9.68,9.68,0,0,1,81.52,632.43Z"/><path class="cls-2" d="M68.46,627a9,9,0,0,1-4.21,4.53,4.4,4.4,0,0,1-6-2.07,9.18,9.18,0,0,1-.15-7.54,9.74,9.74,0,0,1,3.43-4.69c2.95-2.14,6.31-1.1,7.51,2.34A10,10,0,0,1,68.46,627Z"/><path class="cls-2" d="M53.77,633.24c-.88,1.76-1.85,3.12-3.53,3.74a4,4,0,0,1-4.57-1c-2.14-2.17-2.62-4.88-2.35-7.78a8.92,8.92,0,0,1,2.15-5.16c2.33-2.66,5.83-2.42,7.68.59A10.14,10.14,0,0,1,53.77,633.24Z"/><path class="cls-2" d="M87.77,645.45c-1.89,3.38-4.52,5.76-8.61,5.94a4.33,4.33,0,0,1-4.72-4.82c.16-4.42,5-9,9.41-8.89A4.46,4.46,0,0,1,88.48,643,8.4,8.4,0,0,1,87.77,645.45Z"/><path class="cls-2" d="M73.32,657.62a12.18,12.18,0,0,0-.43-2.69,38.67,38.67,0,0,1-1.46-8.34A11,11,0,0,0,70.26,642a10.18,10.18,0,0,0-4.7-4.27c-4.68-2.22-8.4-2.09-11.88.59a31.21,31.21,0,0,1-6.44,3.75A17.8,17.8,0,0,0,43.93,644a5.21,5.21,0,0,0-1.9,6.19,8.57,8.57,0,0,0,5.73,5.34,17.91,17.91,0,0,0,4.05.52,10.58,10.58,0,0,1,7.08,3.27c.54.58,1.11,1.13,1.67,1.69a8.82,8.82,0,0,0,8.09,2.56A5.39,5.39,0,0,0,73.32,657.62Zm-10.23-6.26a19.32,19.32,0,0,1-4.89,1.42.6.6,0,0,1-.74-.34,18.1,18.1,0,0,1-2.15-5.23,4.93,4.93,0,0,1,.28-3.27,3.05,3.05,0,0,1,2.87-1.76,3,3,0,0,1,2.88,2c.17.43.33.46.73.34a3.15,3.15,0,0,1,3.61,1.2,3.39,3.39,0,0,1-.27,4A6.22,6.22,0,0,1,63.09,651.36Z"/><ellipse class="cls-2" cx="60.44" cy="648.1" rx="5.89" ry="7.94" transform="translate(-484.42 291.99) rotate(-51.5)"/></g><g class="cls-1"><path class="cls-2" d="M45.77,588.18a9.9,9.9,0,0,1-4.87,4.44c-3.69,1.5-6.78-.51-6.94-4.49a10.58,10.58,0,0,1,7-9.75,4.55,4.55,0,0,1,6.18,4.18A9.84,9.84,0,0,1,45.77,588.18Z"/><path class="cls-2" d="M32.93,582.21a9,9,0,0,1-4.39,4.36,4.39,4.39,0,0,1-5.94-2.31,9.18,9.18,0,0,1,.15-7.54,9.74,9.74,0,0,1,3.62-4.55c3-2,6.35-.84,7.41,2.64A10,10,0,0,1,32.93,582.21Z"/><path class="cls-2" d="M18,587.87c-1,1.72-2,3-3.69,3.59a4,4,0,0,1-4.52-1.14c-2.06-2.25-2.42-5-2-7.87a8.83,8.83,0,0,1,2.36-5.06c2.43-2.57,5.91-2.19,7.64.89A10.14,10.14,0,0,1,18,587.87Z"/><path class="cls-2" d="M51.49,601.44c-2,3.31-4.76,5.57-8.84,5.59a4.34,4.34,0,0,1-4.53-5c.34-4.41,5.34-8.76,9.76-8.5a4.48,4.48,0,0,1,4.42,5.53A8.55,8.55,0,0,1,51.49,601.44Z"/><path class="cls-2" d="M36.55,613a12.31,12.31,0,0,0-.31-2.71,37.65,37.65,0,0,1-1.12-8.39,11.18,11.18,0,0,0-1-4.61,10.24,10.24,0,0,0-4.53-4.45c-4.58-2.41-8.3-2.43-11.89.11a31.28,31.28,0,0,1-6.59,3.49,17.47,17.47,0,0,0-3.38,1.75,5.22,5.22,0,0,0-2.15,6.11,8.54,8.54,0,0,0,5.51,5.56,17.27,17.27,0,0,0,4,.69,10.59,10.59,0,0,1,6.94,3.56c.51.59,1.06,1.17,1.6,1.75a8.82,8.82,0,0,0,8,2.88A5.38,5.38,0,0,0,36.55,613Zm-10-6.67a19.19,19.19,0,0,1-4.95,1.22.6.6,0,0,1-.73-.37A18.7,18.7,0,0,1,19,601.89a4.87,4.87,0,0,1,.42-3.26A3,3,0,0,1,22.34,597a3,3,0,0,1,2.78,2.13c.16.43.32.47.72.37a3.15,3.15,0,0,1,3.56,1.34,3.39,3.39,0,0,1-.43,3.95A6.34,6.34,0,0,1,26.59,606.35Z"/><ellipse class="cls-2" cx="24.07" cy="602.98" rx="5.89" ry="7.94" transform="translate(-448.05 227.12) rotate(-49.19)"/></g><g class="cls-1"><path class="cls-2" d="M106.46,572.25a9.88,9.88,0,0,1-3.76,5.41c-3.26,2.29-6.72,1-7.77-2.82a10.59,10.59,0,0,1,4.67-11.07,4.54,4.54,0,0,1,7,2.7A9.75,9.75,0,0,1,106.46,572.25Z"/><path class="cls-2" d="M92.62,569.29a9.06,9.06,0,0,1-3.31,5.23,4.41,4.41,0,0,1-6.32-.94,9.15,9.15,0,0,1-1.52-7.38A9.72,9.72,0,0,1,84,561c2.51-2.64,6-2.23,7.81.93A10,10,0,0,1,92.62,569.29Z"/><path class="cls-2" d="M79.32,578.13c-.55,1.88-1.25,3.39-2.79,4.31a4,4,0,0,1-4.67-.1c-2.5-1.74-3.46-4.32-3.73-7.22a9,9,0,0,1,1.18-5.47c1.8-3,5.28-3.45,7.65-.82A10.12,10.12,0,0,1,79.32,578.13Z"/><path class="cls-2" d="M115,583.91c-1.24,3.68-3.4,6.49-7.38,7.42a4.33,4.33,0,0,1-5.52-3.88c-.65-4.37,3.25-9.73,7.63-10.45a4.46,4.46,0,0,1,5.53,4.4A8.51,8.51,0,0,1,115,583.91Z"/><path class="cls-2" d="M103,598.52a12.28,12.28,0,0,0-.91-2.57,38,38,0,0,1-3-7.93,11,11,0,0,0-2-4.27,10.09,10.09,0,0,0-5.41-3.33c-5-1.34-8.63-.53-11.56,2.75A31.55,31.55,0,0,1,74.52,588a17.08,17.08,0,0,0-2.91,2.46,5.22,5.22,0,0,0-.74,6.43,8.56,8.56,0,0,0,6.61,4.2,16.9,16.9,0,0,0,4.08-.23,10.57,10.57,0,0,1,7.55,1.93c.64.47,1.3.91,2,1.35a8.81,8.81,0,0,0,8.42,1A5.38,5.38,0,0,0,103,598.52Zm-11.2-4.29a19.39,19.39,0,0,1-4.54,2.3.62.62,0,0,1-.8-.2,18.55,18.55,0,0,1-3.07-4.76,4.86,4.86,0,0,1-.31-3.26,3,3,0,0,1,2.5-2.26,3,3,0,0,1,3.19,1.46c.25.38.41.38.78.2a3.15,3.15,0,0,1,3.77.52,3.39,3.39,0,0,1,.46,3.94A6.19,6.19,0,0,1,91.79,594.23Z"/><ellipse class="cls-2" cx="88.59" cy="591.51" rx="5.89" ry="7.94" transform="translate(-475.38 392.34) rotate(-62.03)"/></g><g class="cls-1"><path class="cls-2" d="M74.41,524.15a9.79,9.79,0,0,1-4.32,5c-3.49,1.92-6.79.28-7.41-3.65A10.6,10.6,0,0,1,68.52,515a4.55,4.55,0,0,1,6.62,3.45A9.67,9.67,0,0,1,74.41,524.15Z"/><path class="cls-2" d="M61,519.7a9,9,0,0,1-3.86,4.84A4.39,4.39,0,0,1,51,522.92a9.09,9.09,0,0,1-.71-7.5,9.72,9.72,0,0,1,3.06-4.94c2.78-2.35,6.21-1.56,7.67,1.78A10,10,0,0,1,61,519.7Z"/><path class="cls-2" d="M46.8,527c-.75,1.81-1.61,3.24-3.24,4a4,4,0,0,1-4.63-.62c-2.3-2-3-4.67-2.92-7.58a8.83,8.83,0,0,1,1.76-5.3c2.12-2.83,5.62-2.86,7.7,0A10.15,10.15,0,0,1,46.8,527Z"/><path class="cls-2" d="M81.62,536.67c-1.64,3.52-4.09,6.09-8.14,6.57a4.33,4.33,0,0,1-5.07-4.45c-.17-4.42,4.29-9.32,8.72-9.57a4.47,4.47,0,0,1,5,5A8.4,8.4,0,0,1,81.62,536.67Z"/><path class="cls-2" d="M68.11,549.89a11.89,11.89,0,0,0-.62-2.65A38,38,0,0,1,65.41,539a11,11,0,0,0-1.51-4.46,10.08,10.08,0,0,0-5-3.9c-4.82-1.88-8.53-1.46-11.8,1.47A31.14,31.14,0,0,1,41,536.36a17.17,17.17,0,0,0-3.16,2.13,5.21,5.21,0,0,0-1.43,6.32,8.56,8.56,0,0,0,6.11,4.89,17.41,17.41,0,0,0,4.08.21,10.58,10.58,0,0,1,7.3,2.75c.58.53,1.19,1,1.79,1.55a8.81,8.81,0,0,0,8.26,1.95A5.39,5.39,0,0,0,68.11,549.89Zm-10.66-5.48a19.31,19.31,0,0,1-4.77,1.78.6.6,0,0,1-.77-.28,18.18,18.18,0,0,1-2.53-5.06,4.78,4.78,0,0,1,0-3.28,3,3,0,0,1,2.73-2,3,3,0,0,1,3,1.79c.21.41.37.43.76.29a3.15,3.15,0,0,1,3.69.92,3.41,3.41,0,0,1,0,4A6.32,6.32,0,0,1,57.45,544.41Z"/><ellipse class="cls-2" cx="54.56" cy="541.35" rx="5.89" ry="7.94" transform="translate(-423.77 282.05) rotate(-55.78)"/></g><g class="cls-1"><path class="cls-2" d="M133.29,509a9.89,9.89,0,0,1-3.94,5.28c-3.34,2.17-6.75.78-7.67-3.09a10.62,10.62,0,0,1,5-10.91,4.55,4.55,0,0,1,6.86,2.94A9.64,9.64,0,0,1,133.29,509Z"/><path class="cls-2" d="M119.56,505.59a9,9,0,0,1-3.49,5.12,4.39,4.39,0,0,1-6.27-1.16,9.13,9.13,0,0,1-1.27-7.43,9.65,9.65,0,0,1,2.69-5.15c2.59-2.55,6.07-2,7.77,1.2A10,10,0,0,1,119.56,505.59Z"/><path class="cls-2" d="M106,514c-.61,1.86-1.37,3.35-2.94,4.22a4,4,0,0,1-4.66-.27c-2.44-1.82-3.31-4.43-3.48-7.34a8.86,8.86,0,0,1,1.36-5.42c1.91-3,5.4-3.27,7.68-.56A10.13,10.13,0,0,1,106,514Z"/><path class="cls-2" d="M141.41,521c-1.37,3.62-3.62,6.37-7.63,7.15a4.33,4.33,0,0,1-5.38-4.06c-.5-4.39,3.58-9.61,8-10.19a4.47,4.47,0,0,1,5.38,4.6A8.24,8.24,0,0,1,141.41,521Z"/><path class="cls-2" d="M128.93,535.16a12.47,12.47,0,0,0-.82-2.6,38.21,38.21,0,0,1-2.69-8,11,11,0,0,0-1.83-4.34,10.26,10.26,0,0,0-5.29-3.52c-5-1.5-8.62-.81-11.66,2.36a31.43,31.43,0,0,1-5.81,4.66,17.45,17.45,0,0,0-3,2.36,5.23,5.23,0,0,0-1,6.41,8.56,8.56,0,0,0,6.46,4.42,17.49,17.49,0,0,0,4.09-.09,10.53,10.53,0,0,1,7.48,2.19c.62.48,1.27,1,1.91,1.41a8.81,8.81,0,0,0,8.38,1.33A5.39,5.39,0,0,0,128.93,535.16Zm-11.05-4.66a19.38,19.38,0,0,1-4.62,2.13.61.61,0,0,1-.79-.22,18.58,18.58,0,0,1-2.9-4.86,4.93,4.93,0,0,1-.21-3.28,3.07,3.07,0,0,1,2.58-2.17,3,3,0,0,1,3.14,1.57c.24.39.4.4.78.23a3.16,3.16,0,0,1,3.75.64,3.41,3.41,0,0,1,.32,4A6.22,6.22,0,0,1,117.88,530.5Z"/><ellipse class="cls-2" cx="114.77" cy="527.66" rx="5.89" ry="7.94" transform="translate(-399.78 363.85) rotate(-60.07)"/></g><g class="cls-1"><path class="cls-2" d="M99.2,460a9.91,9.91,0,0,1-4.5,4.81c-3.56,1.79-6.8,0-7.28-3.92a10.58,10.58,0,0,1,6.22-10.28,4.55,4.55,0,0,1,6.49,3.68A9.77,9.77,0,0,1,99.2,460Z"/><path class="cls-2" d="M85.93,455.06a9,9,0,0,1-4,4.7,4.4,4.4,0,0,1-6.11-1.84,9.13,9.13,0,0,1-.44-7.53,9.72,9.72,0,0,1,3.24-4.82c2.87-2.25,6.27-1.34,7.6,2.05A10,10,0,0,1,85.93,455.06Z"/><path class="cls-2" d="M71.5,461.88c-.82,1.79-1.73,3.18-3.39,3.87A4,4,0,0,1,63.5,465c-2.22-2.08-2.8-4.78-2.64-7.68a9,9,0,0,1,2-5.24c2.23-2.75,5.73-2.65,7.7.29A10.17,10.17,0,0,1,71.5,461.88Z"/><path class="cls-2" d="M106,472.77c-1.77,3.45-4.31,5.93-8.38,6.27a4.33,4.33,0,0,1-4.9-4.63c0-4.43,4.62-9.16,9-9.25a4.46,4.46,0,0,1,4.84,5.16A8.72,8.72,0,0,1,106,472.77Z"/><path class="cls-2" d="M92,485.49a12.24,12.24,0,0,0-.53-2.68,38.23,38.23,0,0,1-1.78-8.27A11,11,0,0,0,88.31,470,10.11,10.11,0,0,0,83.45,466c-4.76-2.05-8.47-1.77-11.85,1a31.31,31.31,0,0,1-6.29,4,17.1,17.1,0,0,0-3.23,2,5.22,5.22,0,0,0-1.66,6.26,8.55,8.55,0,0,0,5.93,5.11,17.37,17.37,0,0,0,4.07.36,10.57,10.57,0,0,1,7.19,3c.57.55,1.15,1.08,1.74,1.61a8.79,8.79,0,0,0,8.18,2.25A5.39,5.39,0,0,0,92,485.49Zm-10.46-5.86a20,20,0,0,1-4.83,1.61.62.62,0,0,1-.76-.32,18.41,18.41,0,0,1-2.35-5.14,4.87,4.87,0,0,1,.16-3.28,3.13,3.13,0,0,1,5.75,0c.19.42.35.44.74.31a3.16,3.16,0,0,1,3.66,1.06,3.4,3.4,0,0,1-.12,4A6.24,6.24,0,0,1,81.51,479.63Z"/><ellipse class="cls-2" cx="78.73" cy="476.47" rx="5.89" ry="7.94" transform="matrix(0.59, -0.81, 0.81, 0.59, -351.92, 257.93)"/></g><g class="cls-1"><path class="cls-2" d="M155.48,447.22a9.94,9.94,0,0,1-4.7,4.62c-3.63,1.65-6.79-.25-7.11-4.22a10.59,10.59,0,0,1,6.64-10c3.19-1.07,5.87.6,6.33,3.95A9.76,9.76,0,0,1,155.48,447.22Z"/><path class="cls-2" d="M142.42,441.74a8.94,8.94,0,0,1-4.22,4.53,4.4,4.4,0,0,1-6-2.09,9.18,9.18,0,0,1-.13-7.54,9.73,9.73,0,0,1,3.44-4.68c3-2.13,6.32-1.08,7.51,2.36A10,10,0,0,1,142.42,441.74Z"/><path class="cls-2" d="M127.72,448c-.89,1.75-1.86,3.11-3.54,3.73a4,4,0,0,1-4.57-1c-2.14-2.17-2.6-4.89-2.32-7.79a8.84,8.84,0,0,1,2.16-5.15c2.33-2.65,5.83-2.41,7.68.61A10.14,10.14,0,0,1,127.72,448Z"/><path class="cls-2" d="M161.69,460.26c-1.9,3.38-4.54,5.75-8.62,5.92a4.34,4.34,0,0,1-4.71-4.83c.17-4.42,5-9,9.43-8.87a4.47,4.47,0,0,1,4.62,5.36A8.42,8.42,0,0,1,161.69,460.26Z"/><path class="cls-2" d="M147.21,472.39a12.78,12.78,0,0,0-.42-2.69,38.14,38.14,0,0,1-1.44-8.34,11.08,11.08,0,0,0-1.16-4.57,10.17,10.17,0,0,0-4.7-4.28c-4.66-2.24-8.38-2.11-11.87.56a31.7,31.7,0,0,1-6.45,3.74,16.87,16.87,0,0,0-3.31,1.87,5.2,5.2,0,0,0-1.92,6.19,8.55,8.55,0,0,0,5.71,5.35,17.39,17.39,0,0,0,4.06.53,10.56,10.56,0,0,1,7.06,3.3c.54.57,1.11,1.13,1.67,1.68a8.78,8.78,0,0,0,8.08,2.58A5.39,5.39,0,0,0,147.21,472.39ZM137,466.1a19.3,19.3,0,0,1-4.89,1.41.6.6,0,0,1-.74-.34,18.42,18.42,0,0,1-2.14-5.24,4.87,4.87,0,0,1,.3-3.27,3,3,0,0,1,2.87-1.75,3,3,0,0,1,2.87,2c.17.43.33.46.73.34a3.16,3.16,0,0,1,3.61,1.21,3.39,3.39,0,0,1-.28,4A6.31,6.31,0,0,1,137,466.1Z"/><ellipse class="cls-2" cx="134.35" cy="462.83" rx="5.89" ry="7.94" transform="translate(-311.04 278.74) rotate(-51.36)"/></g><g class="cls-1"><path class="cls-2" d="M118.87,394.69a9.87,9.87,0,0,1-4.29,5c-3.48,1.94-6.79.33-7.44-3.6a10.62,10.62,0,0,1,5.77-10.54,4.56,4.56,0,0,1,6.65,3.4A9.73,9.73,0,0,1,118.87,394.69Z"/><path class="cls-2" d="M105.41,390.33a9,9,0,0,1-3.83,4.86,4.39,4.39,0,0,1-6.19-1.57,9.17,9.17,0,0,1-.76-7.5,9.76,9.76,0,0,1,3-5c2.76-2.37,6.2-1.6,7.67,1.72A10,10,0,0,1,105.41,390.33Z"/><path class="cls-2" d="M91.28,397.77c-.74,1.81-1.59,3.25-3.22,4a4,4,0,0,1-4.63-.58c-2.31-2-3-4.66-3-7.57a8.84,8.84,0,0,1,1.72-5.31c2.1-2.84,5.61-2.9,7.7,0A10.15,10.15,0,0,1,91.28,397.77Z"/><path class="cls-2" d="M126.16,407.16c-1.61,3.53-4,6.11-8.09,6.62a4.33,4.33,0,0,1-5.1-4.41c-.2-4.42,4.23-9.35,8.65-9.63a4.47,4.47,0,0,1,5,4.95A8.18,8.18,0,0,1,126.16,407.16Z"/><path class="cls-2" d="M112.75,420.47a11.94,11.94,0,0,0-.65-2.65,38.56,38.56,0,0,1-2.13-8.19,11,11,0,0,0-1.54-4.46,10.18,10.18,0,0,0-5-3.86c-4.84-1.84-8.54-1.4-11.78,1.56a31.93,31.93,0,0,1-6.12,4.26,17.12,17.12,0,0,0-3.14,2.15A5.21,5.21,0,0,0,81,415.6a8.53,8.53,0,0,0,6.14,4.85,16.91,16.91,0,0,0,4.08.19,10.57,10.57,0,0,1,7.32,2.69c.59.53,1.2,1,1.8,1.54a8.78,8.78,0,0,0,8.28,1.89A5.38,5.38,0,0,0,112.75,420.47ZM102,415.06a19.27,19.27,0,0,1-4.75,1.82.62.62,0,0,1-.78-.28,18.43,18.43,0,0,1-2.56-5,4.85,4.85,0,0,1,0-3.28,3,3,0,0,1,2.71-2,3,3,0,0,1,3,1.77c.21.41.37.43.76.28a3.17,3.17,0,0,1,3.7.9,3.41,3.41,0,0,1,0,4A6.27,6.27,0,0,1,102,415.06Z"/><ellipse class="cls-2" cx="99.13" cy="412.02" rx="5.89" ry="7.94" transform="matrix(0.56, -0.83, 0.83, 0.56, -298.35, 265.05)"/></g><g class="cls-1"><path class="cls-2" d="M176.44,380.26a9.88,9.88,0,0,1-3.47,5.6c-3.14,2.45-6.66,1.36-7.9-2.42a10.6,10.6,0,0,1,4.08-11.3,4.55,4.55,0,0,1,7.09,2.34A9.7,9.7,0,0,1,176.44,380.26Z"/><path class="cls-2" d="M162.47,378a9,9,0,0,1-3,5.39,4.39,4.39,0,0,1-6.35-.61,9.12,9.12,0,0,1-1.9-7.29,9.74,9.74,0,0,1,2.23-5.37c2.37-2.76,5.89-2.53,7.85.53A10,10,0,0,1,162.47,378Z"/><path class="cls-2" d="M149.65,387.53c-.45,1.91-1.08,3.46-2.57,4.46a4,4,0,0,1-4.67.13c-2.58-1.61-3.68-4.14-4.09-7a8.88,8.88,0,0,1,.89-5.52c1.64-3.12,5.09-3.71,7.6-1.21A10.15,10.15,0,0,1,149.65,387.53Z"/><path class="cls-2" d="M185.56,391.47c-1.06,3.73-3.06,6.66-7,7.78a4.33,4.33,0,0,1-5.71-3.58c-.88-4.34,2.74-9.89,7.07-10.84a4.47,4.47,0,0,1,5.76,4.12A8.56,8.56,0,0,1,185.56,391.47Z"/><path class="cls-2" d="M174.34,406.68a12.7,12.7,0,0,0-1-2.53,37.62,37.62,0,0,1-3.36-7.76,11.05,11.05,0,0,0-2.21-4.17,10.24,10.24,0,0,0-5.57-3.05c-5.06-1.07-8.65-.07-11.41,3.35a31.67,31.67,0,0,1-5.39,5.15,16.64,16.64,0,0,0-2.77,2.6,5.21,5.21,0,0,0-.41,6.47,8.57,8.57,0,0,0,6.82,3.85,17.91,17.91,0,0,0,4.06-.44,10.54,10.54,0,0,1,7.64,1.54c.66.43,1.34.83,2,1.24a8.79,8.79,0,0,0,8.47.6A5.37,5.37,0,0,0,174.34,406.68ZM162.93,403a19.55,19.55,0,0,1-4.42,2.53.61.61,0,0,1-.8-.16,18.44,18.44,0,0,1-3.31-4.59,4.93,4.93,0,0,1-.49-3.25,3.06,3.06,0,0,1,2.39-2.38,3,3,0,0,1,3.26,1.29c.27.37.43.37.79.16a3.16,3.16,0,0,1,3.79.32,3.41,3.41,0,0,1,.66,3.92A6.19,6.19,0,0,1,162.93,403Z"/><ellipse class="cls-2" cx="159.59" cy="400.42" rx="5.89" ry="7.94" transform="translate(-270.75 375.78) rotate(-64.99)"/></g><g class="cls-1"><path class="cls-2" d="M137.52,334.16a9.9,9.9,0,0,1-4.07,5.18c-3.4,2.09-6.78.61-7.59-3.29a10.61,10.61,0,0,1,5.33-10.77A4.55,4.55,0,0,1,138,328.4,9.67,9.67,0,0,1,137.52,334.16Z"/><path class="cls-2" d="M123.89,330.37a9.07,9.07,0,0,1-3.62,5,4.41,4.41,0,0,1-6.25-1.31,9.18,9.18,0,0,1-1.07-7.47,9.75,9.75,0,0,1,2.82-5.08c2.66-2.48,6.13-1.86,7.74,1.4A10,10,0,0,1,123.89,330.37Z"/><path class="cls-2" d="M110.08,338.39c-.66,1.85-1.45,3.32-3,4.14a4.05,4.05,0,0,1-4.66-.38c-2.39-1.89-3.2-4.53-3.28-7.44a8.89,8.89,0,0,1,1.5-5.38c2-2.93,5.48-3.13,7.69-.36A10.13,10.13,0,0,1,110.08,338.39Z"/><path class="cls-2" d="M145.33,346.32c-1.47,3.59-3.78,6.27-7.81,6.95a4.33,4.33,0,0,1-5.28-4.2c-.39-4.4,3.83-9.51,8.24-10a4.47,4.47,0,0,1,5.26,4.73A8.54,8.54,0,0,1,145.33,346.32Z"/><path class="cls-2" d="M132.48,360.18a12.73,12.73,0,0,0-.75-2.63,37.28,37.28,0,0,1-2.47-8.09,11.15,11.15,0,0,0-1.73-4.38,10.21,10.21,0,0,0-5.2-3.66c-4.91-1.63-8.58-1-11.71,2.05a31.41,31.41,0,0,1-5.93,4.52,17.26,17.26,0,0,0-3,2.27,5.22,5.22,0,0,0-1.12,6.39,8.53,8.53,0,0,0,6.34,4.58,17.49,17.49,0,0,0,4.09,0,10.56,10.56,0,0,1,7.42,2.38c.61.51,1.24,1,1.87,1.47a8.79,8.79,0,0,0,8.34,1.54A5.38,5.38,0,0,0,132.48,360.18Zm-10.92-5a19.4,19.4,0,0,1-4.68,2,.6.6,0,0,1-.78-.24,18.43,18.43,0,0,1-2.77-4.93,4.9,4.9,0,0,1-.12-3.28,3,3,0,0,1,2.63-2.1,3,3,0,0,1,3.1,1.65c.22.39.39.41.77.24a3.15,3.15,0,0,1,3.73.75,3.39,3.39,0,0,1,.22,4A6.39,6.39,0,0,1,121.56,355.22Z"/><ellipse class="cls-2" cx="118.53" cy="352.31" rx="5.89" ry="7.94" transform="translate(-243.9 269.77) rotate(-58.58)"/></g><g class="cls-1"><path class="cls-2" d="M195,318.07a9.86,9.86,0,0,1-3.75,5.41c-3.26,2.29-6.73,1-7.77-2.82a10.61,10.61,0,0,1,4.65-11.07,4.55,4.55,0,0,1,7,2.7A9.67,9.67,0,0,1,195,318.07Z"/><path class="cls-2" d="M181.12,315.12a9,9,0,0,1-3.31,5.23,4.4,4.4,0,0,1-6.31-.93A9.17,9.17,0,0,1,170,312a9.78,9.78,0,0,1,2.51-5.24c2.5-2.64,6-2.23,7.81.93A10,10,0,0,1,181.12,315.12Z"/><path class="cls-2" d="M167.83,324c-.55,1.89-1.25,3.4-2.79,4.32a4,4,0,0,1-4.67-.1c-2.5-1.74-3.46-4.32-3.73-7.22a8.86,8.86,0,0,1,1.17-5.46c1.8-3,5.28-3.46,7.65-.83A10.13,10.13,0,0,1,167.83,324Z"/><path class="cls-2" d="M203.5,329.72c-1.25,3.68-3.4,6.5-7.38,7.42a4.33,4.33,0,0,1-5.52-3.87c-.66-4.37,3.24-9.73,7.61-10.46a4.47,4.47,0,0,1,5.54,4.4A8.51,8.51,0,0,1,203.5,329.72Z"/><path class="cls-2" d="M191.52,344.34a12.3,12.3,0,0,0-.92-2.57,38.4,38.4,0,0,1-3-7.93,11.14,11.14,0,0,0-2-4.27,10.15,10.15,0,0,0-5.41-3.33c-5-1.33-8.63-.51-11.56,2.76a31.26,31.26,0,0,1-5.65,4.87,17.41,17.41,0,0,0-2.9,2.46,5.22,5.22,0,0,0-.73,6.44A8.54,8.54,0,0,0,166,347a18,18,0,0,0,4.08-.23,10.57,10.57,0,0,1,7.55,1.92c.64.47,1.3.91,2,1.35a8.83,8.83,0,0,0,8.43,1A5.38,5.38,0,0,0,191.52,344.34Zm-11.21-4.28a19.39,19.39,0,0,1-4.54,2.3.62.62,0,0,1-.8-.2,18.5,18.5,0,0,1-3.07-4.75,4.9,4.9,0,0,1-.32-3.27,3.07,3.07,0,0,1,2.5-2.26,3,3,0,0,1,3.2,1.46c.24.38.41.38.78.2a3.15,3.15,0,0,1,3.77.51,3.4,3.4,0,0,1,.46,3.95A6.29,6.29,0,0,1,180.31,340.06Z"/><ellipse class="cls-2" cx="177.11" cy="337.34" rx="5.89" ry="7.94" transform="translate(-203.9 335.83) rotate(-62.07)"/></g><g class="cls-1"><path class="cls-2" d="M157.54,269.15a9.87,9.87,0,0,1-4.09,5.17c-3.4,2.08-6.77.6-7.58-3.31a10.59,10.59,0,0,1,5.35-10.75c3-1.46,5.9-.13,6.77,3.13A9.68,9.68,0,0,1,157.54,269.15Z"/><path class="cls-2" d="M143.91,265.34a9,9,0,0,1-3.63,5A4.39,4.39,0,0,1,134,269a9.16,9.16,0,0,1-1.07-7.46,9.78,9.78,0,0,1,2.84-5.08c2.66-2.47,6.13-1.85,7.73,1.42A10,10,0,0,1,143.91,265.34Z"/><path class="cls-2" d="M130.09,273.33c-.66,1.85-1.46,3.32-3,4.14a4.06,4.06,0,0,1-4.66-.4c-2.39-1.89-3.19-4.52-3.27-7.44a9,9,0,0,1,1.51-5.38c2-2.92,5.49-3.11,7.69-.34A10.13,10.13,0,0,1,130.09,273.33Z"/><path class="cls-2" d="M165.32,281.32c-1.47,3.59-3.79,6.27-7.82,6.94a4.33,4.33,0,0,1-5.27-4.21c-.38-4.41,3.85-9.51,8.26-10a4.47,4.47,0,0,1,5.25,4.74A8.55,8.55,0,0,1,165.32,281.32Z"/><path class="cls-2" d="M152.45,295.15a11.9,11.9,0,0,0-.75-2.62,38.08,38.08,0,0,1-2.46-8.1,11,11,0,0,0-1.71-4.38,10.17,10.17,0,0,0-5.19-3.66c-4.91-1.65-8.59-1.06-11.72,2a31,31,0,0,1-5.94,4.51,16.9,16.9,0,0,0-3.05,2.27,5.23,5.23,0,0,0-1.14,6.38,8.57,8.57,0,0,0,6.34,4.6,17.49,17.49,0,0,0,4.09,0,10.54,10.54,0,0,1,7.41,2.4c.61.5,1.24,1,1.87,1.46a8.77,8.77,0,0,0,8.34,1.56A5.38,5.38,0,0,0,152.45,295.15Zm-10.91-5a19.4,19.4,0,0,1-4.68,2,.61.61,0,0,1-.78-.25,18.49,18.49,0,0,1-2.77-4.94,4.8,4.8,0,0,1-.11-3.27,3,3,0,0,1,2.63-2.1,3,3,0,0,1,3.1,1.65c.22.4.39.41.77.25a3.15,3.15,0,0,1,3.73.75,3.41,3.41,0,0,1,.21,4A6.26,6.26,0,0,1,141.54,290.18Z"/><ellipse class="cls-2" cx="138.51" cy="287.26" rx="5.89" ry="7.94" transform="matrix(0.52, -0.85, 0.85, 0.52, -178.78, 255.16)"/></g><g class="cls-1"><path class="cls-2" d="M211.93,253.46a9.87,9.87,0,0,1-3.74,5.43c-3.25,2.3-6.72,1-7.78-2.8A10.62,10.62,0,0,1,205,245a4.55,4.55,0,0,1,7,2.68A9.65,9.65,0,0,1,211.93,253.46Z"/><path class="cls-2" d="M198.08,250.55a9,9,0,0,1-3.29,5.24,4.39,4.39,0,0,1-6.32-.91,9.15,9.15,0,0,1-1.55-7.38,9.75,9.75,0,0,1,2.49-5.25c2.5-2.64,6-2.25,7.82.91A10,10,0,0,1,198.08,250.55Z"/><path class="cls-2" d="M184.82,259.44c-.54,1.89-1.24,3.4-2.78,4.33a4,4,0,0,1-4.67-.09c-2.5-1.73-3.48-4.31-3.75-7.21a8.93,8.93,0,0,1,1.15-5.46c1.79-3,5.27-3.47,7.65-.86A10.15,10.15,0,0,1,184.82,259.44Z"/><path class="cls-2" d="M220.5,265.09c-1.23,3.68-3.37,6.51-7.35,7.44a4.34,4.34,0,0,1-5.54-3.85c-.66-4.37,3.22-9.74,7.59-10.49a4.47,4.47,0,0,1,5.55,4.39A8.57,8.57,0,0,1,220.5,265.09Z"/><path class="cls-2" d="M208.57,279.75a12.68,12.68,0,0,0-.92-2.57,37.85,37.85,0,0,1-3-7.92,11.31,11.31,0,0,0-2-4.27,10.26,10.26,0,0,0-5.42-3.31c-5-1.31-8.64-.49-11.56,2.8a31.58,31.58,0,0,1-5.63,4.88,17.47,17.47,0,0,0-2.89,2.47,5.22,5.22,0,0,0-.72,6.44,8.54,8.54,0,0,0,6.63,4.17,17.46,17.46,0,0,0,4.08-.24,10.55,10.55,0,0,1,7.56,1.9c.64.46,1.3.9,1.95,1.34a8.84,8.84,0,0,0,8.43,1A5.39,5.39,0,0,0,208.57,279.75Zm-11.22-4.25a19.61,19.61,0,0,1-4.54,2.31.6.6,0,0,1-.79-.19,18.4,18.4,0,0,1-3.09-4.75,4.93,4.93,0,0,1-.33-3.26,3.05,3.05,0,0,1,2.5-2.27,3,3,0,0,1,3.19,1.45c.25.38.42.38.79.19a3.17,3.17,0,0,1,3.77.51,3.39,3.39,0,0,1,.47,3.94A6.19,6.19,0,0,1,197.35,275.5Z"/><ellipse class="cls-2" cx="194.14" cy="272.79" rx="5.89" ry="7.94" transform="translate(-137.67 317.6) rotate(-62.25)"/></g><g class="cls-1"><path class="cls-2" d="M170.77,206.2a9.82,9.82,0,0,1-3.65,5.48c-3.21,2.35-6.7,1.15-7.82-2.67a10.61,10.61,0,0,1,4.45-11.16,4.55,4.55,0,0,1,7,2.57A9.72,9.72,0,0,1,170.77,206.2Z"/><path class="cls-2" d="M156.88,203.51a9,9,0,0,1-3.21,5.29,4.4,4.4,0,0,1-6.33-.81,9.21,9.21,0,0,1-1.67-7.36,9.72,9.72,0,0,1,2.41-5.28c2.46-2.69,6-2.35,7.83.77A10,10,0,0,1,156.88,203.51Z"/><path class="cls-2" d="M143.76,212.6c-.51,1.9-1.19,3.42-2.71,4.38a4,4,0,0,1-4.67,0c-2.53-1.69-3.55-4.25-3.87-7.15a8.9,8.9,0,0,1,1.07-5.48c1.74-3.08,5.21-3.56,7.64-1A10.14,10.14,0,0,1,143.76,212.6Z"/><path class="cls-2" d="M179.53,217.69c-1.18,3.7-3.27,6.56-7.24,7.56a4.33,4.33,0,0,1-5.59-3.77c-.74-4.36,3.06-9.79,7.41-10.6a4.46,4.46,0,0,1,5.62,4.3A8.53,8.53,0,0,1,179.53,217.69Z"/><path class="cls-2" d="M167.83,232.53a12.62,12.62,0,0,0-1-2.55,38.41,38.41,0,0,1-3.12-7.87,11,11,0,0,0-2.07-4.24,10.15,10.15,0,0,0-5.47-3.22c-5-1.24-8.64-.36-11.51,3a30.9,30.9,0,0,1-5.55,5,17.5,17.5,0,0,0-2.86,2.51,5.22,5.22,0,0,0-.61,6.45,8.58,8.58,0,0,0,6.69,4.07,17.34,17.34,0,0,0,4.07-.31A10.57,10.57,0,0,1,154,237.1c.65.45,1.32.88,2,1.31a8.84,8.84,0,0,0,8.44.88A5.4,5.4,0,0,0,167.83,232.53Zm-11.29-4.07a19,19,0,0,1-4.5,2.38.6.6,0,0,1-.8-.18,18.86,18.86,0,0,1-3.16-4.69,4.89,4.89,0,0,1-.38-3.26,3.07,3.07,0,0,1,2.46-2.31,3,3,0,0,1,3.22,1.4c.25.38.42.38.79.18a3.15,3.15,0,0,1,3.78.45,3.39,3.39,0,0,1,.53,3.93A6.29,6.29,0,0,1,156.54,228.46Z"/><ellipse class="cls-2" cx="153.29" cy="225.8" rx="5.89" ry="7.94" transform="translate(-117.4 260.6) rotate(-63.16)"/></g><g class="cls-1"><path class="cls-2" d="M225.7,188.36a9.84,9.84,0,0,1-2.61,6c-2.74,2.89-6.38,2.33-8.17-1.23a10.59,10.59,0,0,1,2.38-11.77,4.54,4.54,0,0,1,7.35,1.27A9.63,9.63,0,0,1,225.7,188.36Z"/><path class="cls-2" d="M211.55,188.2a9,9,0,0,1-2.21,5.78,4.4,4.4,0,0,1-6.37.34,9.17,9.17,0,0,1-3-6.94,9.72,9.72,0,0,1,1.43-5.63c1.93-3.09,5.44-3.38,7.84-.64A10,10,0,0,1,211.55,188.2Z"/><path class="cls-2" d="M200.27,199.5c-.16,1.95-.55,3.58-1.88,4.78a4,4,0,0,1-4.6.83c-2.79-1.22-4.25-3.55-5.08-6.34a8.91,8.91,0,0,1,.07-5.59c1.16-3.34,4.49-4.43,7.34-2.33A10.16,10.16,0,0,1,200.27,199.5Z"/><path class="cls-2" d="M236.37,198.1c-.49,3.85-2,7-5.76,8.73a4.33,4.33,0,0,1-6.18-2.7c-1.51-4.16,1.26-10.18,5.4-11.76a4.47,4.47,0,0,1,6.3,3.22A8.78,8.78,0,0,1,236.37,198.1Z"/><path class="cls-2" d="M227.52,214.8a12.83,12.83,0,0,0-1.4-2.34,38.43,38.43,0,0,1-4.48-7.19,11.08,11.08,0,0,0-2.79-3.8,10.22,10.22,0,0,0-6-2.19c-5.16-.32-8.57,1.2-10.79,5a32.16,32.16,0,0,1-4.57,5.89,16.55,16.55,0,0,0-2.36,3,5.22,5.22,0,0,0,.55,6.46,8.57,8.57,0,0,0,7.31,2.8,17.41,17.41,0,0,0,3.95-1,10.6,10.6,0,0,1,7.79.39c.71.33,1.45.63,2.18.94a8.85,8.85,0,0,0,8.46-.65A5.39,5.39,0,0,0,227.52,214.8Zm-11.83-2a19.29,19.29,0,0,1-4,3.15.6.6,0,0,1-.82,0,18.07,18.07,0,0,1-4-4,4.85,4.85,0,0,1-1-3.13,3,3,0,0,1,2-2.71,3,3,0,0,1,3.41.79c.32.33.48.3.81,0a3.17,3.17,0,0,1,3.8-.24,3.42,3.42,0,0,1,1.23,3.78A6.36,6.36,0,0,1,215.69,212.81Z"/><ellipse class="cls-2" cx="212.01" cy="210.78" rx="5.89" ry="7.94" transform="translate(-50.39 354.03) rotate(-73.47)"/></g><g class="cls-1"><path class="cls-2" d="M179.87,144.83a9.79,9.79,0,0,1-3.18,5.77c-3,2.61-6.58,1.71-8-2a10.6,10.6,0,0,1,3.49-11.49,4.55,4.55,0,0,1,7.2,2A9.68,9.68,0,0,1,179.87,144.83Z"/><path class="cls-2" d="M165.8,143.31a9,9,0,0,1-2.75,5.54,4.41,4.41,0,0,1-6.38-.27,9.14,9.14,0,0,1-2.27-7.19,9.7,9.7,0,0,1,1.95-5.47c2.22-2.89,5.74-2.84,7.87.12A10,10,0,0,1,165.8,143.31Z"/><path class="cls-2" d="M153.49,153.48c-.35,1.92-.89,3.5-2.33,4.58a4.06,4.06,0,0,1-4.66.38c-2.66-1.48-3.89-3.94-4.45-6.8a8.94,8.94,0,0,1,.6-5.56c1.48-3.21,4.9-4,7.53-1.61A10.14,10.14,0,0,1,153.49,153.48Z"/><path class="cls-2" d="M189.56,155.55c-.86,3.78-2.71,6.81-6.58,8.13a4.33,4.33,0,0,1-5.89-3.28c-1.1-4.28,2.23-10,6.5-11.19a4.47,4.47,0,0,1,6,3.82A8.51,8.51,0,0,1,189.56,155.55Z"/><path class="cls-2" d="M179.14,171.32a12.16,12.16,0,0,0-1.17-2.47,38,38,0,0,1-3.76-7.58,11.11,11.11,0,0,0-2.42-4.05,10.18,10.18,0,0,0-5.72-2.75c-5.11-.81-8.64.37-11.22,3.93a31.66,31.66,0,0,1-5.12,5.42,17.12,17.12,0,0,0-2.63,2.75A5.2,5.2,0,0,0,147,173a8.54,8.54,0,0,0,7,3.5,17.74,17.74,0,0,0,4-.65,10.53,10.53,0,0,1,7.71,1.14c.68.39,1.38.76,2.08,1.14a8.81,8.81,0,0,0,8.48.16A5.38,5.38,0,0,0,179.14,171.32Zm-11.58-3.11a19.47,19.47,0,0,1-4.29,2.75.61.61,0,0,1-.81-.12,18.61,18.61,0,0,1-3.54-4.41,4.86,4.86,0,0,1-.65-3.21,3.06,3.06,0,0,1,2.25-2.51,3,3,0,0,1,3.33,1.12c.28.36.45.34.8.12a3.14,3.14,0,0,1,3.8.13,3.39,3.39,0,0,1,.86,3.87A6.24,6.24,0,0,1,167.56,168.21Z"/><ellipse class="cls-2" cx="164.09" cy="165.83" rx="5.89" ry="7.94" transform="translate(-51.2 255.7) rotate(-67.96)"/></g><g class="cls-1"><path class="cls-2" d="M231.72,121.32a9.84,9.84,0,0,1-2.16,6.22c-2.52,3.09-6.2,2.8-8.24-.62A10.6,10.6,0,0,1,222.83,115a4.56,4.56,0,0,1,7.43.73A9.71,9.71,0,0,1,231.72,121.32Z"/><path class="cls-2" d="M217.6,122.2a9,9,0,0,1-1.78,5.92,4.4,4.4,0,0,1-6.34.8,9.15,9.15,0,0,1-3.45-6.7,9.63,9.63,0,0,1,1-5.72c1.7-3.22,5.18-3.77,7.77-1.21A10,10,0,0,1,217.6,122.2Z"/><path class="cls-2" d="M207.17,134.29c0,2-.29,3.61-1.52,4.91a4,4,0,0,1-4.53,1.15c-2.88-1-4.5-3.22-5.53-5.95a8.86,8.86,0,0,1-.34-5.57c.91-3.42,4.15-4.75,7.15-2.86A10.13,10.13,0,0,1,207.17,134.29Z"/><path class="cls-2" d="M243.07,130.26c-.21,3.87-1.52,7.16-5.11,9.12a4.33,4.33,0,0,1-6.36-2.24c-1.8-4,.52-10.25,4.53-12.12a4.47,4.47,0,0,1,6.52,2.75A8.66,8.66,0,0,1,243.07,130.26Z"/><path class="cls-2" d="M235.46,147.55a12,12,0,0,0-1.57-2.23,37.64,37.64,0,0,1-5-6.84,11.08,11.08,0,0,0-3.06-3.58,10.15,10.15,0,0,0-6.11-1.75c-5.17.06-8.45,1.82-10.4,5.76a31.06,31.06,0,0,1-4.13,6.21,17.26,17.26,0,0,0-2.13,3.15,5.22,5.22,0,0,0,1,6.4,8.54,8.54,0,0,0,7.49,2.26,17.51,17.51,0,0,0,3.87-1.32,10.59,10.59,0,0,1,7.79-.18c.75.28,1.5.53,2.25.78a8.81,8.81,0,0,0,8.39-1.27A5.39,5.39,0,0,0,235.46,147.55Zm-11.94-1.11a19.16,19.16,0,0,1-3.76,3.43.6.6,0,0,1-.82,0,18.07,18.07,0,0,1-4.23-3.76,4.82,4.82,0,0,1-1.19-3.06,3.05,3.05,0,0,1,1.8-2.84,3,3,0,0,1,3.47.54c.34.31.5.26.81,0a3.15,3.15,0,0,1,3.77-.51,3.39,3.39,0,0,1,1.5,3.67A6.36,6.36,0,0,1,223.52,146.44Z"/><ellipse class="cls-2" cx="219.7" cy="144.68" rx="5.89" ry="7.94" transform="translate(31.4 328.37) rotate(-77.66)"/></g><g class="cls-1"><path class="cls-2" d="M183.74,84.4a9.91,9.91,0,0,1-2.63,6c-2.75,2.88-6.39,2.31-8.17-1.25a10.6,10.6,0,0,1,2.41-11.77,4.55,4.55,0,0,1,7.35,1.29A9.76,9.76,0,0,1,183.74,84.4Z"/><path class="cls-2" d="M169.58,84.2A9,9,0,0,1,167.36,90a4.4,4.4,0,0,1-6.37.32,9.16,9.16,0,0,1-2.94-7,9.73,9.73,0,0,1,1.44-5.63c1.94-3.08,5.45-3.36,7.84-.61A9.91,9.91,0,0,1,169.58,84.2Z"/><path class="cls-2" d="M158.28,95.47c-.17,2-.57,3.58-1.9,4.78a4,4,0,0,1-4.6.81c-2.79-1.22-4.24-3.56-5.06-6.35a8.91,8.91,0,0,1,.08-5.59c1.17-3.33,4.5-4.42,7.34-2.3A10.13,10.13,0,0,1,158.28,95.47Z"/><path class="cls-2" d="M194.38,94.17c-.5,3.84-2.06,7-5.79,8.71a4.33,4.33,0,0,1-6.17-2.72C180.93,96,183.71,90,187.85,88.42a4.46,4.46,0,0,1,6.29,3.23A8.5,8.5,0,0,1,194.38,94.17Z"/><path class="cls-2" d="M185.48,110.84a12.64,12.64,0,0,0-1.39-2.35,38.34,38.34,0,0,1-4.46-7.19,11,11,0,0,0-2.78-3.81,10.15,10.15,0,0,0-5.95-2.2c-5.17-.33-8.57,1.17-10.81,5a31.38,31.38,0,0,1-4.59,5.87,17.54,17.54,0,0,0-2.37,3,5.23,5.23,0,0,0,.54,6.46,8.56,8.56,0,0,0,7.3,2.82,18,18,0,0,0,4-1,10.57,10.57,0,0,1,7.78.41c.72.33,1.45.64,2.18.94a8.79,8.79,0,0,0,8.46-.63A5.38,5.38,0,0,0,185.48,110.84Zm-11.82-2a19.33,19.33,0,0,1-4,3.13.6.6,0,0,1-.82,0,18.29,18.29,0,0,1-3.94-4.06,4.91,4.91,0,0,1-.95-3.14,3,3,0,0,1,2-2.7,3,3,0,0,1,3.42.8c.32.33.48.3.81.05a3.14,3.14,0,0,1,3.8-.23,3.38,3.38,0,0,1,1.21,3.78A6.24,6.24,0,0,1,173.66,108.83Z"/><ellipse class="cls-2" cx="169.98" cy="106.78" rx="5.89" ry="7.94" transform="translate(18.9 238.96) rotate(-73.32)"/></g><g class="cls-1"><path class="cls-2" d="M230.9,55.77a9.88,9.88,0,0,1-1.8,6.34c-2.34,3.22-6,3.14-8.26-.16a10.58,10.58,0,0,1,.82-12,4.56,4.56,0,0,1,7.46.3A9.69,9.69,0,0,1,230.9,55.77Z"/><path class="cls-2" d="M216.85,57.46a9,9,0,0,1-1.44,6,4.39,4.39,0,0,1-6.27,1.17,9.16,9.16,0,0,1-3.84-6.5,9.71,9.71,0,0,1,.68-5.77c1.52-3.31,5-4,7.69-1.65A10,10,0,0,1,216.85,57.46Z"/><path class="cls-2" d="M207.13,70.12c.1,2-.08,3.62-1.24,5a4.05,4.05,0,0,1-4.45,1.41c-2.93-.84-4.68-3-5.86-5.63a8.83,8.83,0,0,1-.66-5.55c.71-3.45,3.87-5,7-3.26A10.13,10.13,0,0,1,207.13,70.12Z"/><path class="cls-2" d="M242.75,64c0,3.88-1.12,7.24-4.58,9.41a4.34,4.34,0,0,1-6.48-1.88c-2-3.93-.08-10.26,3.82-12.36a4.48,4.48,0,0,1,6.67,2.37A8.64,8.64,0,0,1,242.75,64Z"/><path class="cls-2" d="M236.14,81.75a11.76,11.76,0,0,0-1.7-2.14,38.26,38.26,0,0,1-5.36-6.54,10.94,10.94,0,0,0-3.27-3.4,10.13,10.13,0,0,0-6.19-1.4c-5.16.35-8.34,2.3-10.05,6.35a31.41,31.41,0,0,1-3.77,6.43,16.63,16.63,0,0,0-2,3.27,5.21,5.21,0,0,0,1.39,6.33,8.59,8.59,0,0,0,7.61,1.83,17.75,17.75,0,0,0,3.78-1.54,10.58,10.58,0,0,1,7.77-.63c.76.24,1.52.44,2.29.65a8.83,8.83,0,0,0,8.3-1.75A5.39,5.39,0,0,0,236.14,81.75Zm-12-.43A19.43,19.43,0,0,1,220.6,85a.6.6,0,0,1-.82.07,18.16,18.16,0,0,1-4.44-3.5,4.85,4.85,0,0,1-1.36-3,3,3,0,0,1,1.63-2.94,3,3,0,0,1,3.5.34c.35.29.51.23.8-.06a3.16,3.16,0,0,1,3.74-.74,3.41,3.41,0,0,1,1.7,3.59A6.1,6.1,0,0,1,224.15,81.32Z"/><ellipse class="cls-2" cx="220.24" cy="79.78" rx="5.89" ry="7.94" transform="translate(106.78 284.72) rotate(-80.94)"/></g><g class="cls-1"><path class="cls-2" d="M174.06,21.34a9.89,9.89,0,0,1-1,6.51c-1.95,3.48-5.62,3.84-8.23.83a10.6,10.6,0,0,1-.6-12,4.56,4.56,0,0,1,7.44-.59A9.75,9.75,0,0,1,174.06,21.34Z"/><path class="cls-2" d="M160.31,24.69a9,9,0,0,1-.71,6.15,4.39,4.39,0,0,1-6.09,1.89,9.09,9.09,0,0,1-4.58-6,9.68,9.68,0,0,1,0-5.81c1.11-3.46,4.44-4.61,7.44-2.55A10,10,0,0,1,160.31,24.69Z"/><path class="cls-2" d="M152.17,38.42c.33,1.94.35,3.61-.64,5.11a4,4,0,0,1-4.25,1.93c-3-.48-5-2.39-6.49-4.89a8.84,8.84,0,0,1-1.32-5.43c.3-3.52,3.26-5.4,6.54-4.07A10.14,10.14,0,0,1,152.17,38.42Z"/><path class="cls-2" d="M186.81,28.14c.47,3.85-.25,7.33-3.43,9.89a4.34,4.34,0,0,1-6.66-1.09c-2.48-3.66-1.29-10.18,2.33-12.73a4.47,4.47,0,0,1,6.9,1.56A8.84,8.84,0,0,1,186.81,28.14Z"/><path class="cls-2" d="M182.35,46.51a12.51,12.51,0,0,0-1.93-1.92,38.06,38.06,0,0,1-6.11-5.86,11.15,11.15,0,0,0-3.65-3,10.19,10.19,0,0,0-6.31-.65c-5.09,1-8,3.28-9.23,7.5a31.48,31.48,0,0,1-3,6.84,16.87,16.87,0,0,0-1.55,3.47A5.22,5.22,0,0,0,152.73,59a8.51,8.51,0,0,0,7.77.91,17.32,17.32,0,0,0,3.58-2,10.57,10.57,0,0,1,7.64-1.55c.78.14,1.56.25,2.34.37a8.82,8.82,0,0,0,8-2.72A5.39,5.39,0,0,0,182.35,46.51Zm-11.95,1a19.29,19.29,0,0,1-3.1,4,.6.6,0,0,1-.8.17,18.42,18.42,0,0,1-4.83-2.95A4.89,4.89,0,0,1,160,46a3,3,0,0,1,1.27-3.12,3,3,0,0,1,3.51-.08c.39.24.54.17.79-.16a3.15,3.15,0,0,1,3.62-1.17,3.42,3.42,0,0,1,2.13,3.36A6.34,6.34,0,0,1,170.4,47.51Z"/><ellipse class="cls-2" cx="166.33" cy="46.45" rx="5.89" ry="7.94" transform="translate(113.47 210.86) rotate(-87.78)"/></g><g class="cls-1"><path class="cls-2" d="M194.35,2.64c.54,1.88.75,3.54-.06,5.14a4.06,4.06,0,0,1-4,2.4c-3-.14-5.23-1.81-7-4.13A8.84,8.84,0,0,1,181.36.8c-.1-3.53,2.63-5.73,6-4.77A10.12,10.12,0,0,1,194.35,2.64Z"/><path class="cls-2" d="M227.61-11.47c.9,3.77.58,7.3-2.3,10.2a4.32,4.32,0,0,1-6.73-.33c-2.89-3.36-2.44-10,.88-12.91a4.46,4.46,0,0,1,7,.78A8.52,8.52,0,0,1,227.61-11.47Z"/><path class="cls-2" d="M225.25,7.28a12.83,12.83,0,0,0-2.14-1.69A38.18,38.18,0,0,1,216.38.45a11.06,11.06,0,0,0-4-2.55,10.19,10.19,0,0,0-6.35.06c-4.94,1.53-7.58,4.16-8.32,8.49a31.8,31.8,0,0,1-2.19,7.13,17.54,17.54,0,0,0-1.15,3.62A5.22,5.22,0,0,0,197.22,23a8.55,8.55,0,0,0,7.83,0,18.13,18.13,0,0,0,3.33-2.37,10.58,10.58,0,0,1,7.42-2.4c.78.06,1.58.08,2.37.11a8.85,8.85,0,0,0,7.68-3.61A5.4,5.4,0,0,0,225.25,7.28ZM213.49,9.62A19.54,19.54,0,0,1,210.86,14a.61.61,0,0,1-.78.26A18.75,18.75,0,0,1,205,11.85a4.9,4.9,0,0,1-2-2.59A3.06,3.06,0,0,1,203.86,6a3,3,0,0,1,3.48-.46c.41.19.55.1.76-.25a3.15,3.15,0,0,1,3.47-1.57,3.38,3.38,0,0,1,2.49,3.09A6.28,6.28,0,0,1,213.49,9.62Z"/><ellipse class="cls-2" cx="209.32" cy="9.02" rx="7.94" ry="5.89" transform="translate(-0.09 15.49) rotate(-4.24)"/></g><g class="cls-1"><path class="cls-2" d="M1916.46,295.94a9.92,9.92,0,0,1,4.85-4.46c3.68-1.52,6.78.48,7,4.45a10.6,10.6,0,0,1-7,9.79,4.55,4.55,0,0,1-6.2-4.16A9.72,9.72,0,0,1,1916.46,295.94Z"/><path class="cls-2" d="M1910.69,282.7c2-3.31,4.73-5.59,8.82-5.62a4.33,4.33,0,0,1,4.54,5c-.32,4.41-5.3,8.79-9.72,8.54a4.46,4.46,0,0,1-4.44-5.51A8.31,8.31,0,0,1,1910.69,282.7Z"/></g><g class="cls-1"><path class="cls-2" d="M1875,244.33a9.84,9.84,0,0,1,4.33-5c3.5-1.92,6.8-.27,7.41,3.66a10.62,10.62,0,0,1-5.86,10.49,4.56,4.56,0,0,1-6.62-3.46A9.75,9.75,0,0,1,1875,244.33Z"/><path class="cls-2" d="M1888.42,248.8a9,9,0,0,1,3.87-4.83,4.41,4.41,0,0,1,6.17,1.63,9.18,9.18,0,0,1,.69,7.51,9.71,9.71,0,0,1-3.07,4.93c-2.79,2.34-6.22,1.55-7.66-1.79A10,10,0,0,1,1888.42,248.8Z"/><path class="cls-2" d="M1902.61,241.49c.75-1.81,1.62-3.24,3.25-4a4,4,0,0,1,4.63.62c2.29,2,3,4.68,2.9,7.59a8.84,8.84,0,0,1-1.77,5.3c-2.12,2.82-5.63,2.85-7.7,0A10.15,10.15,0,0,1,1902.61,241.49Z"/><path class="cls-2" d="M1867.81,231.79c1.64-3.51,4.1-6.07,8.15-6.55a4.33,4.33,0,0,1,5.06,4.46c.16,4.42-4.31,9.31-8.73,9.55a4.46,4.46,0,0,1-5-5A8.46,8.46,0,0,1,1867.81,231.79Z"/><path class="cls-2" d="M1881.34,218.6a12.1,12.1,0,0,0,.62,2.66,38,38,0,0,1,2.06,8.21,11.14,11.14,0,0,0,1.5,4.46,10.17,10.17,0,0,0,5,3.91c4.82,1.88,8.52,1.48,11.8-1.45a31.9,31.9,0,0,1,6.15-4.21,17.12,17.12,0,0,0,3.16-2.12,5.21,5.21,0,0,0,1.45-6.31,8.59,8.59,0,0,0-6.11-4.91,17.94,17.94,0,0,0-4.08-.22,10.61,10.61,0,0,1-7.29-2.76c-.58-.53-1.19-1-1.79-1.55a8.8,8.8,0,0,0-8.25-2A5.38,5.38,0,0,0,1881.34,218.6Zm10.66,5.5a19.69,19.69,0,0,1,4.77-1.77.6.6,0,0,1,.77.28,18.49,18.49,0,0,1,2.52,5.07,4.84,4.84,0,0,1,0,3.28,3.06,3.06,0,0,1-2.73,2,3,3,0,0,1-3-1.81c-.21-.41-.37-.43-.76-.28a3.15,3.15,0,0,1-3.69-.94,3.39,3.39,0,0,1,0-4A6.26,6.26,0,0,1,1892,224.1Z"/><ellipse class="cls-2" cx="1894.88" cy="227.17" rx="5.89" ry="7.94" transform="translate(638.75 1663.94) rotate(-55.67)"/></g><g class="cls-1"><path class="cls-2" d="M1861.06,313.42a10,10,0,0,1,4.29-5c3.48-1.94,6.8-.32,7.44,3.61a10.58,10.58,0,0,1-5.77,10.53,4.55,4.55,0,0,1-6.64-3.4A9.72,9.72,0,0,1,1861.06,313.42Z"/><path class="cls-2" d="M1874.53,317.78a9,9,0,0,1,3.83-4.86,4.4,4.4,0,0,1,6.18,1.58,9.14,9.14,0,0,1,.76,7.5,9.76,9.76,0,0,1-3,5c-2.76,2.37-6.2,1.6-7.67-1.73A10,10,0,0,1,1874.53,317.78Z"/><path class="cls-2" d="M1888.66,310.36c.74-1.82,1.59-3.25,3.22-4a4,4,0,0,1,4.63.58c2.31,2,3,4.65,3,7.57a8.92,8.92,0,0,1-1.73,5.31c-2.1,2.84-5.61,2.89-7.7,0A10.15,10.15,0,0,1,1888.66,310.36Z"/><path class="cls-2" d="M1853.78,301c1.61-3.53,4-6.11,8.1-6.62a4.32,4.32,0,0,1,5.09,4.42c.2,4.42-4.23,9.34-8.65,9.62a4.47,4.47,0,0,1-5.06-4.95A8.45,8.45,0,0,1,1853.78,301Z"/><path class="cls-2" d="M1867.2,287.64a12.5,12.5,0,0,0,.64,2.65,38.06,38.06,0,0,1,2.13,8.2,11,11,0,0,0,1.54,4.45,10.16,10.16,0,0,0,5,3.87c4.83,1.84,8.53,1.4,11.78-1.55a31.49,31.49,0,0,1,6.12-4.26,17.64,17.64,0,0,0,3.14-2.15,5.22,5.22,0,0,0,1.4-6.33,8.55,8.55,0,0,0-6.15-4.85,18,18,0,0,0-4.08-.19,10.57,10.57,0,0,1-7.31-2.69c-.59-.53-1.2-1-1.81-1.54a8.79,8.79,0,0,0-8.27-1.9A5.39,5.39,0,0,0,1867.2,287.64Zm10.7,5.42a19.35,19.35,0,0,1,4.76-1.82.61.61,0,0,1,.77.28,18.08,18.08,0,0,1,2.56,5.05,4.85,4.85,0,0,1,0,3.28,3,3,0,0,1-2.71,2,3,3,0,0,1-3-1.77c-.21-.41-.37-.43-.76-.28a3.17,3.17,0,0,1-3.7-.9,3.41,3.41,0,0,1,0-4A6.23,6.23,0,0,1,1877.9,293.06Z"/><ellipse class="cls-2" cx="1880.81" cy="296.09" rx="5.89" ry="7.94" transform="translate(587.29 1693.21) rotate(-56.15)"/></g><g class="cls-1"><path class="cls-2" d="M1898.19,361a9.87,9.87,0,0,1,4.73-4.59c3.64-1.62,6.79.29,7.08,4.26a10.59,10.59,0,0,1-6.7,10,4.56,4.56,0,0,1-6.31-4A9.67,9.67,0,0,1,1898.19,361Z"/><path class="cls-2" d="M1911.21,366.51a9,9,0,0,1,4.25-4.49,4.4,4.4,0,0,1,6,2.13,9.18,9.18,0,0,1,.07,7.54,9.74,9.74,0,0,1-3.47,4.66c-3,2.1-6.32,1-7.49-2.42A10,10,0,0,1,1911.21,366.51Z"/><path class="cls-2" d="M1892.07,347.86c1.93-3.36,4.58-5.71,8.66-5.85a4.34,4.34,0,0,1,4.68,4.86c-.21,4.42-5.06,8.92-9.49,8.8a4.47,4.47,0,0,1-4.59-5.39A8.46,8.46,0,0,1,1892.07,347.86Z"/><path class="cls-2" d="M1906.64,335.83a12.32,12.32,0,0,0,.4,2.7,38.64,38.64,0,0,1,1.38,8.35,11,11,0,0,0,1.12,4.57,10.15,10.15,0,0,0,4.67,4.31c4.65,2.27,8.37,2.17,11.88-.48a31.66,31.66,0,0,1,6.48-3.68,17.74,17.74,0,0,0,3.32-1.86,5.2,5.2,0,0,0,2-6.17,8.55,8.55,0,0,0-5.68-5.39,17.26,17.26,0,0,0-4-.56,10.55,10.55,0,0,1-7.05-3.35c-.53-.57-1.09-1.13-1.65-1.69a8.81,8.81,0,0,0-8.07-2.64A5.38,5.38,0,0,0,1906.64,335.83Zm10.17,6.36a19.32,19.32,0,0,1,4.9-1.38.6.6,0,0,1,.74.35,18.45,18.45,0,0,1,2.1,5.26,4.84,4.84,0,0,1-.32,3.26,3.06,3.06,0,0,1-2.89,1.74,3,3,0,0,1-2.85-2.05c-.17-.42-.33-.46-.73-.34a3.15,3.15,0,0,1-3.6-1.24,3.4,3.4,0,0,1,.31-4A6.29,6.29,0,0,1,1916.81,342.19Z"/><ellipse class="cls-2" cx="1919.43" cy="345.48" rx="5.89" ry="7.94" transform="translate(442.12 1618.71) rotate(-50.96)"/></g><g class="cls-1"><path class="cls-2" d="M1840.61,375.5a9.84,9.84,0,0,1,4.7-4.61c3.63-1.64,6.79.25,7.1,4.23a10.61,10.61,0,0,1-6.65,10,4.55,4.55,0,0,1-6.33-4A9.69,9.69,0,0,1,1840.61,375.5Z"/><path class="cls-2" d="M1853.65,381a8.94,8.94,0,0,1,4.23-4.52,4.4,4.4,0,0,1,6,2.1,9.18,9.18,0,0,1,.12,7.54,9.82,9.82,0,0,1-3.45,4.68c-3,2.12-6.32,1.06-7.5-2.38A10,10,0,0,1,1853.65,381Z"/><path class="cls-2" d="M1868.36,374.81c.89-1.75,1.87-3.11,3.55-3.72a4,4,0,0,1,4.57,1c2.13,2.18,2.59,4.9,2.31,7.8a8.87,8.87,0,0,1-2.18,5.14c-2.34,2.65-5.83,2.4-7.67-.62A10.14,10.14,0,0,1,1868.36,374.81Z"/><path class="cls-2" d="M1834.41,362.44c1.92-3.37,4.56-5.74,8.64-5.9a4.34,4.34,0,0,1,4.7,4.84c-.18,4.42-5,8.95-9.45,8.85a4.47,4.47,0,0,1-4.61-5.37A8.74,8.74,0,0,1,1834.41,362.44Z"/><path class="cls-2" d="M1848.93,350.34a12.33,12.33,0,0,0,.41,2.7,37.91,37.91,0,0,1,1.42,8.34,11.07,11.07,0,0,0,1.15,4.57,10.1,10.1,0,0,0,4.69,4.28c4.66,2.25,8.38,2.13,11.87-.53a31.49,31.49,0,0,1,6.46-3.72,17.47,17.47,0,0,0,3.32-1.87,5.24,5.24,0,0,0,1.93-6.19,8.57,8.57,0,0,0-5.71-5.36,17.25,17.25,0,0,0-4-.54,10.58,10.58,0,0,1-7.06-3.31c-.54-.57-1.1-1.13-1.66-1.69a8.81,8.81,0,0,0-8.08-2.59A5.37,5.37,0,0,0,1848.93,350.34Zm10.19,6.31a19.47,19.47,0,0,1,4.9-1.4.6.6,0,0,1,.74.34,18.46,18.46,0,0,1,2.13,5.25,4.9,4.9,0,0,1-.3,3.26,3,3,0,0,1-2.88,1.75,3,3,0,0,1-2.87-2c-.17-.42-.33-.45-.73-.34a3.15,3.15,0,0,1-3.6-1.22,3.4,3.4,0,0,1,.29-4A6.36,6.36,0,0,1,1859.12,356.65Z"/><ellipse class="cls-2" cx="1861.76" cy="359.92" rx="5.89" ry="7.94" transform="translate(415.57 1586.4) rotate(-51.24)"/></g><g class="cls-1"><path class="cls-2" d="M1876.16,419.91a9.88,9.88,0,0,1,4.88-4.42c3.7-1.49,6.78.54,6.93,4.52a10.6,10.6,0,0,1-7.06,9.72,4.55,4.55,0,0,1-6.16-4.21A9.69,9.69,0,0,1,1876.16,419.91Z"/><path class="cls-2" d="M1889,425.93a9,9,0,0,1,4.41-4.34,4.4,4.4,0,0,1,5.94,2.34,9.14,9.14,0,0,1-.19,7.54,9.71,9.71,0,0,1-3.64,4.54c-3,2-6.35.81-7.39-2.68A10,10,0,0,1,1889,425.93Z"/><path class="cls-2" d="M1903.92,420.34c1-1.71,2-3,3.7-3.57a4,4,0,0,1,4.52,1.16c2,2.26,2.39,5,2,7.88a8.89,8.89,0,0,1-2.38,5.05c-2.44,2.56-5.93,2.17-7.64-.93A10.14,10.14,0,0,1,1903.92,420.34Z"/><path class="cls-2" d="M1870.5,406.62c2-3.3,4.78-5.55,8.87-5.55a4.33,4.33,0,0,1,4.49,5c-.35,4.41-5.37,8.73-9.79,8.45a4.47,4.47,0,0,1-4.39-5.54A8.26,8.26,0,0,1,1870.5,406.62Z"/><path class="cls-2" d="M1885.49,395.11a11.79,11.79,0,0,0,.3,2.71,38.27,38.27,0,0,1,1.08,8.39,11,11,0,0,0,1,4.62,10.17,10.17,0,0,0,4.51,4.47c4.56,2.43,8.29,2.46,11.89-.06a31.45,31.45,0,0,1,6.6-3.46,16.93,16.93,0,0,0,3.39-1.73,5.23,5.23,0,0,0,2.18-6.1,8.58,8.58,0,0,0-5.49-5.59,17.64,17.64,0,0,0-4-.7,10.57,10.57,0,0,1-6.92-3.59c-.52-.6-1.06-1.18-1.6-1.76a8.8,8.8,0,0,0-8-2.92A5.38,5.38,0,0,0,1885.49,395.11Zm9.93,6.72a19.17,19.17,0,0,1,4.95-1.21.61.61,0,0,1,.73.38,18.31,18.31,0,0,1,1.91,5.32,4.84,4.84,0,0,1-.43,3.25,3.05,3.05,0,0,1-2.95,1.64,3,3,0,0,1-2.78-2.15c-.15-.43-.31-.47-.72-.37a3.15,3.15,0,0,1-3.55-1.36,3.4,3.4,0,0,1,.45-3.95A6.29,6.29,0,0,1,1895.42,401.83Z"/><ellipse class="cls-2" cx="1897.93" cy="405.2" rx="5.89" ry="7.94" transform="translate(345.5 1569.8) rotate(-48.93)"/></g><g class="cls-1"><path class="cls-2" d="M1815.4,435.56a9.87,9.87,0,0,1,3.78-5.4c3.27-2.27,6.73-1,7.75,2.87a10.6,10.6,0,0,1-4.71,11,4.56,4.56,0,0,1-7-2.73A9.71,9.71,0,0,1,1815.4,435.56Z"/><path class="cls-2" d="M1829.22,438.58a9,9,0,0,1,3.34-5.21,4.39,4.39,0,0,1,6.3,1,9.11,9.11,0,0,1,1.49,7.4,9.69,9.69,0,0,1-2.53,5.22c-2.52,2.63-6,2.21-7.81-1A10,10,0,0,1,1829.22,438.58Z"/><path class="cls-2" d="M1842.56,429.81c.55-1.88,1.27-3.39,2.81-4.31a4,4,0,0,1,4.67.13c2.49,1.75,3.44,4.34,3.69,7.24a8.88,8.88,0,0,1-1.2,5.46c-1.81,3-5.29,3.42-7.66.78A10.12,10.12,0,0,1,1842.56,429.81Z"/><path class="cls-2" d="M1806.92,423.86c1.27-3.67,3.43-6.48,7.42-7.38a4.33,4.33,0,0,1,5.5,3.9c.63,4.38-3.3,9.71-7.67,10.42a4.46,4.46,0,0,1-5.51-4.44A8.48,8.48,0,0,1,1806.92,423.86Z"/><path class="cls-2" d="M1819,409.3a12.33,12.33,0,0,0,.9,2.58,38,38,0,0,1,2.92,7.94,11.05,11.05,0,0,0,2,4.28,10.18,10.18,0,0,0,5.4,3.36c5,1.36,8.63.56,11.57-2.7a31.57,31.57,0,0,1,5.68-4.83,17,17,0,0,0,2.91-2.45,5.21,5.21,0,0,0,.77-6.43,8.55,8.55,0,0,0-6.59-4.23,17.44,17.44,0,0,0-4.08.21,10.6,10.6,0,0,1-7.54-2c-.64-.47-1.29-.91-2-1.36a8.78,8.78,0,0,0-8.41-1.08A5.38,5.38,0,0,0,1819,409.3Zm11.18,4.34a19.42,19.42,0,0,1,4.56-2.27.61.61,0,0,1,.79.2,18.27,18.27,0,0,1,3,4.77,5,5,0,0,1,.3,3.27,3,3,0,0,1-2.51,2.24,3,3,0,0,1-3.19-1.47c-.24-.38-.41-.39-.78-.2a3.17,3.17,0,0,1-3.77-.54,3.4,3.4,0,0,1-.43-3.95A6.26,6.26,0,0,1,1830.16,413.64Z"/><ellipse class="cls-2" cx="1833.35" cy="416.38" rx="5.89" ry="7.94" transform="translate(599.28 1834.69) rotate(-61.77)"/></g><g class="cls-1"><path class="cls-2" d="M1847.22,483.8a9.89,9.89,0,0,1,4.34-4.95c3.5-1.9,6.8-.25,7.4,3.69a10.6,10.6,0,0,1-5.89,10.47,4.55,4.55,0,0,1-6.6-3.48A9.7,9.7,0,0,1,1847.22,483.8Z"/><path class="cls-2" d="M1860.63,488.31a9,9,0,0,1,3.89-4.82,4.4,4.4,0,0,1,6.16,1.65,9.18,9.18,0,0,1,.68,7.51,9.83,9.83,0,0,1-3.09,4.92c-2.79,2.34-6.22,1.53-7.66-1.81A10,10,0,0,1,1860.63,488.31Z"/><path class="cls-2" d="M1874.84,481c.76-1.81,1.63-3.23,3.27-4a4,4,0,0,1,4.62.63c2.29,2,3,4.69,2.89,7.6a8.88,8.88,0,0,1-1.79,5.29c-2.13,2.82-5.64,2.83-7.7,0A10.17,10.17,0,0,1,1874.84,481Z"/><path class="cls-2" d="M1840.07,471.25c1.65-3.51,4.11-6.07,8.17-6.53a4.33,4.33,0,0,1,5,4.47c.15,4.43-4.34,9.3-8.76,9.53a4.47,4.47,0,0,1-5-5A8.1,8.1,0,0,1,1840.07,471.25Z"/><path class="cls-2" d="M1853.64,458.09a12.08,12.08,0,0,0,.61,2.66,38.69,38.69,0,0,1,2,8.21,11.06,11.06,0,0,0,1.49,4.48,10.16,10.16,0,0,0,5,3.92c4.82,1.89,8.52,1.5,11.8-1.42a31.5,31.5,0,0,1,6.17-4.19,17.19,17.19,0,0,0,3.17-2.12,5.22,5.22,0,0,0,1.46-6.31,8.59,8.59,0,0,0-6.09-4.92,17.42,17.42,0,0,0-4.08-.23,10.54,10.54,0,0,1-7.28-2.78c-.59-.53-1.19-1-1.79-1.56a8.8,8.8,0,0,0-8.25-2A5.37,5.37,0,0,0,1853.64,458.09Zm10.64,5.53a19.58,19.58,0,0,1,4.78-1.76.6.6,0,0,1,.76.29,18.18,18.18,0,0,1,2.51,5.07,4.9,4.9,0,0,1,0,3.28,3.06,3.06,0,0,1-2.74,2,3,3,0,0,1-3-1.81c-.2-.41-.36-.43-.75-.29a3.15,3.15,0,0,1-3.69-.94,3.39,3.39,0,0,1,0-4A6.28,6.28,0,0,1,1864.28,463.62Z"/><ellipse class="cls-2" cx="1867.15" cy="466.69" rx="5.89" ry="7.94" transform="translate(425.44 1741.65) rotate(-55.52)"/></g><g class="cls-1"><path class="cls-2" d="M1788.27,498.66a9.83,9.83,0,0,1,4-5.26c3.35-2.17,6.76-.76,7.65,3.12a10.6,10.6,0,0,1-5.09,10.88,4.56,4.56,0,0,1-6.85-3A9.8,9.8,0,0,1,1788.27,498.66Z"/><path class="cls-2" d="M1802,502.15a8.94,8.94,0,0,1,3.51-5.09,4.39,4.39,0,0,1,6.27,1.18,9.14,9.14,0,0,1,1.23,7.44,9.66,9.66,0,0,1-2.71,5.13c-2.61,2.54-6.08,2-7.77-1.23A10,10,0,0,1,1802,502.15Z"/><path class="cls-2" d="M1815.62,493.84c.62-1.86,1.38-3.35,3-4.21a4,4,0,0,1,4.67.29c2.43,1.84,3.29,4.45,3.44,7.36a8.84,8.84,0,0,1-1.39,5.41c-1.91,3-5.41,3.25-7.68.53A10.14,10.14,0,0,1,1815.62,493.84Z"/><path class="cls-2" d="M1780.21,486.67c1.38-3.62,3.65-6.35,7.66-7.12a4.34,4.34,0,0,1,5.37,4.09c.47,4.39-3.63,9.59-8,10.15a4.47,4.47,0,0,1-5.36-4.62A8.22,8.22,0,0,1,1780.21,486.67Z"/><path class="cls-2" d="M1792.75,472.54a12.53,12.53,0,0,0,.81,2.61,37.8,37.8,0,0,1,2.65,8,11.06,11.06,0,0,0,1.82,4.35,10.13,10.13,0,0,0,5.27,3.54c5,1.53,8.61.86,11.67-2.3a31.46,31.46,0,0,1,5.83-4.64,17.41,17.41,0,0,0,3-2.34,5.23,5.23,0,0,0,1-6.41,8.58,8.58,0,0,0-6.44-4.45,17.48,17.48,0,0,0-4.09.07,10.53,10.53,0,0,1-7.47-2.22c-.62-.49-1.26-.95-1.9-1.42a8.8,8.8,0,0,0-8.37-1.37A5.4,5.4,0,0,0,1792.75,472.54Zm11,4.72a19.18,19.18,0,0,1,4.63-2.11.6.6,0,0,1,.79.23,18.25,18.25,0,0,1,2.88,4.87,4.89,4.89,0,0,1,.19,3.27,3.05,3.05,0,0,1-2.59,2.16,3,3,0,0,1-3.13-1.58c-.23-.4-.4-.4-.78-.23a3.15,3.15,0,0,1-3.74-.67,3.38,3.38,0,0,1-.3-4A6.16,6.16,0,0,1,1803.78,477.26Z"/><ellipse class="cls-2" cx="1806.88" cy="480.11" rx="5.89" ry="7.94" transform="translate(483.2 1800.41) rotate(-59.81)"/></g><g class="cls-1"><path class="cls-2" d="M1822.14,547.84a9.92,9.92,0,0,1,4.52-4.79c3.57-1.77,6.81,0,7.27,4a10.63,10.63,0,0,1-6.27,10.25,4.55,4.55,0,0,1-6.47-3.72A9.69,9.69,0,0,1,1822.14,547.84Z"/><path class="cls-2" d="M1835.39,552.84a9,9,0,0,1,4-4.68,4.4,4.4,0,0,1,6.1,1.87,9.13,9.13,0,0,1,.41,7.53,9.81,9.81,0,0,1-3.27,4.81c-2.87,2.23-6.27,1.3-7.58-2.09A10,10,0,0,1,1835.39,552.84Z"/><path class="cls-2" d="M1849.85,546.08c.82-1.78,1.75-3.17,3.41-3.85a4,4,0,0,1,4.6.8c2.21,2.1,2.78,4.79,2.6,7.7a8.91,8.91,0,0,1-2,5.23c-2.24,2.73-5.74,2.62-7.69-.33A10.15,10.15,0,0,1,1849.85,546.08Z"/><path class="cls-2" d="M1815.45,535c1.78-3.45,4.33-5.91,8.41-6.23a4.33,4.33,0,0,1,4.88,4.65c0,4.43-4.67,9.14-9.1,9.21a4.48,4.48,0,0,1-4.82-5.19A8.78,8.78,0,0,1,1815.45,535Z"/><path class="cls-2" d="M1829.49,522.38a12.69,12.69,0,0,0,.51,2.68,37.91,37.91,0,0,1,1.74,8.28,11.14,11.14,0,0,0,1.33,4.53,10.19,10.19,0,0,0,4.85,4.1c4.74,2.06,8.46,1.8,11.85-1a31.28,31.28,0,0,1,6.31-4,17.45,17.45,0,0,0,3.24-2,5.21,5.21,0,0,0,1.69-6.25,8.54,8.54,0,0,0-5.91-5.14,17.39,17.39,0,0,0-4.07-.38,10.58,10.58,0,0,1-7.18-3c-.56-.55-1.14-1.09-1.72-1.62a8.83,8.83,0,0,0-8.18-2.29A5.39,5.39,0,0,0,1829.49,522.38Zm10.43,5.92a19.22,19.22,0,0,1,4.84-1.59.6.6,0,0,1,.76.31,18.45,18.45,0,0,1,2.32,5.16,4.92,4.92,0,0,1-.17,3.28,3.07,3.07,0,0,1-2.81,1.86,3,3,0,0,1-2.94-1.92c-.19-.42-.35-.45-.75-.32a3.15,3.15,0,0,1-3.65-1.07,3.4,3.4,0,0,1,.14-4A6.3,6.3,0,0,1,1839.92,528.3Z"/><ellipse class="cls-2" cx="1842.68" cy="531.47" rx="5.89" ry="7.94" transform="translate(318.36 1695.24) rotate(-53.45)"/></g><g class="cls-1"><path class="cls-2" d="M1765.81,560.36a9.87,9.87,0,0,1,4.71-4.59c3.64-1.64,6.8.27,7.09,4.24a10.6,10.6,0,0,1-6.68,10,4.56,4.56,0,0,1-6.32-4A9.72,9.72,0,0,1,1765.81,560.36Z"/><path class="cls-2" d="M1778.83,565.9a9,9,0,0,1,4.25-4.51,4.39,4.39,0,0,1,6,2.12,9.14,9.14,0,0,1,.1,7.54,9.7,9.7,0,0,1-3.46,4.67c-3,2.11-6.32,1-7.49-2.4A10,10,0,0,1,1778.83,565.9Z"/><path class="cls-2" d="M1793.56,559.74c.9-1.74,1.88-3.09,3.56-3.71a4.07,4.07,0,0,1,4.57,1c2.12,2.19,2.58,4.9,2.29,7.8a9,9,0,0,1-2.19,5.14c-2.35,2.65-5.84,2.39-7.68-.64A10.18,10.18,0,0,1,1793.56,559.74Z"/><path class="cls-2" d="M1759.65,547.3c1.92-3.37,4.57-5.73,8.65-5.88a4.34,4.34,0,0,1,4.69,4.85c-.2,4.42-5,8.93-9.47,8.82a4.47,4.47,0,0,1-4.6-5.38A8.28,8.28,0,0,1,1759.65,547.3Z"/><path class="cls-2" d="M1774.19,535.23a12.33,12.33,0,0,0,.41,2.7,38.58,38.58,0,0,1,1.4,8.34,11,11,0,0,0,1.13,4.58,10.21,10.21,0,0,0,4.68,4.29c4.66,2.26,8.38,2.15,11.88-.5a31.71,31.71,0,0,1,6.47-3.71,17.19,17.19,0,0,0,3.32-1.86,5.21,5.21,0,0,0,1.94-6.18,8.53,8.53,0,0,0-5.69-5.37,16.75,16.75,0,0,0-4-.55,10.6,10.6,0,0,1-7-3.33c-.54-.58-1.1-1.14-1.66-1.7a8.8,8.8,0,0,0-8.07-2.61A5.39,5.39,0,0,0,1774.19,535.23Zm10.18,6.33a19.43,19.43,0,0,1,4.9-1.38.61.61,0,0,1,.75.34,18.5,18.5,0,0,1,2.1,5.25,4.87,4.87,0,0,1-.3,3.27,3.06,3.06,0,0,1-2.89,1.74,3,3,0,0,1-2.85-2c-.17-.42-.34-.46-.74-.34a3.15,3.15,0,0,1-3.6-1.23,3.41,3.41,0,0,1,.3-4A6.4,6.4,0,0,1,1784.37,541.56Z"/><ellipse class="cls-2" cx="1787" cy="544.85" rx="5.89" ry="7.94" transform="translate(240.71 1593.28) rotate(-51.09)"/></g><g class="cls-1"><path class="cls-2" d="M1802.17,613.06a9.88,9.88,0,0,1,4.31-5c3.49-1.93,6.8-.29,7.43,3.64a10.63,10.63,0,0,1-5.82,10.51,4.56,4.56,0,0,1-6.63-3.43A9.75,9.75,0,0,1,1802.17,613.06Z"/><path class="cls-2" d="M1815.62,617.48a9,9,0,0,1,3.84-4.85,4.41,4.41,0,0,1,6.18,1.61,9.13,9.13,0,0,1,.73,7.5,9.65,9.65,0,0,1-3.06,4.94c-2.77,2.36-6.2,1.58-7.66-1.75A10,10,0,0,1,1815.62,617.48Z"/><path class="cls-2" d="M1829.78,610.11c.74-1.81,1.6-3.25,3.23-4a4,4,0,0,1,4.63.61c2.3,2,3,4.66,2.94,7.57a8.85,8.85,0,0,1-1.75,5.31c-2.11,2.83-5.62,2.87-7.7,0A10.11,10.11,0,0,1,1829.78,610.11Z"/><path class="cls-2" d="M1794.93,600.56c1.64-3.52,4.08-6.1,8.13-6.59a4.34,4.34,0,0,1,5.08,4.44c.18,4.42-4.27,9.33-8.69,9.59a4.48,4.48,0,0,1-5-5A8.79,8.79,0,0,1,1794.93,600.56Z"/><path class="cls-2" d="M1808.41,587.31A12.48,12.48,0,0,0,1809,590a38.73,38.73,0,0,1,2.1,8.2,11,11,0,0,0,1.52,4.46,10.13,10.13,0,0,0,5,3.89c4.83,1.86,8.53,1.44,11.79-1.5a32,32,0,0,1,6.14-4.24,17.09,17.09,0,0,0,3.15-2.13,5.21,5.21,0,0,0,1.42-6.32,8.58,8.58,0,0,0-6.12-4.88,18.06,18.06,0,0,0-4.09-.21,10.57,10.57,0,0,1-7.3-2.72c-.59-.53-1.19-1-1.8-1.55a8.8,8.8,0,0,0-8.26-1.93A5.39,5.39,0,0,0,1808.41,587.31Zm10.68,5.46a19.36,19.36,0,0,1,4.77-1.8.61.61,0,0,1,.77.28,18.77,18.77,0,0,1,2.54,5.06,4.91,4.91,0,0,1,0,3.28,3.05,3.05,0,0,1-2.73,2,3,3,0,0,1-3-1.79c-.2-.4-.37-.42-.76-.28a3.15,3.15,0,0,1-3.69-.91,3.41,3.41,0,0,1,0-4A6.21,6.21,0,0,1,1819.09,592.77Z"/><ellipse class="cls-2" cx="1821.99" cy="595.82" rx="5.89" ry="7.94" transform="translate(307.48 1770.93) rotate(-55.92)"/></g><g class="cls-1"><path class="cls-2" d="M1744.53,627.22a9.89,9.89,0,0,1,3.5-5.58c3.15-2.44,6.67-1.33,7.89,2.46a10.59,10.59,0,0,1-4.14,11.28,4.55,4.55,0,0,1-7.07-2.38A9.72,9.72,0,0,1,1744.53,627.22Z"/><path class="cls-2" d="M1758.5,629.53a9,9,0,0,1,3.06-5.38,4.41,4.41,0,0,1,6.35.64,9.19,9.19,0,0,1,1.87,7.31,9.73,9.73,0,0,1-2.27,5.35c-2.38,2.75-5.89,2.51-7.84-.56A10,10,0,0,1,1758.5,629.53Z"/><path class="cls-2" d="M1771.36,620.08c.46-1.91,1.09-3.45,2.59-4.45a4,4,0,0,1,4.67-.11c2.58,1.62,3.66,4.15,4.06,7a8.93,8.93,0,0,1-.92,5.51c-1.65,3.12-5.11,3.7-7.61,1.18A10.12,10.12,0,0,1,1771.36,620.08Z"/><path class="cls-2" d="M1735.47,616c1.07-3.73,3.09-6.65,7-7.76a4.34,4.34,0,0,1,5.7,3.61c.85,4.35-2.79,9.88-7.13,10.81a4.47,4.47,0,0,1-5.73-4.14A8.55,8.55,0,0,1,1735.47,616Z"/><path class="cls-2" d="M1746.76,600.82a12.1,12.1,0,0,0,1,2.53,38.2,38.2,0,0,1,3.32,7.78,11,11,0,0,0,2.19,4.17,10.16,10.16,0,0,0,5.56,3.08c5.05,1.1,8.65.11,11.42-3.29a31.3,31.3,0,0,1,5.41-5.13,17.11,17.11,0,0,0,2.79-2.59,5.23,5.23,0,0,0,.43-6.47,8.55,8.55,0,0,0-6.79-3.88,18,18,0,0,0-4.07.42,10.52,10.52,0,0,1-7.63-1.57c-.66-.43-1.34-.84-2-1.25a8.8,8.8,0,0,0-8.46-.64A5.36,5.36,0,0,0,1746.76,600.82Zm11.38,3.76a19.83,19.83,0,0,1,4.44-2.51.61.61,0,0,1,.8.16,18.47,18.47,0,0,1,3.29,4.61,4.91,4.91,0,0,1,.47,3.25,3,3,0,0,1-2.39,2.37,3,3,0,0,1-3.26-1.31c-.26-.37-.43-.36-.79-.16a3.16,3.16,0,0,1-3.79-.34,3.39,3.39,0,0,1-.64-3.92A6.24,6.24,0,0,1,1758.14,604.58Z"/><ellipse class="cls-2" cx="1761.47" cy="607.15" rx="5.89" ry="7.94" transform="translate(460.49 1940.89) rotate(-64.73)"/></g><g class="cls-1"><path class="cls-2" d="M1783.24,673.5a9.86,9.86,0,0,1,4.1-5.15c3.4-2.08,6.78-.58,7.57,3.32a10.61,10.61,0,0,1-5.37,10.74,4.55,4.55,0,0,1-6.77-3.15A9.7,9.7,0,0,1,1783.24,673.5Z"/><path class="cls-2" d="M1796.86,677.35a9,9,0,0,1,3.64-5,4.39,4.39,0,0,1,6.24,1.35,9.11,9.11,0,0,1,1,7.46,9.78,9.78,0,0,1-2.84,5.07c-2.68,2.47-6.14,1.83-7.74-1.44A10,10,0,0,1,1796.86,677.35Z"/><path class="cls-2" d="M1810.7,669.4c.67-1.85,1.47-3.31,3.07-4.13a4,4,0,0,1,4.65.41c2.38,1.9,3.17,4.54,3.25,7.45a8.86,8.86,0,0,1-1.53,5.37c-2,2.92-5.49,3.1-7.69.33A10.14,10.14,0,0,1,1810.7,669.4Z"/><path class="cls-2" d="M1775.49,661.31c1.48-3.58,3.81-6.26,7.84-6.92a4.34,4.34,0,0,1,5.26,4.23c.37,4.4-3.87,9.49-8.28,9.94a4.47,4.47,0,0,1-5.24-4.76A8.18,8.18,0,0,1,1775.49,661.31Z"/><path class="cls-2" d="M1788.4,647.51a12.7,12.7,0,0,0,.74,2.63,38,38,0,0,1,2.44,8.1,11.08,11.08,0,0,0,1.7,4.39,10.16,10.16,0,0,0,5.18,3.68c4.91,1.66,8.59,1.08,11.72-2a31.41,31.41,0,0,1,6-4.48,17.33,17.33,0,0,0,3.06-2.27,5.22,5.22,0,0,0,1.15-6.37,8.57,8.57,0,0,0-6.32-4.62,18,18,0,0,0-4.09,0,10.55,10.55,0,0,1-7.41-2.41c-.61-.51-1.24-1-1.86-1.47a8.84,8.84,0,0,0-8.34-1.59A5.39,5.39,0,0,0,1788.4,647.51Zm10.9,5a19.37,19.37,0,0,1,4.68-2,.62.62,0,0,1,.79.25,18.48,18.48,0,0,1,2.75,5,4.89,4.89,0,0,1,.1,3.28,3.06,3.06,0,0,1-2.64,2.09,3,3,0,0,1-3.09-1.67c-.22-.4-.39-.41-.77-.25a3.15,3.15,0,0,1-3.73-.76,3.41,3.41,0,0,1-.2-4A6.36,6.36,0,0,1,1799.3,652.52Z"/><ellipse class="cls-2" cx="1802.32" cy="655.44" rx="5.89" ry="7.94" transform="translate(297.87 1844.81) rotate(-58.31)"/></g><g class="cls-1"><path class="cls-2" d="M1725.73,689.33a9.84,9.84,0,0,1,3.78-5.39c3.27-2.28,6.73-1,7.76,2.85a10.61,10.61,0,0,1-4.71,11.05,4.56,4.56,0,0,1-7-2.73A9.7,9.7,0,0,1,1725.73,689.33Z"/><path class="cls-2" d="M1739.56,692.35a9,9,0,0,1,3.33-5.22,4.4,4.4,0,0,1,6.31,1,9.16,9.16,0,0,1,1.49,7.39,9.64,9.64,0,0,1-2.53,5.23c-2.52,2.63-6,2.21-7.81-1A10,10,0,0,1,1739.56,692.35Z"/><path class="cls-2" d="M1752.89,683.56c.55-1.88,1.26-3.39,2.81-4.31a4,4,0,0,1,4.67.13c2.49,1.75,3.44,4.33,3.69,7.24a8.83,8.83,0,0,1-1.19,5.45c-1.81,3-5.3,3.43-7.66.8A10.16,10.16,0,0,1,1752.89,683.56Z"/><path class="cls-2" d="M1717.25,677.64c1.26-3.67,3.42-6.48,7.41-7.39a4.33,4.33,0,0,1,5.5,3.9c.64,4.38-3.29,9.71-7.66,10.42a4.47,4.47,0,0,1-5.52-4.42A8.52,8.52,0,0,1,1717.25,677.64Z"/><path class="cls-2" d="M1729.3,663.08a12.22,12.22,0,0,0,.89,2.57,38,38,0,0,1,2.93,7.94,11.22,11.22,0,0,0,2,4.28,10.12,10.12,0,0,0,5.4,3.35c5,1.36,8.63.56,11.57-2.7a31.56,31.56,0,0,1,5.67-4.84,17.49,17.49,0,0,0,2.92-2.45,5.22,5.22,0,0,0,.76-6.43,8.57,8.57,0,0,0-6.59-4.23,17.39,17.39,0,0,0-4.08.22,10.63,10.63,0,0,1-7.55-2c-.64-.47-1.29-.91-2-1.36a8.8,8.8,0,0,0-8.41-1.07A5.39,5.39,0,0,0,1729.3,663.08Zm11.18,4.33a19.78,19.78,0,0,1,4.55-2.28.62.62,0,0,1,.8.2,18.81,18.81,0,0,1,3.05,4.77,4.88,4.88,0,0,1,.3,3.27,3,3,0,0,1-2.51,2.24,3,3,0,0,1-3.19-1.47c-.24-.38-.4-.38-.78-.2a3.15,3.15,0,0,1-3.77-.53,3.4,3.4,0,0,1-.43-3.95A6.16,6.16,0,0,1,1740.48,667.41Z"/><ellipse class="cls-2" cx="1743.67" cy="670.14" rx="5.89" ry="7.94" transform="translate(329.34 1890.45) rotate(-61.81)"/></g><g class="cls-1"><path class="cls-2" d="M1762.93,738.42a9.88,9.88,0,0,1,4.11-5.15c3.4-2.07,6.77-.56,7.56,3.34a10.59,10.59,0,0,1-5.39,10.73,4.55,4.55,0,0,1-6.76-3.16A9.71,9.71,0,0,1,1762.93,738.42Z"/><path class="cls-2" d="M1776.54,742.3a9,9,0,0,1,3.65-5,4.4,4.4,0,0,1,6.24,1.36,9.16,9.16,0,0,1,1,7.46,9.75,9.75,0,0,1-2.86,5.07c-2.68,2.46-6.14,1.82-7.73-1.45A10,10,0,0,1,1776.54,742.3Z"/><path class="cls-2" d="M1790.4,734.37c.67-1.85,1.47-3.31,3.07-4.13a4,4,0,0,1,4.65.42c2.38,1.9,3.17,4.54,3.24,7.45a9,9,0,0,1-1.54,5.38c-2,2.91-5.5,3.09-7.69.31A10.11,10.11,0,0,1,1790.4,734.37Z"/><path class="cls-2" d="M1755.2,726.22c1.49-3.58,3.82-6.25,7.85-6.91a4.34,4.34,0,0,1,5.26,4.24c.35,4.41-3.9,9.49-8.31,9.92a4.46,4.46,0,0,1-5.22-4.76A8.18,8.18,0,0,1,1755.2,726.22Z"/><path class="cls-2" d="M1768.13,712.44a12.7,12.7,0,0,0,.74,2.63,37.49,37.49,0,0,1,2.42,8.11,11.2,11.2,0,0,0,1.7,4.39,10.18,10.18,0,0,0,5.17,3.69c4.9,1.66,8.58,1.09,11.73-2a31.84,31.84,0,0,1,6-4.48,17.73,17.73,0,0,0,3.06-2.25,5.21,5.21,0,0,0,1.16-6.38,8.57,8.57,0,0,0-6.31-4.63,18,18,0,0,0-4.09,0,10.54,10.54,0,0,1-7.4-2.43c-.61-.5-1.24-1-1.86-1.47a8.8,8.8,0,0,0-8.33-1.6A5.39,5.39,0,0,0,1768.13,712.44Zm10.89,5a19.55,19.55,0,0,1,4.69-2,.61.61,0,0,1,.78.25,18.48,18.48,0,0,1,2.75,4.95,4.89,4.89,0,0,1,.09,3.28,3.13,3.13,0,0,1-5.73.42c-.22-.4-.38-.42-.77-.25a3.17,3.17,0,0,1-3.73-.77,3.42,3.42,0,0,1-.19-4A6.39,6.39,0,0,1,1779,717.46Z"/><ellipse class="cls-2" cx="1782.04" cy="720.4" rx="5.89" ry="7.94" transform="translate(231.08 1855.8) rotate(-58.22)"/></g><g class="cls-1"><path class="cls-2" d="M1708.47,753.86a9.83,9.83,0,0,1,3.76-5.41c3.26-2.29,6.72-1,7.76,2.83a10.59,10.59,0,0,1-4.67,11.07,4.55,4.55,0,0,1-7-2.71A9.68,9.68,0,0,1,1708.47,753.86Z"/><path class="cls-2" d="M1722.3,756.83a9,9,0,0,1,3.32-5.22,4.39,4.39,0,0,1,6.31.94,9.15,9.15,0,0,1,1.52,7.38,9.66,9.66,0,0,1-2.52,5.24c-2.51,2.64-6,2.23-7.81-.94A10,10,0,0,1,1722.3,756.83Z"/><path class="cls-2" d="M1735.61,748c.54-1.88,1.25-3.39,2.79-4.31a4,4,0,0,1,4.67.11c2.5,1.74,3.46,4.32,3.72,7.22a8.85,8.85,0,0,1-1.18,5.46c-1.8,3-5.28,3.45-7.65.82A10.14,10.14,0,0,1,1735.61,748Z"/><path class="cls-2" d="M1700,742.19c1.25-3.67,3.4-6.49,7.38-7.41a4.34,4.34,0,0,1,5.52,3.88c.65,4.38-3.26,9.73-7.63,10.45a4.46,4.46,0,0,1-5.53-4.41A8.58,8.58,0,0,1,1700,742.19Z"/><path class="cls-2" d="M1712,727.59a11.55,11.55,0,0,0,.91,2.57,38.67,38.67,0,0,1,3,7.94,11.12,11.12,0,0,0,2,4.27,10.18,10.18,0,0,0,5.41,3.34c5,1.34,8.63.53,11.56-2.75a32,32,0,0,1,5.66-4.85,17.9,17.9,0,0,0,2.9-2.46,5.22,5.22,0,0,0,.75-6.44,8.57,8.57,0,0,0-6.61-4.2,16.93,16.93,0,0,0-4.08.23,10.58,10.58,0,0,1-7.55-1.94c-.64-.46-1.3-.9-1.95-1.35a8.82,8.82,0,0,0-8.42-1A5.38,5.38,0,0,0,1712,727.59Zm11.19,4.3a19.62,19.62,0,0,1,4.55-2.29.6.6,0,0,1,.8.2,18.35,18.35,0,0,1,3.06,4.76,4.87,4.87,0,0,1,.32,3.26,3.07,3.07,0,0,1-2.51,2.26,3,3,0,0,1-3.19-1.46c-.24-.39-.41-.39-.78-.2a3.15,3.15,0,0,1-3.77-.53,3.37,3.37,0,0,1-.45-3.94A6.26,6.26,0,0,1,1723.14,731.89Z"/><ellipse class="cls-2" cx="1726.35" cy="734.62" rx="5.89" ry="7.94" transform="translate(267.07 1913.78) rotate(-61.99)"/></g><g class="cls-1"><path class="cls-2" d="M1749.41,801.31a9.8,9.8,0,0,1,3.67-5.46c3.23-2.34,6.71-1.12,7.81,2.71a10.59,10.59,0,0,1-4.5,11.13,4.54,4.54,0,0,1-7-2.6A9.59,9.59,0,0,1,1749.41,801.31Z"/><path class="cls-2" d="M1763.29,804.07a9,9,0,0,1,3.23-5.28,4.4,4.4,0,0,1,6.33.84,9.17,9.17,0,0,1,1.63,7.36,9.75,9.75,0,0,1-2.43,5.28c-2.47,2.67-6,2.32-7.83-.81A10,10,0,0,1,1763.29,804.07Z"/><path class="cls-2" d="M1776.45,795c.52-1.89,1.2-3.41,2.73-4.36a4,4,0,0,1,4.67,0c2.52,1.7,3.52,4.27,3.83,7.16a9,9,0,0,1-1.09,5.48c-1.76,3.07-5.23,3.53-7.64.94A10.12,10.12,0,0,1,1776.45,795Z"/><path class="cls-2" d="M1740.7,789.78c1.2-3.69,3.31-6.54,7.27-7.52a4.33,4.33,0,0,1,5.58,3.79c.72,4.36-3.1,9.77-7.46,10.57a4.46,4.46,0,0,1-5.6-4.33A8.53,8.53,0,0,1,1740.7,789.78Z"/><path class="cls-2" d="M1752.47,775a12.68,12.68,0,0,0,1,2.56,38.44,38.44,0,0,1,3.08,7.89,11,11,0,0,0,2,4.24,10.18,10.18,0,0,0,5.45,3.25c5,1.26,8.65.39,11.53-2.93a31.53,31.53,0,0,1,5.57-4.94,17.11,17.11,0,0,0,2.87-2.5,5.21,5.21,0,0,0,.64-6.45,8.54,8.54,0,0,0-6.67-4.1,17.92,17.92,0,0,0-4.07.29,10.51,10.51,0,0,1-7.58-1.82c-.65-.45-1.31-.88-2-1.31a8.79,8.79,0,0,0-8.43-.92A5.39,5.39,0,0,0,1752.47,775Zm11.27,4.12a19.77,19.77,0,0,1,4.51-2.36.62.62,0,0,1,.8.19,18.16,18.16,0,0,1,3.13,4.71,4.83,4.83,0,0,1,.37,3.26,3,3,0,0,1-2.47,2.29,3,3,0,0,1-3.21-1.41c-.25-.38-.42-.38-.79-.19a3.13,3.13,0,0,1-3.77-.46,3.39,3.39,0,0,1-.52-3.94A6.29,6.29,0,0,1,1763.74,779.11Z"/><ellipse class="cls-2" cx="1766.98" cy="781.79" rx="5.89" ry="7.94" transform="translate(265.93 1998.45) rotate(-62.89)"/></g><g class="cls-1"><path class="cls-2" d="M1694.39,818.9a10,10,0,0,1,2.64-6c2.76-2.88,6.4-2.3,8.17,1.27a10.6,10.6,0,0,1-2.43,11.76,4.55,4.55,0,0,1-7.35-1.3A9.78,9.78,0,0,1,1694.39,818.9Z"/><path class="cls-2" d="M1708.55,819.12a9,9,0,0,1,2.23-5.77,4.39,4.39,0,0,1,6.37-.3,9.13,9.13,0,0,1,2.93,7,9.71,9.71,0,0,1-1.45,5.62c-2,3.08-5.46,3.35-7.84.6A9.94,9.94,0,0,1,1708.55,819.12Z"/><path class="cls-2" d="M1719.88,807.88c.17-2,.57-3.58,1.9-4.78a4,4,0,0,1,4.6-.8c2.79,1.22,4.24,3.57,5.06,6.36a8.91,8.91,0,0,1-.1,5.59c-1.18,3.33-4.51,4.41-7.35,2.29A10.14,10.14,0,0,1,1719.88,807.88Z"/><path class="cls-2" d="M1683.77,809.11c.51-3.85,2.08-7,5.8-8.7a4.33,4.33,0,0,1,6.17,2.73c1.49,4.16-1.31,10.17-5.45,11.73a4.47,4.47,0,0,1-6.29-3.25A8.43,8.43,0,0,1,1683.77,809.11Z"/><path class="cls-2" d="M1692.7,792.45a12,12,0,0,0,1.39,2.35,38.4,38.4,0,0,1,4.44,7.21,11.09,11.09,0,0,0,2.78,3.81,10.23,10.23,0,0,0,6,2.22c5.16.34,8.57-1.16,10.81-4.94a31.85,31.85,0,0,1,4.6-5.87,17.42,17.42,0,0,0,2.38-3,5.21,5.21,0,0,0-.53-6.46,8.56,8.56,0,0,0-7.29-2.84,16.83,16.83,0,0,0-4,1,10.65,10.65,0,0,1-7.79-.43c-.71-.34-1.44-.64-2.17-.95a8.81,8.81,0,0,0-8.46.61A5.39,5.39,0,0,0,1692.7,792.45Zm11.82,2a19.39,19.39,0,0,1,4-3.13.61.61,0,0,1,.82,0,18.74,18.74,0,0,1,3.93,4.07,4.93,4.93,0,0,1,.94,3.14,3,3,0,0,1-2,2.7,3,3,0,0,1-3.41-.81c-.32-.33-.48-.3-.81,0a3.15,3.15,0,0,1-3.8.22,3.39,3.39,0,0,1-1.21-3.78A6.27,6.27,0,0,1,1704.52,794.49Z"/><ellipse class="cls-2" cx="1708.19" cy="796.54" rx="5.89" ry="7.94" transform="translate(452.01 2201.68) rotate(-73.2)"/></g><g class="cls-1"><path class="cls-2" d="M1740,862.64a9.83,9.83,0,0,1,3.2-5.76c3-2.6,6.59-1.67,8,2a10.58,10.58,0,0,1-3.55,11.47,4.55,4.55,0,0,1-7.19-2A9.72,9.72,0,0,1,1740,862.64Z"/><path class="cls-2" d="M1754.09,864.22a9,9,0,0,1,2.78-5.53,4.39,4.39,0,0,1,6.37.31,9.19,9.19,0,0,1,2.25,7.2,9.81,9.81,0,0,1-2,5.46c-2.24,2.87-5.76,2.81-7.87-.16A10,10,0,0,1,1754.09,864.22Z"/><path class="cls-2" d="M1766.45,854.11c.36-1.92.91-3.5,2.35-4.57a4,4,0,0,1,4.66-.35c2.66,1.48,3.87,3.95,4.42,6.81a8.94,8.94,0,0,1-.63,5.56c-1.49,3.2-4.92,4-7.54,1.57A10.13,10.13,0,0,1,1766.45,854.11Z"/><path class="cls-2" d="M1730.39,851.88c.88-3.78,2.74-6.8,6.61-8.11a4.33,4.33,0,0,1,5.88,3.31c1.08,4.29-2.28,10-6.56,11.16a4.47,4.47,0,0,1-5.94-3.84A8.52,8.52,0,0,1,1730.39,851.88Z"/><path class="cls-2" d="M1740.88,836.15a12.12,12.12,0,0,0,1.16,2.47,38.24,38.24,0,0,1,3.72,7.6,11.1,11.1,0,0,0,2.4,4.06,10.16,10.16,0,0,0,5.71,2.78c5.11.84,8.65-.33,11.24-3.88a31.66,31.66,0,0,1,5.14-5.4,17.11,17.11,0,0,0,2.65-2.73,5.23,5.23,0,0,0,.1-6.48,8.55,8.55,0,0,0-7-3.52,17.27,17.27,0,0,0-4,.63,10.6,10.6,0,0,1-7.71-1.18c-.68-.39-1.38-.77-2.07-1.14a8.81,8.81,0,0,0-8.48-.21A5.39,5.39,0,0,0,1740.88,836.15Zm11.57,3.17a19.26,19.26,0,0,1,4.29-2.73.61.61,0,0,1,.82.12,18.58,18.58,0,0,1,3.52,4.42,4.94,4.94,0,0,1,.64,3.22,3,3,0,0,1-2.27,2.49,3,3,0,0,1-3.32-1.13c-.29-.36-.45-.34-.8-.12a3.15,3.15,0,0,1-3.8-.15,3.37,3.37,0,0,1-.84-3.88A6.2,6.2,0,0,1,1752.45,839.32Z"/><ellipse class="cls-2" cx="1755.9" cy="841.71" rx="5.89" ry="7.94" transform="translate(310.83 2146.86) rotate(-67.7)"/></g><g class="cls-1"><path class="cls-2" d="M1688.07,885.91a9.83,9.83,0,0,1,2.19-6.21c2.54-3.08,6.21-2.77,8.24.66a10.61,10.61,0,0,1-1.57,11.91,4.55,4.55,0,0,1-7.42-.76A9.69,9.69,0,0,1,1688.07,885.91Z"/><path class="cls-2" d="M1702.2,885.1a9,9,0,0,1,1.81-5.92,4.39,4.39,0,0,1,6.33-.77,9.15,9.15,0,0,1,3.43,6.72,9.81,9.81,0,0,1-1,5.72c-1.72,3.2-5.2,3.73-7.78,1.17A10,10,0,0,1,1702.2,885.1Z"/><path class="cls-2" d="M1712.68,873.05c0-2,.3-3.6,1.55-4.9a4,4,0,0,1,4.53-1.13c2.87,1,4.48,3.25,5.5,6a8.89,8.89,0,0,1,.32,5.58c-.93,3.41-4.18,4.73-7.17,2.82A10.11,10.11,0,0,1,1712.68,873.05Z"/><path class="cls-2" d="M1676.76,876.92c.23-3.87,1.56-7.16,5.15-9.1a4.33,4.33,0,0,1,6.35,2.27c1.79,4-.56,10.24-4.58,12.1a4.46,4.46,0,0,1-6.5-2.78A8.33,8.33,0,0,1,1676.76,876.92Z"/><path class="cls-2" d="M1684.45,859.66a12,12,0,0,0,1.56,2.24,38,38,0,0,1,5,6.86,11.11,11.11,0,0,0,3,3.6,10.13,10.13,0,0,0,6.09,1.77c5.18,0,8.47-1.78,10.43-5.71a31.49,31.49,0,0,1,4.16-6.19,17.44,17.44,0,0,0,2.15-3.14,5.21,5.21,0,0,0-1-6.4,8.55,8.55,0,0,0-7.48-2.3,17.66,17.66,0,0,0-3.87,1.31,10.67,10.67,0,0,1-7.8.14c-.74-.28-1.49-.53-2.24-.79a8.8,8.8,0,0,0-8.39,1.23A5.39,5.39,0,0,0,1684.45,859.66Zm11.93,1.17a19.51,19.51,0,0,1,3.78-3.42.61.61,0,0,1,.82,0,18.54,18.54,0,0,1,4.22,3.78,4.87,4.87,0,0,1,1.17,3.06,3.06,3.06,0,0,1-1.82,2.84,3,3,0,0,1-3.46-.56c-.34-.31-.5-.27-.81,0a3.14,3.14,0,0,1-3.77.5,3.37,3.37,0,0,1-1.48-3.68A6.13,6.13,0,0,1,1696.38,860.83Z"/><ellipse class="cls-2" cx="1700.2" cy="862.6" rx="5.89" ry="7.94" transform="translate(487.33 2333.56) rotate(-77.39)"/></g><g class="cls-1"><path class="cls-2" d="M1735.88,923.05a9.9,9.9,0,0,1,2.66-6c2.76-2.87,6.4-2.28,8.16,1.29a10.59,10.59,0,0,1-2.46,11.76,4.55,4.55,0,0,1-7.34-1.33A9.69,9.69,0,0,1,1735.88,923.05Z"/><path class="cls-2" d="M1750,923.31a8.93,8.93,0,0,1,2.25-5.76,4.39,4.39,0,0,1,6.37-.29,9.18,9.18,0,0,1,2.91,7,9.74,9.74,0,0,1-1.47,5.63c-1.95,3.07-5.46,3.33-7.84.58A10,10,0,0,1,1750,923.31Z"/><path class="cls-2" d="M1761.4,912.1c.17-2,.57-3.58,1.91-4.78a4,4,0,0,1,4.6-.79c2.79,1.24,4.23,3.58,5,6.38a9,9,0,0,1-.1,5.59c-1.19,3.32-4.53,4.39-7.36,2.27A10.14,10.14,0,0,1,1761.4,912.1Z"/><path class="cls-2" d="M1725.29,913.23c.52-3.84,2.09-7,5.82-8.68a4.32,4.32,0,0,1,6.16,2.74c1.48,4.17-1.33,10.17-5.48,11.72a4.47,4.47,0,0,1-6.28-3.26A8.49,8.49,0,0,1,1725.29,913.23Z"/><path class="cls-2" d="M1734.26,896.6a11.54,11.54,0,0,0,1.39,2.35,38.33,38.33,0,0,1,4.41,7.22,11.23,11.23,0,0,0,2.77,3.82,10.19,10.19,0,0,0,6,2.23c5.16.36,8.57-1.14,10.82-4.91a31.49,31.49,0,0,1,4.62-5.85,17.42,17.42,0,0,0,2.38-3,5.21,5.21,0,0,0-.51-6.46,8.55,8.55,0,0,0-7.29-2.86,17.58,17.58,0,0,0-4,1,10.63,10.63,0,0,1-7.78-.45c-.72-.34-1.44-.64-2.17-1a8.81,8.81,0,0,0-8.47.59A5.38,5.38,0,0,0,1734.26,896.6Zm11.81,2.07a19.67,19.67,0,0,1,4-3.12.61.61,0,0,1,.82,0,18.74,18.74,0,0,1,3.92,4.08,4.87,4.87,0,0,1,.93,3.15,3,3,0,0,1-2,2.69,3,3,0,0,1-3.41-.82c-.32-.33-.48-.3-.81,0a3.17,3.17,0,0,1-3.8.21,3.4,3.4,0,0,1-1.2-3.79A6.42,6.42,0,0,1,1746.07,898.67Z"/><ellipse class="cls-2" cx="1749.74" cy="900.73" rx="5.89" ry="7.94" transform="translate(378.19 2312.03) rotate(-73.06)"/></g><g class="cls-1"><path class="cls-2" d="M1688.59,951.46a9.87,9.87,0,0,1,1.83-6.33c2.36-3.21,6-3.11,8.26.2a10.59,10.59,0,0,1-.88,12,4.55,4.55,0,0,1-7.45-.34A9.62,9.62,0,0,1,1688.59,951.46Z"/><path class="cls-2" d="M1702.65,949.84a9,9,0,0,1,1.47-6,4.4,4.4,0,0,1,6.28-1.13,9.17,9.17,0,0,1,3.8,6.51,9.8,9.8,0,0,1-.7,5.77c-1.54,3.3-5,4-7.7,1.61A10,10,0,0,1,1702.65,949.84Z"/><path class="cls-2" d="M1712.42,937.22c-.08-2,.1-3.62,1.27-5a4,4,0,0,1,4.45-1.39c2.93.85,4.67,3,5.84,5.65a8.84,8.84,0,0,1,.64,5.55c-.74,3.46-3.9,5-7,3.23A10.13,10.13,0,0,1,1712.42,937.22Z"/><path class="cls-2" d="M1676.78,943.14c0-3.88,1.15-7.24,4.62-9.39a4.33,4.33,0,0,1,6.47,1.91c2,3.94,0,10.26-3.88,12.34a4.46,4.46,0,0,1-6.65-2.4A8.62,8.62,0,0,1,1676.78,943.14Z"/><path class="cls-2" d="M1683.47,925.46a12.13,12.13,0,0,0,1.69,2.15,37.92,37.92,0,0,1,5.33,6.57,11.24,11.24,0,0,0,3.25,3.41,10.18,10.18,0,0,0,6.19,1.43c5.16-.34,8.35-2.27,10.08-6.31a31.39,31.39,0,0,1,3.8-6.41,17.1,17.1,0,0,0,2-3.26,5.2,5.2,0,0,0-1.36-6.33,8.52,8.52,0,0,0-7.6-1.87,17.26,17.26,0,0,0-3.79,1.52,10.52,10.52,0,0,1-7.77.59c-.76-.24-1.52-.44-2.28-.65a8.8,8.8,0,0,0-8.32,1.71A5.38,5.38,0,0,0,1683.47,925.46Zm12,.48a19.79,19.79,0,0,1,3.58-3.62.61.61,0,0,1,.82-.07,18.42,18.42,0,0,1,4.42,3.53,4.83,4.83,0,0,1,1.35,3,3.07,3.07,0,0,1-1.65,2.94,3,3,0,0,1-3.49-.36c-.36-.29-.52-.24-.81.06a3.15,3.15,0,0,1-3.74.71,3.4,3.4,0,0,1-1.69-3.59A6.23,6.23,0,0,1,1695.45,925.94Z"/><ellipse class="cls-2" cx="1699.36" cy="927.5" rx="5.89" ry="7.94" transform="translate(508.92 2454.24) rotate(-80.68)"/></g><g class="cls-1"><path class="cls-2" d="M1745.27,986.15a9.88,9.88,0,0,1,1.07-6.5c2-3.47,5.63-3.81,8.22-.79a10.62,10.62,0,0,1,.56,12,4.56,4.56,0,0,1-7.45.55A9.78,9.78,0,0,1,1745.27,986.15Z"/><path class="cls-2" d="M1759,982.87a9,9,0,0,1,.74-6.15,4.4,4.4,0,0,1,6.1-1.87,9.16,9.16,0,0,1,4.55,6,9.79,9.79,0,0,1,0,5.82c-1.13,3.46-4.46,4.59-7.45,2.52A10,10,0,0,1,1759,982.87Z"/><path class="cls-2" d="M1767.24,969.17c-.32-1.93-.33-3.6.66-5.1a4,4,0,0,1,4.26-1.91c3,.49,5,2.41,6.47,4.91a8.87,8.87,0,0,1,1.29,5.44c-.31,3.52-3.28,5.39-6.55,4A10.16,10.16,0,0,1,1767.24,969.17Z"/><path class="cls-2" d="M1732.56,979.29c-.46-3.85.27-7.32,3.47-9.87a4.34,4.34,0,0,1,6.65,1.12c2.47,3.68,1.25,10.19-2.38,12.72a4.46,4.46,0,0,1-6.89-1.59A8.55,8.55,0,0,1,1732.56,979.29Z"/><path class="cls-2" d="M1737.1,961a12.51,12.51,0,0,0,1.92,1.93,38,38,0,0,1,6.08,5.88,10.92,10.92,0,0,0,3.64,3,10.08,10.08,0,0,0,6.31.68c5.09-.94,8-3.24,9.26-7.45a31.06,31.06,0,0,1,3-6.83,17.37,17.37,0,0,0,1.56-3.46,5.23,5.23,0,0,0-2.1-6.13,8.55,8.55,0,0,0-7.77-1,17.62,17.62,0,0,0-3.59,2,10.52,10.52,0,0,1-7.65,1.51c-.77-.14-1.56-.26-2.34-.38a8.82,8.82,0,0,0-8,2.69A5.39,5.39,0,0,0,1737.1,961Zm12-1a19.07,19.07,0,0,1,3.12-4,.6.6,0,0,1,.8-.16,18.27,18.27,0,0,1,4.82,3,4.89,4.89,0,0,1,1.69,2.81,3.08,3.08,0,0,1-1.29,3.12,3,3,0,0,1-3.51,0c-.39-.24-.54-.17-.79.16a3.14,3.14,0,0,1-3.63,1.15,3.4,3.4,0,0,1-2.11-3.36A6.36,6.36,0,0,1,1749.05,960Z"/><ellipse class="cls-2" cx="1753.12" cy="961.08" rx="5.89" ry="7.94" transform="translate(716.99 2670.91) rotate(-87.52)"/></g><g class="cls-1"><path class="cls-2" d="M1705,1024.1a9.87,9.87,0,0,1,.33-6.57c1.55-3.67,5.16-4.42,8.08-1.72a10.61,10.61,0,0,1,1.9,11.86,4.55,4.55,0,0,1-7.33,1.39A9.69,9.69,0,0,1,1705,1024.1Z"/><path class="cls-2" d="M1718.29,1019.3a9,9,0,0,1,0-6.19,4.39,4.39,0,0,1,5.85-2.55,9.19,9.19,0,0,1,5.2,5.46,9.78,9.78,0,0,1,.64,5.78c-.74,3.56-3.92,5.07-7.12,3.34A10,10,0,0,1,1718.29,1019.3Z"/><path class="cls-2" d="M1724.9,1004.76c-.53-1.88-.74-3.54.08-5.14a4.06,4.06,0,0,1,4-2.38c3,.16,5.23,1.84,7,4.16a8.91,8.91,0,0,1,1.89,5.26c.08,3.53-2.66,5.72-6.06,4.74A10.12,10.12,0,0,1,1724.9,1004.76Z"/><path class="cls-2" d="M1691.58,1018.72c-.89-3.78-.55-7.31,2.34-10.2a4.33,4.33,0,0,1,6.73.37c2.87,3.37,2.39,10-.94,12.91a4.46,4.46,0,0,1-7-.81A8.4,8.4,0,0,1,1691.58,1018.72Z"/><path class="cls-2" d="M1694,1000a12.42,12.42,0,0,0,2.13,1.7,38.2,38.2,0,0,1,6.71,5.17,11.16,11.16,0,0,0,3.94,2.57,10.25,10.25,0,0,0,6.36,0c4.94-1.51,7.6-4.13,8.35-8.46a31.58,31.58,0,0,1,2.23-7.11,17.76,17.76,0,0,0,1.16-3.62,5.22,5.22,0,0,0-2.78-5.86,8.58,8.58,0,0,0-7.83-.06,17.64,17.64,0,0,0-3.34,2.35,10.59,10.59,0,0,1-7.43,2.36c-.79-.06-1.58-.08-2.37-.11a8.79,8.79,0,0,0-7.69,3.57A5.39,5.39,0,0,0,1694,1000Zm11.77-2.29a19.78,19.78,0,0,1,2.65-4.35.61.61,0,0,1,.78-.25,18.33,18.33,0,0,1,5.12,2.41,4.9,4.9,0,0,1,2,2.61,3.13,3.13,0,0,1-4.41,3.69c-.41-.2-.55-.11-.76.24a3.17,3.17,0,0,1-3.48,1.56,3.41,3.41,0,0,1-2.47-3.11A6.29,6.29,0,0,1,1705.79,997.69Z"/><ellipse class="cls-2" cx="1709.95" cy="998.31" rx="7.94" ry="5.89" transform="matrix(1, -0.07, 0.07, 1, -65.09, 120.93)"/></g><g class="cls-1"><path class="cls-2" d="M-6.43,495c73.09,30.35,141.76,72.49,195.85,130.83,46.63,50.3,81.69,109.89,112,171.08,30.73,62.08,56.91,126.27,86.75,188.77,29.34,61.44,62.48,121.69,106.3,174.12,45.78,54.77,108.51,105.86,182.66,110.59a163.64,163.64,0,0,0,27.2-.56c1.9-.2,1.92-3.2,0-3-77,7.92-146.62-40.6-195.75-95.3-46-51.19-80.62-111.24-110.76-172.77-30.47-62.22-56.65-126.44-86.72-188.84-29.22-60.64-62.4-120-106.31-171.35-50.23-58.73-114.31-102.86-184.24-135q-13-6-26.16-11.42c-1.78-.74-2.56,2.16-.8,2.89Z"/></g><g class="cls-1"><path class="cls-2" d="M2004.09,566a380.11,380.11,0,0,1-172.4-75.52c-51.79-40.52-89.21-94.42-121.64-150.94-16.4-28.57-31.73-57.73-47.82-86.48-15.9-28.39-32.78-56.2-51-83.2a1135.15,1135.15,0,0,0-265-277.45q-9.75-7.23-19.64-14.24c-1.58-1.12-3.08,1.48-1.52,2.59a1132.6,1132.6,0,0,1,273.1,275.36q27.79,39.87,52.08,82c16.54,28.7,32,58,48.12,87,31.67,56.7,66.91,112.4,116.4,155.35a383.08,383.08,0,0,0,165.3,83.94q11.5,2.63,23.15,4.5c1.89.31,2.7-2.58.8-2.89Z"/></g></svg>