<svg xmlns="http://www.w3.org/2000/svg" viewBox="0 0 100 100"><defs><style>.cls-1{fill:#466e35;stroke:#070707;stroke-miterlimit:10;}</style></defs><title>iconos</title><g id="indice"><path class="cls-1" d="M56.26,66.54a32.73,32.73,0,0,0,4.37-1C76.11,61.13,86,44.78,82.93,29a32.09,32.09,0,0,0-63.3,10.47c2,14.17,12.49,24.6,26.73,27.09.88.15,1.18.47,1.17,1.31,0,1.72,0,3.44,0,5.17s-.06,3.34,0,5c.06,1.13-.33,1.53-1.45,1.51-2.76,0-5.52,0-8.28,0-1,0-1.38.21-1.36,1.21,0,1.73.07,3.45,0,5.18,0,1,.35,1.29,1.31,1.27,2.76,0,5.52,0,8.28,0,1.12,0,1.49.31,1.47,1.45-.07,3,0,6.09,0,9.14,0,1.09.34,1.37,1.38,1.32,1.66-.08,3.34-.07,5,0,1,0,1.27-.29,1.25-1.26-.06-2.87,0-5.75-.06-8.62-.06-1.51.29-2.15,2-2,2.58.15,5.17,0,7.76,0,1,0,1.44-.3,1.37-1.38a31,31,0,0,1,0-4.31c.13-1.48-.28-2-1.87-2-2.58.14-5.17,0-7.76,0-1,0-1.47-.22-1.46-1.33.05-3.45,0-6.9,0-10.35C55.08,67,55.38,66.66,56.26,66.54Zm-5.53-8.37C37.87,58.08,27.58,47.32,27.66,34c.08-12.72,10.84-23.12,23.81-23C64.7,11.1,75,21.68,74.86,35.12,74.76,48,64,58.26,50.73,58.17Z"/></g></svg>