<svg xmlns="http://www.w3.org/2000/svg" viewBox="0 0 248.53 234.06"><defs><style>.cls-1{fill:#466e35;}</style></defs><title>iconos</title><g id="corazon"><path class="cls-1" d="M237.94,72.66c-.15,14.28-3.44,26.22-8.08,37.84-8.53,21.34-21.11,40.14-36.18,57.35-19.35,22.09-42,40.2-67,55.52a3.84,3.84,0,0,1-4.6.06C92.93,205.55,67,184,45.93,156.89c-14-18-25.19-37.43-31.6-59.44C9.64,81.38,9,65.34,15.4,49.59c8.25-20.4,22.82-33.76,44.69-38.25C77.9,7.68,93.58,12.66,107.45,24a100.84,100.84,0,0,1,15.33,16c1.55,2,1.53,2,3,.09C133,30.9,141.23,22.72,151.59,17c20-11.11,46-8.23,63.81,7.24C230.57,37.41,237.46,54.43,237.94,72.66Z"/></g></svg>