<svg xmlns="http://www.w3.org/2000/svg" viewBox="0 0 248 234"><defs><style>.cls-1{fill:#466e35;}</style></defs><title>iconos</title><g id="Layer_12" data-name="Layer 12"><path class="cls-1" d="M16.11,116.09v-2.52a7,7,0,0,1,2.49-4.69Q70.76,56.76,122.88,4.6a7,7,0,0,1,4.69-2.49h2.29a7,7,0,0,1,4.69,2.49q52.13,52.15,104.28,104.28a7,7,0,0,1,2.49,4.69v2.52c-.07,2-1.19,3.44-2.57,4.77-2.62,2.56-5.22,5.13-7.76,7.77a7.71,7.71,0,0,1-11.23.12l-.89-.88q-39.19-39.2-78.37-78.41c-2.18-2.18-4.27-4.46-6.45-6.64a10.93,10.93,0,0,0-1.93-1.61,6.07,6.07,0,0,0-6.8,0,12.13,12.13,0,0,0-2.34,2c-27.93,28.42-56.3,56.41-84.41,84.65a19.83,19.83,0,0,1-1.86,1.69,7.41,7.41,0,0,1-9.75-.48c-3.15-3-6.17-6.12-9.24-9.2A6,6,0,0,1,16.11,116.09Z"/><path class="cls-1" d="M217.71,141.05q-41.93-41.9-83.82-83.8a7.07,7.07,0,0,0-10.32,0q-42,41.94-83.9,83.88a2.33,2.33,0,0,0-.73,1.81q0,40.28,0,80.54a8.26,8.26,0,0,0,.18,1.93c.72,3.06,2.8,4.76,5.72,5.58,5,0,10,0,15,0H93a6.23,6.23,0,0,0,4.87-3,8,8,0,0,0,1.26-4.56q0-13.09,0-26.2c0-6,0-12.05,0-18.08,0-4.46,2.79-7.21,7.23-7.22h7.89q18.48,0,37,0a6.55,6.55,0,0,1,6.83,5.66,13.94,13.94,0,0,1,.19,2.73v42.91c0,4.42,1.89,6.81,6.12,7.76l.34,0,45.9,0c.65,0,1.29,0,1.94,0,4.46-1.6,5.86-3.62,5.86-8.46q0-39.81,0-79.62A2.33,2.33,0,0,0,217.71,141.05ZM136.42,93.28a6,6,0,0,1,9,2.46,11.38,11.38,0,0,1,1.09,5.14,11.91,11.91,0,0,1-4.43,9.12c-3.55,2.81-7.82,1.78-9.78-2.31C130,103,132,96,136.42,93.28Zm-23.27,1.81a6,6,0,0,1,8.28-2c4.83,2.78,6.89,10.32,4.15,15.19a5.92,5.92,0,0,1-8.69,2.27c-3.66-2.34-5-5.94-5.21-10.11A9.7,9.7,0,0,1,113.15,95.09Zm-16,20.4a9.51,9.51,0,0,1,1.75-5.79,5.69,5.69,0,0,1,7.2-1.94c3.44,1.57,5.12,4.53,5.9,8.06a10.44,10.44,0,0,1-.91,7.43,5.94,5.94,0,0,1-8.83,2.29A11.92,11.92,0,0,1,97.12,115.49Zm58.49,33c-1.31,3.76-4.66,8-10.32,7.7a26,26,0,0,1-7.21-1.08,31.29,31.29,0,0,0-18,0,20.77,20.77,0,0,1-9.59.86c-5.46-1-9.57-7.51-8.1-12.77a7.91,7.91,0,0,1,3.58-4.57,33.24,33.24,0,0,1,3.67-2.08,15.39,15.39,0,0,0,7.48-7.69c1.1-2.3,2-4.7,3.31-6.89,4.1-6.8,13.13-6.85,17.28-.09a64.1,64.1,0,0,1,3.16,6.58,15.78,15.78,0,0,0,7.79,8.16,25.86,25.86,0,0,1,3.75,2.16A8,8,0,0,1,155.61,148.45Zm1.83-24.1c-4,4-9.52,2.62-11-2.81a11.65,11.65,0,0,1,3.5-12.37c3.77-3.48,8.6-2.25,10.46,2.54a9.83,9.83,0,0,1,.67,3.91A12.24,12.24,0,0,1,157.44,124.35Z"/></g></svg>