<svg xmlns="http://www.w3.org/2000/svg" viewBox="0 0 249 234"><defs><style>.cls-1{fill:#466e35;}</style></defs><title>iconos</title><g id="Layer_11" data-name="Layer 11"><path class="cls-1" d="M130.36,126.09c.89,2.58,1.31,5.3,2.48,7.79a22.07,22.07,0,0,0,1.08,2.18c.49.78,1,1.84,2.18,1.37s1-1.47.79-2.46c-.45-1.79-1-3.56-1.32-5.37s-1.06-3.7-.61-5.65c1.49-.2,1.45,1.29,2.15,2a88.32,88.32,0,0,0,6.12,9.5c.61.84,1.39,2.31,2.53,1.58s.13-2.06-.42-2.91c-1.71-2.69-3.09-5.55-4.68-8.31-.39-.87-1.3-1.69-.3-2.72h.27c1.32.35,2,1.41,2.74,2.41,1.85,2.32,3.45,4.82,5.27,7.15a8.41,8.41,0,0,0,.83,1c.73.68,1.47,1.83,2.58.93,1-.77.27-1.79-.26-2.58-1.91-2.82-4.1-5.44-5.88-8.34-.32-.5-.76-.9-1.09-1.38-.49-.71-1.27-1.53-.56-2.33s1.59-.07,2.33.35c1.21,1,2.45,1.9,3.69,2.82a16,16,0,0,0,3.29,2.57c.31.2.59.44.89.65.77.53,1.68,1.37,2.52.58,1.05-1-.16-1.79-.67-2.6a84.3,84.3,0,0,0-7-5.94c-1.32-1.54-3-2.68-4.35-4.21s-2.06-3.35-1.12-5.43c1.83-1.17,3.85-.15,5.76-.49,1-1,2.33-.82,3.58-.86,1-.57,2.13-1.17,1.78-2.49s-1.72-1.17-2.81-1.15c-4.82.08-9.28-2.17-14-2.3-4.52-.13-7.48-2.2-9.84-5.8-.73-1.12-.83-1.67.15-2.7A139.44,139.44,0,0,0,141.1,77.41c5.73-8,8.66-17.15,10.75-26.63C154,41,157.15,31.63,162.35,23Q174.76,2.47,198.58,6.41q2.73.46,5.46,1a17,17,0,0,1,11.26,7.3c3.58,5.33,8.67,8.61,14.64,10.73A44.88,44.88,0,0,1,238.1,29c2.22,1.33,2.4,2.21,1.49,4.6-1.49,3.87-3.52,7.5-5.25,11.25-2.16,4.71-6.63,6.61-11.67,6.87-4.65.25-9.12-1.05-13.6-2a3.27,3.27,0,0,0-4,1.7,34.85,34.85,0,0,0-5.08,20.41,4.22,4.22,0,0,1-1.82,3.86c-4.52,3.84-9.11,6-15.41,4.27-4.2-1.17-8.87-.37-13.16-1.84a1.6,1.6,0,0,0-2,.54,1.75,1.75,0,0,0,.21,2.07,7.57,7.57,0,0,0,4.35,2.92c1.07.3,2.18.47,3.24.79,2,.6,2.31,1.51,1.13,3.29a8,8,0,0,1-3.34,2.85l-10.3,4.74A13.8,13.8,0,0,0,159,97.46c-.61.58-1.15,1.22-.64,2.14a1.76,1.76,0,0,0,2.1.85,12.34,12.34,0,0,0,2.12-.65c2.63-1,5.23-2.09,7.86-3.09a5.29,5.29,0,0,1,3.43-.42l-8.11,6.37c-1.33,1.06-2.68,2.11-4,3.2-.86.73-1.39,1.63-.57,2.71s1.8.78,2.79.28c2.54-1.29,4.57-3.29,6.83-5a38.3,38.3,0,0,1,5.5-3.74,2.72,2.72,0,0,1-1.16,2c-2.29,2.23-4.44,4.6-6.91,6.63a5.06,5.06,0,0,0-1.85,2.18,1.8,1.8,0,0,0,.21,1.88,1.35,1.35,0,0,0,1.82.18,17.08,17.08,0,0,0,2.79-1.81,78.67,78.67,0,0,0,8.34-7.36,2,2,0,0,1,1.85-.95c-.63,2.51-2.08,4.56-3.25,6.74.13,1.73-1.56,2.85-1.48,4.55,1.61,1.1,2-.73,2.9-1.24.91-.77,1.42-2,2.63-2.4,2.22-3.22,3.71-7,6.89-9.49,3.76-3,6.3-7.23,10.23-10.14a2.74,2.74,0,0,1,.28,2.08c-.21,6.39-.35,12.78,0,19.15.72,12.43-4.52,22.41-12.56,31.28a60.1,60.1,0,0,1-10.51,8.91c-1.64,1.14-3.28,2.3-5,3.37-3.36,2.14-5.4,4.78-5.75,9.11-.71,8.5-1.81,17-2.37,25.48a61.56,61.56,0,0,0,1.35,16.14c.54,2.74,2.75,4,4.9,5.1a11.5,11.5,0,0,1,4.71,3.94c2.21,3.6,1.06,6.9-3.07,7.86a29.35,29.35,0,0,1-13.91.2c-5.11-1.29-7.67-5.29-9.23-10s-1.64-9.65-1.55-14.54A55.53,55.53,0,0,0,144,180.11c-1.3-3.92-4.13-5-7.53-2.66-6.78,4.67-13.52,9.39-20.31,14a6.54,6.54,0,0,0-2.72,3.64,38.36,38.36,0,0,1-5.33,11c-2.48,3.54-.83,6.91,3.54,7.39a18.92,18.92,0,0,1,6.85,1.74c1.44.75,2.6,1.73,2.63,3.55a4.7,4.7,0,0,1-2.45,4.43,12.84,12.84,0,0,1-5.1,1.45c-6.75.78-13.5.09-20.25-.18-10.31-.42-20.61-1-30.91-1.57a5.73,5.73,0,0,1-2.4-.37c-7.54-3.94-15.78-6.37-23.13-10.76C29,207,21.57,201.82,16.28,194.11c-6.41-9.35-8.08-19.46-4.23-30.25a14.39,14.39,0,0,1,6.4-8c.86-.49,1.88-1.25,2.84-.33s.36,1.84,0,2.7c-5.05,10.73-2.05,20.06,5,28.63,5.54,6.72,12.7,11,20.86,13.88,1.51.52,1.58,0,1.46-1.26-.38-4-.65-8-1-12-1.65-19.68,6.06-35.38,20.46-48.27,5.43-4.87,11.47-8.91,17.38-13.14a12.37,12.37,0,0,1,6.35-4.36l3.08-2.23c.7-1.35,2.08-1.9,3.23-2.7,1.46-1.08,3-2.07,4.4-3.2,1.64-1,2.86-2.63,4.86-3a71.46,71.46,0,0,0,8.24-6.36c1.1-.89,1.6-.82,2.65.16,3.79,3.57,5.51,8.36,7.88,12.76a1.63,1.63,0,0,1,.39.64,25.37,25.37,0,0,1,.17,4.85c-.06,1.68.22,3,2.31,2.87A1.81,1.81,0,0,1,130.36,126.09Z"/></g></svg>