<svg xmlns="http://www.w3.org/2000/svg" viewBox="0 0 100 100"><defs><style>.cls-1{fill:#466e35;stroke:#070707;stroke-miterlimit:10;}</style></defs><title>iconos</title><g id="indice"><path class="cls-1" d="M72.58,36.87c-.1,6-1.3,11.75-4.49,16.85-1.53,2.44-1.25,3.65.94,5.48,7.19,6,14.16,12.23,21.16,18.44,5.76,5.12,6.33,11.68,1.53,16.21s-11.24,3.47-16-2.69c-5.51-7.12-11-14.27-16.27-21.58-2-2.71-3.22-3.83-6.86-2-7.9,4-16.33,3.76-24.75,1.13-3.11-1-3.31-2.31-1.66-4.86A16.64,16.64,0,0,1,40.59,56c13-.2,18.27-8.82,18.78-20.24.2-4.49.19-9.06,2.13-13.26.91-2,2.57-3.77,4.56-3.91,1.76-.12,2.2,2.36,3,3.83A33.14,33.14,0,0,1,72.58,36.87Z"/><path class="cls-1" d="M19.11,63.81C14.35,63.27,9,52.27,11.48,48.19c3.38-5.6,8.64-7.56,14.8-8.09,12-1,17.54-6.87,18.4-18.92.3-4.13.6-8.29,1.29-12.38.52-3.09,2.33-4.52,5.55-2.66,1.79,1,3.77,1.74,5.53,2.81,5.62,3.44,5.65,3.68,1.38,8.71-3,3.51-3.52,7.8-3.94,12.12-.22,2.24-.15,4.5-.34,6.75C53.32,46.57,50,49.87,40,50.7c-7.91.66-14.21,3.91-18.43,10.86C20.06,64,19.94,63.91,19.11,63.81Z"/><path class="cls-1" d="M42.16,4c-3.43,7.23-1.72,14.76-3.6,21.82-1.36,5.12-4.51,8.5-9.63,8.78C20.25,35,12.59,37.14,7.29,45,.26,24.28,19.31,1.82,42.16,4Z"/></g></svg>