<svg xmlns="http://www.w3.org/2000/svg" viewBox="0 0 551 551"><defs><style>.cls-1{fill:#dcecd5;}</style></defs><title>logo</title><g id="Layer_6" data-name="Layer 6"><path class="cls-1" d="M277,14.5A263.08,263.08,0,0,1,379.37,519.84,263.07,263.07,0,0,1,174.63,35.16,261.38,261.38,0,0,1,277,14.5m0-11C125.67,3.5,3,126.17,3,277.5s122.67,274,274,274,274-122.67,274-274S428.33,3.5,277,3.5Z"/><path class="cls-1" d="M358.71,119c4,18.88,3.26,41.16-7.43,62.2-17.19,33.8-51.95,38.55-77.87,10.92-26.26-28-31.05-81.55-10.19-113.8,17.4-26.9,47.26-30.42,70.5-8.32C345.41,81.11,353.75,96.73,358.71,119Z"/><path class="cls-1" d="M229.22,155.86c4.5,20.89,4.79,40.24-4.5,58.69-11.26,22.38-34.44,30.75-57.2,20.29-24-11-37.64-31.06-45.73-55.24-6.05-18.06-7.49-36.57-2.28-55.23,9.3-33.35,40.5-45.51,69.77-27C211.42,111.32,222.88,132.61,229.22,155.86Z"/><path class="cls-1" d="M156.94,289.41c3.8,18.26,4.64,34.12-4.19,48.73-8.94,14.79-22.37,22-39.7,19.94C84.27,354.6,64.68,337.22,49.53,314,39.45,298.59,34.14,281.56,35,262.89c1.57-33.57,29-52.54,60.64-41.06C128.65,233.78,148,258.47,156.94,289.41Z"/><path class="cls-1" d="M482.36,178.94c5.91,36.42.4,69.7-28.93,95.2-21,18.25-47.15,14.5-63.67-7.91-25-33.87-16.07-96.25,17.4-121.86,23.57-18,50.67-13,66.16,12.34A80.86,80.86,0,0,1,482.36,178.94Z"/><path class="cls-1" d="M446.8,355.16a116.43,116.43,0,0,0-19.12-17.55c-21.85-15.82-42.3-33.12-60.21-53.43-10-11.33-21.74-20.74-35.75-27.05-22.56-10.14-45.45-7-60.29-3.86-48,11.08-74.88,34.13-84.89,74.7-5.73,23.18-14.84,44.93-25.78,66.06a165.35,165.35,0,0,0-13.45,33.61c-6.14,23.16,2.11,44.85,22.52,57.37,23.63,14.49,48.61,15.27,74.24,5.8,12.36-4.57,22.47-13,33.25-20.13,22-14.62,45.7-21.23,72.06-17.48,7.45,1.06,14.94,1.81,22.41,2.62,30,3.26,55.38-6.36,75.39-28.85C466.82,404.91,466.36,377.35,446.8,355.16ZM333.58,369.09c-7.37,14.54-17.12,27.42-28,39.54-2.32,2.59-4.25,3.21-7.57,1.88-16.82-6.72-32.89-14.71-47-26.27-9.18-7.52-15-16-17.23-26-2-10.86.3-22,10.95-30.13s22-8.36,33.32-2c3.79,2.13,5.18,1.41,7.46-1.82,8.29-11.74,21.92-16.55,34-12.46,12.82,4.34,21.61,17,21.41,31.13C340.84,352.31,337.73,360.91,333.58,369.09Z"/></g></svg>