<svg xmlns="http://www.w3.org/2000/svg" viewBox="0 0 495.04 496.13"><defs><style>.cls-1{fill:#fff;}</style></defs><title>iconos</title><g id="denunciar"><path class="cls-1" d="M484.48,441.76Q413.37,370.43,342,299.43c-4.28-4.25-4-6.76-1-11.28,20.29-30.61,30-64.48,30.5-108.72-2.51-63.5-32.6-119.32-95-154.19C213.7-9.86,149.42-8.2,87.88,29.26-11,89.46-29.71,227,48.52,311.76c62.34,67.52,161.68,80.12,238.85,30,4.88-3.17,7.26-2.72,11.25,1.33,27.25,27.66,54.83,55,82.3,82.45,20.3,20.29,40.42,40.76,60.93,60.83C456.24,500.5,477,499,488.73,483.64,498.43,470.88,496.91,454.22,484.48,441.76ZM186.38,310.45c-67,.76-123.68-54.42-124.32-121.09C61.38,119.72,115.41,63.7,183.89,63S308.6,116.68,309.31,184.36C310.05,254,255.79,309.66,186.38,310.45Z"/></g></svg>