<svg xmlns="http://www.w3.org/2000/svg" viewBox="0 0 100 100"><defs><style>.cls-1{fill:#466e35;stroke:#070707;stroke-miterlimit:10;}</style></defs><title>iconos</title><g id="indice"><path class="cls-1" d="M98.5,3.39c0-1-.34-1.35-1.37-1.35q-13.71,0-27.44,0c-1.27,0-1.53.49-1.48,1.61a50.35,50.35,0,0,1,0,5.63c-.11,1.55.44,2,1.93,1.91,4.09-.09,8.19,0,12.29,0,0,.67-.41.88-.69,1.16C76,18,70.33,23.68,64.68,29.42c-.94.95-1.52,1-2.65.22C51.28,22.2,39.57,20.38,27.21,24.5,1.12,33.2-7.31,66.37,11.27,86.73A38.4,38.4,0,0,0,70.88,38.52c-.84-1.16-.71-1.75.24-2.69,5.2-5.14,10.32-10.36,15.52-15.5a7.61,7.61,0,0,1,2.65-2.22c0,4.44,0,8.68,0,12.91,0,.95.26,1.26,1.21,1.23q3.27-.09,6.54,0c1.08,0,1.48-.28,1.48-1.42Q98.44,17.11,98.5,3.39ZM39.56,90.07A29.26,29.26,0,1,1,68.91,60.94,29.27,29.27,0,0,1,39.56,90.07Z"/></g></svg>