<svg xmlns="http://www.w3.org/2000/svg" viewBox="0 0 650 650"><defs><style>.cls-1{fill:#d5e0ce;}</style></defs><title>iconos</title><g id="youtube"><path class="cls-1" d="M380.6,314.45c-29.38-17.11-59.05-33.75-88.11-51.39-9.56-5.81-10.18-2.1-10.09,6.15.18,17.56.05,35.12.06,52.68,0,18.91.07,37.82,0,56.73,0,7.44,1.24,9.89,9.06,5.21,29.55-17.71,59.53-34.7,89.26-52.11,3.77-2.21,9.66-5.06,9.94-8.05C391.15,318.6,384.7,316.84,380.6,314.45Z"/><path class="cls-1" d="M643,306.94c-2.87-5.53-1-11.45-1.28-17.17-.73-14.79-.59-29.81-4.42-44.1-24.8-92.55-79.24-162-162.7-208.4C440.84,18.52,404.37,8.87,365.86,7H285.14c-16.1,3.2-32.8,1.54-48.75,6.23C171.33,32.35,117.08,68.17,75.05,121.42,42.47,162.69,18,208.27,11,261.64c-1.74,13.26-.48,26.71-3,39.89v43.24c2.82,5.06.95,10.53,1.3,15.8,1.31,19.69,2.25,39.3,8.59,58.37C41.21,489,81.74,546.59,142.28,588.67c37.47,26,78.5,44.91,124.6,50.33,15.91,1.86,32,.38,47.86,3h21.52c5-2.83,10.49-1,15.73-1.29,21.4-1,42.77-1.52,63.61-7.7,67.48-20,122.95-58,165.14-114.22,33-44,56.45-92.51,60.4-148.86.65-9.27-1.56-18.79,1.86-27.87ZM532.46,351.48a452.75,452.75,0,0,1-6.09,61.42c-6.87,38.93-25,47.83-57.64,50.35-60.63,4.69-121.51,8.2-182.28,5.3-39.16-1.87-78.64-.15-117.51-7.46-26.23-4.93-41.94-21.16-45.18-47.8-2-16-5.19-32-5-48,.42-42.58-3.44-85.23,4.45-127.74,7-38,25-52.09,58.74-54.62,48.12-3.59,96.33-6.51,147.93-5.51,34.81-2.67,72.66,3.56,110.75,2.89,15-.26,30.16,2.76,45,5.45,23.56,4.25,38.3,24.51,41.8,52.86A701.76,701.76,0,0,1,532.46,351.48Z"/></g></svg>